<?xml version="1.0" encoding="UTF-8" standalone="yes" ?>
<svg xmlns="http://www.w3.org/2000/svg" height="452" width="452">
  <script type="text/ecmascript">
    <![CDATA[
      var shown = 1;
      function click() {
        var seq = document.getElementById("seq");
        if (shown==1) {
          seq.setAttribute("style", "visibility: hidden");
          shown = 0;
        } else {
          seq.setAttribute("style", "visibility: visible");
          shown = 1;
        }
      }
    ]]>
  </script>
  <style type="text/css">
    <![CDATA[
      .nucleotide {
        font-family: SansSerif;
      }
      .backbone {
        stroke: grey;
        fill:   none;
        stroke-width: 1.5;
      }
      .basepairs {
        stroke: red;
        fill:   none;
        stroke-width: 2.5;
      }
    ]]>
  </style>

  <rect style="stroke: white; fill: white" height="452" x="0" y="0" width="452" onclick="click(evt)" />
  <g transform="scale(0.485276,0.485276) translate(390.866943,360.793365)">
    <polyline class="backbone" id="outline" points="
      168.687,-98.641
      127.678,-83.881
      94.083,-61.930
      106.856,-70.459
      113.639,-84.239
      112.607,-99.563
      104.038,-112.310
      90.237,-119.049
      74.916,-117.970
      62.197,-109.361
      55.501,-95.538
      56.628,-80.221
      65.277,-67.529
      79.120,-60.876
      71.784,-59.319
      68.671,-73.993
      65.558,-88.666
      55.526,-99.818
      50.885,-85.554
      53.997,-70.880
      57.110,-56.207
      49.773,-54.650
      44.662,-68.753
      39.552,-82.855
      34.616,-97.020
      29.887,-111.255
      38.285,-117.167
      45.067,-124.862
      49.865,-133.914
      52.420,-143.821
      52.598,-154.039
      50.395,-164.006
      45.937,-173.173
      39.475,-181.042
      31.369,-187.181
      22.068,-191.260
      12.085,-193.058
      1.970,-192.483
      -3.082,-206.607
      0.385,-222.635
      -11.942,-233.450
      -27.383,-227.927
      -30.053,-211.746
      -17.206,-201.554
      -12.153,-187.431
      -26.716,-174.036
      -33.805,-155.509
      -31.893,-135.716
      -21.337,-118.805
      -4.311,-108.342
      15.642,-106.555
      14.766,-99.305
      20.391,-92.261
      6.836,-98.683
      -7.304,-93.675
      -13.795,-80.152
      -8.859,-65.987
      4.630,-59.427
      18.820,-64.290
      25.449,-77.745
      30.560,-63.642
      35.671,-49.540
      27.552,-49.730
      19.303,-49.512
      10.944,-48.875
      1.819,-60.780
      7.004,-76.544
      -4.684,-93.692
      3.750,-106.287
      7.366,-121.008
      5.725,-136.077
      -0.974,-149.675
      -11.922,-160.160
      -25.796,-166.265
      -40.922,-167.253
      -55.473,-163.006
      -67.692,-154.035
      -76.104,-141.425
      -79.692,-126.697
      -78.023,-111.631
      -71.299,-98.045
      -60.332,-87.581
      -46.447,-81.501
      -31.319,-80.541
      -16.775,-84.815
      -28.489,-75.445
      -39.805,-65.599
      -26.222,-50.857
      -10.199,-51.804
      -25.084,-53.655
      -36.942,-44.468
      -38.869,-29.592
      -29.744,-17.688
      -14.878,-15.684
      -2.927,-24.749
      -0.847,-39.603
      -6.296,-34.450
      -17.195,-24.144
      -22.644,-18.991
      -33.899,-28.907
      -38.618,-44.612
      -54.639,-48.114
      -65.481,-35.810
      -59.990,-20.357
      -43.815,-17.653
      -32.561,-7.736
      -37.136,-1.793
      -46.286,10.093
      -50.861,16.036
      -51.430,6.833
      -56.040,-0.994
      -63.583,-5.807
      -72.353,-6.665
      -80.431,-3.503
      -85.832,-10.720
      -93.068,-11.698
      -105.670,-19.834
      -111.101,-27.029
      -118.341,-27.977
      -123.801,-35.150
      -131.046,-36.068
      -139.077,-23.399
      -126.425,-15.342
      -113.806,-7.232
      -101.204,0.904
      -88.619,9.066
      -80.703,28.189
      -59.204,28.502
      -66.758,41.461
      -80.132,34.670
      -93.479,27.825
      -109.614,17.086
      -118.460,34.332
      -100.325,41.171
      -86.978,48.017
      -84.714,52.101
      -79.916,54.865
      -73.493,54.864
      -76.254,68.025
      -78.023,81.293
      -78.800,94.593
      -78.589,107.852
      -77.401,120.996
      -75.251,133.953
      -72.161,146.655
      -68.157,159.033
      -63.269,171.022
      -57.533,182.559
      -50.989,193.585
      -43.681,204.044
      -35.656,213.883
      -26.967,223.055
      -17.667,231.514
      -27.607,242.748
      -37.547,253.982
      -67.201,224.400
      -123.625,228.270
      -127.582,242.739
      -129.305,250.038
      -143.671,254.353
      -132.751,264.637
      -134.474,271.936
      -149.185,269.006
      -163.896,266.076
      -178.249,257.052
      -190.893,268.346
      -183.541,283.623
      -166.826,280.787
      -152.115,283.717
      -137.404,286.647
      -137.218,294.145
      -150.018,301.965
      -136.845,309.140
      -136.659,316.638
      -147.093,291.833
      -185.356,285.673
      -200.356,285.642
      -215.330,284.773
      -223.533,281.035
      -230.351,283.652
      -254.429,289.424
      -231.436,298.612
      -216.478,299.729
      -217.378,314.702
      -218.029,329.688
      -218.402,344.683
      -230.653,334.325
      -246.361,337.587
      -253.476,351.966
      -246.540,366.432
      -230.874,369.888
      -218.495,359.683
      -200.945,300.630
      -200.573,315.626
      -200.200,330.621
      -215.161,331.706
      -214.323,346.683
      -225.705,356.453
      -229.201,371.040
      -223.486,384.908
      -210.727,392.796
      -195.766,391.710
      -184.281,382.062
      -180.629,367.513
      -186.196,353.584
      -198.867,345.561
      -197.071,360.453
      -219.270,371.419
      -194.813,375.283
      -175.673,348.748
      -173.152,321.330
      -184.828,300.663
      -183.135,307.970
      -197.748,311.355
      -212.361,314.741
      -226.974,318.126
      -241.587,321.511
      -256.200,324.897
      -270.813,328.282
      -285.426,331.667
      -300.039,335.053
      -314.652,338.438
      -311.266,353.051
      -296.654,349.666
      -282.041,346.280
      -267.428,342.895
      -252.815,339.510
      -238.202,336.124
      -223.589,332.739
      -208.976,329.354
      -194.363,325.968
      -179.750,322.583
      -178.057,329.889
      -191.753,336.007
      -205.448,342.125
      -219.144,348.244
      -232.524,340.385
      -247.965,341.926
      -259.528,352.273
      -262.768,367.448
      -256.439,381.616
      -242.975,389.328
      -227.552,387.620
      -216.101,377.148
      -213.026,361.939
      -199.330,355.821
      -185.635,349.703
      -171.939,343.585
      -168.324,350.156
      -181.467,357.386
      -194.610,364.616
      -207.753,371.845
      -215.520,384.677
      -200.523,384.988
      -187.380,377.758
      -174.238,370.529
      -161.095,363.299
      -157.480,369.871
      -169.980,378.162
      -187.239,386.981
      -176.525,403.133
      -161.688,390.662
      -149.188,382.371
      -127.263,355.465
      -133.002,331.185
      -128.960,337.503
      -141.596,345.587
      -154.231,353.670
      -168.746,357.453
      -169.634,372.427
      -155.667,377.898
      -146.148,366.306
      -133.512,358.222
      -120.877,350.139
      -116.835,356.457
      -123.285,352.090
      -130.491,348.710
      -138.300,346.448
      -146.537,345.408
      -155.005,345.667
      -163.499,347.273
      -171.800,350.236
      -179.692,354.535
      -186.956,360.111
      -193.385,366.870
      -198.785,374.686
      -202.984,383.399
      -205.831,392.821
      -207.209,402.740
      -207.031,412.925
      -216.854,424.261
      -231.202,437.291
      -216.634,450.074
      -205.579,434.154
      -202.220,433.533
      -198.974,431.321
      -196.558,427.580
      -195.634,422.677
      -189.691,427.252
      -191.673,442.121
      -177.805,436.402
      -171.862,440.977
      -180.411,453.303
      -187.793,458.476
      -188.995,465.679
      -201.739,480.281
      -185.790,491.294
      -176.651,474.202
      -168.103,461.876
      -161.778,458.227
      -159.519,449.500
      -146.951,457.688
      -152.903,481.722
      -134.167,465.534
      -112.313,455.915
      -96.154,439.743
      -87.379,419.738
      -86.522,398.927
      -92.973,380.192
      -105.160,365.875
      -98.120,368.459
      -103.289,382.540
      -108.458,396.622
      -113.627,410.703
      -122.895,422.497
      -114.541,434.956
      -100.111,430.861
      -99.546,415.872
      -94.377,401.791
      -89.208,387.710
      -84.038,373.628
      -76.998,376.213
      -86.947,391.772
      -77.818,406.818
      -251.164,422.146
      -265.529,428.736
      -270.948,443.583
      -264.206,457.877
      -249.303,463.138
      -235.081,456.246
      -229.977,441.289
      -237.020,427.140
      -229.824,429.253
      -234.049,443.645
      -230.513,458.223
      -219.657,447.871
      -215.431,433.479
      -208.235,435.592
      -211.681,450.191
      -223.311,461.752
      -218.853,477.534
      -202.893,481.301
      -191.848,469.178
      -197.082,453.637
      -193.636,439.038
      -186.167,439.720
      -187.531,454.658
      -188.895,469.596
      -190.259,484.533
      -191.623,499.471
      -192.987,514.409
      -186.700,528.028
      -178.049,515.773
      -176.685,500.835
      -175.321,485.897
      -173.957,470.960
      -172.593,456.022
      -171.229,441.084
      -163.760,441.766
      -163.388,456.761
      -163.388,471.761
      -163.388,486.761
      -177.445,492.546
      -188.215,503.274
      -194.055,517.308
      -194.075,532.509
      -188.272,546.558
      -177.530,557.314
      -163.488,563.136
      -148.287,563.136
      -134.245,557.314
      -123.504,546.558
      -117.701,532.509
      -117.721,517.308
      -123.561,503.274
      -134.331,492.546
      -148.388,486.761
      -148.388,471.761
      -148.388,456.761
      -140.905,456.249
      -125.940,455.226
      -118.458,454.714
      -124.244,469.439
      -114.846,480.994
      -118.679,497.509
      -103.871,505.765
      -91.839,493.820
      -99.985,478.952
      -94.053,465.290
      -103.598,452.672
      -127.193,436.428
      -148.779,441.021
      -141.347,440.015
      -119.050,436.998
      -121.504,453.773
      -106.064,460.776
      -95.061,447.877
      -104.409,433.733
      -89.877,430.016
      -75.345,426.299
      -83.195,440.016
      -78.966,455.244
      -65.167,462.949
      -49.985,458.559
      -42.426,444.679
      -46.976,429.544
      -60.935,422.133
      -62.824,407.252
      -54.282,398.791
      -53.731,386.381
      -62.002,376.585
      -38.300,368.244
      -19.539,354.231
      -6.863,336.598
      -0.686,317.548
      -0.698,299.196
      -5.964,283.352
      -15.069,271.346
      -26.313,263.921
      -16.373,252.687
      -6.433,241.453
      6.206,261.314
      22.218,279.961
      41.483,296.856
      63.797,311.471
      88.875,323.304
      116.354,331.890
      145.799,336.815
      176.708,337.723
      208.520,334.331
      240.631,326.432
      272.395,313.908
      280.348,326.626
      282.207,335.447
      288.359,339.381
      296.364,352.066
      304.788,369.522
      321.179,359.178
      309.050,344.062
      301.045,331.376
      293.066,318.674
      285.114,305.956
      291.000,301.307
      300.296,313.079
      309.593,324.850
      318.890,336.622
      330.661,327.325
      321.365,315.554
      312.068,303.782
      302.771,292.010
      308.657,287.362
      293.802,285.281
      280.546,292.301
      273.919,305.758
      276.436,320.545
      287.141,331.052
      301.973,333.292
      315.303,326.414
      322.074,313.029
      319.716,298.217
      330.594,308.546
      312.993,322.292
      310.530,351.278
      332.483,362.728
      321.169,340.704
      326.345,335.276
      336.696,324.420
      341.872,318.992
      353.002,329.047
      365.823,343.582
      378.816,329.201
      363.058,317.917
      351.927,307.861
      340.922,297.669
      330.045,287.340
      319.340,276.833
      324.109,271.044
      335.686,280.583
      347.263,290.121
      358.839,299.659
      368.377,288.082
      356.801,278.544
      345.224,269.006
      333.648,259.467
      338.417,253.679
      350.917,261.971
      363.417,270.262
      378.254,282.733
      388.967,266.582
      371.708,257.762
      359.208,249.471
      346.708,241.179
      350.159,234.520
      363.477,241.421
      376.796,248.322
      390.114,255.223
      403.432,262.124
      416.750,269.025
      430.069,275.926
      443.387,282.827
      450.288,269.508
      436.970,262.608
      423.651,255.707
      410.333,248.806
      397.015,241.905
      383.696,235.004
      370.378,228.103
      357.060,221.202
      360.510,214.543
      370.573,226.751
      385.238,224.146
      387.696,227.407
      390.732,229.563
      393.951,230.567
      396.978,230.499
      399.497,229.549
      404.696,215.479
      390.669,210.164
      381.606,198.344
      365.941,200.560
      367.964,193.338
      382.408,197.385
      396.852,201.432
      411.296,205.479
      425.739,209.526
      440.183,213.573
      454.715,209.856
      444.230,199.129
      429.786,195.082
      415.343,191.035
      400.899,186.988
      386.455,182.941
      372.011,178.895
      374.035,171.673
      381.678,185.315
      396.320,190.805
      411.048,185.550
      418.908,172.031
      416.188,156.632
      404.173,146.623
      388.536,146.731
      376.660,156.904
      377.404,149.441
      392.330,150.929
      407.256,152.416
      422.182,153.904
      437.108,155.392
      450.778,149.217
      438.596,140.466
      423.670,138.978
      408.743,137.490
      393.817,136.003
      378.891,134.515
      379.635,127.052
      393.358,136.030
      407.871,128.395
      408.245,112.000
      394.094,103.711
      379.977,112.056
      379.728,104.560
      394.720,104.063
      409.712,103.567
      409.215,88.575
      394.224,89.072
      379.232,89.568
      378.983,82.072
      393.924,80.739
      407.104,89.886
      422.431,85.146
      428.147,70.156
      419.868,56.414
      403.944,54.463
      392.591,65.799
      377.650,67.132
      376.155,59.782
      390.854,56.791
      405.552,53.800
      420.251,50.809
      434.950,47.818
      449.649,44.827
      464.347,41.836
      461.356,27.137
      446.658,30.128
      431.959,33.119
      417.260,36.110
      402.561,39.102
      387.863,42.093
      373.164,45.084
      371.668,37.734
      378.016,38.715
      383.180,36.716
      386.041,33.025
      400.285,28.325
      414.559,23.713
      428.851,19.161
      447.865,15.403
      441.983,-3.064
      424.299,4.868
      410.006,9.421
      405.521,8.120
      400.170,9.542
      395.615,14.070
      388.367,13.179
      381.311,18.790
      367.057,23.461
      364.312,16.481
      378.272,10.992
      372.783,-2.968
      358.824,2.521
      356.080,-4.459
      372.990,-5.679
      376.499,-22.266
      361.532,-30.229
      349.736,-18.051
      345.892,-24.492
      358.773,-32.179
      371.653,-39.866
      384.533,-47.554
      397.414,-55.241
      389.726,-68.122
      376.846,-60.434
      363.966,-52.747
      351.085,-45.059
      338.205,-37.372
      334.361,-43.812
      346.397,-52.764
      358.433,-61.716
      370.469,-70.668
      379.111,-73.232
      382.536,-79.682
      395.819,-72.233
      410.984,-70.838
      425.403,-75.738
      436.579,-86.083
      442.574,-100.082
      442.351,-115.310
      435.947,-129.127
      424.473,-139.140
      409.916,-143.614
      394.799,-141.775
      381.740,-133.939
      373.002,-121.467
      370.099,-106.517
      373.535,-91.680
      361.517,-82.704
      349.481,-73.752
      337.445,-64.800
      325.409,-55.848
      320.279,-61.319
      331.220,-71.580
      342.161,-81.841
      331.900,-92.782
      320.959,-82.521
      310.018,-72.260
      304.887,-77.731
      314.757,-89.026
      324.789,-100.178
      334.822,-111.329
      344.854,-122.480
      359.363,-135.331
      344.954,-148.294
      333.703,-132.513
      323.671,-121.361
      313.638,-110.210
      303.606,-99.059
      303.783,-114.058
      294.305,-125.684
      279.577,-128.531
      266.448,-121.277
      261.021,-107.293
      265.819,-93.081
      278.612,-85.248
      293.450,-87.436
      280.352,-94.747
      285.082,-108.982
      291.706,-122.440
      305.520,-132.268
      299.900,-148.264
      282.974,-147.291
      279.223,-130.757
      272.453,-133.986
      252.144,-143.670
      256.667,-157.972
      262.271,-171.886
      277.201,-169.520
      292.164,-171.662
      305.831,-178.120
      316.985,-188.321
      324.636,-201.358
      328.103,-216.071
      327.077,-231.152
      321.650,-245.260
      312.305,-257.141
      299.871,-265.738
      285.456,-270.287
      270.340,-270.382
      255.869,-266.017
      243.327,-257.578
      233.832,-245.817
      228.227,-231.779
      227.010,-216.712
      230.290,-201.956
      237.775,-188.824
      248.799,-178.482
      241.701,-180.905
      246.549,-195.101
      243.649,-209.818
      232.354,-199.948
      227.506,-185.753
      220.409,-188.176
      223.491,-202.856
      241.381,-209.994
      251.153,-226.414
      248.932,-245.239
      235.818,-258.715
      246.243,-266.177
      248.759,-278.342
      242.559,-288.643
      254.626,-294.466
      261.074,-305.989
      259.765,-318.934
      251.393,-328.639
      249.106,-353.293
      236.739,-331.843
      222.179,-323.321
      218.265,-306.562
      227.919,-291.907
      215.372,-279.567
      221.191,-262.040
      210.481,-259.719
      201.338,-253.587
      195.070,-244.475
      192.590,-233.645
      194.284,-222.612
      199.950,-212.937
      208.824,-205.999
      205.468,-202.751
      204.047,-197.401
      205.716,-191.198
      242.384,-162.554
      238.723,-159.655
      236.778,-154.471
      237.824,-148.134
      270.877,-113.800
      268.012,-111.939
      265.862,-108.652
      265.062,-104.271
      266.089,-99.388
    " />
    <g id="pairs">
      <line class="basepairs" id="3,14" x1="94.08324" y1="-61.93027" x2="79.12035" y2="-60.87567" />
      <line class="basepairs" id="22,62" x1="49.77335" y1="-54.65045" x2="35.67089" y2="-49.53961" />
      <line class="basepairs" id="23,61" x1="44.66250" y1="-68.75293" x2="30.56004" y2="-63.64206" />
      <line class="basepairs" id="24,60" x1="39.55165" y1="-82.85538" x2="25.44919" y2="-77.74454" />
      <line class="basepairs" id="25,53" x1="34.61630" y1="-97.02020" x2="20.39128" y2="-92.26114" />
      <line class="basepairs" id="26,51" x1="29.88667" y1="-111.25504" x2="15.64208" y2="-106.55487" />
      <line class="basepairs" id="38,45" x1="1.97001" y1="-192.48334" x2="-12.15348" y2="-187.43091" />
      <line class="basepairs" id="39,44" x1="-3.08242" y1="-206.60684" x2="-17.20591" y2="-201.55438" />
      <line class="basepairs" id="65,96" x1="10.94390" y1="-48.87537" x2="-0.84689" y2="-39.60298" />
      <line class="basepairs" id="66,89" x1="1.81864" y1="-60.78040" x2="-10.19877" y2="-51.80365" />
      <line class="basepairs" id="68,85" x1="-4.68419" y1="-93.69202" x2="-16.77550" y2="-84.81506" />
      <line class="basepairs" id="86,87" x1="-28.48913" y1="-75.44540" x2="-39.80502" y2="-65.59906" />
      <line class="basepairs" id="99,106" x1="-22.64442" y1="-18.99065" x2="-32.56083" y2="-7.73611" />
      <line class="basepairs" id="100,105" x1="-33.89896" y1="-28.90707" x2="-43.81537" y2="-17.65253" />
      <line class="basepairs" id="109,128" x1="-50.86060" y1="16.03612" x2="-59.20383" y2="28.50168" />
      <line class="basepairs" id="114,126" x1="-80.43116" y1="-3.50261" x2="-88.61896" y2="9.06560" />
      <line class="basepairs" id="116,125" x1="-93.06838" y1="-11.69817" x2="-101.20409" y2="0.90382" />
      <line class="basepairs" id="117,124" x1="-105.67037" y1="-19.83388" x2="-113.80608" y2="-7.23189" />
      <line class="basepairs" id="119,123" x1="-118.34141" y1="-27.97707" x2="-126.42488" y2="-15.34151" />
      <line class="basepairs" id="121,122" x1="-131.04604" y1="-36.06772" x2="-139.07715" y2="-23.39882" />
      <line class="basepairs" id="129,138" x1="-66.75753" y1="41.46091" x2="-73.49260" y2="54.86385" />
      <line class="basepairs" id="130,135" x1="-80.13248" y1="34.67043" x2="-86.97827" y2="48.01715" />
      <line class="basepairs" id="131,134" x1="-93.47921" y1="27.82463" x2="-100.32500" y2="41.17136" />
      <line class="basepairs" id="153,431" x1="-17.66734" y1="231.51367" x2="-6.43335" y2="241.45335" />
      <line class="basepairs" id="154,430" x1="-27.60703" y1="242.74765" x2="-16.37304" y2="252.68735" />
      <line class="basepairs" id="155,429" x1="-37.54671" y1="253.98166" x2="-26.31272" y2="263.92133" />
      <line class="basepairs" id="157,158" x1="-123.62486" y1="228.26997" x2="-127.58205" y2="242.73857" />
      <line class="basepairs" id="162,170" x1="-134.47368" y1="271.93628" x2="-137.40384" y2="286.64728" />
      <line class="basepairs" id="163,169" x1="-149.18469" y1="269.00610" x2="-152.11485" y2="283.71713" />
      <line class="basepairs" id="164,168" x1="-163.89572" y1="266.07596" x2="-166.82588" y2="280.78699" />
      <line class="basepairs" id="174,265" x1="-136.65887" y1="316.63806" x2="-133.00194" y2="331.18542" />
      <line class="basepairs" id="176,212" x1="-185.35555" y1="285.67267" x2="-184.82793" y2="300.66339" />
      <line class="basepairs" id="177,193" x1="-200.35551" y1="285.64163" x2="-200.94519" y2="300.63004" />
      <line class="basepairs" id="178,183" x1="-215.33034" y1="284.77289" x2="-216.47783" y2="299.72894" />
      <line class="basepairs" id="180,182" x1="-230.35065" y1="283.65176" x2="-231.43620" y2="298.61243" />
      <line class="basepairs" id="184,185" x1="-217.37755" y1="314.70193" x2="-218.02925" y2="329.68777" />
      <line class="basepairs" id="186,192" x1="-218.40173" y1="344.68317" x2="-218.49486" y2="359.68286" />
      <line class="basepairs" id="195,206" x1="-200.20023" y1="330.62079" x2="-198.86711" y2="345.56143" />
      <line class="basepairs" id="196,197" x1="-215.16089" y1="331.70636" x2="-214.32315" y2="346.68295" />
      <line class="basepairs" id="207,209" x1="-197.07092" y1="360.45349" x2="-194.81337" y2="375.28265" />
      <line class="basepairs" id="233,248" x1="-178.05721" y1="329.88937" x2="-171.93915" y2="343.58496" />
      <line class="basepairs" id="234,247" x1="-191.75281" y1="336.00745" x2="-185.63474" y2="349.70300" />
      <line class="basepairs" id="235,246" x1="-205.44839" y1="342.12549" x2="-199.33034" y2="355.82111" />
      <line class="basepairs" id="236,245" x1="-219.14400" y1="348.24353" x2="-213.02594" y2="361.93915" />
      <line class="basepairs" id="258,263" x1="-157.48001" y1="369.87057" x2="-149.18845" y2="382.37057" />
      <line class="basepairs" id="259,262" x1="-169.98001" y1="378.16214" x2="-161.68845" y2="390.66214" />
      <line class="basepairs" id="275,320" x1="-116.83498" y1="356.45654" x2="-105.16022" y2="365.87463" />
      <line class="basepairs" id="290,298" x1="-207.03145" y1="412.92468" x2="-195.63445" y2="422.67700" />
      <line class="basepairs" id="291,294" x1="-216.85437" y1="424.26093" x2="-205.57933" y2="434.15402" />
      <line class="basepairs" id="302,311" x1="-171.86221" y1="440.97678" x2="-159.51881" y2="449.49969" />
      <line class="basepairs" id="303,309" x1="-180.41068" y1="453.30252" x2="-168.10266" y2="461.87646" />
      <line class="basepairs" id="305,308" x1="-188.99452" y1="465.67926" x2="-176.65112" y2="474.20221" />
      <line class="basepairs" id="312,314" x1="-146.95061" y1="457.68750" x2="-134.16669" y2="465.53424" />
      <line class="basepairs" id="332,421" x1="-76.99787" y1="376.21301" x2="-62.00249" y2="376.58548" />
      <line class="basepairs" id="334,418" x1="-77.81767" y1="406.81763" x2="-62.82396" y2="407.25220" />
      <line class="basepairs" id="335,342" x1="-251.16399" y1="422.14612" x2="-237.01970" y2="427.14008" />
      <line class="basepairs" id="348,355" x1="-208.23491" y1="435.59204" x2="-193.63606" y2="439.03784" />
      <line class="basepairs" id="349,354" x1="-211.68073" y1="450.19092" x2="-197.08188" y2="453.63672" />
      <line class="basepairs" id="369,402" x1="-163.76036" y1="441.76590" x2="-148.77885" y2="441.02118" />
      <line class="basepairs" id="370,389" x1="-163.38788" y1="456.76129" x2="-148.38788" y2="456.76129" />
      <line class="basepairs" id="371,388" x1="-163.38788" y1="471.76129" x2="-148.38788" y2="471.76129" />
      <line class="basepairs" id="372,387" x1="-163.38788" y1="486.76129" x2="-148.38788" y2="486.76129" />
      <line class="basepairs" id="392,400" x1="-118.45781" y1="454.71399" x2="-103.59752" y2="452.67151" />
      <line class="basepairs" id="394,398" x1="-114.84566" y1="480.99438" x2="-99.98537" y2="478.95187" />
      <line class="basepairs" id="404,408" x1="-119.04989" y1="436.99768" x2="-104.40938" y2="433.73340" />
      <line class="basepairs" id="410,417" x1="-75.34510" y1="426.29919" x2="-60.93534" y2="422.13281" />
      <line class="basepairs" id="442,452" x1="272.39529" y1="313.90784" x2="285.11380" y2="305.95554" />
      <line class="basepairs" id="443,451" x1="280.34760" y1="326.62637" x2="293.06610" y2="318.67407" />
      <line class="basepairs" id="445,450" x1="288.35922" y1="339.38098" x2="301.04471" y2="331.37610" />
      <line class="basepairs" id="446,449" x1="296.36407" y1="352.06647" x2="309.04959" y2="344.06161" />
      <line class="basepairs" id="461,486" x1="308.65698" y1="287.36200" x2="319.34012" y2="276.83252" />
      <line class="basepairs" id="470,485" x1="319.71634" y1="298.21729" x2="330.04504" y2="287.33987" />
      <line class="basepairs" id="471,484" x1="330.59375" y1="308.54596" x2="340.92245" y2="297.66858" />
      <line class="basepairs" id="473,475" x1="310.53003" y1="351.27759" x2="321.16949" y2="340.70398" />
      <line class="basepairs" id="478,483" x1="341.87189" y1="318.99194" x2="351.92728" y2="307.86139" />
      <line class="basepairs" id="479,482" x1="353.00241" y1="329.04733" x2="363.05780" y2="317.91681" />
      <line class="basepairs" id="495,502" x1="338.41687" y1="253.67917" x2="346.70844" y2="241.17917" />
      <line class="basepairs" id="496,501" x1="350.91687" y1="261.97073" x2="359.20844" y2="249.47073" />
      <line class="basepairs" id="497,500" x1="363.41687" y1="270.26230" x2="371.70844" y2="257.76230" />
      <line class="basepairs" id="519,530" x1="360.51041" y1="214.54260" x2="365.94095" y2="200.56015" />
      <line class="basepairs" id="521,528" x1="385.23831" y1="224.14650" x2="390.66885" y2="210.16405" />
      <line class="basepairs" id="526,527" x1="399.49750" y1="229.54910" x2="404.69580" y2="215.47865" />
      <line class="basepairs" id="544,552" x1="374.03485" y1="171.67264" x2="376.65994" y2="156.90411" />
      <line class="basepairs" id="564,569" x1="379.63522" y1="127.05202" x2="379.97665" y2="112.05591" />
      <line class="basepairs" id="576,584" x1="378.98346" y1="82.07236" x2="377.65033" y2="67.13171" />
      <line class="basepairs" id="577,583" x1="393.92410" y1="80.73924" x2="392.59097" y2="65.79860" />
      <line class="basepairs" id="599,615" x1="371.66830" y1="37.73418" x2="367.05667" y2="23.46068" />
      <line class="basepairs" id="602,614" x1="386.04059" y1="33.02484" x2="381.31094" y2="18.79001" />
      <line class="basepairs" id="603,612" x1="400.28519" y1="28.32468" x2="395.61450" y2="14.07039" />
      <line class="basepairs" id="604,609" x1="414.55869" y1="23.71306" x2="410.00616" y2="9.42058" />
      <line class="basepairs" id="605,608" x1="428.85117" y1="19.16054" x2="424.29865" y2="4.86807" />
      <line class="basepairs" id="620,624" x1="356.07993" y1="-4.45906" x2="349.73596" y2="-18.05148" />
      <line class="basepairs" id="635,658" x1="334.36118" y1="-43.81223" x2="325.40933" y2="-55.84818" />
      <line class="basepairs" id="636,657" x1="346.39713" y1="-52.76407" x2="337.44528" y2="-64.80002" />
      <line class="basepairs" id="637,656" x1="358.43311" y1="-61.71591" x2="349.48126" y2="-73.75189" />
      <line class="basepairs" id="638,655" x1="370.46906" y1="-70.66776" x2="361.51721" y2="-82.70374" />
      <line class="basepairs" id="640,654" x1="382.53622" y1="-79.68164" x2="373.53464" y2="-91.68045" />
      <line class="basepairs" id="665,683" x1="304.88739" y1="-77.73083" x2="293.45010" y2="-87.43591" />
      <line class="basepairs" id="666,675" x1="314.75714" y1="-89.02634" x2="303.60580" y2="-99.05869" />
      <line class="basepairs" id="667,674" x1="324.78949" y1="-100.17764" x2="313.63815" y2="-110.20999" />
      <line class="basepairs" id="668,673" x1="334.82184" y1="-111.32898" x2="323.67050" y2="-121.36133" />
      <line class="basepairs" id="669,672" x1="344.85419" y1="-122.48032" x2="333.70285" y2="-132.51266" />
      <line class="basepairs" id="684,758" x1="280.35245" y1="-94.74695" x2="266.08853" y2="-99.38812" />
      <line class="basepairs" id="685,754" x1="285.08206" y1="-108.98178" x2="270.87689" y2="-113.79971" />
      <line class="basepairs" id="686,690" x1="291.70596" y1="-122.44003" x2="279.22314" y2="-130.75745" />
      <line class="basepairs" id="692,753" x1="252.14426" y1="-143.66998" x2="237.82379" y2="-148.13367" />
      <line class="basepairs" id="693,750" x1="256.66718" y1="-157.97183" x2="242.38416" y2="-162.55392" />
      <line class="basepairs" id="694,714" x1="262.27094" y1="-171.88577" x2="248.79901" y2="-178.48181" />
      <line class="basepairs" id="720,749" x1="220.40862" y1="-188.17642" x2="205.71606" y2="-191.19785" />
      <line class="basepairs" id="721,746" x1="223.49084" y1="-202.85632" x2="208.82381" y2="-205.99930" />
      <line class="basepairs" id="725,739" x1="235.81758" y1="-258.71475" x2="221.19070" y2="-262.03958" />
      <line class="basepairs" id="728,737" x1="242.55927" y1="-288.64252" x2="227.91876" y2="-291.90677" />
      <line class="basepairs" id="732,734" x1="251.39302" y1="-328.63901" x2="236.73912" y2="-331.84268" />
    </g>
    <g transform="translate(-4.6, 4)" id="seq">
      <text class="nucleotide" x="168.687" y="-98.641">G</text>
      <text class="nucleotide" x="127.678" y="-83.881">G</text>
      <text class="nucleotide" x="94.083" y="-61.930">C</text>
      <text class="nucleotide" x="106.856" y="-70.459">G</text>
      <text class="nucleotide" x="113.639" y="-84.239">C</text>
      <text class="nucleotide" x="112.607" y="-99.563">C</text>
      <text class="nucleotide" x="104.038" y="-112.310">G</text>
      <text class="nucleotide" x="90.237" y="-119.049">G</text>
      <text class="nucleotide" x="74.916" y="-117.970">G</text>
      <text class="nucleotide" x="62.197" y="-109.361">C</text>
      <text class="nucleotide" x="55.501" y="-95.538">G</text>
      <text class="nucleotide" x="56.628" y="-80.221">G</text>
      <text class="nucleotide" x="65.277" y="-67.529">A</text>
      <text class="nucleotide" x="79.120" y="-60.876">G</text>
      <text class="nucleotide" x="71.784" y="-59.319">G</text>
      <text class="nucleotide" x="68.671" y="-73.993">G</text>
      <text class="nucleotide" x="65.558" y="-88.666">G</text>
      <text class="nucleotide" x="55.526" y="-99.818">G</text>
      <text class="nucleotide" x="50.885" y="-85.554">A</text>
      <text class="nucleotide" x="53.997" y="-70.880">G</text>
      <text class="nucleotide" x="57.110" y="-56.207">A</text>
      <text class="nucleotide" x="49.773" y="-54.650">G</text>
      <text class="nucleotide" x="44.662" y="-68.753">C</text>
      <text class="nucleotide" x="39.552" y="-82.855">G</text>
      <text class="nucleotide" x="34.616" y="-97.020">C</text>
      <text class="nucleotide" x="29.887" y="-111.255">G</text>
      <text class="nucleotide" x="38.285" y="-117.167">G</text>
      <text class="nucleotide" x="45.067" y="-124.862">G</text>
      <text class="nucleotide" x="49.865" y="-133.914">C</text>
      <text class="nucleotide" x="52.420" y="-143.821">C</text>
      <text class="nucleotide" x="52.598" y="-154.039">G</text>
      <text class="nucleotide" x="50.395" y="-164.006">C</text>
      <text class="nucleotide" x="45.937" y="-173.173">G</text>
      <text class="nucleotide" x="39.475" y="-181.042">C</text>
      <text class="nucleotide" x="31.369" y="-187.181">G</text>
      <text class="nucleotide" x="22.068" y="-191.260">G</text>
      <text class="nucleotide" x="12.085" y="-193.058">G</text>
      <text class="nucleotide" x="1.970" y="-192.483">C</text>
      <text class="nucleotide" x="-3.082" y="-206.607">G</text>
      <text class="nucleotide" x="0.385" y="-222.635">G</text>
      <text class="nucleotide" x="-11.942" y="-233.450">G</text>
      <text class="nucleotide" x="-27.383" y="-227.927">A</text>
      <text class="nucleotide" x="-30.053" y="-211.746">A</text>
      <text class="nucleotide" x="-17.206" y="-201.554">G</text>
      <text class="nucleotide" x="-12.153" y="-187.431">C</text>
      <text class="nucleotide" x="-26.716" y="-174.036">G</text>
      <text class="nucleotide" x="-33.805" y="-155.509">A</text>
      <text class="nucleotide" x="-31.893" y="-135.716">A</text>
      <text class="nucleotide" x="-21.337" y="-118.805">G</text>
      <text class="nucleotide" x="-4.311" y="-108.342">A</text>
      <text class="nucleotide" x="15.642" y="-106.555">G</text>
      <text class="nucleotide" x="14.766" y="-99.305">G</text>
      <text class="nucleotide" x="20.391" y="-92.261">C</text>
      <text class="nucleotide" x="6.836" y="-98.683">G</text>
      <text class="nucleotide" x="-7.304" y="-93.675">G</text>
      <text class="nucleotide" x="-13.795" y="-80.152">G</text>
      <text class="nucleotide" x="-8.859" y="-65.987">C</text>
      <text class="nucleotide" x="4.630" y="-59.427">G</text>
      <text class="nucleotide" x="18.820" y="-64.290">G</text>
      <text class="nucleotide" x="25.449" y="-77.745">G</text>
      <text class="nucleotide" x="30.560" y="-63.642">C</text>
      <text class="nucleotide" x="35.671" y="-49.540">C</text>
      <text class="nucleotide" x="27.552" y="-49.730">A</text>
      <text class="nucleotide" x="19.303" y="-49.512">G</text>
      <text class="nucleotide" x="10.944" y="-48.875">C</text>
      <text class="nucleotide" x="1.819" y="-60.780">G</text>
      <text class="nucleotide" x="7.004" y="-76.544">A</text>
      <text class="nucleotide" x="-4.684" y="-93.692">G</text>
      <text class="nucleotide" x="3.750" y="-106.287">G</text>
      <text class="nucleotide" x="7.366" y="-121.008">A</text>
      <text class="nucleotide" x="5.725" y="-136.077">G</text>
      <text class="nucleotide" x="-0.974" y="-149.675">C</text>
      <text class="nucleotide" x="-11.922" y="-160.160">G</text>
      <text class="nucleotide" x="-25.796" y="-166.265">C</text>
      <text class="nucleotide" x="-40.922" y="-167.253">G</text>
      <text class="nucleotide" x="-55.473" y="-163.006">G</text>
      <text class="nucleotide" x="-67.692" y="-154.035">A</text>
      <text class="nucleotide" x="-76.104" y="-141.425">G</text>
      <text class="nucleotide" x="-79.692" y="-126.697">A</text>
      <text class="nucleotide" x="-78.023" y="-111.631">G</text>
      <text class="nucleotide" x="-71.299" y="-98.045">A</text>
      <text class="nucleotide" x="-60.332" y="-87.581">A</text>
      <text class="nucleotide" x="-46.447" y="-81.501">A</text>
      <text class="nucleotide" x="-31.319" y="-80.541">A</text>
      <text class="nucleotide" x="-16.775" y="-84.815">G</text>
      <text class="nucleotide" x="-28.489" y="-75.445">G</text>
      <text class="nucleotide" x="-39.805" y="-65.599">C</text>
      <text class="nucleotide" x="-26.222" y="-50.857">G</text>
      <text class="nucleotide" x="-10.199" y="-51.804">C</text>
      <text class="nucleotide" x="-25.084" y="-53.655">G</text>
      <text class="nucleotide" x="-36.942" y="-44.468">A</text>
      <text class="nucleotide" x="-38.869" y="-29.592">G</text>
      <text class="nucleotide" x="-29.744" y="-17.688">C</text>
      <text class="nucleotide" x="-14.878" y="-15.684">G</text>
      <text class="nucleotide" x="-2.927" y="-24.749">G</text>
      <text class="nucleotide" x="-0.847" y="-39.603">C</text>
      <text class="nucleotide" x="-6.296" y="-34.450">C</text>
      <text class="nucleotide" x="-17.195" y="-24.144">A</text>
      <text class="nucleotide" x="-22.644" y="-18.991">G</text>
      <text class="nucleotide" x="-33.899" y="-28.907">G</text>
      <text class="nucleotide" x="-38.618" y="-44.612">A</text>
      <text class="nucleotide" x="-54.639" y="-48.114">G</text>
      <text class="nucleotide" x="-65.481" y="-35.810">G</text>
      <text class="nucleotide" x="-59.990" y="-20.357">G</text>
      <text class="nucleotide" x="-43.815" y="-17.653">C</text>
      <text class="nucleotide" x="-32.561" y="-7.736">U</text>
      <text class="nucleotide" x="-37.136" y="-1.793">C</text>
      <text class="nucleotide" x="-46.286" y="10.093">A</text>
      <text class="nucleotide" x="-50.861" y="16.036">G</text>
      <text class="nucleotide" x="-51.430" y="6.833">G</text>
      <text class="nucleotide" x="-56.040" y="-0.994">C</text>
      <text class="nucleotide" x="-63.583" y="-5.807">C</text>
      <text class="nucleotide" x="-72.353" y="-6.665">G</text>
      <text class="nucleotide" x="-80.431" y="-3.503">A</text>
      <text class="nucleotide" x="-85.832" y="-10.720">G</text>
      <text class="nucleotide" x="-93.068" y="-11.698">A</text>
      <text class="nucleotide" x="-105.670" y="-19.834">C</text>
      <text class="nucleotide" x="-111.101" y="-27.029">A</text>
      <text class="nucleotide" x="-118.341" y="-27.977">C</text>
      <text class="nucleotide" x="-123.801" y="-35.150">C</text>
      <text class="nucleotide" x="-131.046" y="-36.068">U</text>
      <text class="nucleotide" x="-139.077" y="-23.399">U</text>
      <text class="nucleotide" x="-126.425" y="-15.342">G</text>
      <text class="nucleotide" x="-113.806" y="-7.232">C</text>
      <text class="nucleotide" x="-101.204" y="0.904">A</text>
      <text class="nucleotide" x="-88.619" y="9.066">G</text>
      <text class="nucleotide" x="-80.703" y="28.189">C</text>
      <text class="nucleotide" x="-59.204" y="28.502">U</text>
      <text class="nucleotide" x="-66.758" y="41.461">G</text>
      <text class="nucleotide" x="-80.132" y="34.670">C</text>
      <text class="nucleotide" x="-93.479" y="27.825">C</text>
      <text class="nucleotide" x="-109.614" y="17.086">G</text>
      <text class="nucleotide" x="-118.460" y="34.332">C</text>
      <text class="nucleotide" x="-100.325" y="41.171">C</text>
      <text class="nucleotide" x="-86.978" y="48.017">G</text>
      <text class="nucleotide" x="-84.714" y="52.101">C</text>
      <text class="nucleotide" x="-79.916" y="54.865">C</text>
      <text class="nucleotide" x="-73.493" y="54.864">G</text>
      <text class="nucleotide" x="-76.254" y="68.025">C</text>
      <text class="nucleotide" x="-78.023" y="81.293">C</text>
      <text class="nucleotide" x="-78.800" y="94.593">A</text>
      <text class="nucleotide" x="-78.589" y="107.852">C</text>
      <text class="nucleotide" x="-77.401" y="120.996">C</text>
      <text class="nucleotide" x="-75.251" y="133.953">G</text>
      <text class="nucleotide" x="-72.161" y="146.655">A</text>
      <text class="nucleotide" x="-68.157" y="159.033">G</text>
      <text class="nucleotide" x="-63.269" y="171.022">C</text>
      <text class="nucleotide" x="-57.533" y="182.559">C</text>
      <text class="nucleotide" x="-50.989" y="193.585">G</text>
      <text class="nucleotide" x="-43.681" y="204.044">C</text>
      <text class="nucleotide" x="-35.656" y="213.883">C</text>
      <text class="nucleotide" x="-26.967" y="223.055">G</text>
      <text class="nucleotide" x="-17.667" y="231.514">C</text>
      <text class="nucleotide" x="-27.607" y="242.748">G</text>
      <text class="nucleotide" x="-37.547" y="253.982">G</text>
      <text class="nucleotide" x="-67.201" y="224.400">A</text>
      <text class="nucleotide" x="-123.625" y="228.270">U</text>
      <text class="nucleotide" x="-127.582" y="242.739">C</text>
      <text class="nucleotide" x="-129.305" y="250.038">A</text>
      <text class="nucleotide" x="-143.671" y="254.353">A</text>
      <text class="nucleotide" x="-132.751" y="264.637">A</text>
      <text class="nucleotide" x="-134.474" y="271.936">C</text>
      <text class="nucleotide" x="-149.185" y="269.006">U</text>
      <text class="nucleotide" x="-163.896" y="266.076">G</text>
      <text class="nucleotide" x="-178.249" y="257.052">C</text>
      <text class="nucleotide" x="-190.893" y="268.346">U</text>
      <text class="nucleotide" x="-183.541" y="283.623">C</text>
      <text class="nucleotide" x="-166.826" y="280.787">C</text>
      <text class="nucleotide" x="-152.115" y="283.717">A</text>
      <text class="nucleotide" x="-137.404" y="286.647">G</text>
      <text class="nucleotide" x="-137.218" y="294.145">C</text>
      <text class="nucleotide" x="-150.018" y="301.965">G</text>
      <text class="nucleotide" x="-136.845" y="309.140">G</text>
      <text class="nucleotide" x="-136.659" y="316.638">A</text>
      <text class="nucleotide" x="-147.093" y="291.833">G</text>
      <text class="nucleotide" x="-185.356" y="285.673">U</text>
      <text class="nucleotide" x="-200.356" y="285.642">G</text>
      <text class="nucleotide" x="-215.330" y="284.773">C</text>
      <text class="nucleotide" x="-223.533" y="281.035">A</text>
      <text class="nucleotide" x="-230.351" y="283.652">U</text>
      <text class="nucleotide" x="-254.429" y="289.424">C</text>
      <text class="nucleotide" x="-231.436" y="298.612">A</text>
      <text class="nucleotide" x="-216.478" y="299.729">C</text>
      <text class="nucleotide" x="-217.378" y="314.702">C</text>
      <text class="nucleotide" x="-218.029" y="329.688">U</text>
      <text class="nucleotide" x="-218.402" y="344.683">G</text>
      <text class="nucleotide" x="-230.653" y="334.325">G</text>
      <text class="nucleotide" x="-246.361" y="337.587">A</text>
      <text class="nucleotide" x="-253.476" y="351.966">C</text>
      <text class="nucleotide" x="-246.540" y="366.432">C</text>
      <text class="nucleotide" x="-230.874" y="369.888">C</text>
      <text class="nucleotide" x="-218.495" y="359.683">G</text>
      <text class="nucleotide" x="-200.945" y="300.630">G</text>
      <text class="nucleotide" x="-200.573" y="315.626">A</text>
      <text class="nucleotide" x="-200.200" y="330.621">G</text>
      <text class="nucleotide" x="-215.161" y="331.706">G</text>
      <text class="nucleotide" x="-214.323" y="346.683">G</text>
      <text class="nucleotide" x="-225.705" y="356.453">C</text>
      <text class="nucleotide" x="-229.201" y="371.040">C</text>
      <text class="nucleotide" x="-223.486" y="384.908">C</text>
      <text class="nucleotide" x="-210.727" y="392.796">U</text>
      <text class="nucleotide" x="-195.766" y="391.710">G</text>
      <text class="nucleotide" x="-184.281" y="382.062">C</text>
      <text class="nucleotide" x="-180.629" y="367.513">A</text>
      <text class="nucleotide" x="-186.196" y="353.584">G</text>
      <text class="nucleotide" x="-198.867" y="345.561">C</text>
      <text class="nucleotide" x="-197.071" y="360.453">U</text>
      <text class="nucleotide" x="-219.270" y="371.419">A</text>
      <text class="nucleotide" x="-194.813" y="375.283">C</text>
      <text class="nucleotide" x="-175.673" y="348.748">A</text>
      <text class="nucleotide" x="-173.152" y="321.330">G</text>
      <text class="nucleotide" x="-184.828" y="300.663">A</text>
      <text class="nucleotide" x="-183.135" y="307.970">C</text>
      <text class="nucleotide" x="-197.748" y="311.355">A</text>
      <text class="nucleotide" x="-212.361" y="314.741">G</text>
      <text class="nucleotide" x="-226.974" y="318.126">U</text>
      <text class="nucleotide" x="-241.587" y="321.511">G</text>
      <text class="nucleotide" x="-256.200" y="324.897">G</text>
      <text class="nucleotide" x="-270.813" y="328.282">C</text>
      <text class="nucleotide" x="-285.426" y="331.667">A</text>
      <text class="nucleotide" x="-300.039" y="335.053">U</text>
      <text class="nucleotide" x="-314.652" y="338.438">C</text>
      <text class="nucleotide" x="-311.266" y="353.051">U</text>
      <text class="nucleotide" x="-296.654" y="349.666">G</text>
      <text class="nucleotide" x="-282.041" y="346.280">C</text>
      <text class="nucleotide" x="-267.428" y="342.895">A</text>
      <text class="nucleotide" x="-252.815" y="339.510">G</text>
      <text class="nucleotide" x="-238.202" y="336.124">G</text>
      <text class="nucleotide" x="-223.589" y="332.739">C</text>
      <text class="nucleotide" x="-208.976" y="329.354">A</text>
      <text class="nucleotide" x="-194.363" y="325.968">G</text>
      <text class="nucleotide" x="-179.750" y="322.583">G</text>
      <text class="nucleotide" x="-178.057" y="329.889">C</text>
      <text class="nucleotide" x="-191.753" y="336.007">C</text>
      <text class="nucleotide" x="-205.448" y="342.125">U</text>
      <text class="nucleotide" x="-219.144" y="348.244">G</text>
      <text class="nucleotide" x="-232.524" y="340.385">G</text>
      <text class="nucleotide" x="-247.965" y="341.926">G</text>
      <text class="nucleotide" x="-259.528" y="352.273">G</text>
      <text class="nucleotide" x="-262.768" y="367.448">C</text>
      <text class="nucleotide" x="-256.439" y="381.616">C</text>
      <text class="nucleotide" x="-242.975" y="389.328">U</text>
      <text class="nucleotide" x="-227.552" y="387.620">U</text>
      <text class="nucleotide" x="-216.101" y="377.148">C</text>
      <text class="nucleotide" x="-213.026" y="361.939">C</text>
      <text class="nucleotide" x="-199.330" y="355.821">A</text>
      <text class="nucleotide" x="-185.635" y="349.703">G</text>
      <text class="nucleotide" x="-171.939" y="343.585">G</text>
      <text class="nucleotide" x="-168.324" y="350.156">G</text>
      <text class="nucleotide" x="-181.467" y="357.386">G</text>
      <text class="nucleotide" x="-194.610" y="364.616">A</text>
      <text class="nucleotide" x="-207.753" y="371.845">C</text>
      <text class="nucleotide" x="-215.520" y="384.677">U</text>
      <text class="nucleotide" x="-200.523" y="384.988">A</text>
      <text class="nucleotide" x="-187.380" y="377.758">G</text>
      <text class="nucleotide" x="-174.238" y="370.529">A</text>
      <text class="nucleotide" x="-161.095" y="363.299">G</text>
      <text class="nucleotide" x="-157.480" y="369.871">U</text>
      <text class="nucleotide" x="-169.980" y="378.162">G</text>
      <text class="nucleotide" x="-187.239" y="386.981">U</text>
      <text class="nucleotide" x="-176.525" y="403.133">A</text>
      <text class="nucleotide" x="-161.688" y="390.662">C</text>
      <text class="nucleotide" x="-149.188" y="382.371">C</text>
      <text class="nucleotide" x="-127.263" y="355.465">U</text>
      <text class="nucleotide" x="-133.002" y="331.185">G</text>
      <text class="nucleotide" x="-128.960" y="337.503">G</text>
      <text class="nucleotide" x="-141.596" y="345.587">A</text>
      <text class="nucleotide" x="-154.231" y="353.670">A</text>
      <text class="nucleotide" x="-168.746" y="357.453">A</text>
      <text class="nucleotide" x="-169.634" y="372.427">G</text>
      <text class="nucleotide" x="-155.667" y="377.898">G</text>
      <text class="nucleotide" x="-146.148" y="366.306">G</text>
      <text class="nucleotide" x="-133.512" y="358.222">G</text>
      <text class="nucleotide" x="-120.877" y="350.139">A</text>
      <text class="nucleotide" x="-116.835" y="356.457">C</text>
      <text class="nucleotide" x="-123.285" y="352.090">A</text>
      <text class="nucleotide" x="-130.491" y="348.710">U</text>
      <text class="nucleotide" x="-138.300" y="346.448">G</text>
      <text class="nucleotide" x="-146.537" y="345.408">U</text>
      <text class="nucleotide" x="-155.005" y="345.667">G</text>
      <text class="nucleotide" x="-163.499" y="347.273">C</text>
      <text class="nucleotide" x="-171.800" y="350.236">U</text>
      <text class="nucleotide" x="-179.692" y="354.535">G</text>
      <text class="nucleotide" x="-186.956" y="360.111">U</text>
      <text class="nucleotide" x="-193.385" y="366.870">C</text>
      <text class="nucleotide" x="-198.785" y="374.686">C</text>
      <text class="nucleotide" x="-202.984" y="383.399">C</text>
      <text class="nucleotide" x="-205.831" y="392.821">C</text>
      <text class="nucleotide" x="-207.209" y="402.740">A</text>
      <text class="nucleotide" x="-207.031" y="412.925">G</text>
      <text class="nucleotide" x="-216.854" y="424.261">C</text>
      <text class="nucleotide" x="-231.202" y="437.291">C</text>
      <text class="nucleotide" x="-216.634" y="450.074">A</text>
      <text class="nucleotide" x="-205.579" y="434.154">C</text>
      <text class="nucleotide" x="-202.220" y="433.533">C</text>
      <text class="nucleotide" x="-198.974" y="431.321">C</text>
      <text class="nucleotide" x="-196.558" y="427.580">U</text>
      <text class="nucleotide" x="-195.634" y="422.677">G</text>
      <text class="nucleotide" x="-189.691" y="427.252">A</text>
      <text class="nucleotide" x="-191.673" y="442.121">C</text>
      <text class="nucleotide" x="-177.805" y="436.402">C</text>
      <text class="nucleotide" x="-171.862" y="440.977">G</text>
      <text class="nucleotide" x="-180.411" y="453.303">G</text>
      <text class="nucleotide" x="-187.793" y="458.476">U</text>
      <text class="nucleotide" x="-188.995" y="465.679">G</text>
      <text class="nucleotide" x="-201.739" y="480.281">U</text>
      <text class="nucleotide" x="-185.790" y="491.294">G</text>
      <text class="nucleotide" x="-176.651" y="474.202">C</text>
      <text class="nucleotide" x="-168.103" y="461.876">C</text>
      <text class="nucleotide" x="-161.778" y="458.227">U</text>
      <text class="nucleotide" x="-159.519" y="449.500">C</text>
      <text class="nucleotide" x="-146.951" y="457.688">U</text>
      <text class="nucleotide" x="-152.903" y="481.722">C</text>
      <text class="nucleotide" x="-134.167" y="465.534">G</text>
      <text class="nucleotide" x="-112.313" y="455.915">C</text>
      <text class="nucleotide" x="-96.154" y="439.743">C</text>
      <text class="nucleotide" x="-87.379" y="419.738">U</text>
      <text class="nucleotide" x="-86.522" y="398.927">U</text>
      <text class="nucleotide" x="-92.973" y="380.192">C</text>
      <text class="nucleotide" x="-105.160" y="365.875">A</text>
      <text class="nucleotide" x="-98.120" y="368.459">C</text>
      <text class="nucleotide" x="-103.289" y="382.540">A</text>
      <text class="nucleotide" x="-108.458" y="396.622">G</text>
      <text class="nucleotide" x="-113.627" y="410.703">U</text>
      <text class="nucleotide" x="-122.895" y="422.497">G</text>
      <text class="nucleotide" x="-114.541" y="434.956">U</text>
      <text class="nucleotide" x="-100.111" y="430.861">G</text>
      <text class="nucleotide" x="-99.546" y="415.872">C</text>
      <text class="nucleotide" x="-94.377" y="401.791">U</text>
      <text class="nucleotide" x="-89.208" y="387.710">C</text>
      <text class="nucleotide" x="-84.038" y="373.628">A</text>
      <text class="nucleotide" x="-76.998" y="376.213">C</text>
      <text class="nucleotide" x="-86.947" y="391.772">U</text>
      <text class="nucleotide" x="-77.818" y="406.818">G</text>
      <text class="nucleotide" x="-251.164" y="422.146">A</text>
      <text class="nucleotide" x="-265.529" y="428.736">U</text>
      <text class="nucleotide" x="-270.948" y="443.583">C</text>
      <text class="nucleotide" x="-264.206" y="457.877">C</text>
      <text class="nucleotide" x="-249.303" y="463.138">G</text>
      <text class="nucleotide" x="-235.081" y="456.246">C</text>
      <text class="nucleotide" x="-229.977" y="441.289">C</text>
      <text class="nucleotide" x="-237.020" y="427.140">U</text>
      <text class="nucleotide" x="-229.824" y="429.253">C</text>
      <text class="nucleotide" x="-234.049" y="443.645">C</text>
      <text class="nucleotide" x="-230.513" y="458.223">A</text>
      <text class="nucleotide" x="-219.657" y="447.871">G</text>
      <text class="nucleotide" x="-215.431" y="433.479">G</text>
      <text class="nucleotide" x="-208.235" y="435.592">G</text>
      <text class="nucleotide" x="-211.681" y="450.191">C</text>
      <text class="nucleotide" x="-223.311" y="461.752">C</text>
      <text class="nucleotide" x="-218.853" y="477.534">A</text>
      <text class="nucleotide" x="-202.893" y="481.301">C</text>
      <text class="nucleotide" x="-191.848" y="469.178">C</text>
      <text class="nucleotide" x="-197.082" y="453.637">G</text>
      <text class="nucleotide" x="-193.636" y="439.038">C</text>
      <text class="nucleotide" x="-186.167" y="439.720">C</text>
      <text class="nucleotide" x="-187.531" y="454.658">A</text>
      <text class="nucleotide" x="-188.895" y="469.596">U</text>
      <text class="nucleotide" x="-190.259" y="484.533">G</text>
      <text class="nucleotide" x="-191.623" y="499.471">U</text>
      <text class="nucleotide" x="-192.987" y="514.409">C</text>
      <text class="nucleotide" x="-186.700" y="528.028">G</text>
      <text class="nucleotide" x="-178.049" y="515.773">A</text>
      <text class="nucleotide" x="-176.685" y="500.835">G</text>
      <text class="nucleotide" x="-175.321" y="485.897">C</text>
      <text class="nucleotide" x="-173.957" y="470.960">C</text>
      <text class="nucleotide" x="-172.593" y="456.022">G</text>
      <text class="nucleotide" x="-171.229" y="441.084">C</text>
      <text class="nucleotide" x="-163.760" y="441.766">G</text>
      <text class="nucleotide" x="-163.388" y="456.761">G</text>
      <text class="nucleotide" x="-163.388" y="471.761">U</text>
      <text class="nucleotide" x="-163.388" y="486.761">G</text>
      <text class="nucleotide" x="-177.445" y="492.546">G</text>
      <text class="nucleotide" x="-188.215" y="503.274">G</text>
      <text class="nucleotide" x="-194.055" y="517.308">A</text>
      <text class="nucleotide" x="-194.075" y="532.509">A</text>
      <text class="nucleotide" x="-188.272" y="546.558">G</text>
      <text class="nucleotide" x="-177.530" y="557.314">A</text>
      <text class="nucleotide" x="-163.488" y="563.136">A</text>
      <text class="nucleotide" x="-148.287" y="563.136">G</text>
      <text class="nucleotide" x="-134.245" y="557.314">A</text>
      <text class="nucleotide" x="-123.504" y="546.558">A</text>
      <text class="nucleotide" x="-117.701" y="532.509">G</text>
      <text class="nucleotide" x="-117.721" y="517.308">U</text>
      <text class="nucleotide" x="-123.561" y="503.274">C</text>
      <text class="nucleotide" x="-134.331" y="492.546">C</text>
      <text class="nucleotide" x="-148.388" y="486.761">A</text>
      <text class="nucleotide" x="-148.388" y="471.761">C</text>
      <text class="nucleotide" x="-148.388" y="456.761">C</text>
      <text class="nucleotide" x="-140.905" y="456.249">A</text>
      <text class="nucleotide" x="-125.940" y="455.226">A</text>
      <text class="nucleotide" x="-118.458" y="454.714">G</text>
      <text class="nucleotide" x="-124.244" y="469.439">A</text>
      <text class="nucleotide" x="-114.846" y="480.994">C</text>
      <text class="nucleotide" x="-118.679" y="497.509">G</text>
      <text class="nucleotide" x="-103.871" y="505.765">U</text>
      <text class="nucleotide" x="-91.839" y="493.820">C</text>
      <text class="nucleotide" x="-99.985" y="478.952">C</text>
      <text class="nucleotide" x="-94.053" y="465.290">A</text>
      <text class="nucleotide" x="-103.598" y="452.672">G</text>
      <text class="nucleotide" x="-127.193" y="436.428">G</text>
      <text class="nucleotide" x="-148.779" y="441.021">U</text>
      <text class="nucleotide" x="-141.347" y="440.015">C</text>
      <text class="nucleotide" x="-119.050" y="436.998">U</text>
      <text class="nucleotide" x="-121.504" y="453.773">G</text>
      <text class="nucleotide" x="-106.064" y="460.776">C</text>
      <text class="nucleotide" x="-95.061" y="447.877">C</text>
      <text class="nucleotide" x="-104.409" y="433.733">A</text>
      <text class="nucleotide" x="-89.877" y="430.016">A</text>
      <text class="nucleotide" x="-75.345" y="426.299">A</text>
      <text class="nucleotide" x="-83.195" y="440.016">G</text>
      <text class="nucleotide" x="-78.966" y="455.244">C</text>
      <text class="nucleotide" x="-65.167" y="462.949">A</text>
      <text class="nucleotide" x="-49.985" y="458.559">G</text>
      <text class="nucleotide" x="-42.426" y="444.679">G</text>
      <text class="nucleotide" x="-46.976" y="429.544">A</text>
      <text class="nucleotide" x="-60.935" y="422.133">G</text>
      <text class="nucleotide" x="-62.824" y="407.252">U</text>
      <text class="nucleotide" x="-54.282" y="398.791">C</text>
      <text class="nucleotide" x="-53.731" y="386.381">A</text>
      <text class="nucleotide" x="-62.002" y="376.585">U</text>
      <text class="nucleotide" x="-38.300" y="368.244">C</text>
      <text class="nucleotide" x="-19.539" y="354.231">U</text>
      <text class="nucleotide" x="-6.863" y="336.598">U</text>
      <text class="nucleotide" x="-0.686" y="317.548">U</text>
      <text class="nucleotide" x="-0.698" y="299.196">C</text>
      <text class="nucleotide" x="-5.964" y="283.352">C</text>
      <text class="nucleotide" x="-15.069" y="271.346">C</text>
      <text class="nucleotide" x="-26.313" y="263.921">G</text>
      <text class="nucleotide" x="-16.373" y="252.687">U</text>
      <text class="nucleotide" x="-6.433" y="241.453">G</text>
      <text class="nucleotide" x="6.206" y="261.314">G</text>
      <text class="nucleotide" x="22.218" y="279.961">G</text>
      <text class="nucleotide" x="41.483" y="296.856">G</text>
      <text class="nucleotide" x="63.797" y="311.471">C</text>
      <text class="nucleotide" x="88.875" y="323.304">G</text>
      <text class="nucleotide" x="116.354" y="331.890">G</text>
      <text class="nucleotide" x="145.799" y="336.815">A</text>
      <text class="nucleotide" x="176.708" y="337.723">U</text>
      <text class="nucleotide" x="208.520" y="334.331">G</text>
      <text class="nucleotide" x="240.631" y="326.432">C</text>
      <text class="nucleotide" x="272.395" y="313.908">U</text>
      <text class="nucleotide" x="280.348" y="326.626">G</text>
      <text class="nucleotide" x="282.207" y="335.447">C</text>
      <text class="nucleotide" x="288.359" y="339.381">G</text>
      <text class="nucleotide" x="296.364" y="352.066">G</text>
      <text class="nucleotide" x="304.788" y="369.522">U</text>
      <text class="nucleotide" x="321.179" y="359.178">A</text>
      <text class="nucleotide" x="309.050" y="344.062">C</text>
      <text class="nucleotide" x="301.045" y="331.376">A</text>
      <text class="nucleotide" x="293.066" y="318.674">U</text>
      <text class="nucleotide" x="285.114" y="305.956">C</text>
      <text class="nucleotide" x="291.000" y="301.307">A</text>
      <text class="nucleotide" x="300.296" y="313.079">A</text>
      <text class="nucleotide" x="309.593" y="324.850">G</text>
      <text class="nucleotide" x="318.890" y="336.622">A</text>
      <text class="nucleotide" x="330.661" y="327.325">A</text>
      <text class="nucleotide" x="321.365" y="315.554">A</text>
      <text class="nucleotide" x="312.068" y="303.782">G</text>
      <text class="nucleotide" x="302.771" y="292.010">G</text>
      <text class="nucleotide" x="308.657" y="287.362">C</text>
      <text class="nucleotide" x="293.802" y="285.281">C</text>
      <text class="nucleotide" x="280.546" y="292.301">A</text>
      <text class="nucleotide" x="273.919" y="305.758">C</text>
      <text class="nucleotide" x="276.436" y="320.545">C</text>
      <text class="nucleotide" x="287.141" y="331.052">C</text>
      <text class="nucleotide" x="301.973" y="333.292">C</text>
      <text class="nucleotide" x="315.303" y="326.414">A</text>
      <text class="nucleotide" x="322.074" y="313.029">A</text>
      <text class="nucleotide" x="319.716" y="298.217">G</text>
      <text class="nucleotide" x="330.594" y="308.546">U</text>
      <text class="nucleotide" x="312.993" y="322.292">A</text>
      <text class="nucleotide" x="310.530" y="351.278">C</text>
      <text class="nucleotide" x="332.483" y="362.728">A</text>
      <text class="nucleotide" x="321.169" y="340.704">G</text>
      <text class="nucleotide" x="326.345" y="335.276">G</text>
      <text class="nucleotide" x="336.696" y="324.420">A</text>
      <text class="nucleotide" x="341.872" y="318.992">U</text>
      <text class="nucleotide" x="353.002" y="329.047">U</text>
      <text class="nucleotide" x="365.823" y="343.582">G</text>
      <text class="nucleotide" x="378.816" y="329.201">G</text>
      <text class="nucleotide" x="363.058" y="317.917">A</text>
      <text class="nucleotide" x="351.927" y="307.861">G</text>
      <text class="nucleotide" x="340.922" y="297.669">U</text>
      <text class="nucleotide" x="330.045" y="287.340">G</text>
      <text class="nucleotide" x="319.340" y="276.833">G</text>
      <text class="nucleotide" x="324.109" y="271.044">G</text>
      <text class="nucleotide" x="335.686" y="280.583">G</text>
      <text class="nucleotide" x="347.263" y="290.121">G</text>
      <text class="nucleotide" x="358.839" y="299.659">C</text>
      <text class="nucleotide" x="368.377" y="288.082">A</text>
      <text class="nucleotide" x="356.801" y="278.544">C</text>
      <text class="nucleotide" x="345.224" y="269.006">C</text>
      <text class="nucleotide" x="333.648" y="259.467">C</text>
      <text class="nucleotide" x="338.417" y="253.679">G</text>
      <text class="nucleotide" x="350.917" y="261.971">U</text>
      <text class="nucleotide" x="363.417" y="270.262">G</text>
      <text class="nucleotide" x="378.254" y="282.733">U</text>
      <text class="nucleotide" x="388.967" y="266.582">A</text>
      <text class="nucleotide" x="371.708" y="257.762">C</text>
      <text class="nucleotide" x="359.208" y="249.471">A</text>
      <text class="nucleotide" x="346.708" y="241.179">U</text>
      <text class="nucleotide" x="350.159" y="234.520">G</text>
      <text class="nucleotide" x="363.477" y="241.421">G</text>
      <text class="nucleotide" x="376.796" y="248.322">C</text>
      <text class="nucleotide" x="390.114" y="255.223">C</text>
      <text class="nucleotide" x="403.432" y="262.124">G</text>
      <text class="nucleotide" x="416.750" y="269.025">C</text>
      <text class="nucleotide" x="430.069" y="275.926">C</text>
      <text class="nucleotide" x="443.387" y="282.827">G</text>
      <text class="nucleotide" x="450.288" y="269.508">U</text>
      <text class="nucleotide" x="436.970" y="262.608">C</text>
      <text class="nucleotide" x="423.651" y="255.707">C</text>
      <text class="nucleotide" x="410.333" y="248.806">U</text>
      <text class="nucleotide" x="397.015" y="241.905">G</text>
      <text class="nucleotide" x="383.696" y="235.004">G</text>
      <text class="nucleotide" x="370.378" y="228.103">A</text>
      <text class="nucleotide" x="357.060" y="221.202">A</text>
      <text class="nucleotide" x="360.510" y="214.543">U</text>
      <text class="nucleotide" x="370.573" y="226.751">A</text>
      <text class="nucleotide" x="385.238" y="224.146">C</text>
      <text class="nucleotide" x="387.696" y="227.407">C</text>
      <text class="nucleotide" x="390.732" y="229.563">U</text>
      <text class="nucleotide" x="393.951" y="230.567">G</text>
      <text class="nucleotide" x="396.978" y="230.499">A</text>
      <text class="nucleotide" x="399.497" y="229.549">C</text>
      <text class="nucleotide" x="404.696" y="215.479">A</text>
      <text class="nucleotide" x="390.669" y="210.164">G</text>
      <text class="nucleotide" x="381.606" y="198.344">C</text>
      <text class="nucleotide" x="365.941" y="200.560">G</text>
      <text class="nucleotide" x="367.964" y="193.338">G</text>
      <text class="nucleotide" x="382.408" y="197.385">A</text>
      <text class="nucleotide" x="396.852" y="201.432">G</text>
      <text class="nucleotide" x="411.296" y="205.479">A</text>
      <text class="nucleotide" x="425.739" y="209.526">U</text>
      <text class="nucleotide" x="440.183" y="213.573">U</text>
      <text class="nucleotide" x="454.715" y="209.856">C</text>
      <text class="nucleotide" x="444.230" y="199.129">U</text>
      <text class="nucleotide" x="429.786" y="195.082">G</text>
      <text class="nucleotide" x="415.343" y="191.035">G</text>
      <text class="nucleotide" x="400.899" y="186.988">A</text>
      <text class="nucleotide" x="386.455" y="182.941">G</text>
      <text class="nucleotide" x="372.011" y="178.895">C</text>
      <text class="nucleotide" x="374.035" y="171.673">U</text>
      <text class="nucleotide" x="381.678" y="185.315">G</text>
      <text class="nucleotide" x="396.320" y="190.805">G</text>
      <text class="nucleotide" x="411.048" y="185.550">C</text>
      <text class="nucleotide" x="418.908" y="172.031">U</text>
      <text class="nucleotide" x="416.188" y="156.632">G</text>
      <text class="nucleotide" x="404.173" y="146.623">G</text>
      <text class="nucleotide" x="388.536" y="146.731">C</text>
      <text class="nucleotide" x="376.660" y="156.904">A</text>
      <text class="nucleotide" x="377.404" y="149.441">A</text>
      <text class="nucleotide" x="392.330" y="150.929">U</text>
      <text class="nucleotide" x="407.256" y="152.416">G</text>
      <text class="nucleotide" x="422.182" y="153.904">C</text>
      <text class="nucleotide" x="437.108" y="155.392">A</text>
      <text class="nucleotide" x="450.778" y="149.217">G</text>
      <text class="nucleotide" x="438.596" y="140.466">C</text>
      <text class="nucleotide" x="423.670" y="138.978">G</text>
      <text class="nucleotide" x="408.743" y="137.490">A</text>
      <text class="nucleotide" x="393.817" y="136.003">G</text>
      <text class="nucleotide" x="378.891" y="134.515">A</text>
      <text class="nucleotide" x="379.635" y="127.052">G</text>
      <text class="nucleotide" x="393.358" y="136.030">A</text>
      <text class="nucleotide" x="407.871" y="128.395">C</text>
      <text class="nucleotide" x="408.245" y="112.000">A</text>
      <text class="nucleotide" x="394.094" y="103.711">A</text>
      <text class="nucleotide" x="379.977" y="112.056">C</text>
      <text class="nucleotide" x="379.728" y="104.560">A</text>
      <text class="nucleotide" x="394.720" y="104.063">A</text>
      <text class="nucleotide" x="409.712" y="103.567">G</text>
      <text class="nucleotide" x="409.215" y="88.575">A</text>
      <text class="nucleotide" x="394.224" y="89.072">A</text>
      <text class="nucleotide" x="379.232" y="89.568">G</text>
      <text class="nucleotide" x="378.983" y="82.072">G</text>
      <text class="nucleotide" x="393.924" y="80.739">G</text>
      <text class="nucleotide" x="407.104" y="89.886">A</text>
      <text class="nucleotide" x="422.431" y="85.146">C</text>
      <text class="nucleotide" x="428.147" y="70.156">G</text>
      <text class="nucleotide" x="419.868" y="56.414">G</text>
      <text class="nucleotide" x="403.944" y="54.463">G</text>
      <text class="nucleotide" x="392.591" y="65.799">U</text>
      <text class="nucleotide" x="377.650" y="67.132">C</text>
      <text class="nucleotide" x="376.155" y="59.782">A</text>
      <text class="nucleotide" x="390.854" y="56.791">C</text>
      <text class="nucleotide" x="405.552" y="53.800">A</text>
      <text class="nucleotide" x="420.251" y="50.809">C</text>
      <text class="nucleotide" x="434.950" y="47.818">C</text>
      <text class="nucleotide" x="449.649" y="44.827">C</text>
      <text class="nucleotide" x="464.347" y="41.836">C</text>
      <text class="nucleotide" x="461.356" y="27.137">G</text>
      <text class="nucleotide" x="446.658" y="30.128">G</text>
      <text class="nucleotide" x="431.959" y="33.119">C</text>
      <text class="nucleotide" x="417.260" y="36.110">A</text>
      <text class="nucleotide" x="402.561" y="39.102">C</text>
      <text class="nucleotide" x="387.863" y="42.093">A</text>
      <text class="nucleotide" x="373.164" y="45.084">U</text>
      <text class="nucleotide" x="371.668" y="37.734">C</text>
      <text class="nucleotide" x="378.016" y="38.715">C</text>
      <text class="nucleotide" x="383.180" y="36.716">U</text>
      <text class="nucleotide" x="386.041" y="33.025">G</text>
      <text class="nucleotide" x="400.285" y="28.325">C</text>
      <text class="nucleotide" x="414.559" y="23.713">U</text>
      <text class="nucleotide" x="428.851" y="19.161">G</text>
      <text class="nucleotide" x="447.865" y="15.403">G</text>
      <text class="nucleotide" x="441.983" y="-3.064">C</text>
      <text class="nucleotide" x="424.299" y="4.868">U</text>
      <text class="nucleotide" x="410.006" y="9.421">G</text>
      <text class="nucleotide" x="405.521" y="8.120">U</text>
      <text class="nucleotide" x="400.170" y="9.542">G</text>
      <text class="nucleotide" x="395.615" y="14.070">G</text>
      <text class="nucleotide" x="388.367" y="13.179">C</text>
      <text class="nucleotide" x="381.311" y="18.790">C</text>
      <text class="nucleotide" x="367.057" y="23.461">A</text>
      <text class="nucleotide" x="364.312" y="16.481">A</text>
      <text class="nucleotide" x="378.272" y="10.992">U</text>
      <text class="nucleotide" x="372.783" y="-2.968">G</text>
      <text class="nucleotide" x="358.824" y="2.521">A</text>
      <text class="nucleotide" x="356.080" y="-4.459">U</text>
      <text class="nucleotide" x="372.990" y="-5.679">G</text>
      <text class="nucleotide" x="376.499" y="-22.266">A</text>
      <text class="nucleotide" x="361.532" y="-30.229">A</text>
      <text class="nucleotide" x="349.736" y="-18.051">G</text>
      <text class="nucleotide" x="345.892" y="-24.492">A</text>
      <text class="nucleotide" x="358.773" y="-32.179">G</text>
      <text class="nucleotide" x="371.653" y="-39.866">C</text>
      <text class="nucleotide" x="384.533" y="-47.554">U</text>
      <text class="nucleotide" x="397.414" y="-55.241">G</text>
      <text class="nucleotide" x="389.726" y="-68.122">A</text>
      <text class="nucleotide" x="376.846" y="-60.434">A</text>
      <text class="nucleotide" x="363.966" y="-52.747">U</text>
      <text class="nucleotide" x="351.085" y="-45.059">C</text>
      <text class="nucleotide" x="338.205" y="-37.372">A</text>
      <text class="nucleotide" x="334.361" y="-43.812">G</text>
      <text class="nucleotide" x="346.397" y="-52.764">C</text>
      <text class="nucleotide" x="358.433" y="-61.716">U</text>
      <text class="nucleotide" x="370.469" y="-70.668">G</text>
      <text class="nucleotide" x="379.111" y="-73.232">C</text>
      <text class="nucleotide" x="382.536" y="-79.682">U</text>
      <text class="nucleotide" x="395.819" y="-72.233">A</text>
      <text class="nucleotide" x="410.984" y="-70.838">A</text>
      <text class="nucleotide" x="425.403" y="-75.738">A</text>
      <text class="nucleotide" x="436.579" y="-86.083">A</text>
      <text class="nucleotide" x="442.574" y="-100.082">G</text>
      <text class="nucleotide" x="442.351" y="-115.310">G</text>
      <text class="nucleotide" x="435.947" y="-129.127">A</text>
      <text class="nucleotide" x="424.473" y="-139.140">G</text>
      <text class="nucleotide" x="409.916" y="-143.614">U</text>
      <text class="nucleotide" x="394.799" y="-141.775">C</text>
      <text class="nucleotide" x="381.740" y="-133.939">A</text>
      <text class="nucleotide" x="373.002" y="-121.467">C</text>
      <text class="nucleotide" x="370.099" y="-106.517">C</text>
      <text class="nucleotide" x="373.535" y="-91.680">A</text>
      <text class="nucleotide" x="361.517" y="-82.704">U</text>
      <text class="nucleotide" x="349.481" y="-73.752">A</text>
      <text class="nucleotide" x="337.445" y="-64.800">G</text>
      <text class="nucleotide" x="325.409" y="-55.848">C</text>
      <text class="nucleotide" x="320.279" y="-61.319">C</text>
      <text class="nucleotide" x="331.220" y="-71.580">A</text>
      <text class="nucleotide" x="342.161" y="-81.841">G</text>
      <text class="nucleotide" x="331.900" y="-92.782">U</text>
      <text class="nucleotide" x="320.959" y="-82.521">G</text>
      <text class="nucleotide" x="310.018" y="-72.260">G</text>
      <text class="nucleotide" x="304.887" y="-77.731">G</text>
      <text class="nucleotide" x="314.757" y="-89.026">G</text>
      <text class="nucleotide" x="324.789" y="-100.178">G</text>
      <text class="nucleotide" x="334.822" y="-111.329">U</text>
      <text class="nucleotide" x="344.854" y="-122.480">G</text>
      <text class="nucleotide" x="359.363" y="-135.331">U</text>
      <text class="nucleotide" x="344.954" y="-148.294">G</text>
      <text class="nucleotide" x="333.703" y="-132.513">U</text>
      <text class="nucleotide" x="323.671" y="-121.361">U</text>
      <text class="nucleotide" x="313.638" y="-110.210">A</text>
      <text class="nucleotide" x="303.606" y="-99.059">C</text>
      <text class="nucleotide" x="303.783" y="-114.058">C</text>
      <text class="nucleotide" x="294.305" y="-125.684">C</text>
      <text class="nucleotide" x="279.577" y="-128.531">A</text>
      <text class="nucleotide" x="266.448" y="-121.277">A</text>
      <text class="nucleotide" x="261.021" y="-107.293">C</text>
      <text class="nucleotide" x="265.819" y="-93.081">A</text>
      <text class="nucleotide" x="278.612" y="-85.248">U</text>
      <text class="nucleotide" x="293.450" y="-87.436">C</text>
      <text class="nucleotide" x="280.352" y="-94.747">C</text>
      <text class="nucleotide" x="285.082" y="-108.982">A</text>
      <text class="nucleotide" x="291.706" y="-122.440">C</text>
      <text class="nucleotide" x="305.520" y="-132.268">C</text>
      <text class="nucleotide" x="299.900" y="-148.264">C</text>
      <text class="nucleotide" x="282.974" y="-147.291">C</text>
      <text class="nucleotide" x="279.223" y="-130.757">G</text>
      <text class="nucleotide" x="272.453" y="-133.986">A</text>
      <text class="nucleotide" x="252.144" y="-143.670">G</text>
      <text class="nucleotide" x="256.667" y="-157.972">U</text>
      <text class="nucleotide" x="262.271" y="-171.886">U</text>
      <text class="nucleotide" x="277.201" y="-169.520">G</text>
      <text class="nucleotide" x="292.164" y="-171.662">C</text>
      <text class="nucleotide" x="305.831" y="-178.120">U</text>
      <text class="nucleotide" x="316.985" y="-188.321">A</text>
      <text class="nucleotide" x="324.636" y="-201.358">G</text>
      <text class="nucleotide" x="328.103" y="-216.071">C</text>
      <text class="nucleotide" x="327.077" y="-231.152">G</text>
      <text class="nucleotide" x="321.650" y="-245.260">A</text>
      <text class="nucleotide" x="312.305" y="-257.141">A</text>
      <text class="nucleotide" x="299.871" y="-265.738">G</text>
      <text class="nucleotide" x="285.456" y="-270.287">A</text>
      <text class="nucleotide" x="270.340" y="-270.382">A</text>
      <text class="nucleotide" x="255.869" y="-266.017">G</text>
      <text class="nucleotide" x="243.327" y="-257.578">C</text>
      <text class="nucleotide" x="233.832" y="-245.817">G</text>
      <text class="nucleotide" x="228.227" y="-231.779">G</text>
      <text class="nucleotide" x="227.010" y="-216.712">G</text>
      <text class="nucleotide" x="230.290" y="-201.956">G</text>
      <text class="nucleotide" x="237.775" y="-188.824">A</text>
      <text class="nucleotide" x="248.799" y="-178.482">U</text>
      <text class="nucleotide" x="241.701" y="-180.905">C</text>
      <text class="nucleotide" x="246.549" y="-195.101">C</text>
      <text class="nucleotide" x="243.649" y="-209.818">A</text>
      <text class="nucleotide" x="232.354" y="-199.948">A</text>
      <text class="nucleotide" x="227.506" y="-185.753">A</text>
      <text class="nucleotide" x="220.409" y="-188.176">G</text>
      <text class="nucleotide" x="223.491" y="-202.856">G</text>
      <text class="nucleotide" x="241.381" y="-209.994">A</text>
      <text class="nucleotide" x="251.153" y="-226.414">A</text>
      <text class="nucleotide" x="248.932" y="-245.239">A</text>
      <text class="nucleotide" x="235.818" y="-258.715">G</text>
      <text class="nucleotide" x="246.243" y="-266.177">U</text>
      <text class="nucleotide" x="248.759" y="-278.342">U</text>
      <text class="nucleotide" x="242.559" y="-288.643">G</text>
      <text class="nucleotide" x="254.626" y="-294.466">G</text>
      <text class="nucleotide" x="261.074" y="-305.989">A</text>
      <text class="nucleotide" x="259.765" y="-318.934">A</text>
      <text class="nucleotide" x="251.393" y="-328.639">G</text>
      <text class="nucleotide" x="249.106" y="-353.293">C</text>
      <text class="nucleotide" x="236.739" y="-331.843">C</text>
      <text class="nucleotide" x="222.179" y="-323.321">A</text>
      <text class="nucleotide" x="218.265" y="-306.562">U</text>
      <text class="nucleotide" x="227.919" y="-291.907">C</text>
      <text class="nucleotide" x="215.372" y="-279.567">A</text>
      <text class="nucleotide" x="221.191" y="-262.040">U</text>
      <text class="nucleotide" x="210.481" y="-259.719">C</text>
      <text class="nucleotide" x="201.338" y="-253.587">A</text>
      <text class="nucleotide" x="195.070" y="-244.475">C</text>
      <text class="nucleotide" x="192.590" y="-233.645">A</text>
      <text class="nucleotide" x="194.284" y="-222.612">C</text>
      <text class="nucleotide" x="199.950" y="-212.937">C</text>
      <text class="nucleotide" x="208.824" y="-205.999">A</text>
      <text class="nucleotide" x="205.468" y="-202.751">C</text>
      <text class="nucleotide" x="204.047" y="-197.401">C</text>
      <text class="nucleotide" x="205.716" y="-191.198">C</text>
      <text class="nucleotide" x="242.384" y="-162.554">C</text>
      <text class="nucleotide" x="238.723" y="-159.655">C</text>
      <text class="nucleotide" x="236.778" y="-154.471">A</text>
      <text class="nucleotide" x="237.824" y="-148.134">G</text>
      <text class="nucleotide" x="270.877" y="-113.800">C</text>
      <text class="nucleotide" x="268.012" y="-111.939">C</text>
      <text class="nucleotide" x="265.862" y="-108.652">A</text>
      <text class="nucleotide" x="265.062" y="-104.271">A</text>
      <text class="nucleotide" x="266.089" y="-99.388">A</text>
    </g>
  </g>
</svg>
