<?xml version="1.0" encoding="UTF-8" standalone="yes" ?>
<svg xmlns="http://www.w3.org/2000/svg" height="452" width="452">
  <script type="text/ecmascript">
    <![CDATA[
      var shown = 1;
      function click() {
        var seq = document.getElementById("seq");
        if (shown==1) {
          seq.setAttribute("style", "visibility: hidden");
          shown = 0;
        } else {
          seq.setAttribute("style", "visibility: visible");
          shown = 1;
        }
      }
    ]]>
  </script>
  <style type="text/css">
    <![CDATA[
      .nucleotide {
        font-family: SansSerif;
      }
      .backbone {
        stroke: grey;
        fill:   none;
        stroke-width: 1.5;
      }
      .basepairs {
        stroke: red;
        fill:   none;
        stroke-width: 2.5;
      }
    ]]>
  </style>

  <rect style="stroke: white; fill: white" height="452" x="0" y="0" width="452" onclick="click(evt)" />
  <g transform="scale(0.370026,0.370026) translate(348.817169,359.851715)">
    <polyline class="backbone" id="outline" points="
      543.021,42.985
      541.256,57.881
      537.081,63.872
      538.743,72.732
      535.538,76.129
      534.362,81.539
      536.312,87.659
      532.146,102.069
      526.170,115.827
      520.669,120.631
      520.140,129.630
      510.795,141.363
      504.045,143.148
      498.173,146.792
      493.670,151.940
      490.899,158.115
      490.064,164.760
      491.197,171.288
      479.032,180.065
      467.124,178.408
      456.925,185.499
      454.156,198.017
      450.743,197.879
      447.088,199.316
      443.902,202.428
      441.915,207.004
      420.547,249.282
      407.996,257.495
      393.926,252.297
      389.759,237.887
      396.337,223.255
      388.871,209.055
      373.087,206.181
      361.094,216.838
      362.093,232.850
      375.316,241.934
      374.165,244.369
      373.854,247.380
      374.595,250.670
      376.499,253.871
      379.551,256.583
      372.489,259.109
      361.052,249.404
      358.366,264.161
      351.304,266.688
      356.019,251.353
      346.851,238.188
      330.833,237.291
      320.253,249.350
      323.226,265.115
      337.473,272.492
      366.145,270.700
      394.604,267.116
      384.740,265.067
      375.151,268.807
      369.024,277.348
      368.535,288.066
      348.200,284.645
      336.419,301.599
      322.370,306.855
      315.092,306.265
      308.274,312.162
      294.226,317.419
      280.081,322.413
      265.856,327.172
      251.602,331.843
      244.243,318.772
      230.355,324.440
      232.082,308.490
      220.589,297.297
      204.690,299.448
      196.583,313.292
      202.487,328.210
      217.872,332.757
      213.172,347.002
      221.317,334.406
      222.399,319.445
      216.151,305.808
      204.114,296.858
      189.256,294.801
      175.240,300.145
      165.523,311.572
      162.500,326.264
      166.918,340.599
      177.686,351.041
      192.148,355.017
      113.145,356.981
      98.853,361.533
      84.551,366.056
      69.834,368.956
      61.137,366.585
      54.829,370.264
      39.885,371.566
      24.939,372.837
      9.991,374.077
      -4.963,375.256
      -11.205,364.320
      -23.683,357.942
      -39.041,359.534
      -42.043,353.855
      -46.728,350.905
      -51.397,350.813
      -58.268,336.561
      -73.132,335.605
      -85.405,326.980
      -97.659,318.329
      -109.896,309.654
      -122.096,300.928
      -127.163,293.472
      -134.348,292.166
      -146.494,283.364
      -155.654,269.097
      -171.898,273.950
      -171.732,290.903
      -155.396,295.437
      -154.806,298.064
      -153.200,300.630
      -150.593,302.769
      -147.123,304.122
      -143.048,304.384
      -130.848,313.110
      -127.290,319.488
      -118.597,321.873
      -115.012,328.235
      -106.309,330.584
      -94.055,339.234
      -90.444,345.582
      -81.732,347.895
      -75.739,361.531
      -59.996,363.103
      -47.742,371.753
      -50.733,386.452
      -65.877,381.872
      -76.636,392.171
      -91.284,395.405
      -91.070,389.223
      -93.113,382.616
      -97.546,376.303
      -104.293,371.028
      -111.116,360.173
      -123.108,356.932
      -133.762,362.503
      -144.894,351.260
      -159.261,355.188
      -166.543,349.874
      -173.748,351.064
      -188.166,346.927
      -190.897,343.893
      -194.110,342.008
      -197.404,341.287
      -200.413,341.618
      -202.840,342.783
      -217.155,326.740
      -236.792,333.281
      -250.349,323.101
      -263.885,333.310
      -257.821,349.143
      -240.928,347.699
      -238.028,355.875
      -231.637,361.941
      -223.060,364.489
      -214.125,362.848
      -206.797,357.252
      -192.362,361.329
      -189.366,364.910
      -184.132,366.716
      -177.824,365.499
      -163.398,369.606
      -153.298,380.553
      -137.899,376.922
      -126.334,390.186
      -108.489,385.429
      -107.837,400.415
      -116.850,400.590
      -121.866,405.897
      -135.837,411.356
      -149.864,416.671
      -150.207,410.143
      -153.035,403.423
      -158.397,397.301
      -166.114,392.569
      -179.571,383.197
      -194.299,390.409
      -195.147,406.786
      -181.243,415.481
      -166.889,407.549
      -164.356,422.334
      -178.676,426.797
      -203.023,403.259
      -207.434,388.227
      -225.893,378.504
      -240.761,380.485
      -255.687,381.973
      -266.025,374.389
      -278.368,375.786
      -286.227,384.885
      -301.156,386.342
      -305.702,384.287
      -310.153,384.123
      -313.826,385.514
      -316.261,387.910
      -332.667,383.634
      -341.317,398.215
      -329.701,410.564
      -314.619,402.820
      -299.699,401.271
      -284.770,399.814
      -269.136,407.895
      -254.293,396.908
      -251.425,398.764
      -247.547,399.387
      -243.221,398.330
      -239.181,395.401
      -237.884,402.788
      -233.992,424.949
      -249.245,420.747
      -259.746,431.310
      -276.572,429.238
      -283.222,444.834
      -270.076,455.540
      -256.149,445.872
      -241.938,450.332
      -230.395,439.512
      -220.682,427.293
      -216.658,414.205
      -217.944,402.296
      -223.513,393.314
      -219.765,407.838
      -233.957,400.884
      -248.883,406.080
      -255.687,420.345
      -250.333,435.215
      -235.997,441.868
      -221.185,436.357
      -214.684,421.951
      -200.215,417.994
      -195.781,432.324
      -212.009,429.958
      -221.957,442.995
      -215.393,458.023
      -199.068,459.582
      -189.777,446.070
      -175.503,441.458
      -170.015,455.418
      -178.875,457.076
      -182.948,463.137
      -195.829,470.824
      -208.741,478.458
      -212.822,478.366
      -216.397,479.413
      -219.180,481.317
      -221.002,483.734
      -221.818,486.300
      -234.618,494.120
      -251.287,497.219
      -252.924,514.093
      -237.162,520.338
      -226.798,506.921
      -213.998,499.100
      -201.134,491.386
      -193.863,490.709
      -188.168,483.721
      -180.900,483.013
      -175.234,476.001
      -162.354,468.314
      -153.603,480.497
      -162.043,483.662
      -165.006,490.337
      -180.503,493.526
      -185.054,507.708
      -196.431,517.484
      -207.868,527.189
      -224.095,529.559
      -229.905,544.894
      -219.321,557.420
      -203.231,554.251
      -198.187,538.647
      -191.135,536.751
      -186.702,528.901
      -182.063,528.365
      -177.680,524.983
      -175.231,519.045
      -160.546,516.557
      -155.183,501.673
      -143.827,491.873
      -140.874,457.221
      -158.637,436.201
      -144.666,430.741
      -142.146,431.692
      -139.120,431.760
      -135.901,430.755
      -132.864,428.599
      -130.407,425.339
      -123.121,425.839
      -116.378,419.857
      -102.407,414.397
      -88.050,410.052
      -73.402,406.818
      -59.306,411.630
      -47.499,401.099
      -19.838,408.875
      -3.816,390.212
      3.013,392.801
      11.200,389.028
      18.039,391.589
      26.210,387.783
      41.156,386.512
      48.006,389.044
      56.162,385.204
      71.105,383.902
      79.267,396.488
      87.429,409.072
      69.598,395.569
      40.868,400.756
      27.690,411.422
      34.292,427.038
      51.125,425.017
      53.843,408.282
      60.421,411.884
      80.158,422.687
      67.526,433.995
      74.895,449.264
      91.607,446.410
      93.491,429.561
      100.556,416.329
      114.015,422.953
      108.039,436.711
      93.702,443.910
      90.533,459.637
      100.962,471.828
      116.990,471.130
      126.321,458.079
      121.797,442.687
      127.773,428.929
      134.865,431.367
      156.143,438.682
      143.537,439.028
      131.431,448.427
      126.057,465.717
      120.638,472.921
      121.724,480.143
      117.438,494.518
      105.158,505.386
      108.694,521.399
      124.410,526.084
      136.138,514.622
      131.813,498.803
      136.099,484.428
      140.414,470.062
      154.962,473.719
      169.509,477.376
      166.548,492.081
      161.839,499.768
      163.606,506.853
      154.612,521.225
      165.932,533.846
      181.193,526.462
      178.323,509.753
      181.253,495.042
      184.214,480.337
      185.505,454.915
      170.667,442.429
      138.247,365.434
      89.044,380.367
      98.049,380.789
      103.405,375.826
      117.698,371.273
      129.546,380.472
      120.492,389.551
      120.016,401.964
      127.829,411.102
      120.939,426.593
      133.918,437.501
      147.993,428.050
      142.807,411.909
      153.149,397.670
      144.521,381.341
      152.020,381.465
      167.018,381.714
      174.517,381.838
      166.201,395.972
      174.519,410.106
      190.913,409.698
      198.519,395.170
      189.512,381.465
      197.752,368.931
      210.732,370.067
      218.253,361.115
      256.214,346.116
      262.562,347.097
      267.725,345.098
      270.586,341.407
      279.596,341.679
      284.870,336.628
      280.878,341.648
      277.029,346.783
      270.653,361.892
      280.764,374.803
      296.961,372.234
      302.581,356.828
      291.843,344.433
      299.424,331.489
      305.807,332.206
      310.883,329.996
      313.589,326.189
      327.627,320.904
      341.676,315.647
      332.549,327.551
      336.967,341.886
      351.212,346.586
      363.293,337.696
      363.043,322.698
      371.178,335.300
      378.866,348.180
      386.122,361.308
      384.951,381.507
      402.127,390.532
      398.434,397.727
      397.822,405.699
      400.316,413.197
      405.457,419.074
      412.391,422.461
      420.001,422.893
      427.204,436.051
      433.744,449.550
      439.777,463.283
      445.781,477.029
      446.546,493.966
      463.032,497.920
      471.396,483.172
      459.540,471.053
      459.753,463.754
      453.510,457.250
      447.477,443.517
      460.867,436.754
      474.255,429.992
      481.701,443.013
      480.781,463.225
      498.068,472.036
      500.508,488.813
      517.306,491.113
      524.165,475.608
      511.165,464.725
      514.793,455.326
      512.663,445.256
      505.233,437.821
      494.738,435.594
      494.166,428.314
      487.261,422.518
      472.519,416.355
      458.559,416.167
      447.380,420.927
      440.450,429.012
      454.879,433.112
      467.999,425.842
      472.173,411.435
      464.970,398.277
      450.584,394.030
      437.390,401.165
      433.069,415.528
      435.133,393.951
      415.315,383.384
      419.058,374.031
      417.054,363.935
      409.717,356.408
      399.250,354.051
      391.994,340.923
      397.984,336.410
      409.964,327.384
      415.954,322.870
      419.756,331.044
      426.637,333.488
      428.158,349.459
      441.671,358.106
      456.810,352.797
      461.962,337.604
      453.175,324.182
      437.189,322.826
      426.549,312.253
      414.753,309.854
      403.881,310.731
      394.721,314.383
      387.888,320.135
      383.797,327.190
      382.834,319.951
      375.628,314.536
      377.977,299.721
      398.070,297.339
      403.949,278.849
      416.132,270.097
      421.115,269.840
      425.146,267.947
      427.773,265.027
      428.839,261.782
      443.839,261.657
      449.299,268.830
      456.543,269.748
      459.846,275.257
      464.683,277.951
      469.350,277.793
      479.603,291.295
      495.416,285.182
      493.919,268.294
      477.276,265.058
      464.574,257.079
      451.922,249.022
      451.394,234.030
      450.867,219.040
      462.958,210.164
      481.362,208.632
      487.784,192.247
      496.467,189.826
      499.999,183.434
      514.928,181.978
      528.546,188.265
      540.392,200.394
      555.326,192.369
      551.749,175.796
      534.834,174.647
      521.215,168.359
      519.697,153.436
      544.875,162.459
      559.816,163.792
      571.970,177.696
      588.969,173.141
      589.594,220.393
      599.866,233.177
      616.029,230.407
      621.457,214.932
      610.566,202.672
      594.559,206.239
      596.850,199.097
      603.723,177.673
      617.239,187.909
      630.816,177.755
      624.818,161.898
      607.919,163.272
      593.581,158.867
      587.847,148.300
      576.087,144.298
      564.368,149.500
      564.741,142.009
      565.858,119.537
      580.550,116.515
      595.267,113.615
      609.990,110.746
      624.985,110.343
      639.841,112.416
      647.796,116.656
      654.763,114.467
      669.627,116.479
      684.512,124.595
      696.432,112.538
      688.146,97.747
      671.639,101.614
      656.774,99.602
      641.914,97.560
      627.058,95.487
      626.282,80.507
      640.881,77.061
      643.586,88.978
      651.076,100.330
      663.152,109.229
      678.889,113.895
      696.700,112.929
      714.500,105.547
      726.794,115.854
      742.488,112.528
      749.543,98.119
      742.548,83.682
      726.867,80.291
      714.531,90.547
      713.648,83.099
      725.665,74.122
      711.883,68.203
      711.000,60.755
      703.452,73.718
      707.244,88.231
      720.168,95.845
      734.700,92.127
      742.380,79.243
      738.737,64.692
      725.893,56.946
      718.670,70.092
      722.821,84.506
      735.930,91.797
      750.365,87.720
      757.723,74.648
      753.719,60.192
      740.687,52.768
      749.683,53.339
      755.121,48.465
      769.505,44.209
      781.091,49.699
      792.947,45.991
      798.941,35.569
      807.937,36.140
      813.375,31.266
      827.776,27.070
      836.765,27.753
      842.263,22.946
      859.155,24.390
      865.219,8.558
      851.684,-1.652
      838.126,8.528
      823.699,12.635
      821.262,11.489
      818.250,11.184
      814.963,11.932
      811.766,13.843
      809.060,16.900
      794.685,21.186
      777.805,16.209
      765.309,29.808
      760.857,28.396
      755.473,29.685
      750.806,34.099
      736.431,38.384
      721.996,42.461
      707.464,46.178
      704.879,39.138
      699.710,25.056
      697.125,18.016
      713.457,19.505
      722.690,5.952
      715.326,-8.701
      698.941,-9.380
      690.390,4.613
      662.891,8.988
      643.420,24.173
      635.128,44.088
      637.587,62.427
      643.898,48.820
      637.233,35.382
      622.580,32.174
      610.909,41.596
      610.956,56.596
      622.686,65.944
      607.121,96.023
      592.398,98.892
      585.316,97.111
      577.620,101.804
      574.576,100.254
      570.654,100.035
      566.461,101.533
      562.745,104.863
      540.748,125.765
      542.925,147.586
      533.898,135.606
      539.903,121.860
      544.852,117.766
      546.787,112.579
      545.928,107.988
      559.844,112.524
      577.206,104.425
      586.959,93.028
      606.734,88.747
      610.829,69.782
      621.642,59.386
      637.691,56.014
      642.538,40.348
      631.197,28.502
      615.334,32.664
      611.269,48.551
      604.348,50.881
      600.411,58.990
      590.396,57.888
      581.206,62.523
      575.919,71.608
      576.451,82.323
      570.614,77.614
      553.102,63.487
      561.878,51.323
      577.639,48.324
      584.992,34.065
      578.298,19.485
      562.692,15.769
      550.145,25.766
      550.282,41.808
      538.246,32.857
      546.615,20.408
      555.010,7.977
      565.648,6.582
      573.638,-0.247
      576.552,-10.118
      573.675,-19.773
      587.489,-29.602
      581.869,-45.597
      564.943,-44.625
      561.192,-28.091
      543.267,-20.665
      542.596,-0.443
      536.317,3.285
      534.167,12.039
      525.798,24.487
      512.854,16.907
      519.810,3.617
      532.674,-7.427
      525.622,-22.845
      508.855,-20.337
      506.623,-3.530
      499.928,-6.912
      486.539,-13.675
      479.845,-17.056
      492.047,-28.826
      484.115,-43.810
      467.520,-40.336
      466.266,-23.428
      499.465,10.144
      540.416,55.482
      541.813,76.358
      551.626,90.630
      565.006,95.699
      551.127,90.009
      553.538,75.204
      556.040,60.414
      577.089,67.013
      602.133,52.486
      613.072,41.056
      608.760,26.799
      612.567,12.290
      616.644,-2.145
      626.963,-15.596
      616.894,-29.236
      601.000,-23.337
      602.269,-6.430
      587.809,-10.418
      597.563,-24.285
      586.938,-37.496
      571.301,-30.944
      573.269,-14.105
      578.757,-0.757
      588.105,6.959
      598.074,8.423
      594.561,11.500
      592.876,16.774
      594.235,23.052
      583.564,33.443
      587.608,48.738
      580.203,47.548
      565.393,45.168
      557.988,43.978
      573.177,37.991
      584.173,26.003
      588.797,10.468
      586.164,-5.466
      576.856,-18.593
      562.794,-26.294
      572.415,-39.575
      565.478,-54.435
      549.120,-55.587
      540.167,-41.847
      547.831,-27.349
      534.757,-22.893
      524.322,-13.778
      518.111,-1.345
      517.083,12.559
      521.424,25.853
    " />
    <g id="pairs">
      <line class="basepairs" id="1,742" x1="543.02130" y1="42.98523" x2="557.98840" y2="43.97791" />
      <line class="basepairs" id="2,716" x1="541.25592" y1="57.88098" x2="556.04047" y2="60.41437" />
      <line class="basepairs" id="4,715" x1="538.74280" y1="72.73193" x2="553.53772" y2="75.20410" />
      <line class="basepairs" id="7,714" x1="536.31201" y1="87.65948" x2="551.12683" y2="90.00906" />
      <line class="basepairs" id="8,653" x1="532.14563" y1="102.06924" x2="545.92841" y2="107.98828" />
      <line class="basepairs" id="9,650" x1="526.16956" y1="115.82742" x2="539.90289" y2="121.86035" />
      <line class="basepairs" id="11,649" x1="520.14026" y1="129.63010" x2="533.89844" y2="135.60611" />
      <line class="basepairs" id="12,521" x1="510.79483" y1="141.36310" x2="519.69678" y2="153.43600" />
      <line class="basepairs" id="18,513" x1="491.19687" y1="171.28806" x2="499.99857" y2="183.43427" />
      <line class="basepairs" id="19,511" x1="479.03247" y1="180.06461" x2="487.78384" y2="192.24713" />
      <line class="basepairs" id="22,509" x1="454.15634" y1="198.01730" x2="462.95807" y2="210.16351" />
      <line class="basepairs" id="26,508" x1="441.91489" y1="207.00449" x2="450.86673" y2="219.04044" />
      <line class="basepairs" id="27,494" x1="420.54749" y1="249.28162" x2="428.83905" y2="261.78162" />
      <line class="basepairs" id="28,490" x1="407.99625" y1="257.49542" x2="416.13196" y2="270.09741" />
      <line class="basepairs" id="29,41" x1="393.92578" y1="252.29710" x2="379.55099" y2="256.58264" />
      <line class="basepairs" id="30,36" x1="389.75940" y1="237.88733" x2="375.31564" y2="241.93430" />
      <line class="basepairs" id="45,51" x1="351.30402" y1="266.68750" x2="337.47272" y2="272.49222" />
      <line class="basepairs" id="53,489" x1="394.60400" y1="267.11575" x2="403.94943" y2="278.84875" />
      <line class="basepairs" id="57,487" x1="368.53510" y1="288.06570" x2="377.97733" y2="299.72095" />
      <line class="basepairs" id="59,407" x1="336.41922" y1="301.59851" x2="341.67572" y2="315.64734" />
      <line class="basepairs" id="60,406" x1="322.37039" y1="306.85501" x2="327.62689" y2="320.90381" />
      <line class="basepairs" id="62,405" x1="308.27438" y1="312.16245" x2="313.58899" y2="326.18939" />
      <line class="basepairs" id="63,402" x1="294.22556" y1="317.41895" x2="299.42389" y2="331.48941" />
      <line class="basepairs" id="64,394" x1="280.08130" y1="322.41290" x2="284.86978" y2="336.62802" />
      <line class="basepairs" id="65,392" x1="265.85626" y1="327.17197" x2="270.58591" y2="341.40680" />
      <line class="basepairs" id="66,389" x1="251.60197" y1="331.84265" x2="256.21359" y2="346.11615" />
      <line class="basepairs" id="68,74" x1="230.35474" y1="324.43964" x2="217.87192" y2="332.75702" />
      <line class="basepairs" id="75,388" x1="213.17177" y1="347.00165" x2="218.25342" y2="361.11462" />
      <line class="basepairs" id="86,386" x1="192.14790" y1="355.01706" x2="197.75165" y2="368.93103" />
      <line class="basepairs" id="87,367" x1="113.14516" y1="356.98083" x2="117.69767" y2="371.27332" />
      <line class="basepairs" id="88,366" x1="98.85269" y1="361.53336" x2="103.40520" y2="375.82581" />
      <line class="basepairs" id="89,364" x1="84.55083" y1="366.05627" x2="89.04414" y2="380.36746" />
      <line class="basepairs" id="90,310" x1="69.83378" y1="368.95599" x2="71.10503" y2="383.90201" />
      <line class="basepairs" id="92,309" x1="54.82855" y1="370.26355" x2="56.16166" y2="385.20419" />
      <line class="basepairs" id="93,307" x1="39.88518" y1="371.56573" x2="41.15644" y2="386.51178" />
      <line class="basepairs" id="94,306" x1="24.93915" y1="372.83698" x2="26.21040" y2="387.78302" />
      <line class="basepairs" id="95,304" x1="9.99052" y1="374.07730" x2="11.19989" y2="389.02847" />
      <line class="basepairs" id="96,302" x1="-4.96312" y1="375.25574" x2="-3.81564" y2="390.21179" />
      <line class="basepairs" id="99,131" x1="-39.04097" y1="359.53436" x2="-47.74183" y2="371.75299" />
      <line class="basepairs" id="102,130" x1="-51.39697" y1="350.81256" x2="-59.99638" y2="363.10278" />
      <line class="basepairs" id="104,128" x1="-73.13223" y1="335.60455" x2="-81.73164" y2="347.89478" />
      <line class="basepairs" id="105,126" x1="-85.40465" y1="326.97971" x2="-94.05486" y2="339.23425" />
      <line class="basepairs" id="106,125" x1="-97.65919" y1="318.32950" x2="-106.30940" y2="330.58405" />
      <line class="basepairs" id="107,123" x1="-109.89582" y1="309.65396" x2="-118.59667" y2="321.87259" />
      <line class="basepairs" id="108,121" x1="-122.09642" y1="300.92786" x2="-130.84778" y2="313.11035" />
      <line class="basepairs" id="110,120" x1="-134.34753" y1="292.16559" x2="-143.04839" y2="304.38422" />
      <line class="basepairs" id="111,115" x1="-146.49373" y1="283.36389" x2="-155.39568" y2="295.43683" />
      <line class="basepairs" id="132,300" x1="-50.73285" y1="386.45178" x2="-47.49889" y2="401.09900" />
      <line class="basepairs" id="134,298" x1="-76.63643" y1="392.17102" x2="-73.40247" y2="406.81827" />
      <line class="basepairs" id="135,297" x1="-91.28367" y1="395.40500" x2="-88.04971" y2="410.05225" />
      <line class="basepairs" id="139,172" x1="-104.29268" y1="371.02780" x2="-108.48887" y2="385.42892" />
      <line class="basepairs" id="142,170" x1="-133.76218" y1="362.50317" x2="-137.89873" y2="376.92151" />
      <line class="basepairs" id="144,168" x1="-159.26099" y1="355.18768" x2="-163.39754" y2="369.60605" />
      <line class="basepairs" id="146,167" x1="-173.74759" y1="351.06400" x2="-177.82442" y2="365.49933" />
      <line class="basepairs" id="147,164" x1="-188.16594" y1="346.92743" x2="-192.36214" y2="361.32855" />
      <line class="basepairs" id="152,163" x1="-202.84029" y1="342.78311" x2="-206.79749" y2="357.25171" />
      <line class="basepairs" id="154,158" x1="-236.79192" y1="333.28058" x2="-240.92847" y2="347.69891" />
      <line class="basepairs" id="173,296" x1="-107.83717" y1="400.41476" x2="-102.40662" y2="414.39722" />
      <line class="basepairs" id="175,295" x1="-121.86618" y1="405.89682" x2="-116.37782" y2="419.85669" />
      <line class="basepairs" id="176,293" x1="-135.83737" y1="411.35629" x2="-130.40683" y2="425.33875" />
      <line class="basepairs" id="177,288" x1="-149.86432" y1="416.67090" x2="-144.66600" y2="430.74133" />
      <line class="basepairs" id="181,186" x1="-166.11356" y1="392.56927" x2="-166.88928" y2="407.54919" />
      <line class="basepairs" id="187,287" x1="-164.35593" y1="422.33374" x2="-158.63719" y2="436.20081" />
      <line class="basepairs" id="188,243" x1="-178.67639" y1="426.79742" x2="-175.50308" y2="441.45792" />
      <line class="basepairs" id="189,236" x1="-203.02338" y1="403.25934" x2="-200.21509" y2="417.99411" />
      <line class="basepairs" id="191,227" x1="-225.89278" y1="378.50394" x2="-223.51254" y2="393.31387" />
      <line class="basepairs" id="192,213" x1="-240.76140" y1="380.48492" x2="-239.18112" y2="395.40143" />
      <line class="basepairs" id="193,209" x1="-255.68744" y1="381.97253" x2="-254.29251" y2="396.90753" />
      <line class="basepairs" id="196,207" x1="-286.22659" y1="384.88486" x2="-284.76984" y2="399.81396" />
      <line class="basepairs" id="197,206" x1="-301.15570" y1="386.34161" x2="-299.69894" y2="401.27069" />
      <line class="basepairs" id="201,205" x1="-316.26071" y1="387.91025" x2="-314.61871" y2="402.82010" />
      <line class="basepairs" id="215,223" x1="-233.99205" y1="424.94925" x2="-230.39537" y2="439.51166" />
      <line class="basepairs" id="217,221" x1="-259.74564" y1="431.31000" x2="-256.14893" y2="445.87241" />
      <line class="basepairs" id="228,235" x1="-219.76535" y1="407.83829" x2="-214.68370" y2="421.95129" />
      <line class="basepairs" id="237,242" x1="-195.78105" y1="432.32376" x2="-189.77658" y2="446.06955" />
      <line class="basepairs" id="244,265" x1="-170.01471" y1="455.41779" x2="-162.35399" y2="468.31403" />
      <line class="basepairs" id="246,264" x1="-182.94839" y1="463.13699" x2="-175.23434" y2="476.00143" />
      <line class="basepairs" id="247,262" x1="-195.82877" y1="470.82437" x2="-188.16803" y2="483.72064" />
      <line class="basepairs" id="248,260" x1="-208.74083" y1="478.45840" x2="-201.13356" y2="491.38626" />
      <line class="basepairs" id="253,259" x1="-221.81825" y1="486.30017" x2="-213.99799" y2="499.10028" />
      <line class="basepairs" id="254,258" x1="-234.61839" y1="494.12042" x2="-226.79813" y2="506.92056" />
      <line class="basepairs" id="266,285" x1="-153.60263" y1="480.49655" x2="-143.82672" y2="491.87335" />
      <line class="basepairs" id="268,284" x1="-165.00618" y1="490.33655" x2="-155.18327" y2="501.67279" />
      <line class="basepairs" id="270,282" x1="-185.05429" y1="507.70831" x2="-175.23137" y2="519.04456" />
      <line class="basepairs" id="271,279" x1="-196.43109" y1="517.48419" x2="-186.70236" y2="528.90137" />
      <line class="basepairs" id="272,277" x1="-207.86838" y1="527.18933" x2="-198.18698" y2="538.64667" />
      <line class="basepairs" id="312,325" x1="87.42857" y1="409.07227" x2="100.55639" y2="416.32904" />
      <line class="basepairs" id="314,318" x1="40.86773" y1="400.75562" x2="53.84256" y2="408.28247" />
      <line class="basepairs" id="320,324" x1="80.15804" y1="422.68719" x2="93.49057" y2="429.56058" />
      <line class="basepairs" id="326,334" x1="114.01463" y1="422.95291" x2="127.77280" y2="428.92892" />
      <line class="basepairs" id="327,333" x1="108.03861" y1="436.71109" x2="121.79678" y2="442.68710" />
      <line class="basepairs" id="336,362" x1="156.14307" y1="438.68228" x2="170.66748" y2="442.42947" />
      <line class="basepairs" id="339,349" x1="126.05705" y1="465.71738" x2="140.41397" y2="470.06238" />
      <line class="basepairs" id="341,348" x1="121.72393" y1="480.14273" x2="136.09871" y2="484.42825" />
      <line class="basepairs" id="342,347" x1="117.43840" y1="494.51752" x2="131.81319" y2="498.80304" />
      <line class="basepairs" id="351,360" x1="169.50877" y1="477.37625" x2="184.21370" y2="480.33685" />
      <line class="basepairs" id="352,359" x1="166.54817" y1="492.08118" x2="181.25310" y2="495.04178" />
      <line class="basepairs" id="354,358" x1="163.60588" y1="506.85309" x2="178.32294" y2="509.75278" />
      <line class="basepairs" id="368,377" x1="129.54581" y1="380.47232" x2="144.52063" y2="381.34103" />
      <line class="basepairs" id="371,375" x1="127.82869" y1="411.10193" x2="142.80698" y2="411.90866" />
      <line class="basepairs" id="380,385" x1="174.51651" y1="381.83771" x2="189.51189" y2="381.46524" />
      <line class="basepairs" id="396,401" x1="277.02853" y1="346.78253" x2="291.84335" y2="344.43298" />
      <line class="basepairs" id="412,486" x1="363.04260" y1="322.69757" x2="375.62772" y2="314.53577" />
      <line class="basepairs" id="413,484" x1="371.17831" y1="335.29956" x2="383.79712" y2="327.18994" />
      <line class="basepairs" id="414,467" x1="378.86572" y1="348.17993" x2="391.99353" y2="340.92316" />
      <line class="basepairs" id="415,466" x1="386.12247" y1="361.30774" x2="399.25027" y2="354.05096" />
      <line class="basepairs" id="417,462" x1="402.12723" y1="390.53180" x2="415.31467" y2="383.38397" />
      <line class="basepairs" id="423,460" x1="420.00140" y1="422.89316" x2="433.06870" y2="415.52798" />
      <line class="basepairs" id="424,453" x1="427.20377" y1="436.05090" x2="440.44992" y2="429.01248" />
      <line class="basepairs" id="425,434" x1="433.74396" y1="449.54999" x2="447.47729" y2="443.51709" />
      <line class="basepairs" id="426,433" x1="439.77689" y1="463.28333" x2="453.51019" y2="457.25040" />
      <line class="basepairs" id="427,431" x1="445.78137" y1="477.02908" x2="459.53952" y2="471.05307" />
      <line class="basepairs" id="436,449" x1="474.25525" y1="429.99152" x2="487.26111" y2="422.51840" />
      <line class="basepairs" id="437,447" x1="481.70142" y1="443.01282" x2="494.73810" y2="435.59363" />
      <line class="basepairs" id="439,443" x1="498.06781" y1="472.03589" x2="511.16550" y2="464.72485" />
      <line class="basepairs" id="470,479" x1="415.95383" y1="322.87036" x2="426.54947" y2="312.25281" />
      <line class="basepairs" id="472,478" x1="426.63736" y1="333.48776" x2="437.18893" y2="322.82642" />
      <line class="basepairs" id="495,506" x1="443.83853" y1="261.65744" x2="451.92200" y2="249.02188" />
      <line class="basepairs" id="497,505" x1="456.54315" y1="269.74811" x2="464.57425" y2="257.07919" />
      <line class="basepairs" id="500,504" x1="469.35034" y1="277.79276" x2="477.27631" y2="265.05780" />
      <line class="basepairs" id="514,520" x1="514.92767" y1="181.97751" x2="521.21533" y2="168.35895" />
      <line class="basepairs" id="515,519" x1="528.54626" y1="188.26517" x2="534.83386" y2="174.64661" />
      <line class="basepairs" id="522,648" x1="544.87500" y1="162.45895" x2="542.92480" y2="147.58627" />
      <line class="basepairs" id="523,541" x1="559.81567" y1="163.79205" x2="564.36816" y2="149.49957" />
      <line class="basepairs" id="525,538" x1="588.96906" y1="173.14066" x2="593.58069" y2="158.86716" />
      <line class="basepairs" id="526,531" x1="589.59448" y1="220.39325" x2="594.55914" y2="206.23865" />
      <line class="basepairs" id="533,537" x1="603.72327" y1="177.67264" x2="607.91949" y2="163.27151" />
      <line class="basepairs" id="543,646" x1="565.85767" y1="119.53659" x2="562.74506" y2="104.86307" />
      <line class="basepairs" id="544,642" x1="580.55017" y1="116.51514" x2="577.62006" y2="101.80411" />
      <line class="basepairs" id="545,640" x1="595.26727" y1="113.61545" x2="592.39801" y2="98.89243" />
      <line class="basepairs" id="546,639" x1="609.99030" y1="110.74619" x2="607.12103" y2="96.02316" />
      <line class="basepairs" id="547,558" x1="624.98486" y1="110.34268" x2="627.05811" y2="95.48663" />
      <line class="basepairs" id="548,557" x1="639.84088" y1="112.41592" x2="641.91412" y2="97.55991" />
      <line class="basepairs" id="550,556" x1="654.76270" y1="114.46689" x2="656.77441" y2="99.60239" />
      <line class="basepairs" id="551,555" x1="669.62714" y1="116.47861" x2="671.63892" y2="101.61414" />
      <line class="basepairs" id="559,638" x1="626.28235" y1="80.50671" x2="622.68567" y2="65.94431" />
      <line class="basepairs" id="560,632" x1="640.88123" y1="77.06091" x2="637.58661" y2="62.42719" />
      <line class="basepairs" id="566,572" x1="714.49963" y1="105.54675" x2="714.53070" y2="90.54678" />
      <line class="basepairs" id="576,620" x1="710.99994" y1="60.75528" x2="707.46356" y2="46.17810" />
      <line class="basepairs" id="583,619" x1="725.89301" y1="56.94583" x2="721.99573" y2="42.46100" />
      <line class="basepairs" id="590,618" x1="740.68683" y1="52.76776" x2="736.43109" y2="38.38416" />
      <line class="basepairs" id="592,617" x1="755.12109" y1="48.46451" x2="750.80585" y2="34.09863" />
      <line class="basepairs" id="593,614" x1="769.50470" y1="44.20874" x2="765.30853" y2="29.80762" />
      <line class="basepairs" id="596,612" x1="798.94086" y1="35.56949" x2="794.68506" y2="21.18585" />
      <line class="basepairs" id="598,611" x1="813.37512" y1="31.26620" x2="809.05981" y2="16.90033" />
      <line class="basepairs" id="599,606" x1="827.77625" y1="27.07001" x2="823.69940" y2="12.63467" />
      <line class="basepairs" id="601,605" x1="842.26282" y1="22.94632" x2="838.12628" y2="8.52795" />
      <line class="basepairs" id="623,628" x1="697.12524" y1="18.01575" x2="690.39014" y2="4.61279" />
      <line class="basepairs" id="655,713" x1="577.20630" y1="104.42523" x2="565.00574" y2="95.69910" />
      <line class="basepairs" id="656,670" x1="586.95868" y1="93.02820" x2="576.45129" y2="82.32330" />
      <line class="basepairs" id="658,666" x1="610.82916" y1="69.78174" x2="600.41077" y2="58.99020" />
      <line class="basepairs" id="659,664" x1="621.64221" y1="59.38568" x2="611.26855" y2="48.55112" />
      <line class="basepairs" id="672,710" x1="553.10181" y1="63.48712" x2="540.41626" y2="55.48227" />
      <line class="basepairs" id="673,679" x1="561.87836" y1="51.32275" x2="550.28192" y2="41.80835" />
      <line class="basepairs" id="680,695" x1="538.24597" y1="32.85651" x2="525.79773" y2="24.48749" />
      <line class="basepairs" id="681,694" x1="546.61499" y1="20.40823" x2="534.16669" y2="12.03922" />
      <line class="basepairs" id="682,692" x1="555.00977" y1="7.97729" x2="542.59619" y2="-0.44318" />
      <line class="basepairs" id="686,690" x1="573.67499" y1="-19.77338" x2="561.19220" y2="-28.09076" />
      <line class="basepairs" id="696,709" x1="512.85413" y1="16.90698" x2="499.46518" y2="10.14420" />
      <line class="basepairs" id="697,701" x1="519.81018" y1="3.61740" x2="506.62274" y2="-3.53046" />
      <line class="basepairs" id="704,708" x1="479.84479" y1="-17.05603" x2="466.26553" y2="-23.42810" />
      <line class="basepairs" id="718,739" x1="602.13275" y1="52.48557" x2="587.60834" y2="48.73837" />
      <line class="basepairs" id="720,737" x1="608.75964" y1="26.79919" x2="594.23523" y2="23.05200" />
      <line class="basepairs" id="721,734" x1="612.56689" y1="12.29041" x2="598.07397" y2="8.42313" />
      <line class="basepairs" id="722,726" x1="616.64374" y1="-2.14493" x2="602.26892" y2="-6.43045" />
      <line class="basepairs" id="727,731" x1="587.80853" y1="-10.41760" x2="573.26874" y2="-14.10461" />
      <line class="basepairs" id="748,753" x1="562.79352" y1="-26.29437" x2="547.83063" y2="-27.34900" />
    </g>
    <g transform="translate(-4.6, 4)" id="seq">
      <text class="nucleotide" x="543.021" y="42.985">G</text>
      <text class="nucleotide" x="541.256" y="57.881">G</text>
      <text class="nucleotide" x="537.081" y="63.872">C</text>
      <text class="nucleotide" x="538.743" y="72.732">G</text>
      <text class="nucleotide" x="535.538" y="76.129">C</text>
      <text class="nucleotide" x="534.362" y="81.539">C</text>
      <text class="nucleotide" x="536.312" y="87.659">G</text>
      <text class="nucleotide" x="532.146" y="102.069">G</text>
      <text class="nucleotide" x="526.170" y="115.827">G</text>
      <text class="nucleotide" x="520.669" y="120.631">C</text>
      <text class="nucleotide" x="520.140" y="129.630">G</text>
      <text class="nucleotide" x="510.795" y="141.363">G</text>
      <text class="nucleotide" x="504.045" y="143.148">A</text>
      <text class="nucleotide" x="498.173" y="146.792">G</text>
      <text class="nucleotide" x="493.670" y="151.940">G</text>
      <text class="nucleotide" x="490.899" y="158.115">G</text>
      <text class="nucleotide" x="490.064" y="164.760">G</text>
      <text class="nucleotide" x="491.197" y="171.288">G</text>
      <text class="nucleotide" x="479.032" y="180.065">A</text>
      <text class="nucleotide" x="467.124" y="178.408">G</text>
      <text class="nucleotide" x="456.925" y="185.499">A</text>
      <text class="nucleotide" x="454.156" y="198.017">G</text>
      <text class="nucleotide" x="450.743" y="197.879">C</text>
      <text class="nucleotide" x="447.088" y="199.316">G</text>
      <text class="nucleotide" x="443.902" y="202.428">C</text>
      <text class="nucleotide" x="441.915" y="207.004">G</text>
      <text class="nucleotide" x="420.547" y="249.282">G</text>
      <text class="nucleotide" x="407.996" y="257.495">G</text>
      <text class="nucleotide" x="393.926" y="252.297">C</text>
      <text class="nucleotide" x="389.759" y="237.887">C</text>
      <text class="nucleotide" x="396.337" y="223.255">G</text>
      <text class="nucleotide" x="388.871" y="209.055">C</text>
      <text class="nucleotide" x="373.087" y="206.181">G</text>
      <text class="nucleotide" x="361.094" y="216.838">C</text>
      <text class="nucleotide" x="362.093" y="232.850">G</text>
      <text class="nucleotide" x="375.316" y="241.934">G</text>
      <text class="nucleotide" x="374.165" y="244.369">G</text>
      <text class="nucleotide" x="373.854" y="247.380">C</text>
      <text class="nucleotide" x="374.595" y="250.670">G</text>
      <text class="nucleotide" x="376.499" y="253.871">G</text>
      <text class="nucleotide" x="379.551" y="256.583">G</text>
      <text class="nucleotide" x="372.489" y="259.109">A</text>
      <text class="nucleotide" x="361.052" y="249.404">A</text>
      <text class="nucleotide" x="358.366" y="264.161">G</text>
      <text class="nucleotide" x="351.304" y="266.688">C</text>
      <text class="nucleotide" x="356.019" y="251.353">G</text>
      <text class="nucleotide" x="346.851" y="238.188">A</text>
      <text class="nucleotide" x="330.833" y="237.291">A</text>
      <text class="nucleotide" x="320.253" y="249.350">G</text>
      <text class="nucleotide" x="323.226" y="265.115">A</text>
      <text class="nucleotide" x="337.473" y="272.492">G</text>
      <text class="nucleotide" x="366.145" y="270.700">G</text>
      <text class="nucleotide" x="394.604" y="267.116">C</text>
      <text class="nucleotide" x="384.740" y="265.067">G</text>
      <text class="nucleotide" x="375.151" y="268.807">G</text>
      <text class="nucleotide" x="369.024" y="277.348">G</text>
      <text class="nucleotide" x="368.535" y="288.066">C</text>
      <text class="nucleotide" x="348.200" y="284.645">G</text>
      <text class="nucleotide" x="336.419" y="301.599">G</text>
      <text class="nucleotide" x="322.370" y="306.855">G</text>
      <text class="nucleotide" x="315.092" y="306.265">C</text>
      <text class="nucleotide" x="308.274" y="312.162">C</text>
      <text class="nucleotide" x="294.226" y="317.419">A</text>
      <text class="nucleotide" x="280.081" y="322.413">G</text>
      <text class="nucleotide" x="265.856" y="327.172">C</text>
      <text class="nucleotide" x="251.602" y="331.843">G</text>
      <text class="nucleotide" x="244.243" y="318.772">A</text>
      <text class="nucleotide" x="230.355" y="324.440">G</text>
      <text class="nucleotide" x="232.082" y="308.490">G</text>
      <text class="nucleotide" x="220.589" y="297.297">A</text>
      <text class="nucleotide" x="204.690" y="299.448">G</text>
      <text class="nucleotide" x="196.583" y="313.292">C</text>
      <text class="nucleotide" x="202.487" y="328.210">G</text>
      <text class="nucleotide" x="217.872" y="332.757">C</text>
      <text class="nucleotide" x="213.172" y="347.002">G</text>
      <text class="nucleotide" x="221.317" y="334.406">G</text>
      <text class="nucleotide" x="222.399" y="319.445">A</text>
      <text class="nucleotide" x="216.151" y="305.808">G</text>
      <text class="nucleotide" x="204.114" y="296.858">A</text>
      <text class="nucleotide" x="189.256" y="294.801">G</text>
      <text class="nucleotide" x="175.240" y="300.145">A</text>
      <text class="nucleotide" x="165.523" y="311.572">A</text>
      <text class="nucleotide" x="162.500" y="326.264">A</text>
      <text class="nucleotide" x="166.918" y="340.599">A</text>
      <text class="nucleotide" x="177.686" y="351.041">G</text>
      <text class="nucleotide" x="192.148" y="355.017">G</text>
      <text class="nucleotide" x="113.145" y="356.981">C</text>
      <text class="nucleotide" x="98.853" y="361.533">G</text>
      <text class="nucleotide" x="84.551" y="366.056">C</text>
      <text class="nucleotide" x="69.834" y="368.956">G</text>
      <text class="nucleotide" x="61.137" y="366.585">A</text>
      <text class="nucleotide" x="54.829" y="370.264">G</text>
      <text class="nucleotide" x="39.885" y="371.566">C</text>
      <text class="nucleotide" x="24.939" y="372.837">G</text>
      <text class="nucleotide" x="9.991" y="374.077">G</text>
      <text class="nucleotide" x="-4.963" y="375.256">C</text>
      <text class="nucleotide" x="-11.205" y="364.320">C</text>
      <text class="nucleotide" x="-23.683" y="357.942">A</text>
      <text class="nucleotide" x="-39.041" y="359.534">G</text>
      <text class="nucleotide" x="-42.043" y="353.855">G</text>
      <text class="nucleotide" x="-46.728" y="350.905">A</text>
      <text class="nucleotide" x="-51.397" y="350.813">G</text>
      <text class="nucleotide" x="-58.268" y="336.561">G</text>
      <text class="nucleotide" x="-73.132" y="335.605">G</text>
      <text class="nucleotide" x="-85.405" y="326.980">C</text>
      <text class="nucleotide" x="-97.659" y="318.329">U</text>
      <text class="nucleotide" x="-109.896" y="309.654">C</text>
      <text class="nucleotide" x="-122.096" y="300.928">A</text>
      <text class="nucleotide" x="-127.163" y="293.472">G</text>
      <text class="nucleotide" x="-134.348" y="292.166">G</text>
      <text class="nucleotide" x="-146.494" y="283.364">C</text>
      <text class="nucleotide" x="-155.654" y="269.097">C</text>
      <text class="nucleotide" x="-171.898" y="273.950">G</text>
      <text class="nucleotide" x="-171.732" y="290.903">A</text>
      <text class="nucleotide" x="-155.396" y="295.437">G</text>
      <text class="nucleotide" x="-154.806" y="298.064">A</text>
      <text class="nucleotide" x="-153.200" y="300.630">C</text>
      <text class="nucleotide" x="-150.593" y="302.769">A</text>
      <text class="nucleotide" x="-147.123" y="304.122">C</text>
      <text class="nucleotide" x="-143.048" y="304.384">C</text>
      <text class="nucleotide" x="-130.848" y="313.110">U</text>
      <text class="nucleotide" x="-127.290" y="319.488">U</text>
      <text class="nucleotide" x="-118.597" y="321.873">G</text>
      <text class="nucleotide" x="-115.012" y="328.235">C</text>
      <text class="nucleotide" x="-106.309" y="330.584">A</text>
      <text class="nucleotide" x="-94.055" y="339.234">G</text>
      <text class="nucleotide" x="-90.444" y="345.582">C</text>
      <text class="nucleotide" x="-81.732" y="347.895">U</text>
      <text class="nucleotide" x="-75.739" y="361.531">G</text>
      <text class="nucleotide" x="-59.996" y="363.103">C</text>
      <text class="nucleotide" x="-47.742" y="371.753">C</text>
      <text class="nucleotide" x="-50.733" y="386.452">G</text>
      <text class="nucleotide" x="-65.877" y="381.872">C</text>
      <text class="nucleotide" x="-76.636" y="392.171">C</text>
      <text class="nucleotide" x="-91.284" y="395.405">G</text>
      <text class="nucleotide" x="-91.070" y="389.223">C</text>
      <text class="nucleotide" x="-93.113" y="382.616">C</text>
      <text class="nucleotide" x="-97.546" y="376.303">G</text>
      <text class="nucleotide" x="-104.293" y="371.028">C</text>
      <text class="nucleotide" x="-111.116" y="360.173">C</text>
      <text class="nucleotide" x="-123.108" y="356.932">A</text>
      <text class="nucleotide" x="-133.762" y="362.503">C</text>
      <text class="nucleotide" x="-144.894" y="351.260">C</text>
      <text class="nucleotide" x="-159.261" y="355.188">G</text>
      <text class="nucleotide" x="-166.543" y="349.874">A</text>
      <text class="nucleotide" x="-173.748" y="351.064">G</text>
      <text class="nucleotide" x="-188.166" y="346.927">C</text>
      <text class="nucleotide" x="-190.897" y="343.893">C</text>
      <text class="nucleotide" x="-194.110" y="342.008">G</text>
      <text class="nucleotide" x="-197.404" y="341.287">C</text>
      <text class="nucleotide" x="-200.413" y="341.618">C</text>
      <text class="nucleotide" x="-202.840" y="342.783">G</text>
      <text class="nucleotide" x="-217.155" y="326.740">C</text>
      <text class="nucleotide" x="-236.792" y="333.281">G</text>
      <text class="nucleotide" x="-250.349" y="323.101">G</text>
      <text class="nucleotide" x="-263.885" y="333.310">A</text>
      <text class="nucleotide" x="-257.821" y="349.143">U</text>
      <text class="nucleotide" x="-240.928" y="347.699">C</text>
      <text class="nucleotide" x="-238.028" y="355.875">A</text>
      <text class="nucleotide" x="-231.637" y="361.941">A</text>
      <text class="nucleotide" x="-223.060" y="364.489">A</text>
      <text class="nucleotide" x="-214.125" y="362.848">C</text>
      <text class="nucleotide" x="-206.797" y="357.252">U</text>
      <text class="nucleotide" x="-192.362" y="361.329">G</text>
      <text class="nucleotide" x="-189.366" y="364.910">C</text>
      <text class="nucleotide" x="-184.132" y="366.716">U</text>
      <text class="nucleotide" x="-177.824" y="365.499">C</text>
      <text class="nucleotide" x="-163.398" y="369.606">C</text>
      <text class="nucleotide" x="-153.298" y="380.553">A</text>
      <text class="nucleotide" x="-137.899" y="376.922">G</text>
      <text class="nucleotide" x="-126.334" y="390.186">C</text>
      <text class="nucleotide" x="-108.489" y="385.429">G</text>
      <text class="nucleotide" x="-107.837" y="400.415">G</text>
      <text class="nucleotide" x="-116.850" y="400.590">A</text>
      <text class="nucleotide" x="-121.866" y="405.897">G</text>
      <text class="nucleotide" x="-135.837" y="411.356">U</text>
      <text class="nucleotide" x="-149.864" y="416.671">G</text>
      <text class="nucleotide" x="-150.207" y="410.143">C</text>
      <text class="nucleotide" x="-153.035" y="403.423">A</text>
      <text class="nucleotide" x="-158.397" y="397.301">U</text>
      <text class="nucleotide" x="-166.114" y="392.569">C</text>
      <text class="nucleotide" x="-179.571" y="383.197">A</text>
      <text class="nucleotide" x="-194.299" y="390.409">C</text>
      <text class="nucleotide" x="-195.147" y="406.786">C</text>
      <text class="nucleotide" x="-181.243" y="415.481">U</text>
      <text class="nucleotide" x="-166.889" y="407.549">G</text>
      <text class="nucleotide" x="-164.356" y="422.334">G</text>
      <text class="nucleotide" x="-178.676" y="426.797">A</text>
      <text class="nucleotide" x="-203.023" y="403.259">C</text>
      <text class="nucleotide" x="-207.434" y="388.227">C</text>
      <text class="nucleotide" x="-225.893" y="378.504">C</text>
      <text class="nucleotide" x="-240.761" y="380.485">G</text>
      <text class="nucleotide" x="-255.687" y="381.973">G</text>
      <text class="nucleotide" x="-266.025" y="374.389">A</text>
      <text class="nucleotide" x="-278.368" y="375.786">G</text>
      <text class="nucleotide" x="-286.227" y="384.885">G</text>
      <text class="nucleotide" x="-301.156" y="386.342">G</text>
      <text class="nucleotide" x="-305.702" y="384.287">C</text>
      <text class="nucleotide" x="-310.153" y="384.123">C</text>
      <text class="nucleotide" x="-313.826" y="385.514">C</text>
      <text class="nucleotide" x="-316.261" y="387.910">U</text>
      <text class="nucleotide" x="-332.667" y="383.634">G</text>
      <text class="nucleotide" x="-341.317" y="398.215">C</text>
      <text class="nucleotide" x="-329.701" y="410.564">A</text>
      <text class="nucleotide" x="-314.619" y="402.820">G</text>
      <text class="nucleotide" x="-299.699" y="401.271">C</text>
      <text class="nucleotide" x="-284.770" y="399.814">U</text>
      <text class="nucleotide" x="-269.136" y="407.895">A</text>
      <text class="nucleotide" x="-254.293" y="396.908">C</text>
      <text class="nucleotide" x="-251.425" y="398.764">A</text>
      <text class="nucleotide" x="-247.547" y="399.387">G</text>
      <text class="nucleotide" x="-243.221" y="398.330">A</text>
      <text class="nucleotide" x="-239.181" y="395.401">C</text>
      <text class="nucleotide" x="-237.884" y="402.788">A</text>
      <text class="nucleotide" x="-233.992" y="424.949">G</text>
      <text class="nucleotide" x="-249.245" y="420.747">U</text>
      <text class="nucleotide" x="-259.746" y="431.310">G</text>
      <text class="nucleotide" x="-276.572" y="429.238">G</text>
      <text class="nucleotide" x="-283.222" y="444.834">C</text>
      <text class="nucleotide" x="-270.076" y="455.540">A</text>
      <text class="nucleotide" x="-256.149" y="445.872">U</text>
      <text class="nucleotide" x="-241.938" y="450.332">C</text>
      <text class="nucleotide" x="-230.395" y="439.512">U</text>
      <text class="nucleotide" x="-220.682" y="427.293">G</text>
      <text class="nucleotide" x="-216.658" y="414.205">C</text>
      <text class="nucleotide" x="-217.944" y="402.296">A</text>
      <text class="nucleotide" x="-223.513" y="393.314">G</text>
      <text class="nucleotide" x="-219.765" y="407.838">G</text>
      <text class="nucleotide" x="-233.957" y="400.884">C</text>
      <text class="nucleotide" x="-248.883" y="406.080">A</text>
      <text class="nucleotide" x="-255.687" y="420.345">G</text>
      <text class="nucleotide" x="-250.333" y="435.215">G</text>
      <text class="nucleotide" x="-235.997" y="441.868">C</text>
      <text class="nucleotide" x="-221.185" y="436.357">C</text>
      <text class="nucleotide" x="-214.684" y="421.951">U</text>
      <text class="nucleotide" x="-200.215" y="417.994">G</text>
      <text class="nucleotide" x="-195.781" y="432.324">G</text>
      <text class="nucleotide" x="-212.009" y="429.958">G</text>
      <text class="nucleotide" x="-221.957" y="442.995">G</text>
      <text class="nucleotide" x="-215.393" y="458.023">C</text>
      <text class="nucleotide" x="-199.068" y="459.582">C</text>
      <text class="nucleotide" x="-189.777" y="446.070">U</text>
      <text class="nucleotide" x="-175.503" y="441.458">U</text>
      <text class="nucleotide" x="-170.015" y="455.418">C</text>
      <text class="nucleotide" x="-178.875" y="457.076">C</text>
      <text class="nucleotide" x="-182.948" y="463.137">A</text>
      <text class="nucleotide" x="-195.829" y="470.824">G</text>
      <text class="nucleotide" x="-208.741" y="478.458">G</text>
      <text class="nucleotide" x="-212.822" y="478.366">G</text>
      <text class="nucleotide" x="-216.397" y="479.413">G</text>
      <text class="nucleotide" x="-219.180" y="481.317">A</text>
      <text class="nucleotide" x="-221.002" y="483.734">C</text>
      <text class="nucleotide" x="-221.818" y="486.300">U</text>
      <text class="nucleotide" x="-234.618" y="494.120">A</text>
      <text class="nucleotide" x="-251.287" y="497.219">G</text>
      <text class="nucleotide" x="-252.924" y="514.093">A</text>
      <text class="nucleotide" x="-237.162" y="520.338">G</text>
      <text class="nucleotide" x="-226.798" y="506.921">U</text>
      <text class="nucleotide" x="-213.998" y="499.100">G</text>
      <text class="nucleotide" x="-201.134" y="491.386">U</text>
      <text class="nucleotide" x="-193.863" y="490.709">A</text>
      <text class="nucleotide" x="-188.168" y="483.721">C</text>
      <text class="nucleotide" x="-180.900" y="483.013">C</text>
      <text class="nucleotide" x="-175.234" y="476.001">U</text>
      <text class="nucleotide" x="-162.354" y="468.314">G</text>
      <text class="nucleotide" x="-153.603" y="480.497">G</text>
      <text class="nucleotide" x="-162.043" y="483.662">A</text>
      <text class="nucleotide" x="-165.006" y="490.337">A</text>
      <text class="nucleotide" x="-180.503" y="493.526">A</text>
      <text class="nucleotide" x="-185.054" y="507.708">G</text>
      <text class="nucleotide" x="-196.431" y="517.484">G</text>
      <text class="nucleotide" x="-207.868" y="527.189">G</text>
      <text class="nucleotide" x="-224.095" y="529.559">G</text>
      <text class="nucleotide" x="-229.905" y="544.894">A</text>
      <text class="nucleotide" x="-219.321" y="557.420">C</text>
      <text class="nucleotide" x="-203.231" y="554.251">A</text>
      <text class="nucleotide" x="-198.187" y="538.647">U</text>
      <text class="nucleotide" x="-191.135" y="536.751">G</text>
      <text class="nucleotide" x="-186.702" y="528.901">U</text>
      <text class="nucleotide" x="-182.063" y="528.365">G</text>
      <text class="nucleotide" x="-177.680" y="524.983">C</text>
      <text class="nucleotide" x="-175.231" y="519.045">U</text>
      <text class="nucleotide" x="-160.546" y="516.557">G</text>
      <text class="nucleotide" x="-155.183" y="501.673">U</text>
      <text class="nucleotide" x="-143.827" y="491.873">C</text>
      <text class="nucleotide" x="-140.874" y="457.221">C</text>
      <text class="nucleotide" x="-158.637" y="436.201">C</text>
      <text class="nucleotide" x="-144.666" y="430.741">C</text>
      <text class="nucleotide" x="-142.146" y="431.692">A</text>
      <text class="nucleotide" x="-139.120" y="431.760">G</text>
      <text class="nucleotide" x="-135.901" y="430.755">C</text>
      <text class="nucleotide" x="-132.864" y="428.599">C</text>
      <text class="nucleotide" x="-130.407" y="425.339">A</text>
      <text class="nucleotide" x="-123.121" y="425.839">C</text>
      <text class="nucleotide" x="-116.378" y="419.857">C</text>
      <text class="nucleotide" x="-102.407" y="414.397">C</text>
      <text class="nucleotide" x="-88.050" y="410.052">U</text>
      <text class="nucleotide" x="-73.402" y="406.818">G</text>
      <text class="nucleotide" x="-59.306" y="411.630">A</text>
      <text class="nucleotide" x="-47.499" y="401.099">C</text>
      <text class="nucleotide" x="-19.838" y="408.875">C</text>
      <text class="nucleotide" x="-3.816" y="390.212">G</text>
      <text class="nucleotide" x="3.013" y="392.801">G</text>
      <text class="nucleotide" x="11.200" y="389.028">U</text>
      <text class="nucleotide" x="18.039" y="391.589">G</text>
      <text class="nucleotide" x="26.210" y="387.783">U</text>
      <text class="nucleotide" x="41.156" y="386.512">G</text>
      <text class="nucleotide" x="48.006" y="389.044">C</text>
      <text class="nucleotide" x="56.162" y="385.204">C</text>
      <text class="nucleotide" x="71.105" y="383.902">U</text>
      <text class="nucleotide" x="79.267" y="396.488">C</text>
      <text class="nucleotide" x="87.429" y="409.072">U</text>
      <text class="nucleotide" x="69.598" y="395.569">C</text>
      <text class="nucleotide" x="40.868" y="400.756">G</text>
      <text class="nucleotide" x="27.690" y="411.422">C</text>
      <text class="nucleotide" x="34.292" y="427.038">C</text>
      <text class="nucleotide" x="51.125" y="425.017">U</text>
      <text class="nucleotide" x="53.843" y="408.282">U</text>
      <text class="nucleotide" x="60.421" y="411.884">C</text>
      <text class="nucleotide" x="80.158" y="422.687">A</text>
      <text class="nucleotide" x="67.526" y="433.995">C</text>
      <text class="nucleotide" x="74.895" y="449.264">A</text>
      <text class="nucleotide" x="91.607" y="446.410">G</text>
      <text class="nucleotide" x="93.491" y="429.561">U</text>
      <text class="nucleotide" x="100.556" y="416.329">G</text>
      <text class="nucleotide" x="114.015" y="422.953">U</text>
      <text class="nucleotide" x="108.039" y="436.711">G</text>
      <text class="nucleotide" x="93.702" y="443.910">C</text>
      <text class="nucleotide" x="90.533" y="459.637">U</text>
      <text class="nucleotide" x="100.962" y="471.828">C</text>
      <text class="nucleotide" x="116.990" y="471.130">A</text>
      <text class="nucleotide" x="126.321" y="458.079">C</text>
      <text class="nucleotide" x="121.797" y="442.687">U</text>
      <text class="nucleotide" x="127.773" y="428.929">G</text>
      <text class="nucleotide" x="134.865" y="431.367">A</text>
      <text class="nucleotide" x="156.143" y="438.682">U</text>
      <text class="nucleotide" x="143.537" y="439.028">C</text>
      <text class="nucleotide" x="131.431" y="448.427">C</text>
      <text class="nucleotide" x="126.057" y="465.717">G</text>
      <text class="nucleotide" x="120.638" y="472.921">C</text>
      <text class="nucleotide" x="121.724" y="480.143">C</text>
      <text class="nucleotide" x="117.438" y="494.518">U</text>
      <text class="nucleotide" x="105.158" y="505.386">C</text>
      <text class="nucleotide" x="108.694" y="521.399">C</text>
      <text class="nucleotide" x="124.410" y="526.084">A</text>
      <text class="nucleotide" x="136.138" y="514.622">G</text>
      <text class="nucleotide" x="131.813" y="498.803">G</text>
      <text class="nucleotide" x="136.099" y="484.428">G</text>
      <text class="nucleotide" x="140.414" y="470.062">C</text>
      <text class="nucleotide" x="154.962" y="473.719">C</text>
      <text class="nucleotide" x="169.509" y="477.376">A</text>
      <text class="nucleotide" x="166.548" y="492.081">C</text>
      <text class="nucleotide" x="161.839" y="499.768">C</text>
      <text class="nucleotide" x="163.606" y="506.853">G</text>
      <text class="nucleotide" x="154.612" y="521.225">C</text>
      <text class="nucleotide" x="165.932" y="533.846">C</text>
      <text class="nucleotide" x="181.193" y="526.462">A</text>
      <text class="nucleotide" x="178.323" y="509.753">U</text>
      <text class="nucleotide" x="181.253" y="495.042">G</text>
      <text class="nucleotide" x="184.214" y="480.337">U</text>
      <text class="nucleotide" x="185.505" y="454.915">C</text>
      <text class="nucleotide" x="170.667" y="442.429">G</text>
      <text class="nucleotide" x="138.247" y="365.434">A</text>
      <text class="nucleotide" x="89.044" y="380.367">G</text>
      <text class="nucleotide" x="98.049" y="380.789">C</text>
      <text class="nucleotide" x="103.405" y="375.826">C</text>
      <text class="nucleotide" x="117.698" y="371.273">G</text>
      <text class="nucleotide" x="129.546" y="380.472">C</text>
      <text class="nucleotide" x="120.492" y="389.551">G</text>
      <text class="nucleotide" x="120.016" y="401.964">G</text>
      <text class="nucleotide" x="127.829" y="411.102">U</text>
      <text class="nucleotide" x="120.939" y="426.593">G</text>
      <text class="nucleotide" x="133.918" y="437.501">G</text>
      <text class="nucleotide" x="147.993" y="428.050">G</text>
      <text class="nucleotide" x="142.807" y="411.909">A</text>
      <text class="nucleotide" x="153.149" y="397.670">A</text>
      <text class="nucleotide" x="144.521" y="381.341">G</text>
      <text class="nucleotide" x="152.020" y="381.465">A</text>
      <text class="nucleotide" x="167.018" y="381.714">A</text>
      <text class="nucleotide" x="174.517" y="381.838">G</text>
      <text class="nucleotide" x="166.201" y="395.972">A</text>
      <text class="nucleotide" x="174.519" y="410.106">A</text>
      <text class="nucleotide" x="190.913" y="409.698">G</text>
      <text class="nucleotide" x="198.519" y="395.170">U</text>
      <text class="nucleotide" x="189.512" y="381.465">C</text>
      <text class="nucleotide" x="197.752" y="368.931">C</text>
      <text class="nucleotide" x="210.732" y="370.067">A</text>
      <text class="nucleotide" x="218.253" y="361.115">C</text>
      <text class="nucleotide" x="256.214" y="346.116">C</text>
      <text class="nucleotide" x="262.562" y="347.097">A</text>
      <text class="nucleotide" x="267.725" y="345.098">A</text>
      <text class="nucleotide" x="270.586" y="341.407">G</text>
      <text class="nucleotide" x="279.596" y="341.679">A</text>
      <text class="nucleotide" x="284.870" y="336.628">C</text>
      <text class="nucleotide" x="280.878" y="341.648">G</text>
      <text class="nucleotide" x="277.029" y="346.783">U</text>
      <text class="nucleotide" x="270.653" y="361.892">C</text>
      <text class="nucleotide" x="280.764" y="374.803">C</text>
      <text class="nucleotide" x="296.961" y="372.234">A</text>
      <text class="nucleotide" x="302.581" y="356.828">G</text>
      <text class="nucleotide" x="291.843" y="344.433">G</text>
      <text class="nucleotide" x="299.424" y="331.489">U</text>
      <text class="nucleotide" x="305.807" y="332.206">C</text>
      <text class="nucleotide" x="310.883" y="329.996">U</text>
      <text class="nucleotide" x="313.589" y="326.189">G</text>
      <text class="nucleotide" x="327.627" y="320.904">C</text>
      <text class="nucleotide" x="341.676" y="315.647">C</text>
      <text class="nucleotide" x="332.549" y="327.551">A</text>
      <text class="nucleotide" x="336.967" y="341.886">A</text>
      <text class="nucleotide" x="351.212" y="346.586">A</text>
      <text class="nucleotide" x="363.293" y="337.696">G</text>
      <text class="nucleotide" x="363.043" y="322.698">C</text>
      <text class="nucleotide" x="371.178" y="335.300">A</text>
      <text class="nucleotide" x="378.866" y="348.180">G</text>
      <text class="nucleotide" x="386.122" y="361.308">G</text>
      <text class="nucleotide" x="384.951" y="381.507">A</text>
      <text class="nucleotide" x="402.127" y="390.532">G</text>
      <text class="nucleotide" x="398.434" y="397.727">U</text>
      <text class="nucleotide" x="397.822" y="405.699">C</text>
      <text class="nucleotide" x="400.316" y="413.197">A</text>
      <text class="nucleotide" x="405.457" y="419.074">U</text>
      <text class="nucleotide" x="412.391" y="422.461">C</text>
      <text class="nucleotide" x="420.001" y="422.893">U</text>
      <text class="nucleotide" x="427.204" y="436.051">U</text>
      <text class="nucleotide" x="433.744" y="449.550">U</text>
      <text class="nucleotide" x="439.777" y="463.283">C</text>
      <text class="nucleotide" x="445.781" y="477.029">C</text>
      <text class="nucleotide" x="446.546" y="493.966">C</text>
      <text class="nucleotide" x="463.032" y="497.920">G</text>
      <text class="nucleotide" x="471.396" y="483.172">U</text>
      <text class="nucleotide" x="459.540" y="471.053">G</text>
      <text class="nucleotide" x="459.753" y="463.754">G</text>
      <text class="nucleotide" x="453.510" y="457.250">G</text>
      <text class="nucleotide" x="447.477" y="443.517">G</text>
      <text class="nucleotide" x="460.867" y="436.754">C</text>
      <text class="nucleotide" x="474.255" y="429.992">G</text>
      <text class="nucleotide" x="481.701" y="443.013">G</text>
      <text class="nucleotide" x="480.781" y="463.225">A</text>
      <text class="nucleotide" x="498.068" y="472.036">U</text>
      <text class="nucleotide" x="500.508" y="488.813">G</text>
      <text class="nucleotide" x="517.306" y="491.113">C</text>
      <text class="nucleotide" x="524.165" y="475.608">U</text>
      <text class="nucleotide" x="511.165" y="464.725">G</text>
      <text class="nucleotide" x="514.793" y="455.326">C</text>
      <text class="nucleotide" x="512.663" y="445.256">G</text>
      <text class="nucleotide" x="505.233" y="437.821">G</text>
      <text class="nucleotide" x="494.738" y="435.594">U</text>
      <text class="nucleotide" x="494.166" y="428.314">A</text>
      <text class="nucleotide" x="487.261" y="422.518">C</text>
      <text class="nucleotide" x="472.519" y="416.355">A</text>
      <text class="nucleotide" x="458.559" y="416.167">U</text>
      <text class="nucleotide" x="447.380" y="420.927">C</text>
      <text class="nucleotide" x="440.450" y="429.012">A</text>
      <text class="nucleotide" x="454.879" y="433.112">A</text>
      <text class="nucleotide" x="467.999" y="425.842">G</text>
      <text class="nucleotide" x="472.173" y="411.435">A</text>
      <text class="nucleotide" x="464.970" y="398.277">A</text>
      <text class="nucleotide" x="450.584" y="394.030">A</text>
      <text class="nucleotide" x="437.390" y="401.165">G</text>
      <text class="nucleotide" x="433.069" y="415.528">G</text>
      <text class="nucleotide" x="435.133" y="393.951">C</text>
      <text class="nucleotide" x="415.315" y="383.384">C</text>
      <text class="nucleotide" x="419.058" y="374.031">A</text>
      <text class="nucleotide" x="417.054" y="363.935">C</text>
      <text class="nucleotide" x="409.717" y="356.408">C</text>
      <text class="nucleotide" x="399.250" y="354.051">C</text>
      <text class="nucleotide" x="391.994" y="340.923">C</text>
      <text class="nucleotide" x="397.984" y="336.410">A</text>
      <text class="nucleotide" x="409.964" y="327.384">A</text>
      <text class="nucleotide" x="415.954" y="322.870">G</text>
      <text class="nucleotide" x="419.756" y="331.044">U</text>
      <text class="nucleotide" x="426.637" y="333.488">A</text>
      <text class="nucleotide" x="428.158" y="349.459">C</text>
      <text class="nucleotide" x="441.671" y="358.106">A</text>
      <text class="nucleotide" x="456.810" y="352.797">G</text>
      <text class="nucleotide" x="461.962" y="337.604">G</text>
      <text class="nucleotide" x="453.175" y="324.182">A</text>
      <text class="nucleotide" x="437.189" y="322.826">U</text>
      <text class="nucleotide" x="426.549" y="312.253">U</text>
      <text class="nucleotide" x="414.753" y="309.854">G</text>
      <text class="nucleotide" x="403.881" y="310.731">G</text>
      <text class="nucleotide" x="394.721" y="314.383">A</text>
      <text class="nucleotide" x="387.888" y="320.135">G</text>
      <text class="nucleotide" x="383.797" y="327.190">U</text>
      <text class="nucleotide" x="382.834" y="319.951">G</text>
      <text class="nucleotide" x="375.628" y="314.536">G</text>
      <text class="nucleotide" x="377.977" y="299.721">G</text>
      <text class="nucleotide" x="398.070" y="297.339">G</text>
      <text class="nucleotide" x="403.949" y="278.849">G</text>
      <text class="nucleotide" x="416.132" y="270.097">C</text>
      <text class="nucleotide" x="421.115" y="269.840">A</text>
      <text class="nucleotide" x="425.146" y="267.947">C</text>
      <text class="nucleotide" x="427.773" y="265.027">C</text>
      <text class="nucleotide" x="428.839" y="261.782">C</text>
      <text class="nucleotide" x="443.839" y="261.657">G</text>
      <text class="nucleotide" x="449.299" y="268.830">U</text>
      <text class="nucleotide" x="456.543" y="269.748">G</text>
      <text class="nucleotide" x="459.846" y="275.257">U</text>
      <text class="nucleotide" x="464.683" y="277.951">A</text>
      <text class="nucleotide" x="469.350" y="277.793">C</text>
      <text class="nucleotide" x="479.603" y="291.295">A</text>
      <text class="nucleotide" x="495.416" y="285.182">U</text>
      <text class="nucleotide" x="493.919" y="268.294">G</text>
      <text class="nucleotide" x="477.276" y="265.058">G</text>
      <text class="nucleotide" x="464.574" y="257.079">C</text>
      <text class="nucleotide" x="451.922" y="249.022">C</text>
      <text class="nucleotide" x="451.394" y="234.030">G</text>
      <text class="nucleotide" x="450.867" y="219.040">C</text>
      <text class="nucleotide" x="462.958" y="210.164">C</text>
      <text class="nucleotide" x="481.362" y="208.632">G</text>
      <text class="nucleotide" x="487.784" y="192.247">U</text>
      <text class="nucleotide" x="496.467" y="189.826">C</text>
      <text class="nucleotide" x="499.999" y="183.434">C</text>
      <text class="nucleotide" x="514.928" y="181.978">U</text>
      <text class="nucleotide" x="528.546" y="188.265">G</text>
      <text class="nucleotide" x="540.392" y="200.394">G</text>
      <text class="nucleotide" x="555.326" y="192.369">A</text>
      <text class="nucleotide" x="551.749" y="175.796">A</text>
      <text class="nucleotide" x="534.834" y="174.647">U</text>
      <text class="nucleotide" x="521.215" y="168.359">A</text>
      <text class="nucleotide" x="519.697" y="153.436">C</text>
      <text class="nucleotide" x="544.875" y="162.459">C</text>
      <text class="nucleotide" x="559.816" y="163.792">U</text>
      <text class="nucleotide" x="571.970" y="177.696">G</text>
      <text class="nucleotide" x="588.969" y="173.141">A</text>
      <text class="nucleotide" x="589.594" y="220.393">C</text>
      <text class="nucleotide" x="599.866" y="233.177">A</text>
      <text class="nucleotide" x="616.029" y="230.407">G</text>
      <text class="nucleotide" x="621.457" y="214.932">C</text>
      <text class="nucleotide" x="610.566" y="202.672">G</text>
      <text class="nucleotide" x="594.559" y="206.239">G</text>
      <text class="nucleotide" x="596.850" y="199.097">A</text>
      <text class="nucleotide" x="603.723" y="177.673">G</text>
      <text class="nucleotide" x="617.239" y="187.909">A</text>
      <text class="nucleotide" x="630.816" y="177.755">U</text>
      <text class="nucleotide" x="624.818" y="161.898">U</text>
      <text class="nucleotide" x="607.919" y="163.272">C</text>
      <text class="nucleotide" x="593.581" y="158.867">U</text>
      <text class="nucleotide" x="587.847" y="148.300">G</text>
      <text class="nucleotide" x="576.087" y="144.298">G</text>
      <text class="nucleotide" x="564.368" y="149.500">A</text>
      <text class="nucleotide" x="564.741" y="142.009">G</text>
      <text class="nucleotide" x="565.858" y="119.537">C</text>
      <text class="nucleotide" x="580.550" y="116.515">U</text>
      <text class="nucleotide" x="595.267" y="113.615">G</text>
      <text class="nucleotide" x="609.990" y="110.746">G</text>
      <text class="nucleotide" x="624.985" y="110.343">C</text>
      <text class="nucleotide" x="639.841" y="112.416">U</text>
      <text class="nucleotide" x="647.796" y="116.656">G</text>
      <text class="nucleotide" x="654.763" y="114.467">G</text>
      <text class="nucleotide" x="669.627" y="116.479">C</text>
      <text class="nucleotide" x="684.512" y="124.595">A</text>
      <text class="nucleotide" x="696.432" y="112.538">A</text>
      <text class="nucleotide" x="688.146" y="97.747">U</text>
      <text class="nucleotide" x="671.639" y="101.614">G</text>
      <text class="nucleotide" x="656.774" y="99.602">C</text>
      <text class="nucleotide" x="641.914" y="97.560">A</text>
      <text class="nucleotide" x="627.058" y="95.487">G</text>
      <text class="nucleotide" x="626.282" y="80.507">C</text>
      <text class="nucleotide" x="640.881" y="77.061">G</text>
      <text class="nucleotide" x="643.586" y="88.978">A</text>
      <text class="nucleotide" x="651.076" y="100.330">G</text>
      <text class="nucleotide" x="663.152" y="109.229">A</text>
      <text class="nucleotide" x="678.889" y="113.895">G</text>
      <text class="nucleotide" x="696.700" y="112.929">A</text>
      <text class="nucleotide" x="714.500" y="105.547">C</text>
      <text class="nucleotide" x="726.794" y="115.854">A</text>
      <text class="nucleotide" x="742.488" y="112.528">A</text>
      <text class="nucleotide" x="749.543" y="98.119">C</text>
      <text class="nucleotide" x="742.548" y="83.682">A</text>
      <text class="nucleotide" x="726.867" y="80.291">A</text>
      <text class="nucleotide" x="714.531" y="90.547">G</text>
      <text class="nucleotide" x="713.648" y="83.099">A</text>
      <text class="nucleotide" x="725.665" y="74.122">A</text>
      <text class="nucleotide" x="711.883" y="68.203">G</text>
      <text class="nucleotide" x="711.000" y="60.755">G</text>
      <text class="nucleotide" x="703.452" y="73.718">G</text>
      <text class="nucleotide" x="707.244" y="88.231">A</text>
      <text class="nucleotide" x="720.168" y="95.845">C</text>
      <text class="nucleotide" x="734.700" y="92.127">G</text>
      <text class="nucleotide" x="742.380" y="79.243">G</text>
      <text class="nucleotide" x="738.737" y="64.692">G</text>
      <text class="nucleotide" x="725.893" y="56.946">U</text>
      <text class="nucleotide" x="718.670" y="70.092">C</text>
      <text class="nucleotide" x="722.821" y="84.506">A</text>
      <text class="nucleotide" x="735.930" y="91.797">C</text>
      <text class="nucleotide" x="750.365" y="87.720">A</text>
      <text class="nucleotide" x="757.723" y="74.648">C</text>
      <text class="nucleotide" x="753.719" y="60.192">C</text>
      <text class="nucleotide" x="740.687" y="52.768">C</text>
      <text class="nucleotide" x="749.683" y="53.339">C</text>
      <text class="nucleotide" x="755.121" y="48.465">G</text>
      <text class="nucleotide" x="769.505" y="44.209">G</text>
      <text class="nucleotide" x="781.091" y="49.699">C</text>
      <text class="nucleotide" x="792.947" y="45.991">A</text>
      <text class="nucleotide" x="798.941" y="35.569">C</text>
      <text class="nucleotide" x="807.937" y="36.140">A</text>
      <text class="nucleotide" x="813.375" y="31.266">U</text>
      <text class="nucleotide" x="827.776" y="27.070">C</text>
      <text class="nucleotide" x="836.765" y="27.753">C</text>
      <text class="nucleotide" x="842.263" y="22.946">U</text>
      <text class="nucleotide" x="859.155" y="24.390">G</text>
      <text class="nucleotide" x="865.219" y="8.558">C</text>
      <text class="nucleotide" x="851.684" y="-1.652">U</text>
      <text class="nucleotide" x="838.126" y="8.528">G</text>
      <text class="nucleotide" x="823.699" y="12.635">G</text>
      <text class="nucleotide" x="821.262" y="11.489">C</text>
      <text class="nucleotide" x="818.250" y="11.184">U</text>
      <text class="nucleotide" x="814.963" y="11.932">G</text>
      <text class="nucleotide" x="811.766" y="13.843">U</text>
      <text class="nucleotide" x="809.060" y="16.900">G</text>
      <text class="nucleotide" x="794.685" y="21.186">G</text>
      <text class="nucleotide" x="777.805" y="16.209">C</text>
      <text class="nucleotide" x="765.309" y="29.808">C</text>
      <text class="nucleotide" x="760.857" y="28.396">A</text>
      <text class="nucleotide" x="755.473" y="29.685">A</text>
      <text class="nucleotide" x="750.806" y="34.099">U</text>
      <text class="nucleotide" x="736.431" y="38.384">G</text>
      <text class="nucleotide" x="721.996" y="42.461">A</text>
      <text class="nucleotide" x="707.464" y="46.178">U</text>
      <text class="nucleotide" x="704.879" y="39.138">G</text>
      <text class="nucleotide" x="699.710" y="25.056">A</text>
      <text class="nucleotide" x="697.125" y="18.016">A</text>
      <text class="nucleotide" x="713.457" y="19.505">G</text>
      <text class="nucleotide" x="722.690" y="5.952">A</text>
      <text class="nucleotide" x="715.326" y="-8.701">G</text>
      <text class="nucleotide" x="698.941" y="-9.380">C</text>
      <text class="nucleotide" x="690.390" y="4.613">U</text>
      <text class="nucleotide" x="662.891" y="8.988">G</text>
      <text class="nucleotide" x="643.420" y="24.173">A</text>
      <text class="nucleotide" x="635.128" y="44.088">A</text>
      <text class="nucleotide" x="637.587" y="62.427">U</text>
      <text class="nucleotide" x="643.898" y="48.820">C</text>
      <text class="nucleotide" x="637.233" y="35.382">A</text>
      <text class="nucleotide" x="622.580" y="32.174">G</text>
      <text class="nucleotide" x="610.909" y="41.596">C</text>
      <text class="nucleotide" x="610.956" y="56.596">U</text>
      <text class="nucleotide" x="622.686" y="65.944">G</text>
      <text class="nucleotide" x="607.121" y="96.023">C</text>
      <text class="nucleotide" x="592.398" y="98.892">U</text>
      <text class="nucleotide" x="585.316" y="97.111">A</text>
      <text class="nucleotide" x="577.620" y="101.804">A</text>
      <text class="nucleotide" x="574.576" y="100.254">A</text>
      <text class="nucleotide" x="570.654" y="100.035">A</text>
      <text class="nucleotide" x="566.461" y="101.533">G</text>
      <text class="nucleotide" x="562.745" y="104.863">G</text>
      <text class="nucleotide" x="540.748" y="125.765">A</text>
      <text class="nucleotide" x="542.925" y="147.586">G</text>
      <text class="nucleotide" x="533.898" y="135.606">U</text>
      <text class="nucleotide" x="539.903" y="121.860">C</text>
      <text class="nucleotide" x="544.852" y="117.766">A</text>
      <text class="nucleotide" x="546.787" y="112.579">C</text>
      <text class="nucleotide" x="545.928" y="107.988">C</text>
      <text class="nucleotide" x="559.844" y="112.524">A</text>
      <text class="nucleotide" x="577.206" y="104.425">U</text>
      <text class="nucleotide" x="586.959" y="93.028">A</text>
      <text class="nucleotide" x="606.734" y="88.747">G</text>
      <text class="nucleotide" x="610.829" y="69.782">C</text>
      <text class="nucleotide" x="621.642" y="59.386">C</text>
      <text class="nucleotide" x="637.691" y="56.014">A</text>
      <text class="nucleotide" x="642.538" y="40.348">G</text>
      <text class="nucleotide" x="631.197" y="28.502">U</text>
      <text class="nucleotide" x="615.334" y="32.664">G</text>
      <text class="nucleotide" x="611.269" y="48.551">G</text>
      <text class="nucleotide" x="604.348" y="50.881">G</text>
      <text class="nucleotide" x="600.411" y="58.990">G</text>
      <text class="nucleotide" x="590.396" y="57.888">G</text>
      <text class="nucleotide" x="581.206" y="62.523">U</text>
      <text class="nucleotide" x="575.919" y="71.608">G</text>
      <text class="nucleotide" x="576.451" y="82.323">U</text>
      <text class="nucleotide" x="570.614" y="77.614">G</text>
      <text class="nucleotide" x="553.102" y="63.487">U</text>
      <text class="nucleotide" x="561.878" y="51.323">U</text>
      <text class="nucleotide" x="577.639" y="48.324">A</text>
      <text class="nucleotide" x="584.992" y="34.065">C</text>
      <text class="nucleotide" x="578.298" y="19.485">C</text>
      <text class="nucleotide" x="562.692" y="15.769">C</text>
      <text class="nucleotide" x="550.145" y="25.766">A</text>
      <text class="nucleotide" x="550.282" y="41.808">A</text>
      <text class="nucleotide" x="538.246" y="32.857">C</text>
      <text class="nucleotide" x="546.615" y="20.408">A</text>
      <text class="nucleotide" x="555.010" y="7.977">U</text>
      <text class="nucleotide" x="565.648" y="6.582">C</text>
      <text class="nucleotide" x="573.638" y="-0.247">C</text>
      <text class="nucleotide" x="576.552" y="-10.118">A</text>
      <text class="nucleotide" x="573.675" y="-19.773">C</text>
      <text class="nucleotide" x="587.489" y="-29.602">C</text>
      <text class="nucleotide" x="581.869" y="-45.597">C</text>
      <text class="nucleotide" x="564.943" y="-44.625">C</text>
      <text class="nucleotide" x="561.192" y="-28.091">G</text>
      <text class="nucleotide" x="543.267" y="-20.665">A</text>
      <text class="nucleotide" x="542.596" y="-0.443">G</text>
      <text class="nucleotide" x="536.317" y="3.285">U</text>
      <text class="nucleotide" x="534.167" y="12.039">U</text>
      <text class="nucleotide" x="525.798" y="24.487">G</text>
      <text class="nucleotide" x="512.854" y="16.907">C</text>
      <text class="nucleotide" x="519.810" y="3.617">U</text>
      <text class="nucleotide" x="532.674" y="-7.427">A</text>
      <text class="nucleotide" x="525.622" y="-22.845">G</text>
      <text class="nucleotide" x="508.855" y="-20.337">C</text>
      <text class="nucleotide" x="506.623" y="-3.530">G</text>
      <text class="nucleotide" x="499.928" y="-6.912">A</text>
      <text class="nucleotide" x="486.539" y="-13.675">A</text>
      <text class="nucleotide" x="479.845" y="-17.056">G</text>
      <text class="nucleotide" x="492.047" y="-28.826">A</text>
      <text class="nucleotide" x="484.115" y="-43.810">A</text>
      <text class="nucleotide" x="467.520" y="-40.336">G</text>
      <text class="nucleotide" x="466.266" y="-23.428">C</text>
      <text class="nucleotide" x="499.465" y="10.144">G</text>
      <text class="nucleotide" x="540.416" y="55.482">G</text>
      <text class="nucleotide" x="541.813" y="76.358">G</text>
      <text class="nucleotide" x="551.626" y="90.630">G</text>
      <text class="nucleotide" x="565.006" y="95.699">A</text>
      <text class="nucleotide" x="551.127" y="90.009">U</text>
      <text class="nucleotide" x="553.538" y="75.204">C</text>
      <text class="nucleotide" x="556.040" y="60.414">C</text>
      <text class="nucleotide" x="577.089" y="67.013">A</text>
      <text class="nucleotide" x="602.133" y="52.486">A</text>
      <text class="nucleotide" x="613.072" y="41.056">A</text>
      <text class="nucleotide" x="608.760" y="26.799">G</text>
      <text class="nucleotide" x="612.567" y="12.290">G</text>
      <text class="nucleotide" x="616.644" y="-2.145">A</text>
      <text class="nucleotide" x="626.963" y="-15.596">A</text>
      <text class="nucleotide" x="616.894" y="-29.236">A</text>
      <text class="nucleotide" x="601.000" y="-23.337">G</text>
      <text class="nucleotide" x="602.269" y="-6.430">U</text>
      <text class="nucleotide" x="587.809" y="-10.418">U</text>
      <text class="nucleotide" x="597.563" y="-24.285">G</text>
      <text class="nucleotide" x="586.938" y="-37.496">G</text>
      <text class="nucleotide" x="571.301" y="-30.944">A</text>
      <text class="nucleotide" x="573.269" y="-14.105">A</text>
      <text class="nucleotide" x="578.757" y="-0.757">G</text>
      <text class="nucleotide" x="588.105" y="6.959">C</text>
      <text class="nucleotide" x="598.074" y="8.423">C</text>
      <text class="nucleotide" x="594.561" y="11.500">A</text>
      <text class="nucleotide" x="592.876" y="16.774">U</text>
      <text class="nucleotide" x="594.235" y="23.052">C</text>
      <text class="nucleotide" x="583.564" y="33.443">A</text>
      <text class="nucleotide" x="587.608" y="48.738">U</text>
      <text class="nucleotide" x="580.203" y="47.548">C</text>
      <text class="nucleotide" x="565.393" y="45.168">A</text>
      <text class="nucleotide" x="557.988" y="43.978">C</text>
      <text class="nucleotide" x="573.177" y="37.991">A</text>
      <text class="nucleotide" x="584.173" y="26.003">C</text>
      <text class="nucleotide" x="588.797" y="10.468">C</text>
      <text class="nucleotide" x="586.164" y="-5.466">A</text>
      <text class="nucleotide" x="576.856" y="-18.593">C</text>
      <text class="nucleotide" x="562.794" y="-26.294">C</text>
      <text class="nucleotide" x="572.415" y="-39.575">C</text>
      <text class="nucleotide" x="565.478" y="-54.435">C</text>
      <text class="nucleotide" x="549.120" y="-55.587">C</text>
      <text class="nucleotide" x="540.167" y="-41.847">A</text>
      <text class="nucleotide" x="547.831" y="-27.349">G</text>
      <text class="nucleotide" x="534.757" y="-22.893">C</text>
      <text class="nucleotide" x="524.322" y="-13.778">C</text>
      <text class="nucleotide" x="518.111" y="-1.345">A</text>
      <text class="nucleotide" x="517.083" y="12.559">A</text>
      <text class="nucleotide" x="521.424" y="25.853">A</text>
    </g>
  </g>
</svg>
