<?xml version="1.0" encoding="UTF-8" standalone="yes" ?>
<svg xmlns="http://www.w3.org/2000/svg" height="452" width="452">
  <script type="text/ecmascript">
    <![CDATA[
      var shown = 1;
      function click() {
        var seq = document.getElementById("seq");
        if (shown==1) {
          seq.setAttribute("style", "visibility: hidden");
          shown = 0;
        } else {
          seq.setAttribute("style", "visibility: visible");
          shown = 1;
        }
      }
    ]]>
  </script>
  <style type="text/css">
    <![CDATA[
      .nucleotide {
        font-family: SansSerif;
      }
      .backbone {
        stroke: grey;
        fill:   none;
        stroke-width: 1.5;
      }
      .basepairs {
        stroke: red;
        fill:   none;
        stroke-width: 2.5;
      }
    ]]>
  </style>

  <rect style="stroke: white; fill: white" height="452" x="0" y="0" width="452" onclick="click(evt)" />
  <g transform="scale(0.160514,0.160514) translate(1600.318604,1339.909912)">
    <polyline class="backbone" id="outline" points="
      64.000,-162.365
      63.813,-147.366
      63.627,-132.367
      51.383,-123.928
      46.397,-109.730
      50.779,-95.147
      63.049,-85.833
      62.863,-70.834
      62.677,-55.836
      54.782,-43.205
      62.347,-29.310
      62.161,-14.311
      62.654,15.459
      77.763,34.263
      63.262,38.100
      48.761,41.937
      34.260,45.775
      19.760,49.612
      5.259,53.449
      -9.242,57.286
      -23.743,61.124
      -36.608,53.410
      -40.053,38.811
      -43.499,24.212
      -46.945,9.613
      -50.391,-4.986
      -48.145,-21.790
      -63.671,-28.600
      -74.513,-15.566
      -64.990,-1.540
      -61.544,13.059
      -58.098,27.658
      -54.652,42.257
      -51.206,56.855
      -70.854,60.295
      -86.629,76.555
      -90.393,101.649
      -105.310,103.229
      -120.226,104.809
      -135.143,106.390
      -142.656,97.358
      -153.465,93.068
      -164.891,94.460
      -174.160,101.081
      -179.078,111.223
      -193.980,112.927
      -208.883,114.630
      -219.392,103.366
      -234.343,100.483
      -247.964,106.880
      -255.120,119.916
      -270.023,121.620
      -284.926,123.323
      -299.829,125.027
      -314.732,126.731
      -322.723,119.572
      -333.110,117.962
      -342.496,122.185
      -347.944,130.660
      -362.832,132.487
      -377.721,134.314
      -392.609,136.141
      -398.980,127.841
      -408.122,122.916
      -418.399,122.175
      -428.003,125.681
      -435.270,132.757
      -438.971,142.115
      -453.836,144.127
      -468.700,146.139
      -483.565,148.150
      -492.369,146.214
      -498.487,150.201
      -513.343,152.275
      -528.199,154.348
      -543.055,156.421
      -557.911,158.494
      -572.846,159.889
      -587.829,160.603
      -602.812,161.317
      -617.795,162.031
      -622.234,159.753
      -626.671,159.368
      -630.408,160.575
      -632.959,162.847
      -647.932,163.747
      -662.905,164.647
      -677.878,165.546
      -692.851,166.446
      -701.487,163.860
      -707.884,167.381
      -722.152,160.544
      -734.357,169.081
      -749.326,170.043
      -764.295,171.005
      -778.563,164.168
      -790.768,172.706
      -805.737,173.667
      -820.706,174.629
      -835.676,175.591
      -847.484,165.432
      -862.651,166.621
      -872.263,177.941
      -887.232,178.903
      -902.201,179.865
      -917.171,180.826
      -899.339,136.440
      -927.388,81.938
      -939.571,73.187
      -951.753,64.435
      -951.702,48.918
      -960.809,36.355
      -975.571,31.575
      -990.314,36.417
      -999.367,49.020
      -999.249,64.536
      -990.007,77.001
      -975.194,81.620
      -960.505,76.618
      -948.322,85.369
      -936.140,94.121
      -939.741,100.700
      -950.544,120.436
      -964.482,114.890
      -978.419,109.344
      -992.356,103.798
      -996.408,84.968
      -1010.968,72.592
      -1029.900,71.642
      -1045.374,82.324
      -1059.241,76.605
      -1073.108,70.886
      -1086.975,65.168
      -1096.784,52.753
      -1111.499,55.054
      -1125.366,49.335
      -1135.175,36.921
      -1149.890,39.222
      -1163.757,33.503
      -1169.596,18.817
      -1184.142,12.637
      -1198.766,18.631
      -1204.791,33.241
      -1198.643,47.801
      -1183.970,53.672
      -1169.476,47.370
      -1155.609,53.089
      -1146.793,65.094
      -1131.085,63.202
      -1117.218,68.921
      -1108.402,80.926
      -1092.694,79.035
      -1078.827,84.754
      -1064.960,90.472
      -1051.093,96.191
      -1050.592,107.138
      -1046.072,117.176
      -1038.133,124.876
      -1027.868,129.129
      -1016.708,129.299
      -1006.222,125.327
      -997.902,117.735
      -983.965,123.281
      -970.028,128.827
      -956.091,134.373
      -957.269,149.327
      -971.903,152.621
      -986.536,155.916
      -1001.170,159.211
      -1015.804,162.505
      -1019.662,161.170
      -1023.385,161.075
      -1026.617,162.038
      -1029.091,163.783
      -1030.652,165.977
      -1045.229,169.514
      -1059.806,173.050
      -1074.383,176.586
      -1088.960,180.123
      -1103.537,183.659
      -1112.354,177.545
      -1122.860,177.234
      -1131.651,182.587
      -1136.007,191.671
      -1150.555,195.328
      -1165.102,198.985
      -1179.650,202.642
      -1197.305,197.224
      -1209.356,210.048
      -1223.918,213.645
      -1238.481,217.242
      -1253.051,220.808
      -1267.628,224.345
      -1282.205,227.881
      -1296.782,231.418
      -1311.359,234.954
      -1325.936,238.490
      -1340.514,242.027
      -1355.091,245.563
      -1369.668,249.099
      -1384.245,252.636
      -1398.837,256.112
      -1413.443,259.527
      -1431.006,253.817
      -1443.268,266.441
      -1457.888,269.796
      -1472.507,273.151
      -1490.047,267.368
      -1502.361,279.941
      -1516.994,283.235
      -1531.628,286.530
      -1546.262,289.825
      -1557.828,279.480
      -1573.269,277.943
      -1586.647,285.804
      -1592.818,300.041
      -1589.410,315.179
      -1577.733,325.398
      -1562.276,326.767
      -1548.984,318.761
      -1542.967,304.458
      -1528.334,301.164
      -1513.700,297.869
      -1499.066,294.575
      -1488.752,300.753
      -1476.593,298.212
      -1469.152,287.771
      -1454.532,284.416
      -1439.912,281.061
      -1429.573,287.197
      -1417.425,284.605
      -1410.027,274.133
      -1395.421,270.718
      -1391.052,272.367
      -1385.606,271.370
      -1380.709,267.213
      -1366.131,263.677
      -1351.554,260.140
      -1336.977,256.604
      -1322.400,253.068
      -1307.823,249.531
      -1293.246,245.995
      -1278.668,242.458
      -1264.091,238.922
      -1249.514,235.386
      -1242.359,236.843
      -1234.884,231.804
      -1220.322,228.208
      -1205.759,224.611
      -1195.320,230.575
      -1183.216,227.783
      -1175.993,217.190
      -1161.445,213.533
      -1146.898,209.876
      -1132.350,206.219
      -1114.085,212.763
      -1100.001,198.236
      -1085.424,194.700
      -1070.847,191.164
      -1056.270,187.627
      -1041.693,184.091
      -1027.115,180.554
      -1012.509,177.139
      -997.876,173.844
      -983.242,170.550
      -968.608,167.255
      -953.974,163.961
      -950.510,170.613
      -943.582,183.916
      -940.117,190.568
      -951.206,200.670
      -962.295,210.771
      -973.384,220.873
      -984.473,230.974
      -995.562,241.075
      -1006.650,251.177
      -1022.678,251.869
      -1032.014,264.917
      -1027.495,280.310
      -1012.588,286.241
      -998.729,278.160
      -996.549,262.266
      -985.460,252.164
      -974.371,242.063
      -963.282,231.961
      -952.194,221.860
      -941.105,211.759
      -930.016,201.657
      -916.209,195.795
      -901.240,194.834
      -886.271,193.872
      -871.301,192.910
      -860.320,202.908
      -845.126,202.146
      -834.714,190.560
      -819.745,189.598
      -804.776,188.636
      -789.806,187.675
      -776.609,194.580
      -763.334,185.974
      -748.365,185.012
      -733.395,184.051
      -720.198,190.956
      -706.922,182.350
      -691.951,181.419
      -676.978,180.519
      -662.005,179.620
      -647.032,178.720
      -632.059,177.820
      -617.081,177.014
      -602.098,176.300
      -587.115,175.586
      -572.132,174.872
      -567.935,181.088
      -580.741,188.897
      -594.980,193.617
      -595.294,208.613
      -581.266,213.925
      -571.568,202.481
      -559.540,193.519
      -555.343,199.734
      -561.602,213.366
      -567.861,226.997
      -574.121,240.629
      -580.380,254.260
      -594.064,263.299
      -592.809,279.650
      -577.906,286.493
      -564.686,276.789
      -566.749,260.520
      -560.489,246.888
      -554.230,233.257
      -547.970,219.625
      -541.711,205.994
      -545.096,186.864
      -555.838,173.350
      -540.982,171.277
      -526.125,169.204
      -511.269,167.131
      -496.413,165.057
      -481.553,163.015
      -466.689,161.003
      -451.824,158.991
      -436.960,156.980
      -422.211,169.852
      -402.463,167.506
      -390.782,151.029
      -375.894,149.202
      -361.005,147.375
      -346.117,145.548
      -328.803,154.305
      -313.028,141.634
      -298.125,139.930
      -283.222,138.226
      -268.319,136.523
      -253.416,134.819
      -243.503,145.903
      -228.789,149.062
      -214.874,142.879
      -207.180,129.533
      -192.277,127.830
      -177.374,126.126
      -163.639,138.354
      -145.018,136.508
      -133.563,121.306
      -118.646,119.726
      -103.730,118.146
      -88.813,116.565
      -77.683,126.621
      -77.745,141.621
      -77.807,156.621
      -77.869,171.620
      -77.931,186.620
      -77.993,201.620
      -91.061,209.820
      -97.600,223.793
      -95.524,239.080
      -85.496,250.803
      -70.715,255.222
      -55.898,250.926
      -45.773,239.286
      -43.570,224.017
      -49.994,209.990
      -62.993,201.682
      -62.931,186.682
      -62.869,171.683
      -62.807,156.683
      -62.745,141.683
      -62.683,126.683
      -55.224,125.893
      -40.308,124.312
      -32.850,123.522
      -29.646,138.176
      -26.442,152.830
      -27.663,161.762
      -23.195,167.538
      -19.931,182.179
      -16.666,196.819
      -22.888,208.029
      -19.948,220.098
      -9.932,226.748
      -11.079,235.690
      -6.563,241.429
      -3.178,256.042
      -10.415,270.360
      -3.602,284.885
      12.034,288.474
      24.499,278.374
      24.231,262.334
      11.435,252.657
      8.050,238.044
      4.695,223.424
      10.743,206.897
      -2.026,193.555
      -5.290,178.914
      -8.554,164.274
      -11.788,149.627
      -14.992,134.973
      -18.196,120.319
      -11.495,95.532
      -19.906,75.625
      -5.405,71.787
      9.096,67.950
      23.597,64.113
      38.098,60.275
      52.599,56.438
      67.099,52.601
      81.600,48.764
      108.431,77.984
      161.756,48.902
      176.712,50.049
      191.668,51.197
      206.624,52.344
      221.580,53.492
      234.748,62.262
      248.030,55.521
      262.986,56.669
      277.942,57.816
      292.898,58.964
      307.854,60.111
      321.022,68.881
      334.304,62.140
      349.260,63.288
      357.463,67.026
      364.280,64.409
      379.241,65.495
      394.201,66.580
      409.162,67.666
      395.611,74.097
      386.580,86.074
      384.124,100.872
      388.802,115.124
      399.549,125.588
      413.920,129.884
      428.647,127.034
      440.379,117.688
      446.447,103.970
      445.471,89.002
      437.672,76.188
      424.826,68.444
      439.820,68.848
      454.814,69.282
      469.807,69.748
      484.799,70.214
      499.792,70.679
      514.785,71.145
      529.778,71.610
      533.969,83.406
      542.759,92.871
      554.942,98.244
      568.655,98.362
      581.665,92.892
      591.727,82.434
      606.212,86.332
      620.696,90.229
      635.181,94.126
      649.666,98.024
      664.151,101.921
      671.520,107.113
      678.704,105.804
      685.795,116.486
      697.863,119.428
      708.376,113.594
      722.893,117.372
      734.300,128.335
      748.565,124.052
      763.082,127.829
      777.599,131.606
      792.115,135.383
      806.628,151.247
      826.182,144.464
      840.651,148.421
      855.119,152.378
      869.588,156.335
      884.057,160.292
      898.525,164.250
      909.795,175.353
      924.113,171.248
      924.008,187.504
      929.521,203.217
      940.259,216.460
      955.170,225.515
      972.649,229.095
      990.704,226.522
      1007.188,217.831
      1020.858,224.006
      1034.528,230.181
      1048.199,236.355
      1057.590,249.087
      1072.374,247.275
      1086.044,253.450
      1099.714,259.625
      1104.948,271.329
      1116.367,276.220
      1127.697,272.199
      1141.393,278.317
      1150.572,291.906
      1166.909,290.482
      1173.598,275.508
      1163.757,262.390
      1147.511,264.621
      1133.815,258.503
      1124.225,243.747
      1105.889,245.954
      1092.219,239.780
      1078.549,233.605
      1070.135,221.315
      1054.373,222.685
      1040.703,216.510
      1027.033,210.336
      1013.363,204.161
      1015.446,196.956
      1029.856,201.123
      1044.266,205.289
      1048.432,190.879
      1034.022,186.713
      1019.612,182.546
      1021.696,175.342
      1036.552,177.415
      1043.913,190.947
      1057.670,197.474
      1072.457,194.682
      1082.643,183.847
      1097.499,185.920
      1110.097,195.491
      1123.772,189.587
      1138.628,191.660
      1153.484,193.733
      1168.340,195.807
      1177.662,208.569
      1193.291,210.919
      1205.953,201.462
      1208.138,185.809
      1198.548,173.247
      1182.873,171.228
      1170.413,180.951
      1155.557,178.877
      1140.701,176.804
      1125.845,174.731
      1114.309,165.309
      1099.572,171.064
      1084.716,168.991
      1077.886,155.782
      1064.428,149.048
      1049.409,151.559
      1038.625,162.559
      1023.769,160.486
      1016.893,147.458
      1006.954,136.918
      994.768,129.543
      981.289,125.757
      967.531,125.713
      954.497,129.283
      943.100,136.083
      934.104,145.507
      928.070,156.779
      917.835,145.958
      902.482,149.781
      888.014,145.824
      873.545,141.867
      859.077,137.909
      844.608,133.952
      830.139,129.995
      827.138,121.856
      820.672,115.869
      812.064,113.428
      803.150,115.180
      795.892,120.867
      781.376,117.089
      766.859,113.312
      752.343,109.535
      741.974,98.842
      726.670,102.855
      712.153,99.078
      700.262,86.104
      682.541,91.303
      668.048,87.436
      653.563,83.539
      639.079,79.641
      624.594,75.744
      610.109,71.847
      595.624,67.950
      593.705,53.073
      606.726,45.627
      619.747,38.181
      632.769,30.734
      645.790,23.288
      658.811,15.842
      671.833,8.396
      684.854,0.950
      697.875,-6.496
      710.896,-13.943
      714.977,-13.800
      718.564,-14.802
      721.370,-16.671
      723.223,-19.065
      724.070,-21.621
      736.966,-29.282
      749.863,-36.943
      762.759,-44.604
      783.601,-37.862
      802.197,-48.874
      806.195,-69.815
      819.247,-77.207
      832.314,-84.572
      845.397,-91.910
      858.479,-99.248
      871.562,-106.586
      884.644,-113.924
      901.416,-116.400
      903.681,-133.202
      888.162,-140.029
      877.306,-127.007
      864.223,-119.669
      851.141,-112.331
      838.058,-104.993
      824.976,-97.654
      817.692,-97.128
      811.855,-90.259
      798.803,-82.867
      792.020,-87.651
      784.027,-90.048
      775.645,-89.783
      767.739,-86.856
      761.138,-81.544
      756.542,-74.376
      754.447,-66.077
      755.098,-57.500
      742.202,-49.839
      729.306,-42.178
      716.409,-34.518
      703.450,-26.964
      690.429,-19.518
      677.408,-12.072
      664.386,-4.625
      651.365,2.821
      638.344,10.267
      625.322,17.713
      612.301,25.159
      599.280,32.605
      586.258,40.052
      563.560,30.726
      541.546,37.967
      530.243,56.617
      515.251,56.152
      500.258,55.686
      485.265,55.221
      470.272,54.755
      455.279,54.290
      448.769,50.982
      440.224,53.853
      425.229,53.450
      410.248,52.705
      395.287,51.619
      380.326,50.534
      365.366,49.448
      350.407,48.332
      335.451,47.184
      323.353,38.496
      309.001,45.155
      294.045,44.007
      279.089,42.860
      264.133,41.713
      249.177,40.565
      237.079,31.877
      222.728,38.536
      207.772,37.388
      192.816,36.241
      177.859,35.093
      162.903,33.946
      159.248,27.397
      166.936,14.517
      151.937,14.299
      148.281,7.750
      155.155,-5.582
      162.028,-18.915
      168.902,-32.247
      184.259,-34.468
      195.354,-45.316
      197.921,-60.620
      190.972,-74.494
      177.180,-81.604
      161.848,-79.217
      150.871,-68.249
      148.470,-52.919
      155.569,-39.121
      148.696,-25.788
      141.822,-12.455
      134.949,0.877
      121.082,-4.842
      125.605,-19.144
      139.349,-26.473
      143.732,-41.042
      136.660,-54.100
      141.182,-68.402
      145.705,-82.704
      150.228,-97.006
      154.751,-111.308
      169.272,-117.112
      176.619,-130.916
      173.323,-146.202
      160.941,-155.753
      145.319,-155.059
      133.833,-144.447
      131.907,-128.928
      140.449,-115.830
      135.926,-101.529
      131.404,-87.227
      126.881,-72.925
      122.358,-58.623
      109.063,-52.006
      104.272,-37.566
      111.303,-23.666
      106.780,-9.365
      99.375,-10.555
      101.755,-25.365
      104.135,-40.175
      106.516,-54.985
      101.172,-69.000
      91.706,-57.365
      89.325,-42.555
      86.945,-27.745
      84.565,-12.935
      77.160,-14.125
      77.346,-29.124
      85.254,-42.827
      77.676,-55.649
      77.862,-70.648
      78.048,-85.647
      90.546,-94.653
      95.289,-109.122
      90.657,-123.441
      78.626,-132.181
      78.812,-147.180
      78.999,-162.179
      87.834,-175.994
      80.049,-190.427
      63.651,-190.631
    " />
    <g id="pairs">
      <line class="basepairs" id="1,755" x1="63.99969" y1="-162.36517" x2="78.99853" y2="-162.17892" />
      <line class="basepairs" id="2,754" x1="63.81343" y1="-147.36633" x2="78.81227" y2="-147.18005" />
      <line class="basepairs" id="3,753" x1="63.62717" y1="-132.36749" x2="78.62601" y2="-132.18121" />
      <line class="basepairs" id="7,749" x1="63.04931" y1="-85.83328" x2="78.04816" y2="-85.64702" />
      <line class="basepairs" id="8,748" x1="62.86306" y1="-70.83444" x2="77.86190" y2="-70.64818" />
      <line class="basepairs" id="9,747" x1="62.67680" y1="-55.83559" x2="77.67564" y2="-55.64934" />
      <line class="basepairs" id="11,745" x1="62.34741" y1="-29.31020" x2="77.34625" y2="-29.12393" />
      <line class="basepairs" id="12,744" x1="62.16115" y1="-14.31136" x2="77.16000" y2="-14.12509" />
      <line class="basepairs" id="14,428" x1="77.76298" y1="34.26270" x2="81.60027" y2="48.76357" />
      <line class="basepairs" id="15,427" x1="63.26211" y1="38.09998" x2="67.09940" y2="52.60085" />
      <line class="basepairs" id="16,426" x1="48.76124" y1="41.93727" x2="52.59853" y2="56.43814" />
      <line class="basepairs" id="17,425" x1="34.26037" y1="45.77456" x2="38.09766" y2="60.27543" />
      <line class="basepairs" id="18,424" x1="19.75950" y1="49.61185" x2="23.59679" y2="64.11272" />
      <line class="basepairs" id="19,423" x1="5.25863" y1="53.44913" x2="9.09592" y2="67.95000" />
      <line class="basepairs" id="20,422" x1="-9.24224" y1="57.28642" x2="-5.40495" y2="71.78729" />
      <line class="basepairs" id="21,421" x1="-23.74311" y1="61.12371" x2="-19.90582" y2="75.62459" />
      <line class="basepairs" id="22,34" x1="-36.60754" y1="53.40968" x2="-51.20639" y2="56.85548" />
      <line class="basepairs" id="23,33" x1="-40.05335" y1="38.81083" x2="-54.65220" y2="42.25664" />
      <line class="basepairs" id="24,32" x1="-43.49916" y1="24.21198" x2="-58.09801" y2="27.65779" />
      <line class="basepairs" id="25,31" x1="-46.94497" y1="9.61313" x2="-61.54382" y2="13.05894" />
      <line class="basepairs" id="26,30" x1="-50.39079" y1="-4.98572" x2="-64.98963" y2="-1.53990" />
      <line class="basepairs" id="37,368" x1="-90.39335" y1="101.64890" x2="-88.81308" y2="116.56542" />
      <line class="basepairs" id="38,367" x1="-105.30988" y1="103.22917" x2="-103.72960" y2="118.14570" />
      <line class="basepairs" id="39,366" x1="-120.22640" y1="104.80945" x2="-118.64613" y2="119.72598" />
      <line class="basepairs" id="40,365" x1="-135.14293" y1="106.38972" x2="-133.56265" y2="121.30625" />
      <line class="basepairs" id="45,362" x1="-179.07756" y1="111.22289" x2="-177.37386" y2="126.12582" />
      <line class="basepairs" id="46,361" x1="-193.98050" y1="112.92658" x2="-192.27679" y2="127.82951" />
      <line class="basepairs" id="47,360" x1="-208.88344" y1="114.63029" x2="-207.17973" y2="129.53322" />
      <line class="basepairs" id="51,356" x1="-255.12007" y1="119.91606" x2="-253.41637" y2="134.81898" />
      <line class="basepairs" id="52,355" x1="-270.02301" y1="121.61976" x2="-268.31931" y2="136.52269" />
      <line class="basepairs" id="53,354" x1="-284.92593" y1="123.32346" x2="-283.22223" y2="138.22639" />
      <line class="basepairs" id="54,353" x1="-299.82886" y1="125.02717" x2="-298.12515" y2="139.93010" />
      <line class="basepairs" id="55,352" x1="-314.73178" y1="126.73087" x2="-313.02811" y2="141.63380" />
      <line class="basepairs" id="59,350" x1="-347.94400" y1="130.66000" x2="-346.11700" y2="145.54831" />
      <line class="basepairs" id="60,349" x1="-362.83234" y1="132.48701" x2="-361.00531" y2="147.37534" />
      <line class="basepairs" id="61,348" x1="-377.72064" y1="134.31403" x2="-375.89365" y2="149.20235" />
      <line class="basepairs" id="62,347" x1="-392.60895" y1="136.14104" x2="-390.78195" y2="151.02936" />
      <line class="basepairs" id="68,344" x1="-438.97144" y1="142.11525" x2="-436.95969" y2="156.97974" />
      <line class="basepairs" id="69,343" x1="-453.83591" y1="144.12698" x2="-451.82419" y2="158.99147" />
      <line class="basepairs" id="70,342" x1="-468.70041" y1="146.13873" x2="-466.68866" y2="161.00322" />
      <line class="basepairs" id="71,341" x1="-483.56488" y1="148.15047" x2="-481.55313" y2="163.01495" />
      <line class="basepairs" id="73,340" x1="-498.48669" y1="150.20143" x2="-496.41342" y2="165.05746" />
      <line class="basepairs" id="74,339" x1="-513.34271" y1="152.27467" x2="-511.26947" y2="167.13071" />
      <line class="basepairs" id="75,338" x1="-528.19873" y1="154.34793" x2="-526.12549" y2="169.20395" />
      <line class="basepairs" id="76,337" x1="-543.05475" y1="156.42117" x2="-540.98151" y2="171.27721" />
      <line class="basepairs" id="77,336" x1="-557.91083" y1="158.49443" x2="-555.83759" y2="173.35046" />
      <line class="basepairs" id="78,313" x1="-572.84583" y1="159.88936" x2="-572.13208" y2="174.87238" />
      <line class="basepairs" id="79,312" x1="-587.82880" y1="160.60309" x2="-587.11511" y2="175.58609" />
      <line class="basepairs" id="80,311" x1="-602.81183" y1="161.31682" x2="-602.09808" y2="176.29984" />
      <line class="basepairs" id="81,310" x1="-617.79486" y1="162.03055" x2="-617.08112" y2="177.01355" />
      <line class="basepairs" id="85,309" x1="-632.95911" y1="162.84731" x2="-632.05939" y2="177.82030" />
      <line class="basepairs" id="86,308" x1="-647.93213" y1="163.74702" x2="-647.03241" y2="178.72002" />
      <line class="basepairs" id="87,307" x1="-662.90509" y1="164.64674" x2="-662.00537" y2="179.61974" />
      <line class="basepairs" id="88,306" x1="-677.87811" y1="165.54646" x2="-676.97839" y2="180.51945" />
      <line class="basepairs" id="89,305" x1="-692.85107" y1="166.44618" x2="-691.95135" y2="181.41916" />
      <line class="basepairs" id="91,304" x1="-707.88416" y1="167.38074" x2="-706.92249" y2="182.34987" />
      <line class="basepairs" id="93,302" x1="-734.35699" y1="169.08147" x2="-733.39532" y2="184.05061" />
      <line class="basepairs" id="94,301" x1="-749.32617" y1="170.04315" x2="-748.36450" y2="185.01230" />
      <line class="basepairs" id="95,300" x1="-764.29529" y1="171.00484" x2="-763.33362" y2="185.97398" />
      <line class="basepairs" id="97,298" x1="-790.76819" y1="172.70558" x2="-789.80646" y2="187.67471" />
      <line class="basepairs" id="98,297" x1="-805.73730" y1="173.66727" x2="-804.77563" y2="188.63640" />
      <line class="basepairs" id="99,296" x1="-820.70642" y1="174.62895" x2="-819.74475" y2="189.59808" />
      <line class="basepairs" id="100,295" x1="-835.67560" y1="175.59064" x2="-834.71393" y2="190.55978" />
      <line class="basepairs" id="103,292" x1="-872.26312" y1="177.94118" x2="-871.30139" y2="192.91032" />
      <line class="basepairs" id="104,291" x1="-887.23224" y1="178.90286" x2="-886.27057" y2="193.87201" />
      <line class="basepairs" id="105,290" x1="-902.20135" y1="179.86455" x2="-901.23969" y2="194.83369" />
      <line class="basepairs" id="106,289" x1="-917.17053" y1="180.82623" x2="-916.20886" y2="195.79538" />
      <line class="basepairs" id="108,121" x1="-927.38843" y1="81.93816" x2="-936.13977" y2="94.12067" />
      <line class="basepairs" id="109,120" x1="-939.57092" y1="73.18680" x2="-948.32227" y2="85.36932" />
      <line class="basepairs" id="110,119" x1="-951.75342" y1="64.43545" x2="-960.50482" y2="76.61797" />
      <line class="basepairs" id="123,165" x1="-950.54443" y1="120.43615" x2="-956.09058" y2="134.37318" />
      <line class="basepairs" id="124,164" x1="-964.48151" y1="114.89005" x2="-970.02759" y2="128.82707" />
      <line class="basepairs" id="125,163" x1="-978.41852" y1="109.34394" x2="-983.96460" y2="123.28097" />
      <line class="basepairs" id="126,162" x1="-992.35553" y1="103.79784" x2="-997.90167" y2="117.73486" />
      <line class="basepairs" id="130,155" x1="-1045.37427" y1="82.32388" x2="-1051.09302" y2="96.19097" />
      <line class="basepairs" id="131,154" x1="-1059.24133" y1="76.60515" x2="-1064.96008" y2="90.47224" />
      <line class="basepairs" id="132,153" x1="-1073.10840" y1="70.88642" x2="-1078.82715" y2="84.75351" />
      <line class="basepairs" id="133,152" x1="-1086.97546" y1="65.16769" x2="-1092.69421" y2="79.03477" />
      <line class="basepairs" id="135,150" x1="-1111.49939" y1="55.05412" x2="-1117.21814" y2="68.92121" />
      <line class="basepairs" id="136,149" x1="-1125.36646" y1="49.33539" x2="-1131.08521" y2="63.20248" />
      <line class="basepairs" id="138,147" x1="-1149.89038" y1="39.22183" x2="-1155.60913" y2="53.08891" />
      <line class="basepairs" id="139,146" x1="-1163.75745" y1="33.50310" x2="-1169.47620" y2="47.37018" />
      <line class="basepairs" id="166,267" x1="-957.26898" y1="149.32681" x2="-953.97443" y2="163.96054" />
      <line class="basepairs" id="167,266" x1="-971.90271" y1="152.62138" x2="-968.60815" y2="167.25510" />
      <line class="basepairs" id="168,265" x1="-986.53644" y1="155.91594" x2="-983.24188" y2="170.54967" />
      <line class="basepairs" id="169,264" x1="-1001.17017" y1="159.21051" x2="-997.87561" y2="173.84424" />
      <line class="basepairs" id="170,263" x1="-1015.80389" y1="162.50507" x2="-1012.50934" y2="177.13879" />
      <line class="basepairs" id="175,262" x1="-1030.65161" y1="165.97720" x2="-1027.11523" y2="180.55438" />
      <line class="basepairs" id="176,261" x1="-1045.22888" y1="169.51360" x2="-1041.69250" y2="184.09076" />
      <line class="basepairs" id="177,260" x1="-1059.80603" y1="173.04999" x2="-1056.26965" y2="187.62715" />
      <line class="basepairs" id="178,259" x1="-1074.38318" y1="176.58636" x2="-1070.84680" y2="191.16354" />
      <line class="basepairs" id="179,258" x1="-1088.96033" y1="180.12274" x2="-1085.42395" y2="194.69992" />
      <line class="basepairs" id="180,257" x1="-1103.53748" y1="183.65913" x2="-1100.00110" y2="198.23630" />
      <line class="basepairs" id="184,255" x1="-1136.00732" y1="191.67149" x2="-1132.35046" y2="206.21890" />
      <line class="basepairs" id="185,254" x1="-1150.55481" y1="195.32843" x2="-1146.89783" y2="209.87582" />
      <line class="basepairs" id="186,253" x1="-1165.10217" y1="198.98537" x2="-1161.44519" y2="213.53278" />
      <line class="basepairs" id="187,252" x1="-1179.64954" y1="202.64230" x2="-1175.99268" y2="217.18970" />
      <line class="basepairs" id="189,249" x1="-1209.35583" y1="210.04848" x2="-1205.75916" y2="224.61089" />
      <line class="basepairs" id="190,248" x1="-1223.91833" y1="213.64517" x2="-1220.32166" y2="228.20758" />
      <line class="basepairs" id="191,247" x1="-1238.48071" y1="217.24185" x2="-1234.88403" y2="231.80426" />
      <line class="basepairs" id="192,245" x1="-1253.05054" y1="220.80841" x2="-1249.51416" y2="235.38557" />
      <line class="basepairs" id="193,244" x1="-1267.62769" y1="224.34479" x2="-1264.09131" y2="238.92197" />
      <line class="basepairs" id="194,243" x1="-1282.20483" y1="227.88116" x2="-1278.66846" y2="242.45834" />
      <line class="basepairs" id="195,242" x1="-1296.78210" y1="231.41756" x2="-1293.24561" y2="245.99472" />
      <line class="basepairs" id="196,241" x1="-1311.35925" y1="234.95395" x2="-1307.82288" y2="249.53111" />
      <line class="basepairs" id="197,240" x1="-1325.93640" y1="238.49033" x2="-1322.40002" y2="253.06750" />
      <line class="basepairs" id="198,239" x1="-1340.51355" y1="242.02670" x2="-1336.97717" y2="256.60388" />
      <line class="basepairs" id="199,238" x1="-1355.09070" y1="245.56308" x2="-1351.55432" y2="260.14026" />
      <line class="basepairs" id="200,237" x1="-1369.66797" y1="249.09947" x2="-1366.13147" y2="263.67664" />
      <line class="basepairs" id="201,236" x1="-1384.24512" y1="252.63586" x2="-1380.70874" y2="267.21301" />
      <line class="basepairs" id="202,233" x1="-1398.83679" y1="256.11188" x2="-1395.42114" y2="270.71783" />
      <line class="basepairs" id="203,232" x1="-1413.44275" y1="259.52747" x2="-1410.02710" y2="274.13342" />
      <line class="basepairs" id="205,229" x1="-1443.26758" y1="266.44080" x2="-1439.91248" y2="281.06079" />
      <line class="basepairs" id="206,228" x1="-1457.88757" y1="269.79593" x2="-1454.53247" y2="284.41589" />
      <line class="basepairs" id="207,227" x1="-1472.50745" y1="273.15103" x2="-1469.15234" y2="287.77100" />
      <line class="basepairs" id="209,224" x1="-1502.36072" y1="279.94086" x2="-1499.06616" y2="294.57458" />
      <line class="basepairs" id="210,223" x1="-1516.99438" y1="283.23541" x2="-1513.69983" y2="297.86914" />
      <line class="basepairs" id="211,222" x1="-1531.62817" y1="286.53000" x2="-1528.33362" y2="301.16373" />
      <line class="basepairs" id="212,221" x1="-1546.26184" y1="289.82455" x2="-1542.96729" y2="304.45828" />
      <line class="basepairs" id="270,288" x1="-940.11737" y1="190.56848" x2="-930.01599" y2="201.65729" />
      <line class="basepairs" id="271,287" x1="-951.20624" y1="200.66986" x2="-941.10486" y2="211.75868" />
      <line class="basepairs" id="272,286" x1="-962.29504" y1="210.77124" x2="-952.19366" y2="221.86008" />
      <line class="basepairs" id="273,285" x1="-973.38385" y1="220.87263" x2="-963.28247" y2="231.96146" />
      <line class="basepairs" id="274,284" x1="-984.47266" y1="230.97401" x2="-974.37128" y2="242.06284" />
      <line class="basepairs" id="275,283" x1="-995.56152" y1="241.07541" x2="-985.46014" y2="252.16422" />
      <line class="basepairs" id="276,282" x1="-1006.65033" y1="251.17679" x2="-996.54895" y2="262.26562" />
      <line class="basepairs" id="321,334" x1="-555.34259" y1="199.73424" x2="-541.71100" y2="205.99368" />
      <line class="basepairs" id="322,333" x1="-561.60199" y1="213.36578" x2="-547.97046" y2="219.62524" />
      <line class="basepairs" id="323,332" x1="-567.86145" y1="226.99734" x2="-554.22992" y2="233.25679" />
      <line class="basepairs" id="324,331" x1="-574.12091" y1="240.62891" x2="-560.48938" y2="246.88835" />
      <line class="basepairs" id="325,330" x1="-580.38037" y1="254.26045" x2="-566.74878" y2="260.51990" />
      <line class="basepairs" id="369,389" x1="-77.68254" y1="126.62082" x2="-62.68267" y2="126.68291" />
      <line class="basepairs" id="370,388" x1="-77.74462" y1="141.62070" x2="-62.74475" y2="141.68279" />
      <line class="basepairs" id="371,387" x1="-77.80671" y1="156.62056" x2="-62.80684" y2="156.68265" />
      <line class="basepairs" id="372,386" x1="-77.86880" y1="171.62044" x2="-62.86893" y2="171.68253" />
      <line class="basepairs" id="373,385" x1="-77.93089" y1="186.62030" x2="-62.93101" y2="186.68240" />
      <line class="basepairs" id="374,384" x1="-77.99297" y1="201.62018" x2="-62.99310" y2="201.68227" />
      <line class="basepairs" id="392,419" x1="-32.84961" y1="123.52235" x2="-18.19572" y2="120.31871" />
      <line class="basepairs" id="393,418" x1="-29.64597" y1="138.17625" x2="-14.99207" y2="134.97261" />
      <line class="basepairs" id="394,417" x1="-26.44233" y1="152.83015" x2="-11.78843" y2="149.62651" />
      <line class="basepairs" id="396,416" x1="-23.19497" y1="167.53801" x2="-8.55447" y2="164.27374" />
      <line class="basepairs" id="397,415" x1="-19.93070" y1="182.17853" x2="-5.29019" y2="178.91425" />
      <line class="basepairs" id="398,414" x1="-16.66643" y1="196.81903" x2="-2.02592" y2="193.55476" />
      <line class="basepairs" id="401,412" x1="-9.93216" y1="226.74846" x2="4.69471" y2="223.42361" />
      <line class="basepairs" id="403,411" x1="-6.56317" y1="241.42892" x2="8.04982" y2="238.04358" />
      <line class="basepairs" id="404,410" x1="-3.17781" y1="256.04193" x2="11.43517" y2="252.65656" />
      <line class="basepairs" id="430,690" x1="161.75594" y1="48.90181" x2="162.90343" y2="33.94577" />
      <line class="basepairs" id="431,689" x1="176.71199" y1="50.04929" x2="177.85947" y2="35.09325" />
      <line class="basepairs" id="432,688" x1="191.66803" y1="51.19678" x2="192.81551" y2="36.24074" />
      <line class="basepairs" id="433,687" x1="206.62407" y1="52.34426" x2="207.77156" y2="37.38822" />
      <line class="basepairs" id="434,686" x1="221.58012" y1="53.49174" x2="222.72760" y2="38.53571" />
      <line class="basepairs" id="436,684" x1="248.02983" y1="55.52107" x2="249.17731" y2="40.56503" />
      <line class="basepairs" id="437,683" x1="262.98587" y1="56.66856" x2="264.13336" y2="41.71251" />
      <line class="basepairs" id="438,682" x1="277.94193" y1="57.81604" x2="279.08942" y2="42.85999" />
      <line class="basepairs" id="439,681" x1="292.89795" y1="58.96352" x2="294.04544" y2="44.00748" />
      <line class="basepairs" id="440,680" x1="307.85400" y1="60.11101" x2="309.00150" y2="45.15496" />
      <line class="basepairs" id="442,678" x1="334.30371" y1="62.14033" x2="335.45120" y2="47.18428" />
      <line class="basepairs" id="443,677" x1="349.25977" y1="63.28781" x2="350.40726" y2="48.33176" />
      <line class="basepairs" id="445,676" x1="364.28006" y1="64.40896" x2="365.36563" y2="49.44830" />
      <line class="basepairs" id="446,675" x1="379.24072" y1="65.49453" x2="380.32629" y2="50.53386" />
      <line class="basepairs" id="447,674" x1="394.20139" y1="66.58010" x2="395.28696" y2="51.61943" />
      <line class="basepairs" id="448,673" x1="409.16208" y1="67.66566" x2="410.24762" y2="52.70500" />
      <line class="basepairs" id="460,672" x1="424.82562" y1="68.44431" x2="425.22913" y2="53.44974" />
      <line class="basepairs" id="461,671" x1="439.82019" y1="68.84782" x2="440.22369" y2="53.85325" />
      <line class="basepairs" id="462,669" x1="454.81390" y1="69.28237" x2="455.27948" y2="54.28960" />
      <line class="basepairs" id="463,668" x1="469.80667" y1="69.74795" x2="470.27225" y2="54.75517" />
      <line class="basepairs" id="464,667" x1="484.79944" y1="70.21352" x2="485.26501" y2="55.22075" />
      <line class="basepairs" id="465,666" x1="499.79221" y1="70.67910" x2="500.25778" y2="55.68633" />
      <line class="basepairs" id="466,665" x1="514.78497" y1="71.14468" x2="515.25055" y2="56.15190" />
      <line class="basepairs" id="467,664" x1="529.77777" y1="71.61025" x2="530.24335" y2="56.61748" />
      <line class="basepairs" id="473,602" x1="591.72675" y1="82.43446" x2="595.62402" y2="67.94960" />
      <line class="basepairs" id="474,601" x1="606.21161" y1="86.33174" x2="610.10889" y2="71.84688" />
      <line class="basepairs" id="475,600" x1="620.69647" y1="90.22901" x2="624.59375" y2="75.74416" />
      <line class="basepairs" id="476,599" x1="635.18134" y1="94.12629" x2="639.07861" y2="79.64143" />
      <line class="basepairs" id="477,598" x1="649.66620" y1="98.02357" x2="653.56348" y2="83.53870" />
      <line class="basepairs" id="478,597" x1="664.15106" y1="101.92084" x2="668.04834" y2="87.43598" />
      <line class="basepairs" id="480,596" x1="678.70398" y1="105.80414" x2="682.54126" y2="91.30327" />
      <line class="basepairs" id="483,594" x1="708.37604" y1="113.59437" x2="712.15332" y2="99.07774" />
      <line class="basepairs" id="484,593" x1="722.89270" y1="117.37160" x2="726.66992" y2="102.85497" />
      <line class="basepairs" id="486,591" x1="748.56531" y1="124.05163" x2="752.34253" y2="109.53500" />
      <line class="basepairs" id="487,590" x1="763.08191" y1="127.82887" x2="766.85913" y2="113.31223" />
      <line class="basepairs" id="488,589" x1="777.59857" y1="131.60609" x2="781.37579" y2="117.08947" />
      <line class="basepairs" id="489,588" x1="792.11517" y1="135.38333" x2="795.89240" y2="120.86671" />
      <line class="basepairs" id="491,583" x1="826.18219" y1="144.46356" x2="830.13940" y2="129.99495" />
      <line class="basepairs" id="492,582" x1="840.65082" y1="148.42076" x2="844.60797" y2="133.95215" />
      <line class="basepairs" id="493,581" x1="855.11938" y1="152.37796" x2="859.07660" y2="137.90935" />
      <line class="basepairs" id="494,580" x1="869.58801" y1="156.33516" x2="873.54523" y2="141.86655" />
      <line class="basepairs" id="495,579" x1="884.05664" y1="160.29236" x2="888.01379" y2="145.82375" />
      <line class="basepairs" id="496,578" x1="898.52521" y1="164.24954" x2="902.48242" y2="149.78094" />
      <line class="basepairs" id="498,576" x1="924.11292" y1="171.24783" x2="928.07007" y2="156.77924" />
      <line class="basepairs" id="505,531" x1="1007.18811" y1="217.83124" x2="1013.36279" y2="204.16107" />
      <line class="basepairs" id="506,530" x1="1020.85828" y1="224.00592" x2="1027.03296" y2="210.33577" />
      <line class="basepairs" id="507,529" x1="1034.52844" y1="230.18062" x2="1040.70312" y2="216.51047" />
      <line class="basepairs" id="508,528" x1="1048.19861" y1="236.35532" x2="1054.37329" y2="222.68517" />
      <line class="basepairs" id="510,526" x1="1072.37415" y1="247.27524" x2="1078.54883" y2="233.60509" />
      <line class="basepairs" id="511,525" x1="1086.04431" y1="253.44995" x2="1092.21899" y2="239.77979" />
      <line class="basepairs" id="512,524" x1="1099.71448" y1="259.62463" x2="1105.88916" y2="245.95448" />
      <line class="basepairs" id="515,522" x1="1127.69690" y1="272.19858" x2="1133.81506" y2="258.50299" />
      <line class="basepairs" id="516,521" x1="1141.39258" y1="278.31665" x2="1147.51062" y2="264.62103" />
      <line class="basepairs" id="538,567" x1="1021.69556" y1="175.34155" x2="1023.76880" y2="160.48552" />
      <line class="basepairs" id="539,566" x1="1036.55164" y1="177.41479" x2="1038.62488" y2="162.55878" />
      <line class="basepairs" id="543,562" x1="1082.64270" y1="183.84709" x2="1084.71594" y2="168.99106" />
      <line class="basepairs" id="544,561" x1="1097.49878" y1="185.92035" x2="1099.57202" y2="171.06432" />
      <line class="basepairs" id="546,559" x1="1123.77161" y1="189.58688" x2="1125.84485" y2="174.73085" />
      <line class="basepairs" id="547,558" x1="1138.62756" y1="191.66013" x2="1140.70081" y2="176.80411" />
      <line class="basepairs" id="548,557" x1="1153.48364" y1="193.73338" x2="1155.55688" y2="178.87735" />
      <line class="basepairs" id="549,556" x1="1168.33972" y1="195.80663" x2="1170.41296" y2="180.95059" />
      <line class="basepairs" id="603,661" x1="593.70465" y1="53.07291" x2="586.25848" y2="40.05160" />
      <line class="basepairs" id="604,660" x1="606.72595" y1="45.62674" x2="599.27979" y2="32.60543" />
      <line class="basepairs" id="605,659" x1="619.74725" y1="38.18057" x2="612.30109" y2="25.15926" />
      <line class="basepairs" id="606,658" x1="632.76855" y1="30.73441" x2="625.32239" y2="17.71310" />
      <line class="basepairs" id="607,657" x1="645.78986" y1="23.28824" x2="638.34369" y2="10.26693" />
      <line class="basepairs" id="608,656" x1="658.81122" y1="15.84207" x2="651.36505" y2="2.82076" />
      <line class="basepairs" id="609,655" x1="671.83252" y1="8.39590" x2="664.38635" y2="-4.62541" />
      <line class="basepairs" id="610,654" x1="684.85382" y1="0.94974" x2="677.40765" y2="-12.07158" />
      <line class="basepairs" id="611,653" x1="697.87512" y1="-6.49643" x2="690.42896" y2="-19.51775" />
      <line class="basepairs" id="612,652" x1="710.89642" y1="-13.94260" x2="703.45026" y2="-26.96391" />
      <line class="basepairs" id="617,651" x1="724.07025" y1="-21.62135" x2="716.40948" y2="-34.51761" />
      <line class="basepairs" id="618,650" x1="736.96649" y1="-29.28209" x2="729.30573" y2="-42.17833" />
      <line class="basepairs" id="619,649" x1="749.86273" y1="-36.94281" x2="742.20203" y2="-49.83907" />
      <line class="basepairs" id="620,648" x1="762.75897" y1="-44.60353" x2="755.09827" y2="-57.49979" />
      <line class="basepairs" id="623,640" x1="806.19476" y1="-69.81453" x2="798.80255" y2="-82.86656" />
      <line class="basepairs" id="624,639" x1="819.24677" y1="-77.20674" x2="811.85455" y2="-90.25876" />
      <line class="basepairs" id="625,637" x1="832.31403" y1="-84.57191" x2="824.97595" y2="-97.65443" />
      <line class="basepairs" id="626,636" x1="845.39655" y1="-91.91003" x2="838.05841" y2="-104.99255" />
      <line class="basepairs" id="627,635" x1="858.47906" y1="-99.24815" x2="851.14093" y2="-112.33067" />
      <line class="basepairs" id="628,634" x1="871.56158" y1="-106.58627" x2="864.22345" y2="-119.66879" />
      <line class="basepairs" id="629,633" x1="884.64410" y1="-113.92439" x2="877.30597" y2="-127.00690" />
      <line class="basepairs" id="694,709" x1="148.28136" y1="7.75044" x2="134.94884" y2="0.87704" />
      <line class="basepairs" id="695,708" x1="155.15475" y1="-5.58209" x2="141.82224" y2="-12.45549" />
      <line class="basepairs" id="696,707" x1="162.02815" y1="-18.91463" x2="148.69563" y2="-25.78802" />
      <line class="basepairs" id="697,706" x1="168.90155" y1="-32.24716" x2="155.56903" y2="-39.12056" />
      <line class="basepairs" id="710,734" x1="121.08175" y1="-4.84169" x2="106.77988" y2="-9.36462" />
      <line class="basepairs" id="711,733" x1="125.60467" y1="-19.14355" x2="111.30281" y2="-23.66647" />
      <line class="basepairs" id="714,730" x1="136.65958" y1="-54.10010" x2="122.35771" y2="-58.62303" />
      <line class="basepairs" id="715,729" x1="141.18250" y1="-68.40196" x2="126.88064" y2="-72.92488" />
      <line class="basepairs" id="716,728" x1="145.70541" y1="-82.70383" x2="131.40356" y2="-87.22675" />
      <line class="basepairs" id="717,727" x1="150.22833" y1="-97.00568" x2="135.92648" y2="-101.52861" />
      <line class="basepairs" id="718,726" x1="154.75127" y1="-111.30754" x2="140.44940" y2="-115.83046" />
    </g>
    <g transform="translate(-4.6, 4)" id="seq">
      <text class="nucleotide" x="64.000" y="-162.365">G</text>
      <text class="nucleotide" x="63.813" y="-147.366">G</text>
      <text class="nucleotide" x="63.627" y="-132.367">C</text>
      <text class="nucleotide" x="51.383" y="-123.928">G</text>
      <text class="nucleotide" x="46.397" y="-109.730">C</text>
      <text class="nucleotide" x="50.779" y="-95.147">C</text>
      <text class="nucleotide" x="63.049" y="-85.833">G</text>
      <text class="nucleotide" x="62.863" y="-70.834">G</text>
      <text class="nucleotide" x="62.677" y="-55.836">G</text>
      <text class="nucleotide" x="54.782" y="-43.205">C</text>
      <text class="nucleotide" x="62.347" y="-29.310">G</text>
      <text class="nucleotide" x="62.161" y="-14.311">G</text>
      <text class="nucleotide" x="62.654" y="15.459">A</text>
      <text class="nucleotide" x="77.763" y="34.263">G</text>
      <text class="nucleotide" x="63.262" y="38.100">G</text>
      <text class="nucleotide" x="48.761" y="41.937">G</text>
      <text class="nucleotide" x="34.260" y="45.775">G</text>
      <text class="nucleotide" x="19.760" y="49.612">G</text>
      <text class="nucleotide" x="5.259" y="53.449">A</text>
      <text class="nucleotide" x="-9.242" y="57.286">G</text>
      <text class="nucleotide" x="-23.743" y="61.124">A</text>
      <text class="nucleotide" x="-36.608" y="53.410">G</text>
      <text class="nucleotide" x="-40.053" y="38.811">C</text>
      <text class="nucleotide" x="-43.499" y="24.212">G</text>
      <text class="nucleotide" x="-46.945" y="9.613">C</text>
      <text class="nucleotide" x="-50.391" y="-4.986">G</text>
      <text class="nucleotide" x="-48.145" y="-21.790">G</text>
      <text class="nucleotide" x="-63.671" y="-28.600">G</text>
      <text class="nucleotide" x="-74.513" y="-15.566">C</text>
      <text class="nucleotide" x="-64.990" y="-1.540">C</text>
      <text class="nucleotide" x="-61.544" y="13.059">G</text>
      <text class="nucleotide" x="-58.098" y="27.658">C</text>
      <text class="nucleotide" x="-54.652" y="42.257">G</text>
      <text class="nucleotide" x="-51.206" y="56.855">C</text>
      <text class="nucleotide" x="-70.854" y="60.295">G</text>
      <text class="nucleotide" x="-86.629" y="76.555">G</text>
      <text class="nucleotide" x="-90.393" y="101.649">G</text>
      <text class="nucleotide" x="-105.310" y="103.229">C</text>
      <text class="nucleotide" x="-120.226" y="104.809">G</text>
      <text class="nucleotide" x="-135.143" y="106.390">G</text>
      <text class="nucleotide" x="-142.656" y="97.358">G</text>
      <text class="nucleotide" x="-153.465" y="93.068">A</text>
      <text class="nucleotide" x="-164.891" y="94.460">A</text>
      <text class="nucleotide" x="-174.160" y="101.081">G</text>
      <text class="nucleotide" x="-179.078" y="111.223">C</text>
      <text class="nucleotide" x="-193.980" y="112.927">G</text>
      <text class="nucleotide" x="-208.883" y="114.630">A</text>
      <text class="nucleotide" x="-219.392" y="103.366">A</text>
      <text class="nucleotide" x="-234.343" y="100.483">G</text>
      <text class="nucleotide" x="-247.964" y="106.880">A</text>
      <text class="nucleotide" x="-255.120" y="119.916">G</text>
      <text class="nucleotide" x="-270.023" y="121.620">G</text>
      <text class="nucleotide" x="-284.926" y="123.323">C</text>
      <text class="nucleotide" x="-299.829" y="125.027">G</text>
      <text class="nucleotide" x="-314.732" y="126.731">G</text>
      <text class="nucleotide" x="-322.723" y="119.572">G</text>
      <text class="nucleotide" x="-333.110" y="117.962">C</text>
      <text class="nucleotide" x="-342.496" y="122.185">G</text>
      <text class="nucleotide" x="-347.944" y="130.660">G</text>
      <text class="nucleotide" x="-362.832" y="132.487">G</text>
      <text class="nucleotide" x="-377.721" y="134.314">C</text>
      <text class="nucleotide" x="-392.609" y="136.141">C</text>
      <text class="nucleotide" x="-398.980" y="127.841">A</text>
      <text class="nucleotide" x="-408.122" y="122.916">G</text>
      <text class="nucleotide" x="-418.399" y="122.175">C</text>
      <text class="nucleotide" x="-428.003" y="125.681">G</text>
      <text class="nucleotide" x="-435.270" y="132.757">A</text>
      <text class="nucleotide" x="-438.971" y="142.115">G</text>
      <text class="nucleotide" x="-453.836" y="144.127">G</text>
      <text class="nucleotide" x="-468.700" y="146.139">A</text>
      <text class="nucleotide" x="-483.565" y="148.150">G</text>
      <text class="nucleotide" x="-492.369" y="146.214">C</text>
      <text class="nucleotide" x="-498.487" y="150.201">G</text>
      <text class="nucleotide" x="-513.343" y="152.275">C</text>
      <text class="nucleotide" x="-528.199" y="154.348">G</text>
      <text class="nucleotide" x="-543.055" y="156.421">G</text>
      <text class="nucleotide" x="-557.911" y="158.494">A</text>
      <text class="nucleotide" x="-572.846" y="159.889">G</text>
      <text class="nucleotide" x="-587.829" y="160.603">A</text>
      <text class="nucleotide" x="-602.812" y="161.317">G</text>
      <text class="nucleotide" x="-617.795" y="162.031">A</text>
      <text class="nucleotide" x="-622.234" y="159.753">A</text>
      <text class="nucleotide" x="-626.671" y="159.368">A</text>
      <text class="nucleotide" x="-630.408" y="160.575">A</text>
      <text class="nucleotide" x="-632.959" y="162.847">G</text>
      <text class="nucleotide" x="-647.932" y="163.747">G</text>
      <text class="nucleotide" x="-662.905" y="164.647">C</text>
      <text class="nucleotide" x="-677.878" y="165.546">G</text>
      <text class="nucleotide" x="-692.851" y="166.446">C</text>
      <text class="nucleotide" x="-701.487" y="163.860">G</text>
      <text class="nucleotide" x="-707.884" y="167.381">A</text>
      <text class="nucleotide" x="-722.152" y="160.544">G</text>
      <text class="nucleotide" x="-734.357" y="169.081">C</text>
      <text class="nucleotide" x="-749.326" y="170.043">G</text>
      <text class="nucleotide" x="-764.295" y="171.005">G</text>
      <text class="nucleotide" x="-778.563" y="164.168">C</text>
      <text class="nucleotide" x="-790.768" y="172.706">C</text>
      <text class="nucleotide" x="-805.737" y="173.667">A</text>
      <text class="nucleotide" x="-820.706" y="174.629">G</text>
      <text class="nucleotide" x="-835.676" y="175.591">G</text>
      <text class="nucleotide" x="-847.484" y="165.432">A</text>
      <text class="nucleotide" x="-862.651" y="166.621">G</text>
      <text class="nucleotide" x="-872.263" y="177.941">G</text>
      <text class="nucleotide" x="-887.232" y="178.903">G</text>
      <text class="nucleotide" x="-902.201" y="179.865">C</text>
      <text class="nucleotide" x="-917.171" y="180.826">U</text>
      <text class="nucleotide" x="-899.339" y="136.440">C</text>
      <text class="nucleotide" x="-927.388" y="81.938">A</text>
      <text class="nucleotide" x="-939.571" y="73.187">G</text>
      <text class="nucleotide" x="-951.753" y="64.435">G</text>
      <text class="nucleotide" x="-951.702" y="48.918">C</text>
      <text class="nucleotide" x="-960.809" y="36.355">C</text>
      <text class="nucleotide" x="-975.571" y="31.575">G</text>
      <text class="nucleotide" x="-990.314" y="36.417">A</text>
      <text class="nucleotide" x="-999.367" y="49.020">G</text>
      <text class="nucleotide" x="-999.249" y="64.536">A</text>
      <text class="nucleotide" x="-990.007" y="77.001">C</text>
      <text class="nucleotide" x="-975.194" y="81.620">A</text>
      <text class="nucleotide" x="-960.505" y="76.618">C</text>
      <text class="nucleotide" x="-948.322" y="85.369">C</text>
      <text class="nucleotide" x="-936.140" y="94.121">U</text>
      <text class="nucleotide" x="-939.741" y="100.700">U</text>
      <text class="nucleotide" x="-950.544" y="120.436">G</text>
      <text class="nucleotide" x="-964.482" y="114.890">C</text>
      <text class="nucleotide" x="-978.419" y="109.344">A</text>
      <text class="nucleotide" x="-992.356" y="103.798">G</text>
      <text class="nucleotide" x="-996.408" y="84.968">C</text>
      <text class="nucleotide" x="-1010.968" y="72.592">U</text>
      <text class="nucleotide" x="-1029.900" y="71.642">G</text>
      <text class="nucleotide" x="-1045.374" y="82.324">C</text>
      <text class="nucleotide" x="-1059.241" y="76.605">C</text>
      <text class="nucleotide" x="-1073.108" y="70.886">G</text>
      <text class="nucleotide" x="-1086.975" y="65.168">C</text>
      <text class="nucleotide" x="-1096.784" y="52.753">C</text>
      <text class="nucleotide" x="-1111.499" y="55.054">G</text>
      <text class="nucleotide" x="-1125.366" y="49.335">C</text>
      <text class="nucleotide" x="-1135.175" y="36.921">C</text>
      <text class="nucleotide" x="-1149.890" y="39.222">G</text>
      <text class="nucleotide" x="-1163.757" y="33.503">C</text>
      <text class="nucleotide" x="-1169.596" y="18.817">C</text>
      <text class="nucleotide" x="-1184.142" y="12.637">A</text>
      <text class="nucleotide" x="-1198.766" y="18.631">C</text>
      <text class="nucleotide" x="-1204.791" y="33.241">C</text>
      <text class="nucleotide" x="-1198.643" y="47.801">G</text>
      <text class="nucleotide" x="-1183.970" y="53.672">A</text>
      <text class="nucleotide" x="-1169.476" y="47.370">G</text>
      <text class="nucleotide" x="-1155.609" y="53.089">C</text>
      <text class="nucleotide" x="-1146.793" y="65.094">C</text>
      <text class="nucleotide" x="-1131.085" y="63.202">G</text>
      <text class="nucleotide" x="-1117.218" y="68.921">C</text>
      <text class="nucleotide" x="-1108.402" y="80.926">C</text>
      <text class="nucleotide" x="-1092.694" y="79.035">G</text>
      <text class="nucleotide" x="-1078.827" y="84.754">C</text>
      <text class="nucleotide" x="-1064.960" y="90.472">G</text>
      <text class="nucleotide" x="-1051.093" y="96.191">G</text>
      <text class="nucleotide" x="-1050.592" y="107.138">A</text>
      <text class="nucleotide" x="-1046.072" y="117.176">U</text>
      <text class="nucleotide" x="-1038.133" y="124.876">C</text>
      <text class="nucleotide" x="-1027.868" y="129.129">A</text>
      <text class="nucleotide" x="-1016.708" y="129.299">A</text>
      <text class="nucleotide" x="-1006.222" y="125.327">A</text>
      <text class="nucleotide" x="-997.902" y="117.735">C</text>
      <text class="nucleotide" x="-983.965" y="123.281">U</text>
      <text class="nucleotide" x="-970.028" y="128.827">G</text>
      <text class="nucleotide" x="-956.091" y="134.373">C</text>
      <text class="nucleotide" x="-957.269" y="149.327">U</text>
      <text class="nucleotide" x="-971.903" y="152.621">C</text>
      <text class="nucleotide" x="-986.536" y="155.916">C</text>
      <text class="nucleotide" x="-1001.170" y="159.211">A</text>
      <text class="nucleotide" x="-1015.804" y="162.505">G</text>
      <text class="nucleotide" x="-1019.662" y="161.170">C</text>
      <text class="nucleotide" x="-1023.385" y="161.075">G</text>
      <text class="nucleotide" x="-1026.617" y="162.038">G</text>
      <text class="nucleotide" x="-1029.091" y="163.783">A</text>
      <text class="nucleotide" x="-1030.652" y="165.977">G</text>
      <text class="nucleotide" x="-1045.229" y="169.514">U</text>
      <text class="nucleotide" x="-1059.806" y="173.050">G</text>
      <text class="nucleotide" x="-1074.383" y="176.586">C</text>
      <text class="nucleotide" x="-1088.960" y="180.123">A</text>
      <text class="nucleotide" x="-1103.537" y="183.659">U</text>
      <text class="nucleotide" x="-1112.354" y="177.545">C</text>
      <text class="nucleotide" x="-1122.860" y="177.234">A</text>
      <text class="nucleotide" x="-1131.651" y="182.587">C</text>
      <text class="nucleotide" x="-1136.007" y="191.671">C</text>
      <text class="nucleotide" x="-1150.555" y="195.328">U</text>
      <text class="nucleotide" x="-1165.102" y="198.985">G</text>
      <text class="nucleotide" x="-1179.650" y="202.642">G</text>
      <text class="nucleotide" x="-1197.305" y="197.224">A</text>
      <text class="nucleotide" x="-1209.356" y="210.048">C</text>
      <text class="nucleotide" x="-1223.918" y="213.645">C</text>
      <text class="nucleotide" x="-1238.481" y="217.242">C</text>
      <text class="nucleotide" x="-1253.051" y="220.808">G</text>
      <text class="nucleotide" x="-1267.628" y="224.345">G</text>
      <text class="nucleotide" x="-1282.205" y="227.881">A</text>
      <text class="nucleotide" x="-1296.782" y="231.418">G</text>
      <text class="nucleotide" x="-1311.359" y="234.954">G</text>
      <text class="nucleotide" x="-1325.936" y="238.490">G</text>
      <text class="nucleotide" x="-1340.514" y="242.027">C</text>
      <text class="nucleotide" x="-1355.091" y="245.563">C</text>
      <text class="nucleotide" x="-1369.668" y="249.099">C</text>
      <text class="nucleotide" x="-1384.245" y="252.636">U</text>
      <text class="nucleotide" x="-1398.837" y="256.112">G</text>
      <text class="nucleotide" x="-1413.443" y="259.527">C</text>
      <text class="nucleotide" x="-1431.006" y="253.817">A</text>
      <text class="nucleotide" x="-1443.268" y="266.441">G</text>
      <text class="nucleotide" x="-1457.888" y="269.796">C</text>
      <text class="nucleotide" x="-1472.507" y="273.151">U</text>
      <text class="nucleotide" x="-1490.047" y="267.368">A</text>
      <text class="nucleotide" x="-1502.361" y="279.941">C</text>
      <text class="nucleotide" x="-1516.994" y="283.235">A</text>
      <text class="nucleotide" x="-1531.628" y="286.530">G</text>
      <text class="nucleotide" x="-1546.262" y="289.825">A</text>
      <text class="nucleotide" x="-1557.828" y="279.480">C</text>
      <text class="nucleotide" x="-1573.269" y="277.943">A</text>
      <text class="nucleotide" x="-1586.647" y="285.804">G</text>
      <text class="nucleotide" x="-1592.818" y="300.041">U</text>
      <text class="nucleotide" x="-1589.410" y="315.179">G</text>
      <text class="nucleotide" x="-1577.733" y="325.398">G</text>
      <text class="nucleotide" x="-1562.276" y="326.767">C</text>
      <text class="nucleotide" x="-1548.984" y="318.761">A</text>
      <text class="nucleotide" x="-1542.967" y="304.458">U</text>
      <text class="nucleotide" x="-1528.334" y="301.164">C</text>
      <text class="nucleotide" x="-1513.700" y="297.869">U</text>
      <text class="nucleotide" x="-1499.066" y="294.575">G</text>
      <text class="nucleotide" x="-1488.752" y="300.753">C</text>
      <text class="nucleotide" x="-1476.593" y="298.212">A</text>
      <text class="nucleotide" x="-1469.152" y="287.771">G</text>
      <text class="nucleotide" x="-1454.532" y="284.416">G</text>
      <text class="nucleotide" x="-1439.912" y="281.061">C</text>
      <text class="nucleotide" x="-1429.573" y="287.197">A</text>
      <text class="nucleotide" x="-1417.425" y="284.605">G</text>
      <text class="nucleotide" x="-1410.027" y="274.133">G</text>
      <text class="nucleotide" x="-1395.421" y="270.718">C</text>
      <text class="nucleotide" x="-1391.052" y="272.367">C</text>
      <text class="nucleotide" x="-1385.606" y="271.370">U</text>
      <text class="nucleotide" x="-1380.709" y="267.213">G</text>
      <text class="nucleotide" x="-1366.131" y="263.677">G</text>
      <text class="nucleotide" x="-1351.554" y="260.140">G</text>
      <text class="nucleotide" x="-1336.977" y="256.604">G</text>
      <text class="nucleotide" x="-1322.400" y="253.068">C</text>
      <text class="nucleotide" x="-1307.823" y="249.531">C</text>
      <text class="nucleotide" x="-1293.246" y="245.995">U</text>
      <text class="nucleotide" x="-1278.668" y="242.458">U</text>
      <text class="nucleotide" x="-1264.091" y="238.922">C</text>
      <text class="nucleotide" x="-1249.514" y="235.386">C</text>
      <text class="nucleotide" x="-1242.359" y="236.843">A</text>
      <text class="nucleotide" x="-1234.884" y="231.804">G</text>
      <text class="nucleotide" x="-1220.322" y="228.208">G</text>
      <text class="nucleotide" x="-1205.759" y="224.611">G</text>
      <text class="nucleotide" x="-1195.320" y="230.575">G</text>
      <text class="nucleotide" x="-1183.216" y="227.783">A</text>
      <text class="nucleotide" x="-1175.993" y="217.190">C</text>
      <text class="nucleotide" x="-1161.445" y="213.533">U</text>
      <text class="nucleotide" x="-1146.898" y="209.876">A</text>
      <text class="nucleotide" x="-1132.350" y="206.219">G</text>
      <text class="nucleotide" x="-1114.085" y="212.763">A</text>
      <text class="nucleotide" x="-1100.001" y="198.236">G</text>
      <text class="nucleotide" x="-1085.424" y="194.700">U</text>
      <text class="nucleotide" x="-1070.847" y="191.164">G</text>
      <text class="nucleotide" x="-1056.270" y="187.627">U</text>
      <text class="nucleotide" x="-1041.693" y="184.091">A</text>
      <text class="nucleotide" x="-1027.115" y="180.554">C</text>
      <text class="nucleotide" x="-1012.509" y="177.139">C</text>
      <text class="nucleotide" x="-997.876" y="173.844">U</text>
      <text class="nucleotide" x="-983.242" y="170.550">G</text>
      <text class="nucleotide" x="-968.608" y="167.255">G</text>
      <text class="nucleotide" x="-953.974" y="163.961">A</text>
      <text class="nucleotide" x="-950.510" y="170.613">A</text>
      <text class="nucleotide" x="-943.582" y="183.916">A</text>
      <text class="nucleotide" x="-940.117" y="190.568">G</text>
      <text class="nucleotide" x="-951.206" y="200.670">G</text>
      <text class="nucleotide" x="-962.295" y="210.771">G</text>
      <text class="nucleotide" x="-973.384" y="220.873">G</text>
      <text class="nucleotide" x="-984.473" y="230.974">A</text>
      <text class="nucleotide" x="-995.562" y="241.075">C</text>
      <text class="nucleotide" x="-1006.650" y="251.177">A</text>
      <text class="nucleotide" x="-1022.678" y="251.869">U</text>
      <text class="nucleotide" x="-1032.014" y="264.917">G</text>
      <text class="nucleotide" x="-1027.495" y="280.310">U</text>
      <text class="nucleotide" x="-1012.588" y="286.241">G</text>
      <text class="nucleotide" x="-998.729" y="278.160">C</text>
      <text class="nucleotide" x="-996.549" y="262.266">U</text>
      <text class="nucleotide" x="-985.460" y="252.164">G</text>
      <text class="nucleotide" x="-974.371" y="242.063">U</text>
      <text class="nucleotide" x="-963.282" y="231.961">C</text>
      <text class="nucleotide" x="-952.194" y="221.860">C</text>
      <text class="nucleotide" x="-941.105" y="211.759">C</text>
      <text class="nucleotide" x="-930.016" y="201.657">C</text>
      <text class="nucleotide" x="-916.209" y="195.795">A</text>
      <text class="nucleotide" x="-901.240" y="194.834">G</text>
      <text class="nucleotide" x="-886.271" y="193.872">C</text>
      <text class="nucleotide" x="-871.301" y="192.910">C</text>
      <text class="nucleotide" x="-860.320" y="202.908">A</text>
      <text class="nucleotide" x="-845.126" y="202.146">C</text>
      <text class="nucleotide" x="-834.714" y="190.560">C</text>
      <text class="nucleotide" x="-819.745" y="189.598">C</text>
      <text class="nucleotide" x="-804.776" y="188.636">U</text>
      <text class="nucleotide" x="-789.806" y="187.675">G</text>
      <text class="nucleotide" x="-776.609" y="194.580">A</text>
      <text class="nucleotide" x="-763.334" y="185.974">C</text>
      <text class="nucleotide" x="-748.365" y="185.012">C</text>
      <text class="nucleotide" x="-733.395" y="184.051">G</text>
      <text class="nucleotide" x="-720.198" y="190.956">G</text>
      <text class="nucleotide" x="-706.922" y="182.350">U</text>
      <text class="nucleotide" x="-691.951" y="181.419">G</text>
      <text class="nucleotide" x="-676.978" y="180.519">U</text>
      <text class="nucleotide" x="-662.005" y="179.620">G</text>
      <text class="nucleotide" x="-647.032" y="178.720">C</text>
      <text class="nucleotide" x="-632.059" y="177.820">C</text>
      <text class="nucleotide" x="-617.081" y="177.014">U</text>
      <text class="nucleotide" x="-602.098" y="176.300">C</text>
      <text class="nucleotide" x="-587.115" y="175.586">U</text>
      <text class="nucleotide" x="-572.132" y="174.872">C</text>
      <text class="nucleotide" x="-567.935" y="181.088">G</text>
      <text class="nucleotide" x="-580.741" y="188.897">C</text>
      <text class="nucleotide" x="-594.980" y="193.617">C</text>
      <text class="nucleotide" x="-595.294" y="208.613">U</text>
      <text class="nucleotide" x="-581.266" y="213.925">U</text>
      <text class="nucleotide" x="-571.568" y="202.481">C</text>
      <text class="nucleotide" x="-559.540" y="193.519">A</text>
      <text class="nucleotide" x="-555.343" y="199.734">C</text>
      <text class="nucleotide" x="-561.602" y="213.366">A</text>
      <text class="nucleotide" x="-567.861" y="226.997">G</text>
      <text class="nucleotide" x="-574.121" y="240.629">U</text>
      <text class="nucleotide" x="-580.380" y="254.260">G</text>
      <text class="nucleotide" x="-594.064" y="263.299">U</text>
      <text class="nucleotide" x="-592.809" y="279.650">G</text>
      <text class="nucleotide" x="-577.906" y="286.493">C</text>
      <text class="nucleotide" x="-564.686" y="276.789">U</text>
      <text class="nucleotide" x="-566.749" y="260.520">C</text>
      <text class="nucleotide" x="-560.489" y="246.888">A</text>
      <text class="nucleotide" x="-554.230" y="233.257">C</text>
      <text class="nucleotide" x="-547.970" y="219.625">U</text>
      <text class="nucleotide" x="-541.711" y="205.994">G</text>
      <text class="nucleotide" x="-545.096" y="186.864">A</text>
      <text class="nucleotide" x="-555.838" y="173.350">U</text>
      <text class="nucleotide" x="-540.982" y="171.277">C</text>
      <text class="nucleotide" x="-526.125" y="169.204">C</text>
      <text class="nucleotide" x="-511.269" y="167.131">G</text>
      <text class="nucleotide" x="-496.413" y="165.057">C</text>
      <text class="nucleotide" x="-481.553" y="163.015">C</text>
      <text class="nucleotide" x="-466.689" y="161.003">U</text>
      <text class="nucleotide" x="-451.824" y="158.991">C</text>
      <text class="nucleotide" x="-436.960" y="156.980">C</text>
      <text class="nucleotide" x="-422.211" y="169.852">A</text>
      <text class="nucleotide" x="-402.463" y="167.506">G</text>
      <text class="nucleotide" x="-390.782" y="151.029">G</text>
      <text class="nucleotide" x="-375.894" y="149.202">G</text>
      <text class="nucleotide" x="-361.005" y="147.375">C</text>
      <text class="nucleotide" x="-346.117" y="145.548">C</text>
      <text class="nucleotide" x="-328.803" y="154.305">A</text>
      <text class="nucleotide" x="-313.028" y="141.634">C</text>
      <text class="nucleotide" x="-298.125" y="139.930">C</text>
      <text class="nucleotide" x="-283.222" y="138.226">G</text>
      <text class="nucleotide" x="-268.319" y="136.523">C</text>
      <text class="nucleotide" x="-253.416" y="134.819">C</text>
      <text class="nucleotide" x="-243.503" y="145.903">A</text>
      <text class="nucleotide" x="-228.789" y="149.062">U</text>
      <text class="nucleotide" x="-214.874" y="142.879">G</text>
      <text class="nucleotide" x="-207.180" y="129.533">U</text>
      <text class="nucleotide" x="-192.277" y="127.830">C</text>
      <text class="nucleotide" x="-177.374" y="126.126">G</text>
      <text class="nucleotide" x="-163.639" y="138.354">A</text>
      <text class="nucleotide" x="-145.018" y="136.508">G</text>
      <text class="nucleotide" x="-133.563" y="121.306">C</text>
      <text class="nucleotide" x="-118.646" y="119.726">C</text>
      <text class="nucleotide" x="-103.730" y="118.146">G</text>
      <text class="nucleotide" x="-88.813" y="116.565">C</text>
      <text class="nucleotide" x="-77.683" y="126.621">G</text>
      <text class="nucleotide" x="-77.745" y="141.621">G</text>
      <text class="nucleotide" x="-77.807" y="156.621">U</text>
      <text class="nucleotide" x="-77.869" y="171.620">G</text>
      <text class="nucleotide" x="-77.931" y="186.620">G</text>
      <text class="nucleotide" x="-77.993" y="201.620">G</text>
      <text class="nucleotide" x="-91.061" y="209.820">A</text>
      <text class="nucleotide" x="-97.600" y="223.793">A</text>
      <text class="nucleotide" x="-95.524" y="239.080">G</text>
      <text class="nucleotide" x="-85.496" y="250.803">A</text>
      <text class="nucleotide" x="-70.715" y="255.222">A</text>
      <text class="nucleotide" x="-55.898" y="250.926">G</text>
      <text class="nucleotide" x="-45.773" y="239.286">A</text>
      <text class="nucleotide" x="-43.570" y="224.017">A</text>
      <text class="nucleotide" x="-49.994" y="209.990">G</text>
      <text class="nucleotide" x="-62.993" y="201.682">U</text>
      <text class="nucleotide" x="-62.931" y="186.682">C</text>
      <text class="nucleotide" x="-62.869" y="171.683">C</text>
      <text class="nucleotide" x="-62.807" y="156.683">A</text>
      <text class="nucleotide" x="-62.745" y="141.683">C</text>
      <text class="nucleotide" x="-62.683" y="126.683">C</text>
      <text class="nucleotide" x="-55.224" y="125.893">A</text>
      <text class="nucleotide" x="-40.308" y="124.312">A</text>
      <text class="nucleotide" x="-32.850" y="123.522">G</text>
      <text class="nucleotide" x="-29.646" y="138.176">A</text>
      <text class="nucleotide" x="-26.442" y="152.830">C</text>
      <text class="nucleotide" x="-27.663" y="161.762">G</text>
      <text class="nucleotide" x="-23.195" y="167.538">U</text>
      <text class="nucleotide" x="-19.931" y="182.179">C</text>
      <text class="nucleotide" x="-16.666" y="196.819">C</text>
      <text class="nucleotide" x="-22.888" y="208.029">A</text>
      <text class="nucleotide" x="-19.948" y="220.098">G</text>
      <text class="nucleotide" x="-9.932" y="226.748">G</text>
      <text class="nucleotide" x="-11.079" y="235.690">U</text>
      <text class="nucleotide" x="-6.563" y="241.429">C</text>
      <text class="nucleotide" x="-3.178" y="256.042">U</text>
      <text class="nucleotide" x="-10.415" y="270.360">G</text>
      <text class="nucleotide" x="-3.602" y="284.885">C</text>
      <text class="nucleotide" x="12.034" y="288.474">C</text>
      <text class="nucleotide" x="24.499" y="278.374">A</text>
      <text class="nucleotide" x="24.231" y="262.334">A</text>
      <text class="nucleotide" x="11.435" y="252.657">A</text>
      <text class="nucleotide" x="8.050" y="238.044">G</text>
      <text class="nucleotide" x="4.695" y="223.424">C</text>
      <text class="nucleotide" x="10.743" y="206.897">A</text>
      <text class="nucleotide" x="-2.026" y="193.555">G</text>
      <text class="nucleotide" x="-5.290" y="178.914">G</text>
      <text class="nucleotide" x="-8.554" y="164.274">A</text>
      <text class="nucleotide" x="-11.788" y="149.627">G</text>
      <text class="nucleotide" x="-14.992" y="134.973">U</text>
      <text class="nucleotide" x="-18.196" y="120.319">C</text>
      <text class="nucleotide" x="-11.495" y="95.532">A</text>
      <text class="nucleotide" x="-19.906" y="75.625">U</text>
      <text class="nucleotide" x="-5.405" y="71.787">C</text>
      <text class="nucleotide" x="9.096" y="67.950">U</text>
      <text class="nucleotide" x="23.597" y="64.113">U</text>
      <text class="nucleotide" x="38.098" y="60.275">U</text>
      <text class="nucleotide" x="52.599" y="56.438">C</text>
      <text class="nucleotide" x="67.099" y="52.601">C</text>
      <text class="nucleotide" x="81.600" y="48.764">C</text>
      <text class="nucleotide" x="108.431" y="77.984">G</text>
      <text class="nucleotide" x="161.756" y="48.902">U</text>
      <text class="nucleotide" x="176.712" y="50.049">G</text>
      <text class="nucleotide" x="191.668" y="51.197">G</text>
      <text class="nucleotide" x="206.624" y="52.344">G</text>
      <text class="nucleotide" x="221.580" y="53.492">G</text>
      <text class="nucleotide" x="234.748" y="62.262">C</text>
      <text class="nucleotide" x="248.030" y="55.521">G</text>
      <text class="nucleotide" x="262.986" y="56.669">G</text>
      <text class="nucleotide" x="277.942" y="57.816">A</text>
      <text class="nucleotide" x="292.898" y="58.964">U</text>
      <text class="nucleotide" x="307.854" y="60.111">G</text>
      <text class="nucleotide" x="321.022" y="68.881">C</text>
      <text class="nucleotide" x="334.304" y="62.140">U</text>
      <text class="nucleotide" x="349.260" y="63.288">G</text>
      <text class="nucleotide" x="357.463" y="67.026">C</text>
      <text class="nucleotide" x="364.280" y="64.409">G</text>
      <text class="nucleotide" x="379.241" y="65.495">G</text>
      <text class="nucleotide" x="394.201" y="66.580">U</text>
      <text class="nucleotide" x="409.162" y="67.666">A</text>
      <text class="nucleotide" x="395.611" y="74.097">C</text>
      <text class="nucleotide" x="386.580" y="86.074">A</text>
      <text class="nucleotide" x="384.124" y="100.872">U</text>
      <text class="nucleotide" x="388.802" y="115.124">C</text>
      <text class="nucleotide" x="399.549" y="125.588">A</text>
      <text class="nucleotide" x="413.920" y="129.884">A</text>
      <text class="nucleotide" x="428.647" y="127.034">G</text>
      <text class="nucleotide" x="440.379" y="117.688">A</text>
      <text class="nucleotide" x="446.447" y="103.970">A</text>
      <text class="nucleotide" x="445.471" y="89.002">A</text>
      <text class="nucleotide" x="437.672" y="76.188">G</text>
      <text class="nucleotide" x="424.826" y="68.444">G</text>
      <text class="nucleotide" x="439.820" y="68.848">C</text>
      <text class="nucleotide" x="454.814" y="69.282">C</text>
      <text class="nucleotide" x="469.807" y="69.748">A</text>
      <text class="nucleotide" x="484.799" y="70.214">C</text>
      <text class="nucleotide" x="499.792" y="70.679">C</text>
      <text class="nucleotide" x="514.785" y="71.145">C</text>
      <text class="nucleotide" x="529.778" y="71.610">C</text>
      <text class="nucleotide" x="533.969" y="83.406">A</text>
      <text class="nucleotide" x="542.759" y="92.871">A</text>
      <text class="nucleotide" x="554.942" y="98.244">G</text>
      <text class="nucleotide" x="568.655" y="98.362">U</text>
      <text class="nucleotide" x="581.665" y="92.892">A</text>
      <text class="nucleotide" x="591.727" y="82.434">C</text>
      <text class="nucleotide" x="606.212" y="86.332">A</text>
      <text class="nucleotide" x="620.696" y="90.229">G</text>
      <text class="nucleotide" x="635.181" y="94.126">G</text>
      <text class="nucleotide" x="649.666" y="98.024">A</text>
      <text class="nucleotide" x="664.151" y="101.921">U</text>
      <text class="nucleotide" x="671.520" y="107.113">U</text>
      <text class="nucleotide" x="678.704" y="105.804">G</text>
      <text class="nucleotide" x="685.795" y="116.486">G</text>
      <text class="nucleotide" x="697.863" y="119.428">A</text>
      <text class="nucleotide" x="708.376" y="113.594">G</text>
      <text class="nucleotide" x="722.893" y="117.372">U</text>
      <text class="nucleotide" x="734.300" y="128.335">G</text>
      <text class="nucleotide" x="748.565" y="124.052">G</text>
      <text class="nucleotide" x="763.082" y="127.829">G</text>
      <text class="nucleotide" x="777.599" y="131.606">G</text>
      <text class="nucleotide" x="792.115" y="135.383">G</text>
      <text class="nucleotide" x="806.628" y="151.247">C</text>
      <text class="nucleotide" x="826.182" y="144.464">A</text>
      <text class="nucleotide" x="840.651" y="148.421">C</text>
      <text class="nucleotide" x="855.119" y="152.378">C</text>
      <text class="nucleotide" x="869.588" y="156.335">C</text>
      <text class="nucleotide" x="884.057" y="160.292">G</text>
      <text class="nucleotide" x="898.525" y="164.250">U</text>
      <text class="nucleotide" x="909.795" y="175.353">G</text>
      <text class="nucleotide" x="924.113" y="171.248">U</text>
      <text class="nucleotide" x="924.008" y="187.504">A</text>
      <text class="nucleotide" x="929.521" y="203.217">C</text>
      <text class="nucleotide" x="940.259" y="216.460">A</text>
      <text class="nucleotide" x="955.170" y="225.515">U</text>
      <text class="nucleotide" x="972.649" y="229.095">G</text>
      <text class="nucleotide" x="990.704" y="226.522">G</text>
      <text class="nucleotide" x="1007.188" y="217.831">C</text>
      <text class="nucleotide" x="1020.858" y="224.006">C</text>
      <text class="nucleotide" x="1034.528" y="230.181">G</text>
      <text class="nucleotide" x="1048.199" y="236.355">C</text>
      <text class="nucleotide" x="1057.590" y="249.087">C</text>
      <text class="nucleotide" x="1072.374" y="247.275">G</text>
      <text class="nucleotide" x="1086.044" y="253.450">U</text>
      <text class="nucleotide" x="1099.714" y="259.625">C</text>
      <text class="nucleotide" x="1104.948" y="271.329">C</text>
      <text class="nucleotide" x="1116.367" y="276.220">U</text>
      <text class="nucleotide" x="1127.697" y="272.199">G</text>
      <text class="nucleotide" x="1141.393" y="278.317">G</text>
      <text class="nucleotide" x="1150.572" y="291.906">A</text>
      <text class="nucleotide" x="1166.909" y="290.482">A</text>
      <text class="nucleotide" x="1173.598" y="275.508">U</text>
      <text class="nucleotide" x="1163.757" y="262.390">A</text>
      <text class="nucleotide" x="1147.511" y="264.621">C</text>
      <text class="nucleotide" x="1133.815" y="258.503">C</text>
      <text class="nucleotide" x="1124.225" y="243.747">U</text>
      <text class="nucleotide" x="1105.889" y="245.954">G</text>
      <text class="nucleotide" x="1092.219" y="239.780">A</text>
      <text class="nucleotide" x="1078.549" y="233.605">C</text>
      <text class="nucleotide" x="1070.135" y="221.315">A</text>
      <text class="nucleotide" x="1054.373" y="222.685">G</text>
      <text class="nucleotide" x="1040.703" y="216.510">C</text>
      <text class="nucleotide" x="1027.033" y="210.336">G</text>
      <text class="nucleotide" x="1013.363" y="204.161">G</text>
      <text class="nucleotide" x="1015.446" y="196.956">A</text>
      <text class="nucleotide" x="1029.856" y="201.123">G</text>
      <text class="nucleotide" x="1044.266" y="205.289">A</text>
      <text class="nucleotide" x="1048.432" y="190.879">U</text>
      <text class="nucleotide" x="1034.022" y="186.713">U</text>
      <text class="nucleotide" x="1019.612" y="182.546">C</text>
      <text class="nucleotide" x="1021.696" y="175.342">U</text>
      <text class="nucleotide" x="1036.552" y="177.415">G</text>
      <text class="nucleotide" x="1043.913" y="190.947">G</text>
      <text class="nucleotide" x="1057.670" y="197.474">A</text>
      <text class="nucleotide" x="1072.457" y="194.682">G</text>
      <text class="nucleotide" x="1082.643" y="183.847">C</text>
      <text class="nucleotide" x="1097.499" y="185.920">U</text>
      <text class="nucleotide" x="1110.097" y="195.491">G</text>
      <text class="nucleotide" x="1123.772" y="189.587">G</text>
      <text class="nucleotide" x="1138.628" y="191.660">C</text>
      <text class="nucleotide" x="1153.484" y="193.733">U</text>
      <text class="nucleotide" x="1168.340" y="195.807">G</text>
      <text class="nucleotide" x="1177.662" y="208.569">G</text>
      <text class="nucleotide" x="1193.291" y="210.919">C</text>
      <text class="nucleotide" x="1205.953" y="201.462">A</text>
      <text class="nucleotide" x="1208.138" y="185.809">A</text>
      <text class="nucleotide" x="1198.548" y="173.247">U</text>
      <text class="nucleotide" x="1182.873" y="171.228">G</text>
      <text class="nucleotide" x="1170.413" y="180.951">C</text>
      <text class="nucleotide" x="1155.557" y="178.877">A</text>
      <text class="nucleotide" x="1140.701" y="176.804">G</text>
      <text class="nucleotide" x="1125.845" y="174.731">C</text>
      <text class="nucleotide" x="1114.309" y="165.309">G</text>
      <text class="nucleotide" x="1099.572" y="171.064">A</text>
      <text class="nucleotide" x="1084.716" y="168.991">G</text>
      <text class="nucleotide" x="1077.886" y="155.782">A</text>
      <text class="nucleotide" x="1064.428" y="149.048">G</text>
      <text class="nucleotide" x="1049.409" y="151.559">A</text>
      <text class="nucleotide" x="1038.625" y="162.559">C</text>
      <text class="nucleotide" x="1023.769" y="160.486">A</text>
      <text class="nucleotide" x="1016.893" y="147.458">A</text>
      <text class="nucleotide" x="1006.954" y="136.918">C</text>
      <text class="nucleotide" x="994.768" y="129.543">A</text>
      <text class="nucleotide" x="981.289" y="125.757">A</text>
      <text class="nucleotide" x="967.531" y="125.713">G</text>
      <text class="nucleotide" x="954.497" y="129.283">A</text>
      <text class="nucleotide" x="943.100" y="136.083">A</text>
      <text class="nucleotide" x="934.104" y="145.507">G</text>
      <text class="nucleotide" x="928.070" y="156.779">G</text>
      <text class="nucleotide" x="917.835" y="145.958">G</text>
      <text class="nucleotide" x="902.482" y="149.781">A</text>
      <text class="nucleotide" x="888.014" y="145.824">C</text>
      <text class="nucleotide" x="873.545" y="141.867">G</text>
      <text class="nucleotide" x="859.077" y="137.909">G</text>
      <text class="nucleotide" x="844.608" y="133.952">G</text>
      <text class="nucleotide" x="830.139" y="129.995">U</text>
      <text class="nucleotide" x="827.138" y="121.856">C</text>
      <text class="nucleotide" x="820.672" y="115.869">A</text>
      <text class="nucleotide" x="812.064" y="113.428">C</text>
      <text class="nucleotide" x="803.150" y="115.180">A</text>
      <text class="nucleotide" x="795.892" y="120.867">C</text>
      <text class="nucleotide" x="781.376" y="117.089">C</text>
      <text class="nucleotide" x="766.859" y="113.312">C</text>
      <text class="nucleotide" x="752.343" y="109.535">C</text>
      <text class="nucleotide" x="741.974" y="98.842">G</text>
      <text class="nucleotide" x="726.670" y="102.855">G</text>
      <text class="nucleotide" x="712.153" y="99.078">C</text>
      <text class="nucleotide" x="700.262" y="86.104">A</text>
      <text class="nucleotide" x="682.541" y="91.303">C</text>
      <text class="nucleotide" x="668.048" y="87.436">A</text>
      <text class="nucleotide" x="653.563" y="83.539">U</text>
      <text class="nucleotide" x="639.079" y="79.641">C</text>
      <text class="nucleotide" x="624.594" y="75.744">C</text>
      <text class="nucleotide" x="610.109" y="71.847">U</text>
      <text class="nucleotide" x="595.624" y="67.950">G</text>
      <text class="nucleotide" x="593.705" y="53.073">C</text>
      <text class="nucleotide" x="606.726" y="45.627">U</text>
      <text class="nucleotide" x="619.747" y="38.181">G</text>
      <text class="nucleotide" x="632.769" y="30.734">G</text>
      <text class="nucleotide" x="645.790" y="23.288">C</text>
      <text class="nucleotide" x="658.811" y="15.842">U</text>
      <text class="nucleotide" x="671.833" y="8.396">G</text>
      <text class="nucleotide" x="684.854" y="0.950">U</text>
      <text class="nucleotide" x="697.875" y="-6.496">G</text>
      <text class="nucleotide" x="710.896" y="-13.943">G</text>
      <text class="nucleotide" x="714.977" y="-13.800">C</text>
      <text class="nucleotide" x="718.564" y="-14.802">C</text>
      <text class="nucleotide" x="721.370" y="-16.671">A</text>
      <text class="nucleotide" x="723.223" y="-19.065">A</text>
      <text class="nucleotide" x="724.070" y="-21.621">U</text>
      <text class="nucleotide" x="736.966" y="-29.282">G</text>
      <text class="nucleotide" x="749.863" y="-36.943">A</text>
      <text class="nucleotide" x="762.759" y="-44.604">U</text>
      <text class="nucleotide" x="783.601" y="-37.862">G</text>
      <text class="nucleotide" x="802.197" y="-48.874">A</text>
      <text class="nucleotide" x="806.195" y="-69.815">A</text>
      <text class="nucleotide" x="819.247" y="-77.207">G</text>
      <text class="nucleotide" x="832.314" y="-84.572">A</text>
      <text class="nucleotide" x="845.397" y="-91.910">G</text>
      <text class="nucleotide" x="858.479" y="-99.248">C</text>
      <text class="nucleotide" x="871.562" y="-106.586">U</text>
      <text class="nucleotide" x="884.644" y="-113.924">G</text>
      <text class="nucleotide" x="901.416" y="-116.400">A</text>
      <text class="nucleotide" x="903.681" y="-133.202">A</text>
      <text class="nucleotide" x="888.162" y="-140.029">U</text>
      <text class="nucleotide" x="877.306" y="-127.007">C</text>
      <text class="nucleotide" x="864.223" y="-119.669">A</text>
      <text class="nucleotide" x="851.141" y="-112.331">G</text>
      <text class="nucleotide" x="838.058" y="-104.993">C</text>
      <text class="nucleotide" x="824.976" y="-97.654">U</text>
      <text class="nucleotide" x="817.692" y="-97.128">G</text>
      <text class="nucleotide" x="811.855" y="-90.259">C</text>
      <text class="nucleotide" x="798.803" y="-82.867">U</text>
      <text class="nucleotide" x="792.020" y="-87.651">A</text>
      <text class="nucleotide" x="784.027" y="-90.048">A</text>
      <text class="nucleotide" x="775.645" y="-89.783">A</text>
      <text class="nucleotide" x="767.739" y="-86.856">A</text>
      <text class="nucleotide" x="761.138" y="-81.544">G</text>
      <text class="nucleotide" x="756.542" y="-74.376">G</text>
      <text class="nucleotide" x="754.447" y="-66.077">A</text>
      <text class="nucleotide" x="755.098" y="-57.500">G</text>
      <text class="nucleotide" x="742.202" y="-49.839">U</text>
      <text class="nucleotide" x="729.306" y="-42.178">C</text>
      <text class="nucleotide" x="716.409" y="-34.518">A</text>
      <text class="nucleotide" x="703.450" y="-26.964">C</text>
      <text class="nucleotide" x="690.429" y="-19.518">C</text>
      <text class="nucleotide" x="677.408" y="-12.072">A</text>
      <text class="nucleotide" x="664.386" y="-4.625">U</text>
      <text class="nucleotide" x="651.365" y="2.821">A</text>
      <text class="nucleotide" x="638.344" y="10.267">G</text>
      <text class="nucleotide" x="625.322" y="17.713">C</text>
      <text class="nucleotide" x="612.301" y="25.159">C</text>
      <text class="nucleotide" x="599.280" y="32.605">A</text>
      <text class="nucleotide" x="586.258" y="40.052">G</text>
      <text class="nucleotide" x="563.560" y="30.726">U</text>
      <text class="nucleotide" x="541.546" y="37.967">G</text>
      <text class="nucleotide" x="530.243" y="56.617">G</text>
      <text class="nucleotide" x="515.251" y="56.152">G</text>
      <text class="nucleotide" x="500.258" y="55.686">G</text>
      <text class="nucleotide" x="485.265" y="55.221">G</text>
      <text class="nucleotide" x="470.272" y="54.755">U</text>
      <text class="nucleotide" x="455.279" y="54.290">G</text>
      <text class="nucleotide" x="448.769" y="50.982">U</text>
      <text class="nucleotide" x="440.224" y="53.853">G</text>
      <text class="nucleotide" x="425.229" y="53.450">U</text>
      <text class="nucleotide" x="410.248" y="52.705">U</text>
      <text class="nucleotide" x="395.287" y="51.619">A</text>
      <text class="nucleotide" x="380.326" y="50.534">C</text>
      <text class="nucleotide" x="365.366" y="49.448">C</text>
      <text class="nucleotide" x="350.407" y="48.332">C</text>
      <text class="nucleotide" x="335.451" y="47.184">A</text>
      <text class="nucleotide" x="323.353" y="38.496">A</text>
      <text class="nucleotide" x="309.001" y="45.155">C</text>
      <text class="nucleotide" x="294.045" y="44.007">A</text>
      <text class="nucleotide" x="279.089" y="42.860">U</text>
      <text class="nucleotide" x="264.133" y="41.713">C</text>
      <text class="nucleotide" x="249.177" y="40.565">C</text>
      <text class="nucleotide" x="237.079" y="31.877">A</text>
      <text class="nucleotide" x="222.728" y="38.536">C</text>
      <text class="nucleotide" x="207.772" y="37.388">C</text>
      <text class="nucleotide" x="192.816" y="36.241">C</text>
      <text class="nucleotide" x="177.859" y="35.093">C</text>
      <text class="nucleotide" x="162.903" y="33.946">G</text>
      <text class="nucleotide" x="159.248" y="27.397">A</text>
      <text class="nucleotide" x="166.936" y="14.517">G</text>
      <text class="nucleotide" x="151.937" y="14.299">U</text>
      <text class="nucleotide" x="148.281" y="7.750">U</text>
      <text class="nucleotide" x="155.155" y="-5.582">G</text>
      <text class="nucleotide" x="162.028" y="-18.915">C</text>
      <text class="nucleotide" x="168.902" y="-32.247">U</text>
      <text class="nucleotide" x="184.259" y="-34.468">A</text>
      <text class="nucleotide" x="195.354" y="-45.316">G</text>
      <text class="nucleotide" x="197.921" y="-60.620">C</text>
      <text class="nucleotide" x="190.972" y="-74.494">G</text>
      <text class="nucleotide" x="177.180" y="-81.604">A</text>
      <text class="nucleotide" x="161.848" y="-79.217">A</text>
      <text class="nucleotide" x="150.871" y="-68.249">G</text>
      <text class="nucleotide" x="148.470" y="-52.919">A</text>
      <text class="nucleotide" x="155.569" y="-39.121">A</text>
      <text class="nucleotide" x="148.696" y="-25.788">G</text>
      <text class="nucleotide" x="141.822" y="-12.455">C</text>
      <text class="nucleotide" x="134.949" y="0.877">G</text>
      <text class="nucleotide" x="121.082" y="-4.842">G</text>
      <text class="nucleotide" x="125.605" y="-19.144">G</text>
      <text class="nucleotide" x="139.349" y="-26.473">G</text>
      <text class="nucleotide" x="143.732" y="-41.042">A</text>
      <text class="nucleotide" x="136.660" y="-54.100">U</text>
      <text class="nucleotide" x="141.182" y="-68.402">C</text>
      <text class="nucleotide" x="145.705" y="-82.704">C</text>
      <text class="nucleotide" x="150.228" y="-97.006">A</text>
      <text class="nucleotide" x="154.751" y="-111.308">A</text>
      <text class="nucleotide" x="169.272" y="-117.112">A</text>
      <text class="nucleotide" x="176.619" y="-130.916">G</text>
      <text class="nucleotide" x="173.323" y="-146.202">G</text>
      <text class="nucleotide" x="160.941" y="-155.753">A</text>
      <text class="nucleotide" x="145.319" y="-155.059">A</text>
      <text class="nucleotide" x="133.833" y="-144.447">A</text>
      <text class="nucleotide" x="131.907" y="-128.928">G</text>
      <text class="nucleotide" x="140.449" y="-115.830">U</text>
      <text class="nucleotide" x="135.926" y="-101.529">U</text>
      <text class="nucleotide" x="131.404" y="-87.227">G</text>
      <text class="nucleotide" x="126.881" y="-72.925">G</text>
      <text class="nucleotide" x="122.358" y="-58.623">A</text>
      <text class="nucleotide" x="109.063" y="-52.006">A</text>
      <text class="nucleotide" x="104.272" y="-37.566">G</text>
      <text class="nucleotide" x="111.303" y="-23.666">C</text>
      <text class="nucleotide" x="106.780" y="-9.365">C</text>
      <text class="nucleotide" x="99.375" y="-10.555">A</text>
      <text class="nucleotide" x="101.755" y="-25.365">U</text>
      <text class="nucleotide" x="104.135" y="-40.175">C</text>
      <text class="nucleotide" x="106.516" y="-54.985">A</text>
      <text class="nucleotide" x="101.172" y="-69.000">U</text>
      <text class="nucleotide" x="91.706" y="-57.365">C</text>
      <text class="nucleotide" x="89.325" y="-42.555">A</text>
      <text class="nucleotide" x="86.945" y="-27.745">C</text>
      <text class="nucleotide" x="84.565" y="-12.935">A</text>
      <text class="nucleotide" x="77.160" y="-14.125">C</text>
      <text class="nucleotide" x="77.346" y="-29.124">C</text>
      <text class="nucleotide" x="85.254" y="-42.827">A</text>
      <text class="nucleotide" x="77.676" y="-55.649">C</text>
      <text class="nucleotide" x="77.862" y="-70.648">C</text>
      <text class="nucleotide" x="78.048" y="-85.647">C</text>
      <text class="nucleotide" x="90.546" y="-94.653">C</text>
      <text class="nucleotide" x="95.289" y="-109.122">C</text>
      <text class="nucleotide" x="90.657" y="-123.441">A</text>
      <text class="nucleotide" x="78.626" y="-132.181">G</text>
      <text class="nucleotide" x="78.812" y="-147.180">C</text>
      <text class="nucleotide" x="78.999" y="-162.179">C</text>
      <text class="nucleotide" x="87.834" y="-175.994">A</text>
      <text class="nucleotide" x="80.049" y="-190.427">A</text>
      <text class="nucleotide" x="63.651" y="-190.631">A</text>
    </g>
  </g>
</svg>
