<?xml version="1.0" encoding="UTF-8" standalone="yes" ?>
<svg xmlns="http://www.w3.org/2000/svg" height="452" width="452">
  <script type="text/ecmascript">
    <![CDATA[
      var shown = 1;
      function click() {
        var seq = document.getElementById("seq");
        if (shown==1) {
          seq.setAttribute("style", "visibility: hidden");
          shown = 0;
        } else {
          seq.setAttribute("style", "visibility: visible");
          shown = 1;
        }
      }
    ]]>
  </script>
  <style type="text/css">
    <![CDATA[
      .nucleotide {
        font-family: SansSerif;
      }
      .backbone {
        stroke: grey;
        fill:   none;
        stroke-width: 1.5;
      }
      .basepairs {
        stroke: red;
        fill:   none;
        stroke-width: 2.5;
      }
    ]]>
  </style>

  <rect style="stroke: white; fill: white" height="452" x="0" y="0" width="452" onclick="click(evt)" />
  <g transform="scale(0.264857,0.264857) translate(480.413269,1105.564697)">
    <polyline class="backbone" id="outline" points="
      103.826,-890.599
      103.640,-875.601
      103.453,-860.602
      95.626,-854.259
      92.455,-844.467
      95.193,-834.319
      103.183,-827.159
      103.121,-812.159
      103.059,-797.159
      99.928,-790.562
      103.028,-782.097
      103.028,-767.097
      95.291,-754.370
      103.028,-740.570
      103.028,-725.570
      90.624,-714.135
      90.380,-696.927
      102.941,-684.672
      102.878,-669.672
      102.785,-654.672
      102.661,-639.672
      95.653,-637.001
      94.902,-651.982
      80.422,-655.897
      72.224,-643.336
      81.637,-631.657
      74.629,-628.985
      64.551,-640.095
      54.473,-651.205
      50.931,-666.624
      36.649,-670.852
      26.570,-681.962
      23.029,-697.381
      8.747,-701.609
      -1.332,-712.719
      -11.410,-723.829
      -11.547,-736.649
      -20.072,-745.684
      -32.066,-746.510
      -42.191,-757.578
      -40.045,-770.803
      -45.789,-782.693
      -57.146,-789.041
      -69.897,-787.745
      -80.067,-798.771
      -65.127,-800.109
      -56.823,-812.601
      -61.371,-826.895
      -75.366,-832.291
      -88.333,-824.750
      -90.564,-809.917
      -100.960,-820.730
      -111.356,-831.544
      -121.752,-842.357
      -132.148,-853.170
      -135.780,-861.420
      -142.610,-864.006
      -143.171,-876.815
      -151.990,-885.563
      -164.005,-885.991
      -174.491,-896.717
      -175.105,-909.524
      -183.960,-918.235
      -195.977,-918.614
      -206.507,-929.297
      -210.684,-944.557
      -225.128,-948.190
      -235.658,-958.873
      -246.187,-969.556
      -238.784,-987.962
      -245.615,-1009.401
      -266.721,-1023.121
      -275.945,-1034.950
      -285.168,-1046.779
      -278.796,-1060.695
      -279.633,-1075.978
      -287.486,-1089.115
      -300.551,-1097.088
      -315.825,-1098.065
      -329.799,-1091.821
      -339.262,-1079.791
      -342.038,-1064.739
      -337.491,-1050.125
      -326.664,-1039.306
      -312.047,-1034.769
      -296.997,-1037.555
      -287.774,-1025.726
      -278.550,-1013.897
      -284.000,-1008.744
      -294.306,-1019.643
      -308.681,-1023.929
      -305.205,-1009.337
      -294.898,-998.438
      -300.348,-993.285
      -311.643,-1003.155
      -322.939,-1013.024
      -334.234,-1022.894
      -335.853,-1035.613
      -345.365,-1043.602
      -357.375,-1043.035
      -368.711,-1052.858
      -373.560,-1068.523
      -389.610,-1071.892
      -400.349,-1059.499
      -394.730,-1044.092
      -378.534,-1041.521
      -367.198,-1031.698
      -362.293,-1014.797
      -344.104,-1011.599
      -332.809,-1001.729
      -321.513,-991.859
      -310.218,-981.990
      -306.487,-971.089
      -300.010,-962.183
      -291.600,-955.891
      -282.183,-952.540
      -272.702,-952.156
      -264.027,-954.483
      -256.870,-959.027
      -246.341,-948.344
      -235.811,-937.660
      -232.388,-923.165
      -217.190,-918.767
      -206.661,-908.084
      -203.099,-890.850
      -185.217,-886.232
      -174.732,-875.506
      -171.242,-858.257
      -153.379,-853.565
      -142.961,-842.774
      -132.565,-831.961
      -122.169,-821.148
      -111.773,-810.334
      -101.377,-799.521
      -91.093,-788.601
      -80.923,-777.575
      -82.289,-760.760
      -70.801,-747.946
      -53.259,-747.453
      -43.134,-736.386
      -40.217,-719.031
      -22.520,-713.750
      -12.441,-702.641
      -2.363,-691.531
      0.458,-676.906
      15.461,-671.883
      25.539,-660.774
      28.360,-646.149
      43.363,-641.126
      53.441,-630.016
      63.520,-618.907
      64.530,-598.350
      75.353,-582.890
      91.195,-576.274
      106.434,-578.928
      106.247,-560.461
      121.964,-552.543
      129.544,-539.600
      129.842,-523.781
      142.950,-516.709
      150.531,-503.766
      158.111,-490.822
      165.692,-477.878
      163.192,-465.303
      169.678,-454.709
      181.247,-451.437
      188.881,-438.525
      196.515,-425.613
      190.516,-411.424
      193.982,-396.597
      205.379,-386.770
      220.200,-385.553
      227.834,-372.641
      235.468,-359.728
      232.898,-352.683
      218.806,-357.822
      213.666,-343.730
      227.758,-338.591
      225.188,-331.545
      209.604,-334.278
      200.155,-322.765
      186.001,-317.800
      171.846,-312.836
      156.263,-315.569
      146.814,-304.056
      132.659,-299.091
      120.795,-303.950
      109.155,-299.610
      103.730,-288.881
      89.596,-283.858
      75.463,-278.835
      64.917,-291.581
      47.849,-297.499
      28.689,-293.421
      13.259,-279.005
      -1.332,-275.529
      -16.550,-279.858
      -27.138,-269.382
      -41.729,-265.906
      -56.321,-262.430
      -73.907,-268.067
      -86.117,-255.393
      -100.723,-251.977
      -118.286,-257.688
      -130.548,-245.064
      -145.175,-241.739
      -159.808,-238.445
      -174.971,-242.962
      -185.688,-232.618
      -200.322,-229.324
      -214.955,-226.029
      -229.589,-222.735
      -241.155,-233.079
      -256.596,-234.616
      -269.974,-226.755
      -276.146,-212.518
      -272.738,-197.380
      -261.060,-187.161
      -245.604,-185.792
      -232.311,-193.798
      -226.295,-208.101
      -211.661,-211.395
      -197.027,-214.690
      -182.393,-217.984
      -168.278,-213.232
      -156.514,-223.811
      -141.880,-227.105
      -134.750,-225.529
      -127.193,-230.444
      -116.853,-224.308
      -104.705,-226.899
      -97.307,-237.371
      -82.701,-240.787
      -72.337,-234.694
      -60.199,-237.335
      -52.845,-247.838
      -38.253,-251.314
      -23.662,-254.790
      -9.488,-250.213
      2.144,-260.937
      16.735,-264.413
      19.566,-257.468
      25.227,-243.577
      28.058,-236.632
      15.194,-228.918
      2.329,-221.204
      -10.535,-213.490
      -23.400,-205.776
      -36.000,-208.146
      -46.526,-201.550
      -49.679,-189.948
      -62.511,-182.181
      -77.797,-186.198
      -91.403,-178.157
      -95.258,-162.830
      -87.074,-149.310
      -71.707,-145.617
      -58.274,-153.944
      -54.744,-169.349
      -41.912,-177.116
      -24.321,-176.587
      -15.686,-192.912
      -2.821,-200.626
      10.043,-208.340
      22.908,-216.054
      35.772,-223.768
      52.145,-223.222
      66.475,-228.979
      76.596,-239.368
      81.306,-252.093
      80.486,-264.701
      94.620,-269.724
      108.754,-274.747
      125.877,-270.686
      137.624,-284.936
      151.778,-289.901
      166.349,-286.812
      176.811,-298.681
      190.965,-303.646
      205.120,-308.610
      219.691,-305.521
      230.152,-317.390
      245.846,-308.038
      261.852,-308.875
      272.828,-317.255
      285.328,-308.963
      297.828,-300.672
      310.328,-292.380
      319.237,-270.153
      342.439,-270.051
      354.548,-261.199
      361.124,-246.808
      375.964,-245.544
      388.074,-236.692
      387.574,-229.501
      389.515,-222.629
      393.623,-216.871
      399.380,-212.877
      406.082,-211.080
      412.931,-211.647
      419.124,-214.466
      431.414,-205.867
      443.704,-197.267
      450.576,-183.016
      465.439,-182.059
      477.730,-173.460
      490.020,-164.860
      484.762,-149.991
      483.724,-134.268
      486.978,-118.865
      494.270,-104.931
      505.052,-93.501
      518.511,-85.422
      533.640,-81.291
      549.308,-81.407
      564.345,-85.755
      572.139,-72.939
      579.932,-60.123
      587.726,-47.307
      584.368,-38.719
      585.254,-29.679
      590.069,-22.137
      597.662,-17.667
      606.321,-17.133
      614.273,-4.415
      622.226,8.304
      618.890,23.519
      627.136,36.304
      641.662,39.390
      649.615,52.109
      650.371,67.912
      663.678,74.601
      671.631,87.320
      665.608,103.440
      671.011,119.517
      685.129,128.463
      686.060,143.434
      686.991,158.406
      687.921,173.377
      688.852,188.348
      677.082,192.497
      667.637,202.741
      663.634,217.607
      667.229,234.082
      663.783,248.681
      653.082,260.335
      657.689,274.499
      654.243,289.098
      650.797,303.697
      639.167,315.258
      643.625,331.039
      659.585,334.807
      670.630,322.684
      665.396,307.142
      668.842,292.544
      672.288,277.945
      682.742,267.335
      678.382,252.127
      681.828,237.528
      689.322,237.807
      688.764,252.797
      688.205,267.786
      703.195,268.345
      703.753,253.355
      704.312,238.366
      711.807,238.645
      706.327,253.487
      715.962,264.845
      718.312,279.660
      716.361,285.780
      717.538,291.190
      720.742,294.588
      723.215,309.382
      717.857,324.269
      727.586,335.547
      730.059,350.342
      732.531,365.137
      735.003,379.932
      729.646,394.818
      739.375,406.096
      741.847,420.891
      735.031,431.751
      737.318,443.961
      746.962,451.140
      749.495,465.924
      752.029,480.709
      737.147,490.450
      735.142,514.125
      737.000,529.010
      727.568,541.406
      729.664,556.475
      741.540,565.390
      734.668,580.280
      744.346,593.518
      760.619,591.487
      766.746,576.276
      756.425,563.532
      765.746,551.971
      764.074,536.850
      751.884,527.152
      750.026,512.267
      757.402,510.909
      767.131,522.326
      772.154,508.192
      779.530,506.834
      783.097,521.404
      777.992,536.988
      789.136,549.019
      805.065,545.120
      809.392,529.302
      797.666,517.837
      794.100,503.267
      783.942,482.132
      766.813,478.175
      764.280,463.391
      761.746,448.606
      768.675,432.429
      756.642,418.419
      754.170,403.624
      759.704,389.796
      749.798,377.460
      747.326,362.665
      744.854,347.870
      742.381,333.075
      747.915,319.247
      738.009,306.910
      735.537,292.115
      733.126,277.310
      730.777,262.496
      736.425,248.714
      726.622,236.296
      731.406,212.575
      721.122,193.892
      703.823,187.417
      702.893,172.446
      701.962,157.475
      701.031,142.504
      700.100,127.533
      702.494,126.458
      704.760,125.137
      706.875,123.584
      719.443,131.772
      732.011,139.960
      744.580,148.147
      744.060,171.525
      768.813,188.054
      780.190,197.830
      791.566,207.606
      790.443,222.970
      798.487,235.898
      812.437,241.544
      826.863,237.936
      838.240,247.712
      843.664,262.574
      858.360,265.000
      869.737,274.776
      871.461,287.481
      881.039,295.391
      893.043,294.724
      904.460,304.453
      915.877,314.182
      914.502,325.849
      918.833,336.642
      927.710,343.969
      938.894,346.131
      949.635,342.714
      961.132,352.347
      972.629,361.981
      978.238,376.775
      992.962,379.019
      1004.460,388.653
      1015.957,398.287
      1027.454,407.921
      1038.952,417.554
      1038.164,425.604
      1040.527,433.242
      1045.604,439.297
      1052.547,442.871
      1060.240,443.470
      1067.476,441.073
      1079.131,450.515
      1083.757,458.252
      1090.854,459.972
      1102.548,469.366
      1114.243,478.760
      1119.672,494.234
      1135.836,497.003
      1146.106,484.218
      1139.917,469.031
      1123.636,467.066
      1111.942,457.672
      1100.248,448.278
      1088.573,438.860
      1076.918,429.418
      1070.901,408.594
      1048.585,406.057
      1037.088,396.423
      1025.591,386.789
      1014.094,377.155
      1002.596,367.522
      997.810,353.417
      982.263,350.484
      970.766,340.850
      959.269,331.216
      958.679,312.836
      944.518,300.604
      925.606,302.765
      914.189,293.036
      902.772,283.307
      897.727,266.447
      879.513,263.400
      868.136,253.624
      863.525,239.461
      848.016,236.335
      836.639,226.559
      838.034,211.754
      830.354,198.813
      816.362,192.806
      801.342,196.229
      789.966,186.453
      778.589,176.677
      782.094,170.047
      789.105,156.786
      792.611,150.156
      803.927,161.213
      818.227,157.048
      832.712,160.945
      847.197,164.843
      861.682,168.740
      868.728,179.451
      880.785,182.443
      891.321,176.653
      905.822,180.490
      912.913,191.172
      924.982,194.114
      935.494,188.281
      946.788,200.171
      962.667,196.074
      966.796,180.203
      954.928,168.886
      939.271,173.764
      927.381,160.790
      909.659,165.989
      895.159,162.152
      883.321,149.130
      865.579,154.255
      851.094,150.358
      836.609,146.461
      822.124,142.563
      811.844,131.785
      796.508,135.671
      784.512,127.140
      771.452,124.975
      760.196,128.415
      752.767,135.579
      740.199,127.391
      727.631,119.204
      715.063,111.016
      714.023,93.846
      701.960,81.230
      684.349,79.368
      676.397,66.649
      676.210,51.756
      662.333,44.156
      654.381,31.438
      657.967,17.027
      650.084,4.015
      634.944,0.351
      626.992,-12.367
      619.039,-25.086
      619.911,-45.764
      600.543,-55.100
      592.749,-67.917
      584.955,-80.733
      577.161,-93.549
      587.100,-103.842
      594.177,-116.277
      597.952,-130.078
      598.188,-144.383
      594.871,-158.302
      608.103,-165.367
      621.334,-172.433
      634.566,-179.499
      650.384,-179.174
      657.966,-191.995
      671.197,-199.061
      684.429,-206.126
      697.661,-213.192
      713.478,-212.868
      721.060,-225.688
      734.292,-232.754
      739.847,-229.367
      746.111,-227.810
      752.504,-228.198
      758.439,-230.464
      763.384,-234.372
      766.902,-239.539
      768.697,-245.475
      768.633,-251.624
      781.685,-259.016
      794.223,-256.334
      804.910,-262.666
      808.349,-274.186
      821.371,-281.632
      834.392,-289.079
      847.413,-296.525
      860.435,-303.971
      873.456,-311.417
      889.277,-311.551
      896.484,-324.586
      909.505,-332.032
      922.527,-339.478
      933.556,-328.296
      947.099,-320.364
      962.225,-316.218
      977.897,-316.138
      993.043,-320.122
      1006.627,-327.893
      1017.724,-338.913
      1025.576,-352.425
      1029.653,-367.500
      1029.679,-383.105
      1025.661,-398.173
      1038.713,-405.565
      1051.780,-412.930
      1064.862,-420.268
      1077.945,-427.606
      1091.027,-434.945
      1104.110,-442.283
      1120.882,-444.758
      1123.147,-461.560
      1107.628,-468.387
      1096.772,-455.365
      1083.689,-448.027
      1070.607,-440.689
      1057.524,-433.351
      1044.442,-426.013
      1037.158,-425.486
      1031.320,-418.617
      1018.268,-411.225
      1008.394,-421.626
      996.314,-429.373
      982.723,-434.012
      968.409,-435.273
      954.198,-433.075
      940.915,-427.544
      929.330,-418.994
      920.117,-407.918
      913.812,-394.952
      910.784,-380.847
      911.214,-366.418
      915.081,-352.499
      902.059,-345.053
      889.038,-337.607
      874.149,-338.006
      866.010,-324.438
      852.988,-316.992
      839.967,-309.546
      826.946,-302.100
      813.924,-294.654
      800.903,-287.208
      783.331,-288.173
      774.293,-272.068
      761.241,-264.676
      738.300,-267.076
      727.226,-245.986
      713.995,-238.920
      699.123,-239.750
      690.595,-226.424
      677.363,-219.358
      664.132,-212.292
      650.900,-205.226
      636.029,-206.056
      627.500,-192.731
      614.268,-185.665
      601.037,-178.599
      587.805,-171.533
      577.966,-182.220
      565.741,-190.100
      551.910,-194.658
      537.360,-195.594
      523.025,-192.838
      509.828,-186.558
      498.619,-177.151
      486.329,-185.750
      474.039,-194.349
      468.047,-207.986
      452.304,-209.558
      440.013,-218.157
      427.723,-226.756
      420.119,-247.873
      396.926,-248.802
      384.816,-257.654
      379.107,-271.411
      363.400,-273.308
      351.291,-282.160
      351.954,-287.170
      351.369,-292.190
      349.569,-296.913
      346.667,-301.050
      361.717,-305.873
      368.875,-319.963
      363.893,-334.962
      349.728,-341.970
      334.783,-336.830
      327.925,-322.592
      333.222,-307.702
      325.781,-307.647
      318.619,-304.880
      306.119,-313.172
      293.619,-321.463
      281.119,-329.755
      278.702,-355.792
      248.380,-367.362
      240.746,-380.275
      233.112,-393.187
      239.189,-406.759
      236.071,-421.481
      224.750,-431.664
      209.427,-433.247
      201.793,-446.159
      194.159,-459.071
      194.870,-476.655
      178.635,-485.459
      171.055,-498.403
      163.474,-511.346
      155.894,-524.290
      156.139,-539.182
      142.488,-547.180
      134.907,-560.124
      137.664,-571.826
      131.553,-582.641
      119.346,-586.562
      130.413,-600.525
      130.895,-620.868
      117.661,-639.548
      117.785,-654.548
      120.955,-662.987
      117.878,-669.610
      117.940,-684.609
      128.485,-692.876
      132.323,-705.510
      128.280,-717.877
      118.028,-725.570
      118.028,-740.570
      125.765,-754.370
      118.028,-767.097
      118.028,-782.097
      118.059,-797.097
      118.121,-812.097
      118.183,-827.097
      129.051,-844.164
      118.452,-860.416
      118.638,-875.414
      118.825,-890.413
      127.661,-904.228
      119.875,-918.662
      103.477,-918.865
    " />
    <g id="pairs">
      <line class="basepairs" id="1,755" x1="103.82581" y1="-890.59949" x2="118.82465" y2="-890.41321" />
      <line class="basepairs" id="2,754" x1="103.63955" y1="-875.60059" x2="118.63839" y2="-875.41431" />
      <line class="basepairs" id="3,753" x1="103.45329" y1="-860.60181" x2="118.45213" y2="-860.41553" />
      <line class="basepairs" id="7,751" x1="103.18341" y1="-827.15906" x2="118.18329" y2="-827.09692" />
      <line class="basepairs" id="8,750" x1="103.12133" y1="-812.15918" x2="118.12120" y2="-812.09705" />
      <line class="basepairs" id="9,749" x1="103.05924" y1="-797.15930" x2="118.05911" y2="-797.09717" />
      <line class="basepairs" id="11,748" x1="103.02807" y1="-782.09723" x2="118.02807" y2="-782.09723" />
      <line class="basepairs" id="12,747" x1="103.02807" y1="-767.09723" x2="118.02807" y2="-767.09723" />
      <line class="basepairs" id="14,745" x1="103.02807" y1="-740.56982" x2="118.02807" y2="-740.56982" />
      <line class="basepairs" id="15,744" x1="103.02807" y1="-725.56982" x2="118.02807" y2="-725.56982" />
      <line class="basepairs" id="18,740" x1="102.94058" y1="-684.67151" x2="117.94045" y2="-684.60944" />
      <line class="basepairs" id="19,739" x1="102.87849" y1="-669.67163" x2="117.87836" y2="-669.60956" />
      <line class="basepairs" id="20,737" x1="102.78537" y1="-654.67194" x2="117.78485" y2="-654.54779" />
      <line class="basepairs" id="21,736" x1="102.66119" y1="-639.67249" x2="117.66068" y2="-639.54828" />
      <line class="basepairs" id="27,151" x1="74.62938" y1="-628.98523" x2="63.51967" y2="-618.90680" />
      <line class="basepairs" id="28,150" x1="64.55096" y1="-640.09491" x2="53.44126" y2="-630.01648" />
      <line class="basepairs" id="29,149" x1="54.47255" y1="-651.20459" x2="43.36284" y2="-641.12622" />
      <line class="basepairs" id="31,147" x1="36.64891" y1="-670.85211" x2="25.53921" y2="-660.77368" />
      <line class="basepairs" id="32,146" x1="26.57050" y1="-681.96179" x2="15.46079" y2="-671.88342" />
      <line class="basepairs" id="34,144" x1="8.74686" y1="-701.60925" x2="-2.36285" y2="-691.53088" />
      <line class="basepairs" id="35,143" x1="-1.33156" y1="-712.71899" x2="-12.44126" y2="-702.64056" />
      <line class="basepairs" id="36,142" x1="-11.40997" y1="-723.82867" x2="-22.51968" y2="-713.75024" />
      <line class="basepairs" id="39,140" x1="-32.06631" y1="-746.50989" x2="-43.13421" y2="-736.38556" />
      <line class="basepairs" id="40,139" x1="-42.19063" y1="-757.57776" x2="-53.25852" y2="-747.45349" />
      <line class="basepairs" id="44,136" x1="-69.89745" y1="-787.74548" x2="-80.92334" y2="-777.57544" />
      <line class="basepairs" id="45,135" x1="-80.06748" y1="-798.77136" x2="-91.09338" y2="-788.60132" />
      <line class="basepairs" id="51,134" x1="-90.56389" y1="-809.91742" x2="-101.37696" y2="-799.52136" />
      <line class="basepairs" id="52,133" x1="-100.95992" y1="-820.73047" x2="-111.77299" y2="-810.33447" />
      <line class="basepairs" id="53,132" x1="-111.35595" y1="-831.54358" x2="-122.16902" y2="-821.14758" />
      <line class="basepairs" id="54,131" x1="-121.75198" y1="-842.35669" x2="-132.56505" y2="-831.96063" />
      <line class="basepairs" id="55,130" x1="-132.14801" y1="-853.16968" x2="-142.96107" y2="-842.77368" />
      <line class="basepairs" id="57,129" x1="-142.60951" y1="-864.00592" x2="-153.37947" y2="-853.56519" />
      <line class="basepairs" id="60,127" x1="-164.00545" y1="-885.99084" x2="-174.73209" y2="-875.50562" />
      <line class="basepairs" id="61,126" x1="-174.49063" y1="-896.71747" x2="-185.21727" y2="-886.23230" />
      <line class="basepairs" id="64,124" x1="-195.97737" y1="-918.61365" x2="-206.66052" y2="-908.08411" />
      <line class="basepairs" id="65,123" x1="-206.50687" y1="-929.29675" x2="-217.19002" y2="-918.76727" />
      <line class="basepairs" id="67,121" x1="-225.12823" y1="-948.18988" x2="-235.81139" y2="-937.66040" />
      <line class="basepairs" id="68,120" x1="-235.65773" y1="-958.87305" x2="-246.34088" y2="-948.34351" />
      <line class="basepairs" id="69,119" x1="-246.18723" y1="-969.55615" x2="-256.87039" y2="-959.02667" />
      <line class="basepairs" id="72,88" x1="-266.72125" y1="-1023.12079" x2="-278.55032" y2="-1013.89728" />
      <line class="basepairs" id="73,87" x1="-275.94476" y1="-1034.94995" x2="-287.77383" y2="-1025.72632" />
      <line class="basepairs" id="74,86" x1="-285.16827" y1="-1046.77893" x2="-296.99734" y2="-1037.55542" />
      <line class="basepairs" id="94,112" x1="-300.34787" y1="-993.28497" x2="-310.21759" y2="-981.98950" />
      <line class="basepairs" id="95,111" x1="-311.64334" y1="-1003.15472" x2="-321.51309" y2="-991.85925" />
      <line class="basepairs" id="96,110" x1="-322.93884" y1="-1013.02448" x2="-332.80859" y2="-1001.72900" />
      <line class="basepairs" id="97,109" x1="-334.23431" y1="-1022.89423" x2="-344.10406" y2="-1011.59875" />
      <line class="basepairs" id="100,107" x1="-357.37485" y1="-1043.03467" x2="-367.19778" y2="-1031.69836" />
      <line class="basepairs" id="101,106" x1="-368.71109" y1="-1052.85754" x2="-378.53403" y2="-1041.52124" />
      <line class="basepairs" id="155,733" x1="106.43375" y1="-578.92767" x2="119.34583" y2="-586.56171" />
      <line class="basepairs" id="157,730" x1="121.96379" y1="-552.54333" x2="134.90736" y2="-560.12384" />
      <line class="basepairs" id="158,729" x1="129.54430" y1="-539.59979" x2="142.48787" y2="-547.18030" />
      <line class="basepairs" id="160,727" x1="142.95039" y1="-516.70917" x2="155.89397" y2="-524.28967" />
      <line class="basepairs" id="161,726" x1="150.53091" y1="-503.76556" x2="163.47447" y2="-511.34607" />
      <line class="basepairs" id="162,725" x1="158.11142" y1="-490.82202" x2="171.05498" y2="-498.40253" />
      <line class="basepairs" id="163,724" x1="165.69193" y1="-477.87845" x2="178.63548" y2="-485.45895" />
      <line class="basepairs" id="166,722" x1="181.24690" y1="-451.43674" x2="194.15898" y2="-459.07074" />
      <line class="basepairs" id="167,721" x1="188.88092" y1="-438.52466" x2="201.79300" y2="-446.15866" />
      <line class="basepairs" id="168,720" x1="196.51494" y1="-425.61258" x2="209.42702" y2="-433.24658" />
      <line class="basepairs" id="172,716" x1="220.19963" y1="-385.55261" x2="233.11171" y2="-393.18661" />
      <line class="basepairs" id="173,715" x1="227.83365" y1="-372.64053" x2="240.74573" y2="-380.27454" />
      <line class="basepairs" id="174,714" x1="235.46767" y1="-359.72845" x2="248.37975" y2="-367.36249" />
      <line class="basepairs" id="179,282" x1="225.18762" y1="-331.54474" x2="230.15227" y2="-317.39017" />
      <line class="basepairs" id="181,280" x1="200.15529" y1="-322.76477" x2="205.11993" y2="-308.61023" />
      <line class="basepairs" id="182,279" x1="186.00070" y1="-317.80014" x2="190.96535" y2="-303.64557" />
      <line class="basepairs" id="183,278" x1="171.84612" y1="-312.83551" x2="176.81076" y2="-298.68091" />
      <line class="basepairs" id="185,276" x1="146.81378" y1="-304.05554" x2="151.77844" y2="-289.90094" />
      <line class="basepairs" id="186,275" x1="132.65921" y1="-299.09088" x2="137.62386" y2="-284.93628" />
      <line class="basepairs" id="189,273" x1="103.73034" y1="-288.88098" x2="108.75353" y2="-274.74707" />
      <line class="basepairs" id="190,272" x1="89.59643" y1="-283.85779" x2="94.61962" y2="-269.72388" />
      <line class="basepairs" id="191,271" x1="75.46252" y1="-278.83459" x2="80.48571" y2="-264.70068" />
      <line class="basepairs" id="195,241" x1="13.25946" y1="-279.00510" x2="16.73548" y2="-264.41342" />
      <line class="basepairs" id="196,240" x1="-1.33223" y1="-275.52908" x2="2.14379" y2="-260.93738" />
      <line class="basepairs" id="198,238" x1="-27.13757" y1="-269.38177" x2="-23.66155" y2="-254.79007" />
      <line class="basepairs" id="199,237" x1="-41.72926" y1="-265.90576" x2="-38.25324" y2="-251.31406" />
      <line class="basepairs" id="200,236" x1="-56.32094" y1="-262.42975" x2="-52.84492" y2="-247.83804" />
      <line class="basepairs" id="202,233" x1="-86.11691" y1="-255.39299" x2="-82.70132" y2="-240.78705" />
      <line class="basepairs" id="203,232" x1="-100.72286" y1="-251.97740" x2="-97.30727" y2="-237.37146" />
      <line class="basepairs" id="205,229" x1="-130.54770" y1="-245.06406" x2="-127.19260" y2="-230.44409" />
      <line class="basepairs" id="206,227" x1="-145.17458" y1="-241.73920" x2="-141.88002" y2="-227.10547" />
      <line class="basepairs" id="207,226" x1="-159.80830" y1="-238.44464" x2="-156.51373" y2="-223.81091" />
      <line class="basepairs" id="209,224" x1="-185.68799" y1="-232.61823" x2="-182.39342" y2="-217.98450" />
      <line class="basepairs" id="210,223" x1="-200.32172" y1="-229.32364" x2="-197.02715" y2="-214.68994" />
      <line class="basepairs" id="211,222" x1="-214.95543" y1="-226.02908" x2="-211.66087" y2="-211.39536" />
      <line class="basepairs" id="212,221" x1="-229.58916" y1="-222.73453" x2="-226.29459" y2="-208.10080" />
      <line class="basepairs" id="244,266" x1="28.05805" y1="-236.63214" x2="35.77209" y2="-223.76770" />
      <line class="basepairs" id="245,265" x1="15.19362" y1="-228.91809" x2="22.90766" y2="-216.05368" />
      <line class="basepairs" id="246,264" x1="2.32919" y1="-221.20407" x2="10.04323" y2="-208.33963" />
      <line class="basepairs" id="247,263" x1="-10.53524" y1="-213.49002" x2="-2.82121" y2="-200.62558" />
      <line class="basepairs" id="248,262" x1="-23.39968" y1="-205.77600" x2="-15.68564" y2="-192.91156" />
      <line class="basepairs" id="251,260" x1="-49.67901" y1="-189.94824" x2="-41.91179" y2="-177.11584" />
      <line class="basepairs" id="252,259" x1="-62.51140" y1="-182.18100" x2="-54.74419" y2="-169.34863" />
      <line class="basepairs" id="285,712" x1="272.82776" y1="-317.25485" x2="281.11932" y2="-329.75485" />
      <line class="basepairs" id="286,711" x1="285.32776" y1="-308.96329" x2="293.61932" y2="-321.46329" />
      <line class="basepairs" id="287,710" x1="297.82776" y1="-300.67172" x2="306.11932" y2="-313.17172" />
      <line class="basepairs" id="288,709" x1="310.32776" y1="-292.38019" x2="318.61932" y2="-304.88019" />
      <line class="basepairs" id="290,696" x1="342.43884" y1="-270.05063" x2="351.29074" y2="-282.16028" />
      <line class="basepairs" id="291,695" x1="354.54849" y1="-261.19873" x2="363.40039" y2="-273.30841" />
      <line class="basepairs" id="293,693" x1="375.96439" y1="-245.54419" x2="384.81628" y2="-257.65384" />
      <line class="basepairs" id="294,692" x1="388.07404" y1="-236.69226" x2="396.92593" y2="-248.80193" />
      <line class="basepairs" id="301,690" x1="419.12375" y1="-214.46609" x2="427.72314" y2="-226.75632" />
      <line class="basepairs" id="302,689" x1="431.41400" y1="-205.86667" x2="440.01340" y2="-218.15692" />
      <line class="basepairs" id="303,688" x1="443.70422" y1="-197.26727" x2="452.30365" y2="-209.55753" />
      <line class="basepairs" id="305,686" x1="465.43948" y1="-182.05923" x2="474.03891" y2="-194.34949" />
      <line class="basepairs" id="306,685" x1="477.72974" y1="-173.45984" x2="486.32913" y2="-185.75009" />
      <line class="basepairs" id="307,684" x1="490.01999" y1="-164.86041" x2="498.61938" y2="-177.15067" />
      <line class="basepairs" id="316,575" x1="564.34497" y1="-85.75537" x2="577.16125" y2="-93.54913" />
      <line class="basepairs" id="317,574" x1="572.13873" y1="-72.93909" x2="584.95502" y2="-80.73285" />
      <line class="basepairs" id="318,573" x1="579.93250" y1="-60.12280" x2="592.74878" y2="-67.91656" />
      <line class="basepairs" id="319,572" x1="587.72626" y1="-47.30652" x2="600.54254" y2="-55.10028" />
      <line class="basepairs" id="324,570" x1="606.32092" y1="-17.13336" x2="619.03943" y2="-25.08566" />
      <line class="basepairs" id="325,569" x1="614.27319" y1="-4.41486" x2="626.99176" y2="-12.36716" />
      <line class="basepairs" id="326,568" x1="622.22552" y1="8.30371" x2="634.94403" y2="0.35138" />
      <line class="basepairs" id="329,565" x1="641.66248" y1="39.39026" x2="654.38104" y2="31.43793" />
      <line class="basepairs" id="330,564" x1="649.61481" y1="52.10876" x2="662.33331" y2="44.15649" />
      <line class="basepairs" id="332,562" x1="663.67841" y1="74.60144" x2="676.39691" y2="66.64917" />
      <line class="basepairs" id="333,561" x1="671.63068" y1="87.32001" x2="684.34924" y2="79.36768" />
      <line class="basepairs" id="336,438" x1="685.12933" y1="128.46338" x2="700.10040" y2="127.53265" />
      <line class="basepairs" id="337,437" x1="686.06000" y1="143.43445" x2="701.03113" y2="142.50378" />
      <line class="basepairs" id="338,436" x1="686.99072" y1="158.40558" x2="701.96179" y2="157.47485" />
      <line class="basepairs" id="339,435" x1="687.92139" y1="173.37665" x2="702.89252" y2="172.44598" />
      <line class="basepairs" id="340,434" x1="688.85211" y1="188.34778" x2="703.82324" y2="187.41705" />
      <line class="basepairs" id="344,359" x1="667.22870" y1="234.08209" x2="681.82751" y2="237.52789" />
      <line class="basepairs" id="345,358" x1="663.78290" y1="248.68097" x2="678.38171" y2="252.12677" />
      <line class="basepairs" id="347,356" x1="657.68896" y1="274.49896" x2="672.28784" y2="277.94476" />
      <line class="basepairs" id="348,355" x1="654.24316" y1="289.09778" x2="668.84198" y2="292.54364" />
      <line class="basepairs" id="349,354" x1="650.79736" y1="303.69666" x2="665.39618" y2="307.14246" />
      <line class="basepairs" id="366,431" x1="711.80670" y1="238.64520" x2="726.62158" y2="236.29565" />
      <line class="basepairs" id="368,429" x1="715.96198" y1="264.84521" x2="730.77679" y2="262.49561" />
      <line class="basepairs" id="369,428" x1="718.31152" y1="279.66003" x2="733.12634" y2="277.31042" />
      <line class="basepairs" id="372,427" x1="720.74237" y1="294.58759" x2="735.53723" y2="292.11542" />
      <line class="basepairs" id="373,426" x1="723.21454" y1="309.38245" x2="738.00940" y2="306.91034" />
      <line class="basepairs" id="375,424" x1="727.58649" y1="335.54718" x2="742.38135" y2="333.07501" />
      <line class="basepairs" id="376,423" x1="730.05865" y1="350.34204" x2="744.85352" y2="347.86987" />
      <line class="basepairs" id="377,422" x1="732.53076" y1="365.13690" x2="747.32568" y2="362.66479" />
      <line class="basepairs" id="378,421" x1="735.00293" y1="379.93182" x2="749.79779" y2="377.45966" />
      <line class="basepairs" id="380,419" x1="739.37488" y1="406.09650" x2="754.16974" y2="403.62433" />
      <line class="basepairs" id="381,418" x1="741.84705" y1="420.89136" x2="756.64191" y2="418.41925" />
      <line class="basepairs" id="384,416" x1="746.96185" y1="451.13965" x2="761.74640" y2="448.60632" />
      <line class="basepairs" id="385,415" x1="749.49524" y1="465.92419" x2="764.27972" y2="463.39087" />
      <line class="basepairs" id="386,414" x1="752.02856" y1="480.70874" x2="766.81311" y2="478.17535" />
      <line class="basepairs" id="388,401" x1="735.14166" y1="514.12506" x2="750.02618" y2="512.26727" />
      <line class="basepairs" id="389,400" x1="736.99951" y1="529.00958" x2="751.88397" y2="527.15179" />
      <line class="basepairs" id="392,397" x1="741.54041" y1="565.39020" x2="756.42487" y2="563.53241" />
      <line class="basepairs" id="405,412" x1="779.53003" y1="506.83380" x2="794.09985" y2="503.26721" />
      <line class="basepairs" id="406,411" x1="783.09656" y1="521.40363" x2="797.66638" y2="517.83704" />
      <line class="basepairs" id="441,558" x1="706.87488" y1="123.58392" x2="715.06268" y2="111.01575" />
      <line class="basepairs" id="442,557" x1="719.44305" y1="131.77173" x2="727.63086" y2="119.20355" />
      <line class="basepairs" id="443,556" x1="732.01129" y1="139.95953" x2="740.19910" y2="127.39136" />
      <line class="basepairs" id="444,555" x1="744.57953" y1="148.14734" x2="752.76733" y2="135.57916" />
      <line class="basepairs" id="446,521" x1="768.81281" y1="188.05414" x2="778.58868" y2="176.67731" />
      <line class="basepairs" id="447,520" x1="780.18964" y1="197.83002" x2="789.96552" y2="186.45325" />
      <line class="basepairs" id="448,519" x1="791.56641" y1="207.60596" x2="801.34235" y2="196.22913" />
      <line class="basepairs" id="452,515" x1="826.86316" y1="237.93585" x2="836.63910" y2="226.55908" />
      <line class="basepairs" id="453,514" x1="838.23999" y1="247.71179" x2="848.01587" y2="236.33496" />
      <line class="basepairs" id="455,512" x1="858.35980" y1="265.00043" x2="868.13574" y2="253.62360" />
      <line class="basepairs" id="456,511" x1="869.73663" y1="274.77631" x2="879.51251" y2="263.39954" />
      <line class="basepairs" id="459,509" x1="893.04309" y1="294.72449" x2="902.77179" y2="283.30731" />
      <line class="basepairs" id="460,508" x1="904.46027" y1="304.45325" x2="914.18896" y2="293.03607" />
      <line class="basepairs" id="461,507" x1="915.87744" y1="314.18195" x2="925.60614" y2="302.76477" />
      <line class="basepairs" id="466,504" x1="949.63477" y1="342.71362" x2="959.26862" y2="331.21631" />
      <line class="basepairs" id="467,503" x1="961.13208" y1="352.34747" x2="970.76593" y2="340.85016" />
      <line class="basepairs" id="468,502" x1="972.62939" y1="361.98138" x2="982.26324" y2="350.48407" />
      <line class="basepairs" id="470,500" x1="992.96234" y1="379.01886" x2="1002.59619" y2="367.52155" />
      <line class="basepairs" id="471,499" x1="1004.45966" y1="388.65277" x2="1014.09351" y2="377.15546" />
      <line class="basepairs" id="472,498" x1="1015.95697" y1="398.28662" x2="1025.59082" y2="386.78931" />
      <line class="basepairs" id="473,497" x1="1027.45422" y1="407.92053" x2="1037.08813" y2="396.42322" />
      <line class="basepairs" id="474,496" x1="1038.95154" y1="417.55438" x2="1048.58545" y2="406.05707" />
      <line class="basepairs" id="480,494" x1="1067.47583" y1="441.07275" x2="1076.91797" y2="429.41754" />
      <line class="basepairs" id="481,493" x1="1079.13110" y1="450.51501" x2="1088.57324" y2="438.85974" />
      <line class="basepairs" id="483,492" x1="1090.85413" y1="459.97205" x2="1100.24805" y2="448.27783" />
      <line class="basepairs" id="484,491" x1="1102.54834" y1="469.36597" x2="1111.94226" y2="457.67175" />
      <line class="basepairs" id="485,490" x1="1114.24255" y1="478.75983" x2="1123.63647" y2="467.06561" />
      <line class="basepairs" id="524,551" x1="792.61072" y1="150.15594" x2="796.50793" y2="135.67108" />
      <line class="basepairs" id="526,549" x1="818.22711" y1="157.04822" x2="822.12439" y2="142.56335" />
      <line class="basepairs" id="527,548" x1="832.71198" y1="160.94550" x2="836.60925" y2="146.46063" />
      <line class="basepairs" id="528,547" x1="847.19684" y1="164.84277" x2="851.09412" y2="150.35791" />
      <line class="basepairs" id="529,546" x1="861.68170" y1="168.74005" x2="865.57898" y2="154.25519" />
      <line class="basepairs" id="532,544" x1="891.32129" y1="176.65308" x2="895.15857" y2="162.15216" />
      <line class="basepairs" id="533,543" x1="905.82214" y1="180.49036" x2="909.65948" y2="165.98944" />
      <line class="basepairs" id="536,541" x1="935.49426" y1="188.28058" x2="939.27148" y2="173.76392" />
      <line class="basepairs" id="580,677" x1="594.87122" y1="-158.30154" x2="587.80536" y2="-171.53308" />
      <line class="basepairs" id="581,676" x1="608.10272" y1="-165.36734" x2="601.03693" y2="-178.59891" />
      <line class="basepairs" id="582,675" x1="621.33429" y1="-172.43317" x2="614.26849" y2="-185.66473" />
      <line class="basepairs" id="583,674" x1="634.56586" y1="-179.49899" x2="627.50006" y2="-192.73056" />
      <line class="basepairs" id="585,672" x1="657.96582" y1="-191.99484" x2="650.90002" y2="-205.22641" />
      <line class="basepairs" id="586,671" x1="671.19739" y1="-199.06067" x2="664.13159" y2="-212.29224" />
      <line class="basepairs" id="587,670" x1="684.42896" y1="-206.12650" x2="677.36316" y2="-219.35806" />
      <line class="basepairs" id="588,669" x1="697.66052" y1="-213.19232" x2="690.59473" y2="-226.42386" />
      <line class="basepairs" id="590,667" x1="721.06049" y1="-225.68817" x2="713.99469" y2="-238.91974" />
      <line class="basepairs" id="591,666" x1="734.29205" y1="-232.75400" x2="727.22626" y2="-245.98557" />
      <line class="basepairs" id="599,664" x1="768.63306" y1="-251.62379" x2="761.24084" y2="-264.67581" />
      <line class="basepairs" id="600,663" x1="781.68506" y1="-259.01599" x2="774.29285" y2="-272.06802" />
      <line class="basepairs" id="603,661" x1="808.34937" y1="-274.18628" x2="800.90320" y2="-287.20761" />
      <line class="basepairs" id="604,660" x1="821.37067" y1="-281.63245" x2="813.92450" y2="-294.65378" />
      <line class="basepairs" id="605,659" x1="834.39197" y1="-289.07861" x2="826.94580" y2="-302.09995" />
      <line class="basepairs" id="606,658" x1="847.41327" y1="-296.52478" x2="839.96710" y2="-309.54611" />
      <line class="basepairs" id="607,657" x1="860.43457" y1="-303.97095" x2="852.98840" y2="-316.99228" />
      <line class="basepairs" id="608,656" x1="873.45593" y1="-311.41711" x2="866.00977" y2="-324.43845" />
      <line class="basepairs" id="610,654" x1="896.48407" y1="-324.58563" x2="889.03790" y2="-337.60696" />
      <line class="basepairs" id="611,653" x1="909.50537" y1="-332.03180" x2="902.05920" y2="-345.05313" />
      <line class="basepairs" id="612,652" x1="922.52667" y1="-339.47797" x2="915.08051" y2="-352.49930" />
      <line class="basepairs" id="623,640" x1="1025.66064" y1="-398.17279" x2="1018.26843" y2="-411.22482" />
      <line class="basepairs" id="624,639" x1="1038.71265" y1="-405.56500" x2="1031.32043" y2="-418.61703" />
      <line class="basepairs" id="625,637" x1="1051.77991" y1="-412.93018" x2="1044.44189" y2="-426.01270" />
      <line class="basepairs" id="626,636" x1="1064.86243" y1="-420.26831" x2="1057.52429" y2="-433.35083" />
      <line class="basepairs" id="627,635" x1="1077.94495" y1="-427.60645" x2="1070.60681" y2="-440.68893" />
      <line class="basepairs" id="628,634" x1="1091.02747" y1="-434.94455" x2="1083.68933" y2="-448.02707" />
      <line class="basepairs" id="629,633" x1="1104.10999" y1="-442.28268" x2="1096.77185" y2="-455.36517" />
      <line class="basepairs" id="700,707" x1="346.66675" y1="-301.04999" x2="333.22223" y2="-307.70172" />
    </g>
    <g transform="translate(-4.6, 4)" id="seq">
      <text class="nucleotide" x="103.826" y="-890.599">G</text>
      <text class="nucleotide" x="103.640" y="-875.601">G</text>
      <text class="nucleotide" x="103.453" y="-860.602">C</text>
      <text class="nucleotide" x="95.626" y="-854.259">G</text>
      <text class="nucleotide" x="92.455" y="-844.467">C</text>
      <text class="nucleotide" x="95.193" y="-834.319">C</text>
      <text class="nucleotide" x="103.183" y="-827.159">G</text>
      <text class="nucleotide" x="103.121" y="-812.159">G</text>
      <text class="nucleotide" x="103.059" y="-797.159">G</text>
      <text class="nucleotide" x="99.928" y="-790.562">C</text>
      <text class="nucleotide" x="103.028" y="-782.097">G</text>
      <text class="nucleotide" x="103.028" y="-767.097">G</text>
      <text class="nucleotide" x="95.291" y="-754.370">A</text>
      <text class="nucleotide" x="103.028" y="-740.570">G</text>
      <text class="nucleotide" x="103.028" y="-725.570">G</text>
      <text class="nucleotide" x="90.624" y="-714.135">G</text>
      <text class="nucleotide" x="90.380" y="-696.927">G</text>
      <text class="nucleotide" x="102.941" y="-684.672">G</text>
      <text class="nucleotide" x="102.878" y="-669.672">A</text>
      <text class="nucleotide" x="102.785" y="-654.672">G</text>
      <text class="nucleotide" x="102.661" y="-639.672">A</text>
      <text class="nucleotide" x="95.653" y="-637.001">G</text>
      <text class="nucleotide" x="94.902" y="-651.982">C</text>
      <text class="nucleotide" x="80.422" y="-655.897">G</text>
      <text class="nucleotide" x="72.224" y="-643.336">C</text>
      <text class="nucleotide" x="81.637" y="-631.657">G</text>
      <text class="nucleotide" x="74.629" y="-628.985">G</text>
      <text class="nucleotide" x="64.551" y="-640.095">G</text>
      <text class="nucleotide" x="54.473" y="-651.205">C</text>
      <text class="nucleotide" x="50.931" y="-666.624">C</text>
      <text class="nucleotide" x="36.649" y="-670.852">G</text>
      <text class="nucleotide" x="26.570" y="-681.962">C</text>
      <text class="nucleotide" x="23.029" y="-697.381">G</text>
      <text class="nucleotide" x="8.747" y="-701.609">C</text>
      <text class="nucleotide" x="-1.332" y="-712.719">G</text>
      <text class="nucleotide" x="-11.410" y="-723.829">G</text>
      <text class="nucleotide" x="-11.547" y="-736.649">G</text>
      <text class="nucleotide" x="-20.072" y="-745.684">C</text>
      <text class="nucleotide" x="-32.066" y="-746.510">G</text>
      <text class="nucleotide" x="-42.191" y="-757.578">G</text>
      <text class="nucleotide" x="-40.045" y="-770.803">G</text>
      <text class="nucleotide" x="-45.789" y="-782.693">A</text>
      <text class="nucleotide" x="-57.146" y="-789.041">A</text>
      <text class="nucleotide" x="-69.897" y="-787.745">G</text>
      <text class="nucleotide" x="-80.067" y="-798.771">C</text>
      <text class="nucleotide" x="-65.127" y="-800.109">G</text>
      <text class="nucleotide" x="-56.823" y="-812.601">A</text>
      <text class="nucleotide" x="-61.371" y="-826.895">A</text>
      <text class="nucleotide" x="-75.366" y="-832.291">G</text>
      <text class="nucleotide" x="-88.333" y="-824.750">A</text>
      <text class="nucleotide" x="-90.564" y="-809.917">G</text>
      <text class="nucleotide" x="-100.960" y="-820.730">G</text>
      <text class="nucleotide" x="-111.356" y="-831.544">C</text>
      <text class="nucleotide" x="-121.752" y="-842.357">G</text>
      <text class="nucleotide" x="-132.148" y="-853.170">G</text>
      <text class="nucleotide" x="-135.780" y="-861.420">G</text>
      <text class="nucleotide" x="-142.610" y="-864.006">C</text>
      <text class="nucleotide" x="-143.171" y="-876.815">G</text>
      <text class="nucleotide" x="-151.990" y="-885.563">G</text>
      <text class="nucleotide" x="-164.005" y="-885.991">G</text>
      <text class="nucleotide" x="-174.491" y="-896.717">C</text>
      <text class="nucleotide" x="-175.105" y="-909.524">C</text>
      <text class="nucleotide" x="-183.960" y="-918.235">A</text>
      <text class="nucleotide" x="-195.977" y="-918.614">G</text>
      <text class="nucleotide" x="-206.507" y="-929.297">C</text>
      <text class="nucleotide" x="-210.684" y="-944.557">G</text>
      <text class="nucleotide" x="-225.128" y="-948.190">A</text>
      <text class="nucleotide" x="-235.658" y="-958.873">G</text>
      <text class="nucleotide" x="-246.187" y="-969.556">G</text>
      <text class="nucleotide" x="-238.784" y="-987.962">A</text>
      <text class="nucleotide" x="-245.615" y="-1009.401">G</text>
      <text class="nucleotide" x="-266.721" y="-1023.121">C</text>
      <text class="nucleotide" x="-275.945" y="-1034.950">G</text>
      <text class="nucleotide" x="-285.168" y="-1046.779">C</text>
      <text class="nucleotide" x="-278.796" y="-1060.695">G</text>
      <text class="nucleotide" x="-279.633" y="-1075.978">G</text>
      <text class="nucleotide" x="-287.486" y="-1089.115">A</text>
      <text class="nucleotide" x="-300.551" y="-1097.088">G</text>
      <text class="nucleotide" x="-315.825" y="-1098.065">A</text>
      <text class="nucleotide" x="-329.799" y="-1091.821">G</text>
      <text class="nucleotide" x="-339.262" y="-1079.791">A</text>
      <text class="nucleotide" x="-342.038" y="-1064.739">A</text>
      <text class="nucleotide" x="-337.491" y="-1050.125">A</text>
      <text class="nucleotide" x="-326.664" y="-1039.306">A</text>
      <text class="nucleotide" x="-312.047" y="-1034.769">G</text>
      <text class="nucleotide" x="-296.997" y="-1037.555">G</text>
      <text class="nucleotide" x="-287.774" y="-1025.726">C</text>
      <text class="nucleotide" x="-278.550" y="-1013.897">G</text>
      <text class="nucleotide" x="-284.000" y="-1008.744">C</text>
      <text class="nucleotide" x="-294.306" y="-1019.643">G</text>
      <text class="nucleotide" x="-308.681" y="-1023.929">A</text>
      <text class="nucleotide" x="-305.205" y="-1009.337">G</text>
      <text class="nucleotide" x="-294.898" y="-998.438">C</text>
      <text class="nucleotide" x="-300.348" y="-993.285">G</text>
      <text class="nucleotide" x="-311.643" y="-1003.155">G</text>
      <text class="nucleotide" x="-322.939" y="-1013.024">C</text>
      <text class="nucleotide" x="-334.234" y="-1022.894">C</text>
      <text class="nucleotide" x="-335.853" y="-1035.613">A</text>
      <text class="nucleotide" x="-345.365" y="-1043.602">G</text>
      <text class="nucleotide" x="-357.375" y="-1043.035">G</text>
      <text class="nucleotide" x="-368.711" y="-1052.858">A</text>
      <text class="nucleotide" x="-373.560" y="-1068.523">G</text>
      <text class="nucleotide" x="-389.610" y="-1071.892">G</text>
      <text class="nucleotide" x="-400.349" y="-1059.499">G</text>
      <text class="nucleotide" x="-394.730" y="-1044.092">C</text>
      <text class="nucleotide" x="-378.534" y="-1041.521">U</text>
      <text class="nucleotide" x="-367.198" y="-1031.698">C</text>
      <text class="nucleotide" x="-362.293" y="-1014.797">A</text>
      <text class="nucleotide" x="-344.104" y="-1011.599">G</text>
      <text class="nucleotide" x="-332.809" y="-1001.729">G</text>
      <text class="nucleotide" x="-321.513" y="-991.859">C</text>
      <text class="nucleotide" x="-310.218" y="-981.990">C</text>
      <text class="nucleotide" x="-306.487" y="-971.089">G</text>
      <text class="nucleotide" x="-300.010" y="-962.183">A</text>
      <text class="nucleotide" x="-291.600" y="-955.891">G</text>
      <text class="nucleotide" x="-282.183" y="-952.540">A</text>
      <text class="nucleotide" x="-272.702" y="-952.156">C</text>
      <text class="nucleotide" x="-264.027" y="-954.483">A</text>
      <text class="nucleotide" x="-256.870" y="-959.027">C</text>
      <text class="nucleotide" x="-246.341" y="-948.344">C</text>
      <text class="nucleotide" x="-235.811" y="-937.660">U</text>
      <text class="nucleotide" x="-232.388" y="-923.165">U</text>
      <text class="nucleotide" x="-217.190" y="-918.767">G</text>
      <text class="nucleotide" x="-206.661" y="-908.084">C</text>
      <text class="nucleotide" x="-203.099" y="-890.850">A</text>
      <text class="nucleotide" x="-185.217" y="-886.232">G</text>
      <text class="nucleotide" x="-174.732" y="-875.506">C</text>
      <text class="nucleotide" x="-171.242" y="-858.257">U</text>
      <text class="nucleotide" x="-153.379" y="-853.565">G</text>
      <text class="nucleotide" x="-142.961" y="-842.774">C</text>
      <text class="nucleotide" x="-132.565" y="-831.961">C</text>
      <text class="nucleotide" x="-122.169" y="-821.148">G</text>
      <text class="nucleotide" x="-111.773" y="-810.334">C</text>
      <text class="nucleotide" x="-101.377" y="-799.521">C</text>
      <text class="nucleotide" x="-91.093" y="-788.601">G</text>
      <text class="nucleotide" x="-80.923" y="-777.575">C</text>
      <text class="nucleotide" x="-82.289" y="-760.760">C</text>
      <text class="nucleotide" x="-70.801" y="-747.946">G</text>
      <text class="nucleotide" x="-53.259" y="-747.453">C</text>
      <text class="nucleotide" x="-43.134" y="-736.386">C</text>
      <text class="nucleotide" x="-40.217" y="-719.031">A</text>
      <text class="nucleotide" x="-22.520" y="-713.750">C</text>
      <text class="nucleotide" x="-12.441" y="-702.641">C</text>
      <text class="nucleotide" x="-2.363" y="-691.531">G</text>
      <text class="nucleotide" x="0.458" y="-676.906">A</text>
      <text class="nucleotide" x="15.461" y="-671.883">G</text>
      <text class="nucleotide" x="25.539" y="-660.774">C</text>
      <text class="nucleotide" x="28.360" y="-646.149">C</text>
      <text class="nucleotide" x="43.363" y="-641.126">G</text>
      <text class="nucleotide" x="53.441" y="-630.016">C</text>
      <text class="nucleotide" x="63.520" y="-618.907">C</text>
      <text class="nucleotide" x="64.530" y="-598.350">G</text>
      <text class="nucleotide" x="75.353" y="-582.890">C</text>
      <text class="nucleotide" x="91.195" y="-576.274">G</text>
      <text class="nucleotide" x="106.434" y="-578.928">G</text>
      <text class="nucleotide" x="106.247" y="-560.461">A</text>
      <text class="nucleotide" x="121.964" y="-552.543">U</text>
      <text class="nucleotide" x="129.544" y="-539.600">C</text>
      <text class="nucleotide" x="129.842" y="-523.781">A</text>
      <text class="nucleotide" x="142.950" y="-516.709">A</text>
      <text class="nucleotide" x="150.531" y="-503.766">A</text>
      <text class="nucleotide" x="158.111" y="-490.822">C</text>
      <text class="nucleotide" x="165.692" y="-477.878">U</text>
      <text class="nucleotide" x="163.192" y="-465.303">G</text>
      <text class="nucleotide" x="169.678" y="-454.709">C</text>
      <text class="nucleotide" x="181.247" y="-451.437">U</text>
      <text class="nucleotide" x="188.881" y="-438.525">C</text>
      <text class="nucleotide" x="196.515" y="-425.613">C</text>
      <text class="nucleotide" x="190.516" y="-411.424">A</text>
      <text class="nucleotide" x="193.982" y="-396.597">G</text>
      <text class="nucleotide" x="205.379" y="-386.770">C</text>
      <text class="nucleotide" x="220.200" y="-385.553">G</text>
      <text class="nucleotide" x="227.834" y="-372.641">G</text>
      <text class="nucleotide" x="235.468" y="-359.728">A</text>
      <text class="nucleotide" x="232.898" y="-352.683">G</text>
      <text class="nucleotide" x="218.806" y="-357.822">U</text>
      <text class="nucleotide" x="213.666" y="-343.730">G</text>
      <text class="nucleotide" x="227.758" y="-338.591">C</text>
      <text class="nucleotide" x="225.188" y="-331.545">A</text>
      <text class="nucleotide" x="209.604" y="-334.278">U</text>
      <text class="nucleotide" x="200.155" y="-322.765">C</text>
      <text class="nucleotide" x="186.001" y="-317.800">A</text>
      <text class="nucleotide" x="171.846" y="-312.836">C</text>
      <text class="nucleotide" x="156.263" y="-315.569">C</text>
      <text class="nucleotide" x="146.814" y="-304.056">U</text>
      <text class="nucleotide" x="132.659" y="-299.091">G</text>
      <text class="nucleotide" x="120.795" y="-303.950">G</text>
      <text class="nucleotide" x="109.155" y="-299.610">A</text>
      <text class="nucleotide" x="103.730" y="-288.881">C</text>
      <text class="nucleotide" x="89.596" y="-283.858">C</text>
      <text class="nucleotide" x="75.463" y="-278.835">C</text>
      <text class="nucleotide" x="64.917" y="-291.581">G</text>
      <text class="nucleotide" x="47.849" y="-297.499">G</text>
      <text class="nucleotide" x="28.689" y="-293.421">A</text>
      <text class="nucleotide" x="13.259" y="-279.005">G</text>
      <text class="nucleotide" x="-1.332" y="-275.529">G</text>
      <text class="nucleotide" x="-16.550" y="-279.858">G</text>
      <text class="nucleotide" x="-27.138" y="-269.382">C</text>
      <text class="nucleotide" x="-41.729" y="-265.906">C</text>
      <text class="nucleotide" x="-56.321" y="-262.430">C</text>
      <text class="nucleotide" x="-73.907" y="-268.067">U</text>
      <text class="nucleotide" x="-86.117" y="-255.393">G</text>
      <text class="nucleotide" x="-100.723" y="-251.977">C</text>
      <text class="nucleotide" x="-118.286" y="-257.688">A</text>
      <text class="nucleotide" x="-130.548" y="-245.064">G</text>
      <text class="nucleotide" x="-145.175" y="-241.739">C</text>
      <text class="nucleotide" x="-159.808" y="-238.445">U</text>
      <text class="nucleotide" x="-174.971" y="-242.962">A</text>
      <text class="nucleotide" x="-185.688" y="-232.618">C</text>
      <text class="nucleotide" x="-200.322" y="-229.324">A</text>
      <text class="nucleotide" x="-214.955" y="-226.029">G</text>
      <text class="nucleotide" x="-229.589" y="-222.735">A</text>
      <text class="nucleotide" x="-241.155" y="-233.079">C</text>
      <text class="nucleotide" x="-256.596" y="-234.616">A</text>
      <text class="nucleotide" x="-269.974" y="-226.755">G</text>
      <text class="nucleotide" x="-276.146" y="-212.518">U</text>
      <text class="nucleotide" x="-272.738" y="-197.380">G</text>
      <text class="nucleotide" x="-261.060" y="-187.161">G</text>
      <text class="nucleotide" x="-245.604" y="-185.792">C</text>
      <text class="nucleotide" x="-232.311" y="-193.798">A</text>
      <text class="nucleotide" x="-226.295" y="-208.101">U</text>
      <text class="nucleotide" x="-211.661" y="-211.395">C</text>
      <text class="nucleotide" x="-197.027" y="-214.690">U</text>
      <text class="nucleotide" x="-182.393" y="-217.984">G</text>
      <text class="nucleotide" x="-168.278" y="-213.232">C</text>
      <text class="nucleotide" x="-156.514" y="-223.811">A</text>
      <text class="nucleotide" x="-141.880" y="-227.105">G</text>
      <text class="nucleotide" x="-134.750" y="-225.529">G</text>
      <text class="nucleotide" x="-127.193" y="-230.444">C</text>
      <text class="nucleotide" x="-116.853" y="-224.308">A</text>
      <text class="nucleotide" x="-104.705" y="-226.899">G</text>
      <text class="nucleotide" x="-97.307" y="-237.371">G</text>
      <text class="nucleotide" x="-82.701" y="-240.787">C</text>
      <text class="nucleotide" x="-72.337" y="-234.694">C</text>
      <text class="nucleotide" x="-60.199" y="-237.335">U</text>
      <text class="nucleotide" x="-52.845" y="-247.838">G</text>
      <text class="nucleotide" x="-38.253" y="-251.314">G</text>
      <text class="nucleotide" x="-23.662" y="-254.790">G</text>
      <text class="nucleotide" x="-9.488" y="-250.213">G</text>
      <text class="nucleotide" x="2.144" y="-260.937">C</text>
      <text class="nucleotide" x="16.735" y="-264.413">C</text>
      <text class="nucleotide" x="19.566" y="-257.468">U</text>
      <text class="nucleotide" x="25.227" y="-243.577">U</text>
      <text class="nucleotide" x="28.058" y="-236.632">C</text>
      <text class="nucleotide" x="15.194" y="-228.918">C</text>
      <text class="nucleotide" x="2.329" y="-221.204">A</text>
      <text class="nucleotide" x="-10.535" y="-213.490">G</text>
      <text class="nucleotide" x="-23.400" y="-205.776">G</text>
      <text class="nucleotide" x="-36.000" y="-208.146">G</text>
      <text class="nucleotide" x="-46.526" y="-201.550">G</text>
      <text class="nucleotide" x="-49.679" y="-189.948">A</text>
      <text class="nucleotide" x="-62.511" y="-182.181">C</text>
      <text class="nucleotide" x="-77.797" y="-186.198">U</text>
      <text class="nucleotide" x="-91.403" y="-178.157">A</text>
      <text class="nucleotide" x="-95.258" y="-162.830">G</text>
      <text class="nucleotide" x="-87.074" y="-149.310">A</text>
      <text class="nucleotide" x="-71.707" y="-145.617">G</text>
      <text class="nucleotide" x="-58.274" y="-153.944">U</text>
      <text class="nucleotide" x="-54.744" y="-169.349">G</text>
      <text class="nucleotide" x="-41.912" y="-177.116">U</text>
      <text class="nucleotide" x="-24.321" y="-176.587">A</text>
      <text class="nucleotide" x="-15.686" y="-192.912">C</text>
      <text class="nucleotide" x="-2.821" y="-200.626">C</text>
      <text class="nucleotide" x="10.043" y="-208.340">U</text>
      <text class="nucleotide" x="22.908" y="-216.054">G</text>
      <text class="nucleotide" x="35.772" y="-223.768">G</text>
      <text class="nucleotide" x="52.145" y="-223.222">A</text>
      <text class="nucleotide" x="66.475" y="-228.979">A</text>
      <text class="nucleotide" x="76.596" y="-239.368">A</text>
      <text class="nucleotide" x="81.306" y="-252.093">G</text>
      <text class="nucleotide" x="80.486" y="-264.701">G</text>
      <text class="nucleotide" x="94.620" y="-269.724">G</text>
      <text class="nucleotide" x="108.754" y="-274.747">G</text>
      <text class="nucleotide" x="125.877" y="-270.686">A</text>
      <text class="nucleotide" x="137.624" y="-284.936">C</text>
      <text class="nucleotide" x="151.778" y="-289.901">A</text>
      <text class="nucleotide" x="166.349" y="-286.812">U</text>
      <text class="nucleotide" x="176.811" y="-298.681">G</text>
      <text class="nucleotide" x="190.965" y="-303.646">U</text>
      <text class="nucleotide" x="205.120" y="-308.610">G</text>
      <text class="nucleotide" x="219.691" y="-305.521">C</text>
      <text class="nucleotide" x="230.152" y="-317.390">U</text>
      <text class="nucleotide" x="245.846" y="-308.038">G</text>
      <text class="nucleotide" x="261.852" y="-308.875">U</text>
      <text class="nucleotide" x="272.828" y="-317.255">C</text>
      <text class="nucleotide" x="285.328" y="-308.963">C</text>
      <text class="nucleotide" x="297.828" y="-300.672">C</text>
      <text class="nucleotide" x="310.328" y="-292.380">C</text>
      <text class="nucleotide" x="319.237" y="-270.153">A</text>
      <text class="nucleotide" x="342.439" y="-270.051">G</text>
      <text class="nucleotide" x="354.548" y="-261.199">C</text>
      <text class="nucleotide" x="361.124" y="-246.808">C</text>
      <text class="nucleotide" x="375.964" y="-245.544">A</text>
      <text class="nucleotide" x="388.074" y="-236.692">C</text>
      <text class="nucleotide" x="387.574" y="-229.501">C</text>
      <text class="nucleotide" x="389.515" y="-222.629">C</text>
      <text class="nucleotide" x="393.623" y="-216.871">U</text>
      <text class="nucleotide" x="399.380" y="-212.877">G</text>
      <text class="nucleotide" x="406.082" y="-211.080">A</text>
      <text class="nucleotide" x="412.931" y="-211.647">C</text>
      <text class="nucleotide" x="419.124" y="-214.466">C</text>
      <text class="nucleotide" x="431.414" y="-205.867">G</text>
      <text class="nucleotide" x="443.704" y="-197.267">G</text>
      <text class="nucleotide" x="450.576" y="-183.016">U</text>
      <text class="nucleotide" x="465.439" y="-182.059">G</text>
      <text class="nucleotide" x="477.730" y="-173.460">U</text>
      <text class="nucleotide" x="490.020" y="-164.860">G</text>
      <text class="nucleotide" x="484.762" y="-149.991">C</text>
      <text class="nucleotide" x="483.724" y="-134.268">C</text>
      <text class="nucleotide" x="486.978" y="-118.865">U</text>
      <text class="nucleotide" x="494.270" y="-104.931">C</text>
      <text class="nucleotide" x="505.052" y="-93.501">U</text>
      <text class="nucleotide" x="518.511" y="-85.422">C</text>
      <text class="nucleotide" x="533.640" y="-81.291">G</text>
      <text class="nucleotide" x="549.308" y="-81.407">C</text>
      <text class="nucleotide" x="564.345" y="-85.755">C</text>
      <text class="nucleotide" x="572.139" y="-72.939">U</text>
      <text class="nucleotide" x="579.932" y="-60.123">U</text>
      <text class="nucleotide" x="587.726" y="-47.307">C</text>
      <text class="nucleotide" x="584.368" y="-38.719">A</text>
      <text class="nucleotide" x="585.254" y="-29.679">C</text>
      <text class="nucleotide" x="590.069" y="-22.137">A</text>
      <text class="nucleotide" x="597.662" y="-17.667">G</text>
      <text class="nucleotide" x="606.321" y="-17.133">U</text>
      <text class="nucleotide" x="614.273" y="-4.415">G</text>
      <text class="nucleotide" x="622.226" y="8.304">U</text>
      <text class="nucleotide" x="618.890" y="23.519">G</text>
      <text class="nucleotide" x="627.136" y="36.304">C</text>
      <text class="nucleotide" x="641.662" y="39.390">U</text>
      <text class="nucleotide" x="649.615" y="52.109">C</text>
      <text class="nucleotide" x="650.371" y="67.912">A</text>
      <text class="nucleotide" x="663.678" y="74.601">C</text>
      <text class="nucleotide" x="671.631" y="87.320">U</text>
      <text class="nucleotide" x="665.608" y="103.440">G</text>
      <text class="nucleotide" x="671.011" y="119.517">A</text>
      <text class="nucleotide" x="685.129" y="128.463">U</text>
      <text class="nucleotide" x="686.060" y="143.434">C</text>
      <text class="nucleotide" x="686.991" y="158.406">C</text>
      <text class="nucleotide" x="687.921" y="173.377">G</text>
      <text class="nucleotide" x="688.852" y="188.348">C</text>
      <text class="nucleotide" x="677.082" y="192.497">C</text>
      <text class="nucleotide" x="667.637" y="202.741">U</text>
      <text class="nucleotide" x="663.634" y="217.607">C</text>
      <text class="nucleotide" x="667.229" y="234.082">C</text>
      <text class="nucleotide" x="663.783" y="248.681">A</text>
      <text class="nucleotide" x="653.082" y="260.335">G</text>
      <text class="nucleotide" x="657.689" y="274.499">G</text>
      <text class="nucleotide" x="654.243" y="289.098">G</text>
      <text class="nucleotide" x="650.797" y="303.697">C</text>
      <text class="nucleotide" x="639.167" y="315.258">C</text>
      <text class="nucleotide" x="643.625" y="331.039">A</text>
      <text class="nucleotide" x="659.585" y="334.807">C</text>
      <text class="nucleotide" x="670.630" y="322.684">C</text>
      <text class="nucleotide" x="665.396" y="307.142">G</text>
      <text class="nucleotide" x="668.842" y="292.544">C</text>
      <text class="nucleotide" x="672.288" y="277.945">C</text>
      <text class="nucleotide" x="682.742" y="267.335">A</text>
      <text class="nucleotide" x="678.382" y="252.127">U</text>
      <text class="nucleotide" x="681.828" y="237.528">G</text>
      <text class="nucleotide" x="689.322" y="237.807">U</text>
      <text class="nucleotide" x="688.764" y="252.797">C</text>
      <text class="nucleotide" x="688.205" y="267.786">G</text>
      <text class="nucleotide" x="703.195" y="268.345">A</text>
      <text class="nucleotide" x="703.753" y="253.355">G</text>
      <text class="nucleotide" x="704.312" y="238.366">C</text>
      <text class="nucleotide" x="711.807" y="238.645">C</text>
      <text class="nucleotide" x="706.327" y="253.487">G</text>
      <text class="nucleotide" x="715.962" y="264.845">C</text>
      <text class="nucleotide" x="718.312" y="279.660">G</text>
      <text class="nucleotide" x="716.361" y="285.780">G</text>
      <text class="nucleotide" x="717.538" y="291.190">U</text>
      <text class="nucleotide" x="720.742" y="294.588">G</text>
      <text class="nucleotide" x="723.215" y="309.382">G</text>
      <text class="nucleotide" x="717.857" y="324.269">G</text>
      <text class="nucleotide" x="727.586" y="335.547">A</text>
      <text class="nucleotide" x="730.059" y="350.342">A</text>
      <text class="nucleotide" x="732.531" y="365.137">G</text>
      <text class="nucleotide" x="735.003" y="379.932">A</text>
      <text class="nucleotide" x="729.646" y="394.818">A</text>
      <text class="nucleotide" x="739.375" y="406.096">G</text>
      <text class="nucleotide" x="741.847" y="420.891">A</text>
      <text class="nucleotide" x="735.031" y="431.751">A</text>
      <text class="nucleotide" x="737.318" y="443.961">G</text>
      <text class="nucleotide" x="746.962" y="451.140">U</text>
      <text class="nucleotide" x="749.495" y="465.924">C</text>
      <text class="nucleotide" x="752.029" y="480.709">C</text>
      <text class="nucleotide" x="737.147" y="490.450">A</text>
      <text class="nucleotide" x="735.142" y="514.125">C</text>
      <text class="nucleotide" x="737.000" y="529.010">C</text>
      <text class="nucleotide" x="727.568" y="541.406">A</text>
      <text class="nucleotide" x="729.664" y="556.475">A</text>
      <text class="nucleotide" x="741.540" y="565.390">G</text>
      <text class="nucleotide" x="734.668" y="580.280">A</text>
      <text class="nucleotide" x="744.346" y="593.518">C</text>
      <text class="nucleotide" x="760.619" y="591.487">G</text>
      <text class="nucleotide" x="766.746" y="576.276">U</text>
      <text class="nucleotide" x="756.425" y="563.532">C</text>
      <text class="nucleotide" x="765.746" y="551.971">C</text>
      <text class="nucleotide" x="764.074" y="536.850">A</text>
      <text class="nucleotide" x="751.884" y="527.152">G</text>
      <text class="nucleotide" x="750.026" y="512.267">G</text>
      <text class="nucleotide" x="757.402" y="510.909">U</text>
      <text class="nucleotide" x="767.131" y="522.326">C</text>
      <text class="nucleotide" x="772.154" y="508.192">U</text>
      <text class="nucleotide" x="779.530" y="506.834">G</text>
      <text class="nucleotide" x="783.097" y="521.404">C</text>
      <text class="nucleotide" x="777.992" y="536.988">C</text>
      <text class="nucleotide" x="789.136" y="549.019">A</text>
      <text class="nucleotide" x="805.065" y="545.120">A</text>
      <text class="nucleotide" x="809.392" y="529.302">A</text>
      <text class="nucleotide" x="797.666" y="517.837">G</text>
      <text class="nucleotide" x="794.100" y="503.267">C</text>
      <text class="nucleotide" x="783.942" y="482.132">A</text>
      <text class="nucleotide" x="766.813" y="478.175">G</text>
      <text class="nucleotide" x="764.280" y="463.391">G</text>
      <text class="nucleotide" x="761.746" y="448.606">A</text>
      <text class="nucleotide" x="768.675" y="432.429">G</text>
      <text class="nucleotide" x="756.642" y="418.419">U</text>
      <text class="nucleotide" x="754.170" y="403.624">C</text>
      <text class="nucleotide" x="759.704" y="389.796">A</text>
      <text class="nucleotide" x="749.798" y="377.460">U</text>
      <text class="nucleotide" x="747.326" y="362.665">C</text>
      <text class="nucleotide" x="744.854" y="347.870">U</text>
      <text class="nucleotide" x="742.381" y="333.075">U</text>
      <text class="nucleotide" x="747.915" y="319.247">U</text>
      <text class="nucleotide" x="738.009" y="306.910">C</text>
      <text class="nucleotide" x="735.537" y="292.115">C</text>
      <text class="nucleotide" x="733.126" y="277.310">C</text>
      <text class="nucleotide" x="730.777" y="262.496">G</text>
      <text class="nucleotide" x="736.425" y="248.714">U</text>
      <text class="nucleotide" x="726.622" y="236.296">G</text>
      <text class="nucleotide" x="731.406" y="212.575">G</text>
      <text class="nucleotide" x="721.122" y="193.892">G</text>
      <text class="nucleotide" x="703.823" y="187.417">G</text>
      <text class="nucleotide" x="702.893" y="172.446">C</text>
      <text class="nucleotide" x="701.962" y="157.475">G</text>
      <text class="nucleotide" x="701.031" y="142.504">G</text>
      <text class="nucleotide" x="700.100" y="127.533">A</text>
      <text class="nucleotide" x="702.494" y="126.458">U</text>
      <text class="nucleotide" x="704.760" y="125.137">G</text>
      <text class="nucleotide" x="706.875" y="123.584">C</text>
      <text class="nucleotide" x="719.443" y="131.772">U</text>
      <text class="nucleotide" x="732.011" y="139.960">G</text>
      <text class="nucleotide" x="744.580" y="148.147">C</text>
      <text class="nucleotide" x="744.060" y="171.525">G</text>
      <text class="nucleotide" x="768.813" y="188.054">G</text>
      <text class="nucleotide" x="780.190" y="197.830">U</text>
      <text class="nucleotide" x="791.566" y="207.606">A</text>
      <text class="nucleotide" x="790.443" y="222.970">C</text>
      <text class="nucleotide" x="798.487" y="235.898">A</text>
      <text class="nucleotide" x="812.437" y="241.544">U</text>
      <text class="nucleotide" x="826.863" y="237.936">C</text>
      <text class="nucleotide" x="838.240" y="247.712">A</text>
      <text class="nucleotide" x="843.664" y="262.574">A</text>
      <text class="nucleotide" x="858.360" y="265.000">G</text>
      <text class="nucleotide" x="869.737" y="274.776">A</text>
      <text class="nucleotide" x="871.461" y="287.481">A</text>
      <text class="nucleotide" x="881.039" y="295.391">A</text>
      <text class="nucleotide" x="893.043" y="294.724">G</text>
      <text class="nucleotide" x="904.460" y="304.453">G</text>
      <text class="nucleotide" x="915.877" y="314.182">C</text>
      <text class="nucleotide" x="914.502" y="325.849">C</text>
      <text class="nucleotide" x="918.833" y="336.642">A</text>
      <text class="nucleotide" x="927.710" y="343.969">C</text>
      <text class="nucleotide" x="938.894" y="346.131">C</text>
      <text class="nucleotide" x="949.635" y="342.714">C</text>
      <text class="nucleotide" x="961.132" y="352.347">C</text>
      <text class="nucleotide" x="972.629" y="361.981">A</text>
      <text class="nucleotide" x="978.238" y="376.775">A</text>
      <text class="nucleotide" x="992.962" y="379.019">G</text>
      <text class="nucleotide" x="1004.460" y="388.653">U</text>
      <text class="nucleotide" x="1015.957" y="398.287">A</text>
      <text class="nucleotide" x="1027.454" y="407.921">C</text>
      <text class="nucleotide" x="1038.952" y="417.554">A</text>
      <text class="nucleotide" x="1038.164" y="425.604">G</text>
      <text class="nucleotide" x="1040.527" y="433.242">G</text>
      <text class="nucleotide" x="1045.604" y="439.297">A</text>
      <text class="nucleotide" x="1052.547" y="442.871">U</text>
      <text class="nucleotide" x="1060.240" y="443.470">U</text>
      <text class="nucleotide" x="1067.476" y="441.073">G</text>
      <text class="nucleotide" x="1079.131" y="450.515">G</text>
      <text class="nucleotide" x="1083.757" y="458.252">A</text>
      <text class="nucleotide" x="1090.854" y="459.972">G</text>
      <text class="nucleotide" x="1102.548" y="469.366">U</text>
      <text class="nucleotide" x="1114.243" y="478.760">G</text>
      <text class="nucleotide" x="1119.672" y="494.234">G</text>
      <text class="nucleotide" x="1135.836" y="497.003">G</text>
      <text class="nucleotide" x="1146.106" y="484.218">G</text>
      <text class="nucleotide" x="1139.917" y="469.031">G</text>
      <text class="nucleotide" x="1123.636" y="467.066">C</text>
      <text class="nucleotide" x="1111.942" y="457.672">A</text>
      <text class="nucleotide" x="1100.248" y="448.278">C</text>
      <text class="nucleotide" x="1088.573" y="438.860">C</text>
      <text class="nucleotide" x="1076.918" y="429.418">C</text>
      <text class="nucleotide" x="1070.901" y="408.594">G</text>
      <text class="nucleotide" x="1048.585" y="406.057">U</text>
      <text class="nucleotide" x="1037.088" y="396.423">G</text>
      <text class="nucleotide" x="1025.591" y="386.789">U</text>
      <text class="nucleotide" x="1014.094" y="377.155">A</text>
      <text class="nucleotide" x="1002.596" y="367.522">C</text>
      <text class="nucleotide" x="997.810" y="353.417">A</text>
      <text class="nucleotide" x="982.263" y="350.484">U</text>
      <text class="nucleotide" x="970.766" y="340.850">G</text>
      <text class="nucleotide" x="959.269" y="331.216">G</text>
      <text class="nucleotide" x="958.679" y="312.836">C</text>
      <text class="nucleotide" x="944.518" y="300.604">C</text>
      <text class="nucleotide" x="925.606" y="302.765">G</text>
      <text class="nucleotide" x="914.189" y="293.036">C</text>
      <text class="nucleotide" x="902.772" y="283.307">C</text>
      <text class="nucleotide" x="897.727" y="266.447">G</text>
      <text class="nucleotide" x="879.513" y="263.400">U</text>
      <text class="nucleotide" x="868.136" y="253.624">C</text>
      <text class="nucleotide" x="863.525" y="239.461">C</text>
      <text class="nucleotide" x="848.016" y="236.335">U</text>
      <text class="nucleotide" x="836.639" y="226.559">G</text>
      <text class="nucleotide" x="838.034" y="211.754">G</text>
      <text class="nucleotide" x="830.354" y="198.813">A</text>
      <text class="nucleotide" x="816.362" y="192.806">A</text>
      <text class="nucleotide" x="801.342" y="196.229">U</text>
      <text class="nucleotide" x="789.966" y="186.453">A</text>
      <text class="nucleotide" x="778.589" y="176.677">C</text>
      <text class="nucleotide" x="782.094" y="170.047">C</text>
      <text class="nucleotide" x="789.105" y="156.786">U</text>
      <text class="nucleotide" x="792.611" y="150.156">G</text>
      <text class="nucleotide" x="803.927" y="161.213">A</text>
      <text class="nucleotide" x="818.227" y="157.048">C</text>
      <text class="nucleotide" x="832.712" y="160.945">A</text>
      <text class="nucleotide" x="847.197" y="164.843">G</text>
      <text class="nucleotide" x="861.682" y="168.740">C</text>
      <text class="nucleotide" x="868.728" y="179.451">G</text>
      <text class="nucleotide" x="880.785" y="182.443">G</text>
      <text class="nucleotide" x="891.321" y="176.653">A</text>
      <text class="nucleotide" x="905.822" y="180.490">G</text>
      <text class="nucleotide" x="912.913" y="191.172">A</text>
      <text class="nucleotide" x="924.982" y="194.114">U</text>
      <text class="nucleotide" x="935.494" y="188.281">U</text>
      <text class="nucleotide" x="946.788" y="200.171">C</text>
      <text class="nucleotide" x="962.667" y="196.074">U</text>
      <text class="nucleotide" x="966.796" y="180.203">G</text>
      <text class="nucleotide" x="954.928" y="168.886">G</text>
      <text class="nucleotide" x="939.271" y="173.764">A</text>
      <text class="nucleotide" x="927.381" y="160.790">G</text>
      <text class="nucleotide" x="909.659" y="165.989">C</text>
      <text class="nucleotide" x="895.159" y="162.152">U</text>
      <text class="nucleotide" x="883.321" y="149.130">G</text>
      <text class="nucleotide" x="865.579" y="154.255">G</text>
      <text class="nucleotide" x="851.094" y="150.358">C</text>
      <text class="nucleotide" x="836.609" y="146.461">U</text>
      <text class="nucleotide" x="822.124" y="142.563">G</text>
      <text class="nucleotide" x="811.844" y="131.785">G</text>
      <text class="nucleotide" x="796.508" y="135.671">C</text>
      <text class="nucleotide" x="784.512" y="127.140">A</text>
      <text class="nucleotide" x="771.452" y="124.975">A</text>
      <text class="nucleotide" x="760.196" y="128.415">U</text>
      <text class="nucleotide" x="752.767" y="135.579">G</text>
      <text class="nucleotide" x="740.199" y="127.391">C</text>
      <text class="nucleotide" x="727.631" y="119.204">A</text>
      <text class="nucleotide" x="715.063" y="111.016">G</text>
      <text class="nucleotide" x="714.023" y="93.846">C</text>
      <text class="nucleotide" x="701.960" y="81.230">G</text>
      <text class="nucleotide" x="684.349" y="79.368">A</text>
      <text class="nucleotide" x="676.397" y="66.649">G</text>
      <text class="nucleotide" x="676.210" y="51.756">A</text>
      <text class="nucleotide" x="662.333" y="44.156">G</text>
      <text class="nucleotide" x="654.381" y="31.438">A</text>
      <text class="nucleotide" x="657.967" y="17.027">C</text>
      <text class="nucleotide" x="650.084" y="4.015">A</text>
      <text class="nucleotide" x="634.944" y="0.351">A</text>
      <text class="nucleotide" x="626.992" y="-12.367">C</text>
      <text class="nucleotide" x="619.039" y="-25.086">A</text>
      <text class="nucleotide" x="619.911" y="-45.764">A</text>
      <text class="nucleotide" x="600.543" y="-55.100">G</text>
      <text class="nucleotide" x="592.749" y="-67.917">A</text>
      <text class="nucleotide" x="584.955" y="-80.733">A</text>
      <text class="nucleotide" x="577.161" y="-93.549">G</text>
      <text class="nucleotide" x="587.100" y="-103.842">G</text>
      <text class="nucleotide" x="594.177" y="-116.277">G</text>
      <text class="nucleotide" x="597.952" y="-130.078">A</text>
      <text class="nucleotide" x="598.188" y="-144.383">C</text>
      <text class="nucleotide" x="594.871" y="-158.302">G</text>
      <text class="nucleotide" x="608.103" y="-165.367">G</text>
      <text class="nucleotide" x="621.334" y="-172.433">G</text>
      <text class="nucleotide" x="634.566" y="-179.499">U</text>
      <text class="nucleotide" x="650.384" y="-179.174">C</text>
      <text class="nucleotide" x="657.966" y="-191.995">A</text>
      <text class="nucleotide" x="671.197" y="-199.061">C</text>
      <text class="nucleotide" x="684.429" y="-206.126">A</text>
      <text class="nucleotide" x="697.661" y="-213.192">C</text>
      <text class="nucleotide" x="713.478" y="-212.868">C</text>
      <text class="nucleotide" x="721.060" y="-225.688">C</text>
      <text class="nucleotide" x="734.292" y="-232.754">C</text>
      <text class="nucleotide" x="739.847" y="-229.367">G</text>
      <text class="nucleotide" x="746.111" y="-227.810">G</text>
      <text class="nucleotide" x="752.504" y="-228.198">C</text>
      <text class="nucleotide" x="758.439" y="-230.464">A</text>
      <text class="nucleotide" x="763.384" y="-234.372">C</text>
      <text class="nucleotide" x="766.902" y="-239.539">A</text>
      <text class="nucleotide" x="768.697" y="-245.475">U</text>
      <text class="nucleotide" x="768.633" y="-251.624">C</text>
      <text class="nucleotide" x="781.685" y="-259.016">C</text>
      <text class="nucleotide" x="794.223" y="-256.334">U</text>
      <text class="nucleotide" x="804.910" y="-262.666">G</text>
      <text class="nucleotide" x="808.349" y="-274.186">C</text>
      <text class="nucleotide" x="821.371" y="-281.632">U</text>
      <text class="nucleotide" x="834.392" y="-289.079">G</text>
      <text class="nucleotide" x="847.413" y="-296.525">G</text>
      <text class="nucleotide" x="860.435" y="-303.971">C</text>
      <text class="nucleotide" x="873.456" y="-311.417">U</text>
      <text class="nucleotide" x="889.277" y="-311.551">G</text>
      <text class="nucleotide" x="896.484" y="-324.586">U</text>
      <text class="nucleotide" x="909.505" y="-332.032">G</text>
      <text class="nucleotide" x="922.527" y="-339.478">G</text>
      <text class="nucleotide" x="933.556" y="-328.296">C</text>
      <text class="nucleotide" x="947.099" y="-320.364">C</text>
      <text class="nucleotide" x="962.225" y="-316.218">A</text>
      <text class="nucleotide" x="977.897" y="-316.138">A</text>
      <text class="nucleotide" x="993.043" y="-320.122">U</text>
      <text class="nucleotide" x="1006.627" y="-327.893">G</text>
      <text class="nucleotide" x="1017.724" y="-338.913">A</text>
      <text class="nucleotide" x="1025.576" y="-352.425">U</text>
      <text class="nucleotide" x="1029.653" y="-367.500">G</text>
      <text class="nucleotide" x="1029.679" y="-383.105">A</text>
      <text class="nucleotide" x="1025.661" y="-398.173">A</text>
      <text class="nucleotide" x="1038.713" y="-405.565">G</text>
      <text class="nucleotide" x="1051.780" y="-412.930">A</text>
      <text class="nucleotide" x="1064.862" y="-420.268">G</text>
      <text class="nucleotide" x="1077.945" y="-427.606">C</text>
      <text class="nucleotide" x="1091.027" y="-434.945">U</text>
      <text class="nucleotide" x="1104.110" y="-442.283">G</text>
      <text class="nucleotide" x="1120.882" y="-444.758">A</text>
      <text class="nucleotide" x="1123.147" y="-461.560">A</text>
      <text class="nucleotide" x="1107.628" y="-468.387">U</text>
      <text class="nucleotide" x="1096.772" y="-455.365">C</text>
      <text class="nucleotide" x="1083.689" y="-448.027">A</text>
      <text class="nucleotide" x="1070.607" y="-440.689">G</text>
      <text class="nucleotide" x="1057.524" y="-433.351">C</text>
      <text class="nucleotide" x="1044.442" y="-426.013">U</text>
      <text class="nucleotide" x="1037.158" y="-425.486">G</text>
      <text class="nucleotide" x="1031.320" y="-418.617">C</text>
      <text class="nucleotide" x="1018.268" y="-411.225">U</text>
      <text class="nucleotide" x="1008.394" y="-421.626">A</text>
      <text class="nucleotide" x="996.314" y="-429.373">A</text>
      <text class="nucleotide" x="982.723" y="-434.012">A</text>
      <text class="nucleotide" x="968.409" y="-435.273">A</text>
      <text class="nucleotide" x="954.198" y="-433.075">G</text>
      <text class="nucleotide" x="940.915" y="-427.544">G</text>
      <text class="nucleotide" x="929.330" y="-418.994">A</text>
      <text class="nucleotide" x="920.117" y="-407.918">G</text>
      <text class="nucleotide" x="913.812" y="-394.952">U</text>
      <text class="nucleotide" x="910.784" y="-380.847">C</text>
      <text class="nucleotide" x="911.214" y="-366.418">A</text>
      <text class="nucleotide" x="915.081" y="-352.499">C</text>
      <text class="nucleotide" x="902.059" y="-345.053">C</text>
      <text class="nucleotide" x="889.038" y="-337.607">A</text>
      <text class="nucleotide" x="874.149" y="-338.006">U</text>
      <text class="nucleotide" x="866.010" y="-324.438">A</text>
      <text class="nucleotide" x="852.988" y="-316.992">G</text>
      <text class="nucleotide" x="839.967" y="-309.546">C</text>
      <text class="nucleotide" x="826.946" y="-302.100">C</text>
      <text class="nucleotide" x="813.924" y="-294.654">A</text>
      <text class="nucleotide" x="800.903" y="-287.208">G</text>
      <text class="nucleotide" x="783.331" y="-288.173">U</text>
      <text class="nucleotide" x="774.293" y="-272.068">G</text>
      <text class="nucleotide" x="761.241" y="-264.676">G</text>
      <text class="nucleotide" x="738.300" y="-267.076">G</text>
      <text class="nucleotide" x="727.226" y="-245.986">G</text>
      <text class="nucleotide" x="713.995" y="-238.920">G</text>
      <text class="nucleotide" x="699.123" y="-239.750">U</text>
      <text class="nucleotide" x="690.595" y="-226.424">G</text>
      <text class="nucleotide" x="677.363" y="-219.358">U</text>
      <text class="nucleotide" x="664.132" y="-212.292">G</text>
      <text class="nucleotide" x="650.900" y="-205.226">U</text>
      <text class="nucleotide" x="636.029" y="-206.056">U</text>
      <text class="nucleotide" x="627.500" y="-192.731">A</text>
      <text class="nucleotide" x="614.268" y="-185.665">C</text>
      <text class="nucleotide" x="601.037" y="-178.599">C</text>
      <text class="nucleotide" x="587.805" y="-171.533">C</text>
      <text class="nucleotide" x="577.966" y="-182.220">A</text>
      <text class="nucleotide" x="565.741" y="-190.100">A</text>
      <text class="nucleotide" x="551.910" y="-194.658">C</text>
      <text class="nucleotide" x="537.360" y="-195.594">A</text>
      <text class="nucleotide" x="523.025" y="-192.838">U</text>
      <text class="nucleotide" x="509.828" y="-186.558">C</text>
      <text class="nucleotide" x="498.619" y="-177.151">C</text>
      <text class="nucleotide" x="486.329" y="-185.750">A</text>
      <text class="nucleotide" x="474.039" y="-194.349">C</text>
      <text class="nucleotide" x="468.047" y="-207.986">C</text>
      <text class="nucleotide" x="452.304" y="-209.558">C</text>
      <text class="nucleotide" x="440.013" y="-218.157">C</text>
      <text class="nucleotide" x="427.723" y="-226.756">G</text>
      <text class="nucleotide" x="420.119" y="-247.873">A</text>
      <text class="nucleotide" x="396.926" y="-248.802">G</text>
      <text class="nucleotide" x="384.816" y="-257.654">U</text>
      <text class="nucleotide" x="379.107" y="-271.411">U</text>
      <text class="nucleotide" x="363.400" y="-273.308">G</text>
      <text class="nucleotide" x="351.291" y="-282.160">C</text>
      <text class="nucleotide" x="351.954" y="-287.170">U</text>
      <text class="nucleotide" x="351.369" y="-292.190">A</text>
      <text class="nucleotide" x="349.569" y="-296.913">G</text>
      <text class="nucleotide" x="346.667" y="-301.050">C</text>
      <text class="nucleotide" x="361.717" y="-305.873">G</text>
      <text class="nucleotide" x="368.875" y="-319.963">A</text>
      <text class="nucleotide" x="363.893" y="-334.962">A</text>
      <text class="nucleotide" x="349.728" y="-341.970">G</text>
      <text class="nucleotide" x="334.783" y="-336.830">A</text>
      <text class="nucleotide" x="327.925" y="-322.592">A</text>
      <text class="nucleotide" x="333.222" y="-307.702">G</text>
      <text class="nucleotide" x="325.781" y="-307.647">C</text>
      <text class="nucleotide" x="318.619" y="-304.880">G</text>
      <text class="nucleotide" x="306.119" y="-313.172">G</text>
      <text class="nucleotide" x="293.619" y="-321.463">G</text>
      <text class="nucleotide" x="281.119" y="-329.755">G</text>
      <text class="nucleotide" x="278.702" y="-355.792">A</text>
      <text class="nucleotide" x="248.380" y="-367.362">U</text>
      <text class="nucleotide" x="240.746" y="-380.275">C</text>
      <text class="nucleotide" x="233.112" y="-393.187">C</text>
      <text class="nucleotide" x="239.189" y="-406.759">A</text>
      <text class="nucleotide" x="236.071" y="-421.481">A</text>
      <text class="nucleotide" x="224.750" y="-431.664">A</text>
      <text class="nucleotide" x="209.427" y="-433.247">G</text>
      <text class="nucleotide" x="201.793" y="-446.159">G</text>
      <text class="nucleotide" x="194.159" y="-459.071">A</text>
      <text class="nucleotide" x="194.870" y="-476.655">A</text>
      <text class="nucleotide" x="178.635" y="-485.459">A</text>
      <text class="nucleotide" x="171.055" y="-498.403">G</text>
      <text class="nucleotide" x="163.474" y="-511.346">U</text>
      <text class="nucleotide" x="155.894" y="-524.290">U</text>
      <text class="nucleotide" x="156.139" y="-539.182">G</text>
      <text class="nucleotide" x="142.488" y="-547.180">G</text>
      <text class="nucleotide" x="134.907" y="-560.124">A</text>
      <text class="nucleotide" x="137.664" y="-571.826">A</text>
      <text class="nucleotide" x="131.553" y="-582.641">G</text>
      <text class="nucleotide" x="119.346" y="-586.562">C</text>
      <text class="nucleotide" x="130.413" y="-600.525">C</text>
      <text class="nucleotide" x="130.895" y="-620.868">A</text>
      <text class="nucleotide" x="117.661" y="-639.548">U</text>
      <text class="nucleotide" x="117.785" y="-654.548">C</text>
      <text class="nucleotide" x="120.955" y="-662.987">A</text>
      <text class="nucleotide" x="117.878" y="-669.610">U</text>
      <text class="nucleotide" x="117.940" y="-684.609">C</text>
      <text class="nucleotide" x="128.485" y="-692.876">A</text>
      <text class="nucleotide" x="132.323" y="-705.510">C</text>
      <text class="nucleotide" x="128.280" y="-717.877">A</text>
      <text class="nucleotide" x="118.028" y="-725.570">C</text>
      <text class="nucleotide" x="118.028" y="-740.570">C</text>
      <text class="nucleotide" x="125.765" y="-754.370">A</text>
      <text class="nucleotide" x="118.028" y="-767.097">C</text>
      <text class="nucleotide" x="118.028" y="-782.097">C</text>
      <text class="nucleotide" x="118.059" y="-797.097">C</text>
      <text class="nucleotide" x="118.121" y="-812.097">C</text>
      <text class="nucleotide" x="118.183" y="-827.097">C</text>
      <text class="nucleotide" x="129.051" y="-844.164">A</text>
      <text class="nucleotide" x="118.452" y="-860.416">G</text>
      <text class="nucleotide" x="118.638" y="-875.414">C</text>
      <text class="nucleotide" x="118.825" y="-890.413">C</text>
      <text class="nucleotide" x="127.661" y="-904.228">A</text>
      <text class="nucleotide" x="119.875" y="-918.662">A</text>
      <text class="nucleotide" x="103.477" y="-918.865">A</text>
    </g>
  </g>
</svg>
