<?xml version="1.0" encoding="UTF-8" standalone="yes" ?>
<svg xmlns="http://www.w3.org/2000/svg" height="452" width="452">
  <script type="text/ecmascript">
    <![CDATA[
      var shown = 1;
      function click() {
        var seq = document.getElementById("seq");
        if (shown==1) {
          seq.setAttribute("style", "visibility: hidden");
          shown = 0;
        } else {
          seq.setAttribute("style", "visibility: visible");
          shown = 1;
        }
      }
    ]]>
  </script>
  <style type="text/css">
    <![CDATA[
      .nucleotide {
        font-family: SansSerif;
      }
      .backbone {
        stroke: grey;
        fill:   none;
        stroke-width: 1.5;
      }
      .basepairs {
        stroke: red;
        fill:   none;
        stroke-width: 2.5;
      }
    ]]>
  </style>

  <rect style="stroke: white; fill: white" height="452" x="0" y="0" width="452" onclick="click(evt)" />
  <g transform="scale(0.262031,0.262031) translate(719.220337,1046.801758)">
    <polyline class="backbone" id="outline" points="
      83.352,-652.586
      82.541,-637.608
      81.730,-622.630
      68.728,-611.890
      67.544,-594.727
      79.406,-581.803
      78.515,-566.830
      77.623,-551.856
      76.731,-536.883
      75.840,-521.909
      61.688,-516.936
      51.625,-528.059
      41.562,-539.183
      31.499,-550.307
      21.436,-561.430
      23.655,-574.652
      17.967,-586.578
      6.633,-592.984
      -6.132,-591.744
      -16.255,-602.813
      -26.378,-613.882
      -23.502,-620.121
      -22.199,-626.844
      -22.534,-633.663
      -24.478,-640.184
      -27.909,-646.035
      -32.620,-650.885
      -38.332,-654.462
      -44.711,-656.567
      -51.386,-657.090
      -57.973,-656.012
      -64.093,-653.403
      -74.685,-664.024
      -85.277,-674.645
      -95.869,-685.266
      -100.136,-700.501
      -114.602,-704.049
      -125.194,-714.670
      -135.786,-725.291
      -146.378,-735.912
      -156.971,-746.533
      -167.563,-757.154
      -178.155,-767.775
      -188.747,-778.396
      -199.282,-789.074
      -209.759,-799.809
      -220.236,-810.544
      -230.712,-821.278
      -241.189,-832.013
      -251.666,-842.748
      -262.143,-853.483
      -272.620,-864.218
      -276.829,-884.000
      -295.767,-888.181
      -306.098,-899.056
      -316.370,-909.988
      -326.612,-920.946
      -336.854,-931.905
      -340.624,-947.271
      -354.967,-951.286
      -365.210,-962.245
      -375.452,-973.204
      -385.694,-984.163
      -395.936,-995.122
      -399.458,-1003.435
      -406.263,-1006.112
      -404.279,-1021.623
      -412.773,-1034.753
      -427.735,-1039.302
      -442.099,-1033.122
      -449.084,-1019.131
      -445.392,-1003.936
      -432.766,-994.710
      -417.167,-995.811
      -406.895,-984.880
      -396.653,-973.921
      -386.411,-962.962
      -376.169,-952.003
      -365.926,-941.044
      -362.889,-926.462
      -347.813,-921.663
      -337.571,-910.704
      -327.329,-899.745
      -325.080,-892.787
      -317.002,-888.755
      -314.715,-881.809
      -306.615,-877.821
      -307.771,-867.796
      -303.169,-858.569
      -294.089,-853.240
      -283.354,-853.741
      -272.878,-843.006
      -262.401,-832.271
      -251.924,-821.536
      -241.447,-810.802
      -230.971,-800.067
      -220.494,-789.332
      -210.017,-778.597
      -209.170,-773.992
      -205.485,-769.837
      -199.368,-767.804
      -188.776,-757.183
      -178.184,-746.562
      -167.592,-735.941
      -156.999,-725.320
      -146.407,-714.699
      -135.815,-704.078
      -125.223,-693.457
      -121.714,-678.982
      -106.490,-674.674
      -95.898,-664.053
      -85.306,-653.432
      -74.713,-642.811
      -76.989,-619.883
      -61.023,-602.892
      -37.447,-603.759
      -27.324,-592.690
      -17.201,-581.621
      -18.641,-564.818
      -7.221,-551.953
      10.312,-551.367
      20.375,-540.244
      30.438,-529.120
      40.501,-517.996
      50.564,-506.873
      45.476,-492.762
      30.630,-490.620
      15.784,-488.478
      0.938,-486.336
      -13.909,-484.194
      -28.755,-482.052
      -43.601,-479.910
      -58.447,-477.768
      -73.294,-475.626
      -82.129,-477.487
      -88.214,-473.432
      -103.049,-471.210
      -115.673,-480.335
      -130.686,-477.870
      -139.307,-465.778
      -154.142,-463.556
      -168.976,-461.333
      -161.763,-474.485
      -167.496,-488.346
      -181.892,-492.559
      -194.194,-483.976
      -195.209,-469.010
      -184.179,-458.845
      -198.948,-456.223
      -213.717,-453.600
      -228.658,-458.806
      -239.836,-448.963
      -254.605,-446.340
      -263.496,-447.913
      -269.447,-443.663
      -284.202,-440.961
      -298.956,-438.259
      -313.711,-435.556
      -328.465,-432.854
      -342.431,-440.749
      -357.257,-434.619
      -361.569,-419.166
      -352.060,-406.245
      -336.024,-405.767
      -325.763,-418.100
      -311.008,-420.802
      -296.254,-423.504
      -281.499,-426.206
      -266.745,-428.909
      -251.983,-431.571
      -237.214,-434.194
      -223.330,-428.801
      -211.095,-438.831
      -196.326,-441.454
      -181.557,-444.076
      -166.754,-446.499
      -151.919,-448.721
      -137.085,-450.944
      -125.299,-441.909
      -110.223,-443.951
      -100.827,-456.375
      -85.992,-458.597
      -71.152,-460.780
      -56.305,-462.922
      -41.459,-465.064
      -26.613,-467.206
      -11.767,-469.348
      3.080,-471.490
      17.926,-473.632
      32.772,-475.774
      47.618,-477.916
      50.651,-456.576
      61.603,-439.164
      77.894,-428.291
      96.238,-425.196
      97.534,-410.252
      98.830,-395.308
      100.126,-380.365
      101.422,-365.421
      102.718,-350.477
      104.014,-335.533
      104.947,-320.562
      105.514,-305.573
      106.082,-290.583
      106.649,-275.594
      107.217,-260.605
      107.785,-245.616
      108.352,-230.626
      108.879,-215.636
      109.366,-200.643
      109.853,-185.651
      110.339,-170.659
      110.704,-155.664
      103.192,-141.740
      111.134,-129.140
      111.378,-114.142
      111.621,-99.144
      111.864,-84.146
      112.108,-69.148
      112.351,-54.150
      112.594,-39.152
      112.838,-24.154
      109.872,-15.626
      113.123,-9.075
      113.447,5.921
      113.772,20.918
      100.748,28.938
      93.534,42.312
      93.980,57.400
      101.866,70.154
      114.989,77.201
      115.314,92.198
      115.638,107.194
      105.206,124.521
      116.188,140.507
      116.350,155.506
      108.762,169.389
      116.637,182.032
      116.799,197.031
      116.961,212.030
      117.123,227.030
      117.286,242.029
      117.448,257.028
      117.610,272.027
      117.772,287.026
      117.934,302.025
      118.097,317.024
      103.903,321.590
      92.319,332.337
      86.020,347.794
      86.866,365.358
      95.442,381.723
      91.750,396.262
      88.057,410.800
      84.364,425.338
      80.672,439.877
      70.054,447.080
      67.238,459.188
      73.192,469.643
      69.578,484.201
      65.964,498.759
      62.350,513.318
      47.468,516.894
      35.960,526.985
      30.471,541.272
      32.262,556.473
      40.921,569.093
      54.459,576.234
      69.765,576.253
      83.321,569.148
      92.012,556.549
      93.842,541.354
      88.390,527.052
      76.908,516.932
      80.522,502.373
      84.136,487.815
      87.750,473.257
      100.589,461.230
      95.210,443.569
      98.903,429.031
      102.595,414.493
      106.288,399.954
      109.981,385.416
      117.478,385.619
      132.472,386.024
      139.970,386.227
      142.871,400.943
      145.773,415.660
      148.674,430.377
      151.576,445.094
      154.477,459.810
      157.379,474.527
      150.878,485.589
      153.529,497.734
      163.392,504.624
      166.373,519.325
      169.354,534.026
      167.767,538.784
      168.069,543.250
      169.849,546.770
      172.504,548.940
      175.724,563.590
      178.943,578.241
      174.347,593.380
      184.636,604.150
      187.855,618.801
      191.074,633.451
      182.347,646.628
      185.575,662.099
      198.843,670.686
      214.279,667.294
      222.726,653.936
      219.171,638.537
      205.724,630.232
      202.505,615.582
      199.286,600.931
      204.112,586.840
      193.593,575.022
      190.374,560.371
      187.155,545.721
      184.055,531.045
      181.074,516.344
      178.093,501.643
      184.531,485.271
      172.095,471.626
      169.194,456.909
      166.292,442.192
      163.391,427.475
      160.489,412.759
      157.588,398.042
      154.686,383.325
      164.398,366.867
      165.917,348.745
      159.732,332.628
      147.816,321.448
      133.096,316.862
      132.934,301.863
      132.771,286.864
      132.609,271.865
      132.447,256.866
      132.285,241.866
      132.122,226.867
      131.960,211.868
      131.798,196.869
      131.636,181.870
      139.235,169.060
      131.349,155.344
      131.187,140.345
      138.876,133.810
      141.814,123.927
      138.819,113.834
      130.635,106.870
      130.310,91.873
      129.986,76.877
      142.792,69.269
      150.119,56.186
      149.912,41.092
      142.127,28.043
      128.768,20.593
      128.444,5.597
      128.119,-9.400
      127.836,-24.397
      127.592,-39.395
      127.349,-54.393
      127.106,-69.391
      126.862,-84.389
      126.619,-99.387
      126.376,-114.385
      126.132,-129.383
      133.662,-142.234
      125.702,-155.907
      127.786,-158.631
      128.707,-162.466
      127.972,-166.881
      125.331,-171.146
      124.845,-186.138
      124.358,-201.130
      123.871,-216.122
      126.763,-222.839
      123.342,-231.194
      122.774,-246.183
      122.206,-261.172
      121.639,-276.162
      121.071,-291.151
      120.503,-306.140
      119.936,-321.129
      128.954,-309.143
      143.008,-303.899
      157.674,-307.048
      168.336,-317.598
      171.641,-332.230
      166.546,-346.338
      154.657,-355.483
      139.714,-356.788
      126.419,-349.840
      118.958,-336.829
      117.662,-351.773
      116.366,-366.717
      115.070,-381.661
      113.774,-396.605
      112.478,-411.548
      111.182,-426.492
      120.009,-429.109
      128.223,-433.582
      135.432,-439.768
      141.279,-447.441
      145.457,-456.297
      147.726,-465.974
      147.927,-476.057
      162.620,-479.078
      177.313,-482.099
      192.006,-485.120
      209.400,-478.935
      222.005,-491.208
      236.714,-494.149
      251.422,-497.090
      264.476,-488.590
      279.350,-491.783
      287.374,-504.279
      302.082,-507.221
      316.791,-510.162
      331.500,-513.103
      346.209,-516.044
      360.918,-518.986
      375.626,-521.927
      390.335,-524.868
      405.044,-527.810
      411.259,-526.100
      416.632,-527.506
      419.896,-530.863
      434.572,-533.963
      449.673,-529.245
      460.526,-539.446
      475.203,-542.546
      490.304,-537.828
      501.157,-548.029
      515.833,-551.129
      531.407,-540.203
      549.684,-544.168
      559.002,-560.011
      573.711,-562.952
      588.419,-565.894
      603.469,-561.012
      614.432,-571.095
      629.141,-574.036
      644.190,-569.155
      655.153,-579.238
      669.862,-582.179
      684.571,-585.121
      695.220,-573.958
      710.219,-570.348
      724.782,-575.441
      734.260,-587.613
      735.631,-602.979
      728.457,-616.637
      715.026,-624.228
      699.625,-623.329
      687.168,-614.229
      681.630,-599.829
      666.921,-596.888
      652.212,-593.947
      638.215,-599.038
      626.200,-588.745
      611.491,-585.804
      597.493,-590.896
      585.478,-580.602
      570.769,-577.661
      556.061,-574.720
      548.261,-582.880
      537.392,-586.341
      526.075,-584.150
      517.100,-576.729
      512.733,-565.805
      498.057,-562.705
      484.005,-567.645
      472.102,-557.222
      457.426,-554.122
      443.375,-559.062
      431.471,-548.639
      416.795,-545.539
      402.103,-542.518
      387.394,-539.577
      372.685,-536.636
      357.976,-533.695
      343.267,-530.753
      328.559,-527.812
      313.850,-524.871
      299.141,-521.930
      284.432,-518.988
      272.221,-527.439
      257.262,-524.665
      248.481,-511.799
      233.772,-508.858
      219.063,-505.917
      208.893,-512.344
      196.669,-510.087
      188.985,-499.812
      174.292,-496.791
      159.599,-493.771
      144.907,-490.750
      136.334,-503.059
      144.263,-515.792
      152.192,-528.525
      160.190,-541.215
      168.256,-553.862
      176.322,-566.509
      184.423,-579.134
      192.557,-591.736
      200.691,-604.339
      208.826,-616.942
      217.130,-629.434
      225.602,-641.812
      234.074,-654.190
      242.546,-666.569
      251.018,-678.947
      263.332,-677.648
      274.975,-681.646
      283.791,-690.135
      288.173,-701.485
      287.360,-713.553
      281.562,-724.086
      289.900,-736.555
      298.238,-749.024
      306.576,-761.493
      321.517,-768.252
      322.865,-784.596
      309.233,-793.711
      294.644,-786.222
      294.106,-769.831
      285.769,-757.362
      277.431,-744.893
      269.093,-732.424
      251.353,-732.507
      237.035,-721.766
      232.063,-704.407
      238.640,-687.419
      230.168,-675.041
      221.696,-662.663
      213.224,-650.284
      204.751,-637.906
      200.030,-652.143
      185.974,-657.381
      173.087,-649.705
      170.998,-634.851
      181.268,-623.919
      196.223,-625.076
      188.088,-612.474
      179.954,-599.871
      171.820,-587.268
      165.618,-583.392
      163.676,-574.575
      155.609,-561.928
      147.543,-549.282
      143.252,-547.408
      140.046,-542.873
      139.459,-536.454
      131.530,-523.721
      123.601,-510.988
      108.469,-518.757
      90.813,-521.017
      91.705,-535.991
      92.596,-550.964
      93.488,-565.938
      94.380,-580.911
      105.371,-588.588
      109.900,-601.001
      106.534,-613.577
      96.708,-621.819
      97.519,-636.798
      98.330,-651.776
      112.273,-658.088
      121.677,-670.163
      124.380,-685.228
      119.762,-699.820
      108.883,-710.587
      94.244,-715.053
      79.208,-712.193
      67.230,-702.664
      61.064,-688.655
      62.126,-673.387
    " />
    <g id="pairs">
      <line class="basepairs" id="1,570" x1="83.35175" y1="-652.58630" x2="98.32983" y2="-651.77563" />
      <line class="basepairs" id="2,569" x1="82.54106" y1="-637.60822" x2="97.51914" y2="-636.79755" />
      <line class="basepairs" id="3,568" x1="81.73038" y1="-622.63013" x2="96.70846" y2="-621.81946" />
      <line class="basepairs" id="6,564" x1="79.40617" y1="-581.80304" x2="94.37965" y2="-580.91138" />
      <line class="basepairs" id="7,563" x1="78.51451" y1="-566.82959" x2="93.48798" y2="-565.93793" />
      <line class="basepairs" id="8,562" x1="77.62284" y1="-551.85608" x2="92.59631" y2="-550.96442" />
      <line class="basepairs" id="9,561" x1="76.73118" y1="-536.88263" x2="91.70465" y2="-535.99097" />
      <line class="basepairs" id="10,560" x1="75.83952" y1="-521.90918" x2="90.81299" y2="-521.01746" />
      <line class="basepairs" id="11,125" x1="61.68797" y1="-516.93579" x2="50.56435" y2="-506.87277" />
      <line class="basepairs" id="12,124" x1="51.62492" y1="-528.05945" x2="40.50130" y2="-517.99640" />
      <line class="basepairs" id="13,123" x1="41.56187" y1="-539.18311" x2="30.43825" y2="-529.12000" />
      <line class="basepairs" id="14,122" x1="31.49882" y1="-550.30670" x2="20.37520" y2="-540.24365" />
      <line class="basepairs" id="15,121" x1="21.43577" y1="-561.43030" x2="10.31215" y2="-551.36731" />
      <line class="basepairs" id="19,118" x1="-6.13197" y1="-591.74390" x2="-17.20102" y2="-581.62085" />
      <line class="basepairs" id="20,117" x1="-16.25502" y1="-602.81299" x2="-27.32407" y2="-592.68994" />
      <line class="basepairs" id="21,116" x1="-26.37807" y1="-613.88202" x2="-37.44712" y2="-603.75897" />
      <line class="basepairs" id="32,113" x1="-64.09255" y1="-653.40344" x2="-74.71348" y2="-642.81116" />
      <line class="basepairs" id="33,112" x1="-74.68481" y1="-664.02435" x2="-85.30573" y2="-653.43213" />
      <line class="basepairs" id="34,111" x1="-85.27706" y1="-674.64526" x2="-95.89799" y2="-664.05298" />
      <line class="basepairs" id="35,110" x1="-95.86931" y1="-685.26624" x2="-106.49024" y2="-674.67395" />
      <line class="basepairs" id="37,108" x1="-114.60168" y1="-704.04932" x2="-125.22260" y2="-693.45703" />
      <line class="basepairs" id="38,107" x1="-125.19392" y1="-714.67023" x2="-135.81487" y2="-704.07800" />
      <line class="basepairs" id="39,106" x1="-135.78618" y1="-725.29114" x2="-146.40710" y2="-714.69885" />
      <line class="basepairs" id="40,105" x1="-146.37843" y1="-735.91211" x2="-156.99936" y2="-725.31982" />
      <line class="basepairs" id="41,104" x1="-156.97069" y1="-746.53296" x2="-167.59161" y2="-735.94073" />
      <line class="basepairs" id="42,103" x1="-167.56294" y1="-757.15393" x2="-178.18387" y2="-746.56165" />
      <line class="basepairs" id="43,102" x1="-178.15520" y1="-767.77490" x2="-188.77612" y2="-757.18262" />
      <line class="basepairs" id="44,101" x1="-188.74745" y1="-778.39575" x2="-199.36838" y2="-767.80353" />
      <line class="basepairs" id="45,98" x1="-199.28212" y1="-789.07385" x2="-210.01698" y2="-778.59705" />
      <line class="basepairs" id="46,97" x1="-209.75890" y1="-799.80872" x2="-220.49376" y2="-789.33191" />
      <line class="basepairs" id="47,96" x1="-220.23567" y1="-810.54358" x2="-230.97054" y2="-800.06677" />
      <line class="basepairs" id="48,95" x1="-230.71245" y1="-821.27844" x2="-241.44731" y2="-810.80164" />
      <line class="basepairs" id="49,94" x1="-241.18922" y1="-832.01331" x2="-251.92409" y2="-821.53650" />
      <line class="basepairs" id="50,93" x1="-251.66602" y1="-842.74811" x2="-262.40088" y2="-832.27136" />
      <line class="basepairs" id="51,92" x1="-262.14279" y1="-853.48297" x2="-272.87766" y2="-843.00623" />
      <line class="basepairs" id="52,91" x1="-272.61957" y1="-864.21783" x2="-283.35443" y2="-853.74109" />
      <line class="basepairs" id="54,87" x1="-295.76749" y1="-888.18085" x2="-306.61502" y2="-877.82080" />
      <line class="basepairs" id="55,85" x1="-306.09821" y1="-899.05634" x2="-317.00159" y2="-888.75507" />
      <line class="basepairs" id="56,83" x1="-316.36993" y1="-909.98755" x2="-327.32889" y2="-899.74536" />
      <line class="basepairs" id="57,82" x1="-326.61212" y1="-920.94647" x2="-337.57104" y2="-910.70435" />
      <line class="basepairs" id="58,81" x1="-336.85428" y1="-931.90540" x2="-347.81320" y2="-921.66327" />
      <line class="basepairs" id="60,79" x1="-354.96750" y1="-951.28625" x2="-365.92642" y2="-941.04407" />
      <line class="basepairs" id="61,78" x1="-365.20966" y1="-962.24518" x2="-376.16858" y2="-952.00299" />
      <line class="basepairs" id="62,77" x1="-375.45181" y1="-973.20410" x2="-386.41074" y2="-962.96191" />
      <line class="basepairs" id="63,76" x1="-385.69397" y1="-984.16302" x2="-396.65292" y2="-973.92084" />
      <line class="basepairs" id="64,75" x1="-395.93616" y1="-995.12195" x2="-406.89508" y2="-984.87976" />
      <line class="basepairs" id="66,74" x1="-406.26343" y1="-1006.11224" x2="-417.16684" y2="-995.81097" />
      <line class="basepairs" id="126,191" x1="45.47641" y1="-492.76202" x2="47.61843" y2="-477.91577" />
      <line class="basepairs" id="127,190" x1="30.63014" y1="-490.62003" x2="32.77216" y2="-475.77374" />
      <line class="basepairs" id="128,189" x1="15.78387" y1="-488.47800" x2="17.92589" y2="-473.63171" />
      <line class="basepairs" id="129,188" x1="0.93760" y1="-486.33597" x2="3.07962" y2="-471.48972" />
      <line class="basepairs" id="130,187" x1="-13.90867" y1="-484.19397" x2="-11.76665" y2="-469.34769" />
      <line class="basepairs" id="131,186" x1="-28.75494" y1="-482.05194" x2="-26.61292" y2="-467.20566" />
      <line class="basepairs" id="132,185" x1="-43.60121" y1="-479.90991" x2="-41.45919" y2="-465.06366" />
      <line class="basepairs" id="133,184" x1="-58.44748" y1="-477.76788" x2="-56.30546" y2="-462.92163" />
      <line class="basepairs" id="134,183" x1="-73.29375" y1="-475.62585" x2="-71.15173" y2="-460.77960" />
      <line class="basepairs" id="136,182" x1="-88.21442" y1="-473.43192" x2="-85.99216" y2="-458.59744" />
      <line class="basepairs" id="137,181" x1="-103.04889" y1="-471.20966" x2="-100.82663" y2="-456.37518" />
      <line class="basepairs" id="140,178" x1="-139.30725" y1="-465.77802" x2="-137.08498" y2="-450.94354" />
      <line class="basepairs" id="141,177" x1="-154.14172" y1="-463.55573" x2="-151.91945" y2="-448.72125" />
      <line class="basepairs" id="142,176" x1="-168.97620" y1="-461.33347" x2="-166.75392" y2="-446.49899" />
      <line class="basepairs" id="148,175" x1="-184.17947" y1="-458.84540" x2="-181.55699" y2="-444.07642" />
      <line class="basepairs" id="149,174" x1="-198.94844" y1="-456.22290" x2="-196.32597" y2="-441.45395" />
      <line class="basepairs" id="150,173" x1="-213.71742" y1="-453.60043" x2="-211.09496" y2="-438.83148" />
      <line class="basepairs" id="152,171" x1="-239.83630" y1="-448.96262" x2="-237.21384" y2="-434.19363" />
      <line class="basepairs" id="153,170" x1="-254.60527" y1="-446.34015" x2="-251.98280" y2="-431.57117" />
      <line class="basepairs" id="155,169" x1="-269.44693" y1="-443.66336" x2="-266.74463" y2="-428.90878" />
      <line class="basepairs" id="156,168" x1="-284.20151" y1="-440.96106" x2="-281.49921" y2="-426.20648" />
      <line class="basepairs" id="157,167" x1="-298.95609" y1="-438.25879" x2="-296.25378" y2="-423.50418" />
      <line class="basepairs" id="158,166" x1="-313.71066" y1="-435.55649" x2="-311.00836" y2="-420.80191" />
      <line class="basepairs" id="159,165" x1="-328.46524" y1="-432.85419" x2="-325.76297" y2="-418.09961" />
      <line class="basepairs" id="195,402" x1="96.23772" y1="-425.19626" x2="111.18163" y2="-426.49237" />
      <line class="basepairs" id="196,401" x1="97.53384" y1="-410.25235" x2="112.47774" y2="-411.54846" />
      <line class="basepairs" id="197,400" x1="98.82996" y1="-395.30844" x2="113.77385" y2="-396.60455" />
      <line class="basepairs" id="198,399" x1="100.12607" y1="-380.36456" x2="115.06996" y2="-381.66068" />
      <line class="basepairs" id="199,398" x1="101.42218" y1="-365.42065" x2="116.36608" y2="-366.71677" />
      <line class="basepairs" id="200,397" x1="102.71829" y1="-350.47675" x2="117.66219" y2="-351.77289" />
      <line class="basepairs" id="201,396" x1="104.01440" y1="-335.53287" x2="118.95831" y2="-336.82898" />
      <line class="basepairs" id="202,386" x1="104.94655" y1="-320.56186" x2="119.93581" y2="-321.12949" />
      <line class="basepairs" id="203,385" x1="105.51418" y1="-305.57260" x2="120.50343" y2="-306.14023" />
      <line class="basepairs" id="204,384" x1="106.08179" y1="-290.58334" x2="121.07105" y2="-291.15097" />
      <line class="basepairs" id="205,383" x1="106.64942" y1="-275.59409" x2="121.63867" y2="-276.16171" />
      <line class="basepairs" id="206,382" x1="107.21704" y1="-260.60483" x2="122.20630" y2="-261.17245" />
      <line class="basepairs" id="207,381" x1="107.78466" y1="-245.61557" x2="122.77392" y2="-246.18320" />
      <line class="basepairs" id="208,380" x1="108.35229" y1="-230.62631" x2="123.34154" y2="-231.19394" />
      <line class="basepairs" id="209,378" x1="108.87938" y1="-215.63557" x2="123.87148" y2="-216.12215" />
      <line class="basepairs" id="210,377" x1="109.36594" y1="-200.64348" x2="124.35805" y2="-201.13004" />
      <line class="basepairs" id="211,376" x1="109.85251" y1="-185.65137" x2="124.84461" y2="-186.13792" />
      <line class="basepairs" id="212,375" x1="110.33907" y1="-170.65926" x2="125.33118" y2="-171.14583" />
      <line class="basepairs" id="213,371" x1="110.70403" y1="-155.66370" x2="125.70205" y2="-155.90701" />
      <line class="basepairs" id="215,369" x1="111.13432" y1="-129.13974" x2="126.13235" y2="-129.38306" />
      <line class="basepairs" id="216,368" x1="111.37764" y1="-114.14172" x2="126.37566" y2="-114.38504" />
      <line class="basepairs" id="217,367" x1="111.62095" y1="-99.14371" x2="126.61898" y2="-99.38699" />
      <line class="basepairs" id="218,366" x1="111.86427" y1="-84.14566" x2="126.86229" y2="-84.38898" />
      <line class="basepairs" id="219,365" x1="112.10758" y1="-69.14764" x2="127.10561" y2="-69.39096" />
      <line class="basepairs" id="220,364" x1="112.35089" y1="-54.14963" x2="127.34892" y2="-54.39291" />
      <line class="basepairs" id="221,363" x1="112.59421" y1="-39.15158" x2="127.59223" y2="-39.39490" />
      <line class="basepairs" id="222,362" x1="112.83752" y1="-24.15356" x2="127.83555" y2="-24.39688" />
      <line class="basepairs" id="224,361" x1="113.12292" y1="-9.07516" x2="128.11942" y2="-9.39957" />
      <line class="basepairs" id="225,360" x1="113.44733" y1="5.92133" x2="128.44382" y2="5.59692" />
      <line class="basepairs" id="226,359" x1="113.77174" y1="20.91782" x2="128.76822" y2="20.59341" />
      <line class="basepairs" id="231,354" x1="114.98927" y1="77.20126" x2="129.98576" y2="76.87686" />
      <line class="basepairs" id="232,353" x1="115.31367" y1="92.19775" x2="130.31017" y2="91.87335" />
      <line class="basepairs" id="233,352" x1="115.63808" y1="107.19424" x2="130.63458" y2="106.86984" />
      <line class="basepairs" id="235,348" x1="116.18763" y1="140.50717" x2="131.18675" y2="140.34497" />
      <line class="basepairs" id="236,347" x1="116.34985" y1="155.50629" x2="131.34897" y2="155.34406" />
      <line class="basepairs" id="238,345" x1="116.63672" y1="182.03217" x2="131.63585" y2="181.87000" />
      <line class="basepairs" id="239,344" x1="116.79893" y1="197.03131" x2="131.79805" y2="196.86908" />
      <line class="basepairs" id="240,343" x1="116.96114" y1="212.03046" x2="131.96027" y2="211.86823" />
      <line class="basepairs" id="241,342" x1="117.12336" y1="227.02954" x2="132.12248" y2="226.86737" />
      <line class="basepairs" id="242,341" x1="117.28557" y1="242.02869" x2="132.28470" y2="241.86646" />
      <line class="basepairs" id="243,340" x1="117.44778" y1="257.02783" x2="132.44691" y2="256.86560" />
      <line class="basepairs" id="244,339" x1="117.61000" y1="272.02692" x2="132.60912" y2="271.86469" />
      <line class="basepairs" id="245,338" x1="117.77221" y1="287.02606" x2="132.77133" y2="286.86383" />
      <line class="basepairs" id="246,337" x1="117.93443" y1="302.02515" x2="132.93355" y2="301.86298" />
      <line class="basepairs" id="247,336" x1="118.09664" y1="317.02429" x2="133.09576" y2="316.86206" />
      <line class="basepairs" id="252,283" x1="95.44221" y1="381.72321" x2="109.98059" y2="385.41583" />
      <line class="basepairs" id="253,282" x1="91.74959" y1="396.26160" x2="106.28796" y2="399.95422" />
      <line class="basepairs" id="254,281" x1="88.05696" y1="410.79993" x2="102.59534" y2="414.49255" />
      <line class="basepairs" id="255,280" x1="84.36433" y1="425.33832" x2="98.90271" y2="429.03094" />
      <line class="basepairs" id="256,279" x1="80.67171" y1="439.87671" x2="95.21008" y2="443.56934" />
      <line class="basepairs" id="259,277" x1="73.19176" y1="469.64319" x2="87.74990" y2="473.25714" />
      <line class="basepairs" id="260,276" x1="69.57780" y1="484.20129" x2="84.13594" y2="487.81525" />
      <line class="basepairs" id="261,275" x1="65.96384" y1="498.75946" x2="80.52198" y2="502.37341" />
      <line class="basepairs" id="262,274" x1="62.34988" y1="513.31757" x2="76.90802" y2="516.93152" />
      <line class="basepairs" id="286,331" x1="139.96964" y1="386.22681" x2="154.68633" y2="383.32532" />
      <line class="basepairs" id="287,330" x1="142.87112" y1="400.94348" x2="157.58783" y2="398.04199" />
      <line class="basepairs" id="288,329" x1="145.77261" y1="415.66022" x2="160.48932" y2="412.75873" />
      <line class="basepairs" id="289,328" x1="148.67410" y1="430.37689" x2="163.39081" y2="427.47540" />
      <line class="basepairs" id="290,327" x1="151.57559" y1="445.09363" x2="166.29230" y2="442.19214" />
      <line class="basepairs" id="291,326" x1="154.47708" y1="459.81030" x2="169.19379" y2="456.90881" />
      <line class="basepairs" id="292,325" x1="157.37857" y1="474.52704" x2="172.09528" y2="471.62555" />
      <line class="basepairs" id="295,323" x1="163.39192" y1="504.62402" x2="178.09271" y2="501.64301" />
      <line class="basepairs" id="296,322" x1="166.37294" y1="519.32483" x2="181.07375" y2="516.34381" />
      <line class="basepairs" id="297,321" x1="169.35397" y1="534.02563" x2="184.05476" y2="531.04462" />
      <line class="basepairs" id="301,320" x1="172.50441" y1="548.93988" x2="187.15492" y2="545.72076" />
      <line class="basepairs" id="302,319" x1="175.72351" y1="563.59039" x2="190.37402" y2="560.37128" />
      <line class="basepairs" id="303,318" x1="178.94261" y1="578.24084" x2="193.59311" y2="575.02179" />
      <line class="basepairs" id="305,316" x1="184.63556" y1="604.15027" x2="199.28607" y2="600.93115" />
      <line class="basepairs" id="306,315" x1="187.85466" y1="618.80078" x2="202.50516" y2="615.58167" />
      <line class="basepairs" id="307,314" x1="191.07375" y1="633.45129" x2="205.72426" y2="630.23218" />
      <line class="basepairs" id="409,500" x1="147.92744" y1="-476.05725" x2="144.90669" y2="-490.74994" />
      <line class="basepairs" id="410,499" x1="162.62013" y1="-479.07803" x2="159.59938" y2="-493.77072" />
      <line class="basepairs" id="411,498" x1="177.31282" y1="-482.09879" x2="174.29205" y2="-496.79147" />
      <line class="basepairs" id="412,497" x1="192.00551" y1="-485.11954" x2="188.98474" y2="-499.81223" />
      <line class="basepairs" id="414,494" x1="222.00471" y1="-491.20782" x2="219.06345" y2="-505.91663" />
      <line class="basepairs" id="415,493" x1="236.71352" y1="-494.14911" x2="233.77225" y2="-508.85791" />
      <line class="basepairs" id="416,492" x1="251.42232" y1="-497.09039" x2="248.48105" y2="-511.79919" />
      <line class="basepairs" id="419,489" x1="287.37350" y1="-504.27942" x2="284.43225" y2="-518.98822" />
      <line class="basepairs" id="420,488" x1="302.08234" y1="-507.22070" x2="299.14105" y2="-521.92950" />
      <line class="basepairs" id="421,487" x1="316.79114" y1="-510.16196" x2="313.84985" y2="-524.87073" />
      <line class="basepairs" id="422,486" x1="331.49994" y1="-513.10321" x2="328.55865" y2="-527.81201" />
      <line class="basepairs" id="423,485" x1="346.20874" y1="-516.04449" x2="343.26746" y2="-530.75330" />
      <line class="basepairs" id="424,484" x1="360.91754" y1="-518.98578" x2="357.97629" y2="-533.69458" />
      <line class="basepairs" id="425,483" x1="375.62634" y1="-521.92700" x2="372.68509" y2="-536.63586" />
      <line class="basepairs" id="426,482" x1="390.33514" y1="-524.86829" x2="387.39389" y2="-539.57709" />
      <line class="basepairs" id="427,481" x1="405.04395" y1="-527.80957" x2="402.10269" y2="-542.51837" />
      <line class="basepairs" id="430,480" x1="419.89554" y1="-530.86298" x2="416.79538" y2="-545.53912" />
      <line class="basepairs" id="431,479" x1="434.57169" y1="-533.96313" x2="431.47150" y2="-548.63928" />
      <line class="basepairs" id="433,477" x1="460.52637" y1="-539.44580" x2="457.42621" y2="-554.12195" />
      <line class="basepairs" id="434,476" x1="475.20251" y1="-542.54596" x2="472.10236" y2="-557.22205" />
      <line class="basepairs" id="436,474" x1="501.15720" y1="-548.02856" x2="498.05704" y2="-562.70471" />
      <line class="basepairs" id="437,473" x1="515.83331" y1="-551.12872" x2="512.73315" y2="-565.80487" />
      <line class="basepairs" id="440,468" x1="559.00189" y1="-560.01105" x2="556.06061" y2="-574.71985" />
      <line class="basepairs" id="441,467" x1="573.71069" y1="-562.95233" x2="570.76947" y2="-577.66113" />
      <line class="basepairs" id="442,466" x1="588.41949" y1="-565.89355" x2="585.47827" y2="-580.60242" />
      <line class="basepairs" id="444,464" x1="614.43201" y1="-571.09521" x2="611.49072" y2="-585.80402" />
      <line class="basepairs" id="445,463" x1="629.14081" y1="-574.03650" x2="626.19952" y2="-588.74530" />
      <line class="basepairs" id="447,461" x1="655.15326" y1="-579.23810" x2="652.21198" y2="-593.94690" />
      <line class="basepairs" id="448,460" x1="669.86206" y1="-582.17938" x2="666.92078" y2="-596.88818" />
      <line class="basepairs" id="449,459" x1="684.57086" y1="-585.12061" x2="681.62958" y2="-599.82947" />
      <line class="basepairs" id="501,558" x1="136.33444" y1="-503.05914" x2="123.60132" y2="-510.98807" />
      <line class="basepairs" id="502,557" x1="144.26335" y1="-515.79230" x2="131.53023" y2="-523.72119" />
      <line class="basepairs" id="503,556" x1="152.19226" y1="-528.52539" x2="139.45914" y2="-536.45435" />
      <line class="basepairs" id="504,553" x1="160.18991" y1="-541.21545" x2="147.54327" y2="-549.28162" />
      <line class="basepairs" id="505,552" x1="168.25604" y1="-553.86212" x2="155.60942" y2="-561.92822" />
      <line class="basepairs" id="506,551" x1="176.32219" y1="-566.50873" x2="163.67555" y2="-574.57489" />
      <line class="basepairs" id="507,549" x1="184.42250" y1="-579.13354" x2="171.81966" y2="-587.26794" />
      <line class="basepairs" id="508,548" x1="192.55690" y1="-591.73633" x2="179.95407" y2="-599.87073" />
      <line class="basepairs" id="509,547" x1="200.69131" y1="-604.33917" x2="188.08849" y2="-612.47357" />
      <line class="basepairs" id="510,546" x1="208.82571" y1="-616.94202" x2="196.22289" y2="-625.07642" />
      <line class="basepairs" id="511,540" x1="217.12975" y1="-629.43372" x2="204.75142" y2="-637.90588" />
      <line class="basepairs" id="512,539" x1="225.60187" y1="-641.81207" x2="213.22354" y2="-650.28418" />
      <line class="basepairs" id="513,538" x1="234.07401" y1="-654.19043" x2="221.69566" y2="-662.66254" />
      <line class="basepairs" id="514,537" x1="242.54613" y1="-666.56873" x2="230.16779" y2="-675.04089" />
      <line class="basepairs" id="515,536" x1="251.01825" y1="-678.94702" x2="238.63992" y2="-687.41919" />
      <line class="basepairs" id="521,532" x1="281.56229" y1="-724.08582" x2="269.09305" y2="-732.42358" />
      <line class="basepairs" id="522,531" x1="289.90005" y1="-736.55499" x2="277.43082" y2="-744.89276" />
      <line class="basepairs" id="523,530" x1="298.23782" y1="-749.02423" x2="285.76859" y2="-757.36200" />
      <line class="basepairs" id="524,529" x1="306.57559" y1="-761.49347" x2="294.10635" y2="-769.83124" />
    </g>
    <g transform="translate(-4.6, 4)" id="seq">
      <text class="nucleotide" x="83.352" y="-652.586">G</text>
      <text class="nucleotide" x="82.541" y="-637.608">C</text>
      <text class="nucleotide" x="81.730" y="-622.630">U</text>
      <text class="nucleotide" x="68.728" y="-611.890">A</text>
      <text class="nucleotide" x="67.544" y="-594.727">U</text>
      <text class="nucleotide" x="79.406" y="-581.803">C</text>
      <text class="nucleotide" x="78.515" y="-566.830">A</text>
      <text class="nucleotide" x="77.623" y="-551.856">G</text>
      <text class="nucleotide" x="76.731" y="-536.883">G</text>
      <text class="nucleotide" x="75.840" y="-521.909">A</text>
      <text class="nucleotide" x="61.688" y="-516.936">G</text>
      <text class="nucleotide" x="51.625" y="-528.059">G</text>
      <text class="nucleotide" x="41.562" y="-539.183">A</text>
      <text class="nucleotide" x="31.499" y="-550.307">G</text>
      <text class="nucleotide" x="21.436" y="-561.430">C</text>
      <text class="nucleotide" x="23.655" y="-574.652">A</text>
      <text class="nucleotide" x="17.967" y="-586.578">A</text>
      <text class="nucleotide" x="6.633" y="-592.984">A</text>
      <text class="nucleotide" x="-6.132" y="-591.744">A</text>
      <text class="nucleotide" x="-16.255" y="-602.813">G</text>
      <text class="nucleotide" x="-26.378" y="-613.882">G</text>
      <text class="nucleotide" x="-23.502" y="-620.121">G</text>
      <text class="nucleotide" x="-22.199" y="-626.844">A</text>
      <text class="nucleotide" x="-22.534" y="-633.663">A</text>
      <text class="nucleotide" x="-24.478" y="-640.184">G</text>
      <text class="nucleotide" x="-27.909" y="-646.035">G</text>
      <text class="nucleotide" x="-32.620" y="-650.885">A</text>
      <text class="nucleotide" x="-38.332" y="-654.462">U</text>
      <text class="nucleotide" x="-44.711" y="-656.567">C</text>
      <text class="nucleotide" x="-51.386" y="-657.090">U</text>
      <text class="nucleotide" x="-57.973" y="-656.012">G</text>
      <text class="nucleotide" x="-64.093" y="-653.403">C</text>
      <text class="nucleotide" x="-74.685" y="-664.024">U</text>
      <text class="nucleotide" x="-85.277" y="-674.645">G</text>
      <text class="nucleotide" x="-95.869" y="-685.266">C</text>
      <text class="nucleotide" x="-100.136" y="-700.501">U</text>
      <text class="nucleotide" x="-114.602" y="-704.049">G</text>
      <text class="nucleotide" x="-125.194" y="-714.670">G</text>
      <text class="nucleotide" x="-135.786" y="-725.291">G</text>
      <text class="nucleotide" x="-146.378" y="-735.912">G</text>
      <text class="nucleotide" x="-156.971" y="-746.533">G</text>
      <text class="nucleotide" x="-167.563" y="-757.154">C</text>
      <text class="nucleotide" x="-178.155" y="-767.775">U</text>
      <text class="nucleotide" x="-188.747" y="-778.396">C</text>
      <text class="nucleotide" x="-199.282" y="-789.074">G</text>
      <text class="nucleotide" x="-209.759" y="-799.809">C</text>
      <text class="nucleotide" x="-220.236" y="-810.544">U</text>
      <text class="nucleotide" x="-230.712" y="-821.278">G</text>
      <text class="nucleotide" x="-241.189" y="-832.013">G</text>
      <text class="nucleotide" x="-251.666" y="-842.748">G</text>
      <text class="nucleotide" x="-262.143" y="-853.483">U</text>
      <text class="nucleotide" x="-272.620" y="-864.218">G</text>
      <text class="nucleotide" x="-276.829" y="-884.000">A</text>
      <text class="nucleotide" x="-295.767" y="-888.181">C</text>
      <text class="nucleotide" x="-306.098" y="-899.056">C</text>
      <text class="nucleotide" x="-316.370" y="-909.988">C</text>
      <text class="nucleotide" x="-326.612" y="-920.946">U</text>
      <text class="nucleotide" x="-336.854" y="-931.905">U</text>
      <text class="nucleotide" x="-340.624" y="-947.271">U</text>
      <text class="nucleotide" x="-354.967" y="-951.286">G</text>
      <text class="nucleotide" x="-365.210" y="-962.245">C</text>
      <text class="nucleotide" x="-375.452" y="-973.204">C</text>
      <text class="nucleotide" x="-385.694" y="-984.163">A</text>
      <text class="nucleotide" x="-395.936" y="-995.122">G</text>
      <text class="nucleotide" x="-399.458" y="-1003.435">A</text>
      <text class="nucleotide" x="-406.263" y="-1006.112">C</text>
      <text class="nucleotide" x="-404.279" y="-1021.623">G</text>
      <text class="nucleotide" x="-412.773" y="-1034.753">A</text>
      <text class="nucleotide" x="-427.735" y="-1039.302">A</text>
      <text class="nucleotide" x="-442.099" y="-1033.122">A</text>
      <text class="nucleotide" x="-449.084" y="-1019.131">A</text>
      <text class="nucleotide" x="-445.392" y="-1003.936">G</text>
      <text class="nucleotide" x="-432.766" y="-994.710">A</text>
      <text class="nucleotide" x="-417.167" y="-995.811">G</text>
      <text class="nucleotide" x="-406.895" y="-984.880">C</text>
      <text class="nucleotide" x="-396.653" y="-973.921">U</text>
      <text class="nucleotide" x="-386.411" y="-962.962">G</text>
      <text class="nucleotide" x="-376.169" y="-952.003">G</text>
      <text class="nucleotide" x="-365.926" y="-941.044">U</text>
      <text class="nucleotide" x="-362.889" y="-926.462">C</text>
      <text class="nucleotide" x="-347.813" y="-921.663">G</text>
      <text class="nucleotide" x="-337.571" y="-910.704">A</text>
      <text class="nucleotide" x="-327.329" y="-899.745">G</text>
      <text class="nucleotide" x="-325.080" y="-892.787">A</text>
      <text class="nucleotide" x="-317.002" y="-888.755">G</text>
      <text class="nucleotide" x="-314.715" y="-881.809">A</text>
      <text class="nucleotide" x="-306.615" y="-877.821">G</text>
      <text class="nucleotide" x="-307.771" y="-867.796">A</text>
      <text class="nucleotide" x="-303.169" y="-858.569">A</text>
      <text class="nucleotide" x="-294.089" y="-853.240">G</text>
      <text class="nucleotide" x="-283.354" y="-853.741">C</text>
      <text class="nucleotide" x="-272.878" y="-843.006">G</text>
      <text class="nucleotide" x="-262.401" y="-832.271">C</text>
      <text class="nucleotide" x="-251.924" y="-821.536">U</text>
      <text class="nucleotide" x="-241.447" y="-810.802">U</text>
      <text class="nucleotide" x="-230.971" y="-800.067">G</text>
      <text class="nucleotide" x="-220.494" y="-789.332">G</text>
      <text class="nucleotide" x="-210.017" y="-778.597">C</text>
      <text class="nucleotide" x="-209.170" y="-773.992">A</text>
      <text class="nucleotide" x="-205.485" y="-769.837">G</text>
      <text class="nucleotide" x="-199.368" y="-767.804">G</text>
      <text class="nucleotide" x="-188.776" y="-757.183">A</text>
      <text class="nucleotide" x="-178.184" y="-746.562">G</text>
      <text class="nucleotide" x="-167.592" y="-735.941">C</text>
      <text class="nucleotide" x="-156.999" y="-725.320">U</text>
      <text class="nucleotide" x="-146.407" y="-714.699">C</text>
      <text class="nucleotide" x="-135.815" y="-704.078">U</text>
      <text class="nucleotide" x="-125.223" y="-693.457">C</text>
      <text class="nucleotide" x="-121.714" y="-678.982">U</text>
      <text class="nucleotide" x="-106.490" y="-674.674">G</text>
      <text class="nucleotide" x="-95.898" y="-664.053">C</text>
      <text class="nucleotide" x="-85.306" y="-653.432">G</text>
      <text class="nucleotide" x="-74.713" y="-642.811">G</text>
      <text class="nucleotide" x="-76.989" y="-619.883">G</text>
      <text class="nucleotide" x="-61.023" y="-602.892">A</text>
      <text class="nucleotide" x="-37.447" y="-603.759">C</text>
      <text class="nucleotide" x="-27.324" y="-592.690">C</text>
      <text class="nucleotide" x="-17.201" y="-581.621">U</text>
      <text class="nucleotide" x="-18.641" y="-564.818">A</text>
      <text class="nucleotide" x="-7.221" y="-551.953">A</text>
      <text class="nucleotide" x="10.312" y="-551.367">G</text>
      <text class="nucleotide" x="20.375" y="-540.244">C</text>
      <text class="nucleotide" x="30.438" y="-529.120">U</text>
      <text class="nucleotide" x="40.501" y="-517.996">C</text>
      <text class="nucleotide" x="50.564" y="-506.873">C</text>
      <text class="nucleotide" x="45.476" y="-492.762">G</text>
      <text class="nucleotide" x="30.630" y="-490.620">U</text>
      <text class="nucleotide" x="15.784" y="-488.478">G</text>
      <text class="nucleotide" x="0.938" y="-486.336">G</text>
      <text class="nucleotide" x="-13.909" y="-484.194">C</text>
      <text class="nucleotide" x="-28.755" y="-482.052">U</text>
      <text class="nucleotide" x="-43.601" y="-479.910">G</text>
      <text class="nucleotide" x="-58.447" y="-477.768">C</text>
      <text class="nucleotide" x="-73.294" y="-475.626">U</text>
      <text class="nucleotide" x="-82.129" y="-477.487">C</text>
      <text class="nucleotide" x="-88.214" y="-473.432">G</text>
      <text class="nucleotide" x="-103.049" y="-471.210">G</text>
      <text class="nucleotide" x="-115.673" y="-480.335">G</text>
      <text class="nucleotide" x="-130.686" y="-477.870">A</text>
      <text class="nucleotide" x="-139.307" y="-465.778">U</text>
      <text class="nucleotide" x="-154.142" y="-463.556">C</text>
      <text class="nucleotide" x="-168.976" y="-461.333">C</text>
      <text class="nucleotide" x="-161.763" y="-474.485">C</text>
      <text class="nucleotide" x="-167.496" y="-488.346">U</text>
      <text class="nucleotide" x="-181.892" y="-492.559">A</text>
      <text class="nucleotide" x="-194.194" y="-483.976">C</text>
      <text class="nucleotide" x="-195.209" y="-469.010">G</text>
      <text class="nucleotide" x="-184.179" y="-458.845">U</text>
      <text class="nucleotide" x="-198.948" y="-456.223">C</text>
      <text class="nucleotide" x="-213.717" y="-453.600">C</text>
      <text class="nucleotide" x="-228.658" y="-458.806">G</text>
      <text class="nucleotide" x="-239.836" y="-448.963">C</text>
      <text class="nucleotide" x="-254.605" y="-446.340">U</text>
      <text class="nucleotide" x="-263.496" y="-447.913">G</text>
      <text class="nucleotide" x="-269.447" y="-443.663">C</text>
      <text class="nucleotide" x="-284.202" y="-440.961">U</text>
      <text class="nucleotide" x="-298.956" y="-438.259">G</text>
      <text class="nucleotide" x="-313.711" y="-435.556">C</text>
      <text class="nucleotide" x="-328.465" y="-432.854">U</text>
      <text class="nucleotide" x="-342.431" y="-440.749">G</text>
      <text class="nucleotide" x="-357.257" y="-434.619">A</text>
      <text class="nucleotide" x="-361.569" y="-419.166">A</text>
      <text class="nucleotide" x="-352.060" y="-406.245">G</text>
      <text class="nucleotide" x="-336.024" y="-405.767">G</text>
      <text class="nucleotide" x="-325.763" y="-418.100">A</text>
      <text class="nucleotide" x="-311.008" y="-420.802">G</text>
      <text class="nucleotide" x="-296.254" y="-423.504">C</text>
      <text class="nucleotide" x="-281.499" y="-426.206">A</text>
      <text class="nucleotide" x="-266.745" y="-428.909">G</text>
      <text class="nucleotide" x="-251.983" y="-431.571">A</text>
      <text class="nucleotide" x="-237.214" y="-434.194">G</text>
      <text class="nucleotide" x="-223.330" y="-428.801">G</text>
      <text class="nucleotide" x="-211.095" y="-438.831">G</text>
      <text class="nucleotide" x="-196.326" y="-441.454">G</text>
      <text class="nucleotide" x="-181.557" y="-444.076">A</text>
      <text class="nucleotide" x="-166.754" y="-446.499">G</text>
      <text class="nucleotide" x="-151.919" y="-448.721">G</text>
      <text class="nucleotide" x="-137.085" y="-450.944">A</text>
      <text class="nucleotide" x="-125.299" y="-441.909">C</text>
      <text class="nucleotide" x="-110.223" y="-443.951">G</text>
      <text class="nucleotide" x="-100.827" y="-456.375">C</text>
      <text class="nucleotide" x="-85.992" y="-458.597">C</text>
      <text class="nucleotide" x="-71.152" y="-460.780">A</text>
      <text class="nucleotide" x="-56.305" y="-462.922">G</text>
      <text class="nucleotide" x="-41.459" y="-465.064">C</text>
      <text class="nucleotide" x="-26.613" y="-467.206">G</text>
      <text class="nucleotide" x="-11.767" y="-469.348">G</text>
      <text class="nucleotide" x="3.080" y="-471.490">U</text>
      <text class="nucleotide" x="17.926" y="-473.632">U</text>
      <text class="nucleotide" x="32.772" y="-475.774">G</text>
      <text class="nucleotide" x="47.618" y="-477.916">C</text>
      <text class="nucleotide" x="50.651" y="-456.576">U</text>
      <text class="nucleotide" x="61.603" y="-439.164">U</text>
      <text class="nucleotide" x="77.894" y="-428.291">A</text>
      <text class="nucleotide" x="96.238" y="-425.196">C</text>
      <text class="nucleotide" x="97.534" y="-410.252">U</text>
      <text class="nucleotide" x="98.830" y="-395.308">G</text>
      <text class="nucleotide" x="100.126" y="-380.365">G</text>
      <text class="nucleotide" x="101.422" y="-365.421">A</text>
      <text class="nucleotide" x="102.718" y="-350.477">G</text>
      <text class="nucleotide" x="104.014" y="-335.533">C</text>
      <text class="nucleotide" x="104.947" y="-320.562">C</text>
      <text class="nucleotide" x="105.514" y="-305.573">U</text>
      <text class="nucleotide" x="106.082" y="-290.583">G</text>
      <text class="nucleotide" x="106.649" y="-275.594">G</text>
      <text class="nucleotide" x="107.217" y="-260.605">A</text>
      <text class="nucleotide" x="107.785" y="-245.616">G</text>
      <text class="nucleotide" x="108.352" y="-230.626">G</text>
      <text class="nucleotide" x="108.879" y="-215.636">A</text>
      <text class="nucleotide" x="109.366" y="-200.643">A</text>
      <text class="nucleotide" x="109.853" y="-185.651">A</text>
      <text class="nucleotide" x="110.339" y="-170.659">A</text>
      <text class="nucleotide" x="110.704" y="-155.664">U</text>
      <text class="nucleotide" x="103.192" y="-141.740">G</text>
      <text class="nucleotide" x="111.134" y="-129.140">G</text>
      <text class="nucleotide" x="111.378" y="-114.142">A</text>
      <text class="nucleotide" x="111.621" y="-99.144">A</text>
      <text class="nucleotide" x="111.864" y="-84.146">A</text>
      <text class="nucleotide" x="112.108" y="-69.148">C</text>
      <text class="nucleotide" x="112.351" y="-54.150">A</text>
      <text class="nucleotide" x="112.594" y="-39.152">U</text>
      <text class="nucleotide" x="112.838" y="-24.154">C</text>
      <text class="nucleotide" x="109.872" y="-15.626">A</text>
      <text class="nucleotide" x="113.123" y="-9.075">U</text>
      <text class="nucleotide" x="113.447" y="5.921">U</text>
      <text class="nucleotide" x="113.772" y="20.918">C</text>
      <text class="nucleotide" x="100.748" y="28.938">C</text>
      <text class="nucleotide" x="93.534" y="42.312">C</text>
      <text class="nucleotide" x="93.980" y="57.400">U</text>
      <text class="nucleotide" x="101.866" y="70.154">A</text>
      <text class="nucleotide" x="114.989" y="77.201">G</text>
      <text class="nucleotide" x="115.314" y="92.198">A</text>
      <text class="nucleotide" x="115.638" y="107.194">A</text>
      <text class="nucleotide" x="105.206" y="124.521">A</text>
      <text class="nucleotide" x="116.188" y="140.507">C</text>
      <text class="nucleotide" x="116.350" y="155.506">A</text>
      <text class="nucleotide" x="108.762" y="169.389">G</text>
      <text class="nucleotide" x="116.637" y="182.032">U</text>
      <text class="nucleotide" x="116.799" y="197.031">U</text>
      <text class="nucleotide" x="116.961" y="212.030">G</text>
      <text class="nucleotide" x="117.123" y="227.030">A</text>
      <text class="nucleotide" x="117.286" y="242.029">A</text>
      <text class="nucleotide" x="117.448" y="257.028">G</text>
      <text class="nucleotide" x="117.610" y="272.027">U</text>
      <text class="nucleotide" x="117.772" y="287.026">U</text>
      <text class="nucleotide" x="117.934" y="302.025">G</text>
      <text class="nucleotide" x="118.097" y="317.024">A</text>
      <text class="nucleotide" x="103.903" y="321.590">C</text>
      <text class="nucleotide" x="92.319" y="332.337">A</text>
      <text class="nucleotide" x="86.020" y="347.794">G</text>
      <text class="nucleotide" x="86.866" y="365.358">A</text>
      <text class="nucleotide" x="95.442" y="381.723">C</text>
      <text class="nucleotide" x="91.750" y="396.262">C</text>
      <text class="nucleotide" x="88.057" y="410.800">U</text>
      <text class="nucleotide" x="84.364" y="425.338">A</text>
      <text class="nucleotide" x="80.672" y="439.877">G</text>
      <text class="nucleotide" x="70.054" y="447.080">A</text>
      <text class="nucleotide" x="67.238" y="459.188">G</text>
      <text class="nucleotide" x="73.192" y="469.643">G</text>
      <text class="nucleotide" x="69.578" y="484.201">U</text>
      <text class="nucleotide" x="65.964" y="498.759">U</text>
      <text class="nucleotide" x="62.350" y="513.318">G</text>
      <text class="nucleotide" x="47.468" y="516.894">A</text>
      <text class="nucleotide" x="35.960" y="526.985">C</text>
      <text class="nucleotide" x="30.471" y="541.272">A</text>
      <text class="nucleotide" x="32.262" y="556.473">A</text>
      <text class="nucleotide" x="40.921" y="569.093">A</text>
      <text class="nucleotide" x="54.459" y="576.234">A</text>
      <text class="nucleotide" x="69.765" y="576.253">G</text>
      <text class="nucleotide" x="83.321" y="569.148">G</text>
      <text class="nucleotide" x="92.012" y="556.549">A</text>
      <text class="nucleotide" x="93.842" y="541.354">C</text>
      <text class="nucleotide" x="88.390" y="527.052">A</text>
      <text class="nucleotide" x="76.908" y="516.932">C</text>
      <text class="nucleotide" x="80.522" y="502.373">G</text>
      <text class="nucleotide" x="84.136" y="487.815">A</text>
      <text class="nucleotide" x="87.750" y="473.257">C</text>
      <text class="nucleotide" x="100.589" y="461.230">A</text>
      <text class="nucleotide" x="95.210" y="443.569">C</text>
      <text class="nucleotide" x="98.903" y="429.031">U</text>
      <text class="nucleotide" x="102.595" y="414.493">A</text>
      <text class="nucleotide" x="106.288" y="399.954">G</text>
      <text class="nucleotide" x="109.981" y="385.416">G</text>
      <text class="nucleotide" x="117.478" y="385.619">G</text>
      <text class="nucleotide" x="132.472" y="386.024">A</text>
      <text class="nucleotide" x="139.970" y="386.227">A</text>
      <text class="nucleotide" x="142.871" y="400.943">U</text>
      <text class="nucleotide" x="145.773" y="415.660">U</text>
      <text class="nucleotide" x="148.674" y="430.377">U</text>
      <text class="nucleotide" x="151.576" y="445.094">G</text>
      <text class="nucleotide" x="154.477" y="459.810">C</text>
      <text class="nucleotide" x="157.379" y="474.527">A</text>
      <text class="nucleotide" x="150.878" y="485.589">U</text>
      <text class="nucleotide" x="153.529" y="497.734">U</text>
      <text class="nucleotide" x="163.392" y="504.624">G</text>
      <text class="nucleotide" x="166.373" y="519.325">U</text>
      <text class="nucleotide" x="169.354" y="534.026">C</text>
      <text class="nucleotide" x="167.767" y="538.784">A</text>
      <text class="nucleotide" x="168.069" y="543.250">U</text>
      <text class="nucleotide" x="169.849" y="546.770">G</text>
      <text class="nucleotide" x="172.504" y="548.940">U</text>
      <text class="nucleotide" x="175.724" y="563.590">U</text>
      <text class="nucleotide" x="178.943" y="578.241">U</text>
      <text class="nucleotide" x="174.347" y="593.380">C</text>
      <text class="nucleotide" x="184.636" y="604.150">G</text>
      <text class="nucleotide" x="187.855" y="618.801">A</text>
      <text class="nucleotide" x="191.074" y="633.451">A</text>
      <text class="nucleotide" x="182.347" y="646.628">A</text>
      <text class="nucleotide" x="185.575" y="662.099">U</text>
      <text class="nucleotide" x="198.843" y="670.686">A</text>
      <text class="nucleotide" x="214.279" y="667.294">C</text>
      <text class="nucleotide" x="222.726" y="653.936">C</text>
      <text class="nucleotide" x="219.171" y="638.537">A</text>
      <text class="nucleotide" x="205.724" y="630.232">U</text>
      <text class="nucleotide" x="202.505" y="615.582">U</text>
      <text class="nucleotide" x="199.286" y="600.931">C</text>
      <text class="nucleotide" x="204.112" y="586.840">C</text>
      <text class="nucleotide" x="193.593" y="575.022">A</text>
      <text class="nucleotide" x="190.374" y="560.371">A</text>
      <text class="nucleotide" x="187.155" y="545.721">A</text>
      <text class="nucleotide" x="184.055" y="531.045">G</text>
      <text class="nucleotide" x="181.074" y="516.344">A</text>
      <text class="nucleotide" x="178.093" y="501.643">C</text>
      <text class="nucleotide" x="184.531" y="485.271">C</text>
      <text class="nucleotide" x="172.095" y="471.626">U</text>
      <text class="nucleotide" x="169.194" y="456.909">G</text>
      <text class="nucleotide" x="166.292" y="442.192">C</text>
      <text class="nucleotide" x="163.391" y="427.475">A</text>
      <text class="nucleotide" x="160.489" y="412.759">A</text>
      <text class="nucleotide" x="157.588" y="398.042">A</text>
      <text class="nucleotide" x="154.686" y="383.325">U</text>
      <text class="nucleotide" x="164.398" y="366.867">A</text>
      <text class="nucleotide" x="165.917" y="348.745">A</text>
      <text class="nucleotide" x="159.732" y="332.628">G</text>
      <text class="nucleotide" x="147.816" y="321.448">A</text>
      <text class="nucleotide" x="133.096" y="316.862">U</text>
      <text class="nucleotide" x="132.934" y="301.863">C</text>
      <text class="nucleotide" x="132.771" y="286.864">A</text>
      <text class="nucleotide" x="132.609" y="271.865">G</text>
      <text class="nucleotide" x="132.447" y="256.866">C</text>
      <text class="nucleotide" x="132.285" y="241.866">U</text>
      <text class="nucleotide" x="132.122" y="226.867">U</text>
      <text class="nucleotide" x="131.960" y="211.868">U</text>
      <text class="nucleotide" x="131.798" y="196.869">G</text>
      <text class="nucleotide" x="131.636" y="181.870">A</text>
      <text class="nucleotide" x="139.235" y="169.060">G</text>
      <text class="nucleotide" x="131.349" y="155.344">U</text>
      <text class="nucleotide" x="131.187" y="140.345">G</text>
      <text class="nucleotide" x="138.876" y="133.810">A</text>
      <text class="nucleotide" x="141.814" y="123.927">A</text>
      <text class="nucleotide" x="138.819" y="113.834">C</text>
      <text class="nucleotide" x="130.635" y="106.870">U</text>
      <text class="nucleotide" x="130.310" y="91.873">U</text>
      <text class="nucleotide" x="129.986" y="76.877">U</text>
      <text class="nucleotide" x="142.792" y="69.269">G</text>
      <text class="nucleotide" x="150.119" y="56.186">A</text>
      <text class="nucleotide" x="149.912" y="41.092">C</text>
      <text class="nucleotide" x="142.127" y="28.043">A</text>
      <text class="nucleotide" x="128.768" y="20.593">G</text>
      <text class="nucleotide" x="128.444" y="5.597">A</text>
      <text class="nucleotide" x="128.119" y="-9.400">A</text>
      <text class="nucleotide" x="127.836" y="-24.397">G</text>
      <text class="nucleotide" x="127.592" y="-39.395">A</text>
      <text class="nucleotide" x="127.349" y="-54.393">U</text>
      <text class="nucleotide" x="127.106" y="-69.391">G</text>
      <text class="nucleotide" x="126.862" y="-84.389">U</text>
      <text class="nucleotide" x="126.619" y="-99.387">U</text>
      <text class="nucleotide" x="126.376" y="-114.385">U</text>
      <text class="nucleotide" x="126.132" y="-129.383">C</text>
      <text class="nucleotide" x="133.662" y="-142.234">G</text>
      <text class="nucleotide" x="125.702" y="-155.907">A</text>
      <text class="nucleotide" x="127.786" y="-158.631">C</text>
      <text class="nucleotide" x="128.707" y="-162.466">A</text>
      <text class="nucleotide" x="127.972" y="-166.881">G</text>
      <text class="nucleotide" x="125.331" y="-171.146">U</text>
      <text class="nucleotide" x="124.845" y="-186.138">U</text>
      <text class="nucleotide" x="124.358" y="-201.130">U</text>
      <text class="nucleotide" x="123.871" y="-216.122">U</text>
      <text class="nucleotide" x="126.763" y="-222.839">A</text>
      <text class="nucleotide" x="123.342" y="-231.194">U</text>
      <text class="nucleotide" x="122.774" y="-246.183">C</text>
      <text class="nucleotide" x="122.206" y="-261.172">U</text>
      <text class="nucleotide" x="121.639" y="-276.162">C</text>
      <text class="nucleotide" x="121.071" y="-291.151">U</text>
      <text class="nucleotide" x="120.503" y="-306.140">G</text>
      <text class="nucleotide" x="119.936" y="-321.129">G</text>
      <text class="nucleotide" x="128.954" y="-309.143">A</text>
      <text class="nucleotide" x="143.008" y="-303.899">C</text>
      <text class="nucleotide" x="157.674" y="-307.048">A</text>
      <text class="nucleotide" x="168.336" y="-317.598">U</text>
      <text class="nucleotide" x="171.641" y="-332.230">G</text>
      <text class="nucleotide" x="166.546" y="-346.338">U</text>
      <text class="nucleotide" x="154.657" y="-355.483">U</text>
      <text class="nucleotide" x="139.714" y="-356.788">U</text>
      <text class="nucleotide" x="126.419" y="-349.840">A</text>
      <text class="nucleotide" x="118.958" y="-336.829">G</text>
      <text class="nucleotide" x="117.662" y="-351.773">C</text>
      <text class="nucleotide" x="116.366" y="-366.717">U</text>
      <text class="nucleotide" x="115.070" y="-381.661">U</text>
      <text class="nucleotide" x="113.774" y="-396.605">C</text>
      <text class="nucleotide" x="112.478" y="-411.548">A</text>
      <text class="nucleotide" x="111.182" y="-426.492">G</text>
      <text class="nucleotide" x="120.009" y="-429.109">G</text>
      <text class="nucleotide" x="128.223" y="-433.582">G</text>
      <text class="nucleotide" x="135.432" y="-439.768">A</text>
      <text class="nucleotide" x="141.279" y="-447.441">U</text>
      <text class="nucleotide" x="145.457" y="-456.297">C</text>
      <text class="nucleotide" x="147.726" y="-465.974">A</text>
      <text class="nucleotide" x="147.927" y="-476.057">U</text>
      <text class="nucleotide" x="162.620" y="-479.078">C</text>
      <text class="nucleotide" x="177.313" y="-482.099">C</text>
      <text class="nucleotide" x="192.006" y="-485.120">U</text>
      <text class="nucleotide" x="209.400" y="-478.935">G</text>
      <text class="nucleotide" x="222.005" y="-491.208">G</text>
      <text class="nucleotide" x="236.714" y="-494.149">G</text>
      <text class="nucleotide" x="251.422" y="-497.090">C</text>
      <text class="nucleotide" x="264.476" y="-488.590">U</text>
      <text class="nucleotide" x="279.350" y="-491.783">C</text>
      <text class="nucleotide" x="287.374" y="-504.279">U</text>
      <text class="nucleotide" x="302.082" y="-507.221">C</text>
      <text class="nucleotide" x="316.791" y="-510.162">U</text>
      <text class="nucleotide" x="331.500" y="-513.103">C</text>
      <text class="nucleotide" x="346.209" y="-516.044">U</text>
      <text class="nucleotide" x="360.918" y="-518.986">U</text>
      <text class="nucleotide" x="375.626" y="-521.927">U</text>
      <text class="nucleotide" x="390.335" y="-524.868">G</text>
      <text class="nucleotide" x="405.044" y="-527.810">A</text>
      <text class="nucleotide" x="411.259" y="-526.100">A</text>
      <text class="nucleotide" x="416.632" y="-527.506">A</text>
      <text class="nucleotide" x="419.896" y="-530.863">U</text>
      <text class="nucleotide" x="434.572" y="-533.963">C</text>
      <text class="nucleotide" x="449.673" y="-529.245">U</text>
      <text class="nucleotide" x="460.526" y="-539.446">G</text>
      <text class="nucleotide" x="475.203" y="-542.546">C</text>
      <text class="nucleotide" x="490.304" y="-537.828">U</text>
      <text class="nucleotide" x="501.157" y="-548.029">U</text>
      <text class="nucleotide" x="515.833" y="-551.129">G</text>
      <text class="nucleotide" x="531.407" y="-540.203">G</text>
      <text class="nucleotide" x="549.684" y="-544.168">G</text>
      <text class="nucleotide" x="559.002" y="-560.011">C</text>
      <text class="nucleotide" x="573.711" y="-562.952">C</text>
      <text class="nucleotide" x="588.419" y="-565.894">A</text>
      <text class="nucleotide" x="603.469" y="-561.012">G</text>
      <text class="nucleotide" x="614.432" y="-571.095">U</text>
      <text class="nucleotide" x="629.141" y="-574.036">A</text>
      <text class="nucleotide" x="644.190" y="-569.155">U</text>
      <text class="nucleotide" x="655.153" y="-579.238">G</text>
      <text class="nucleotide" x="669.862" y="-582.179">A</text>
      <text class="nucleotide" x="684.571" y="-585.121">U</text>
      <text class="nucleotide" x="695.220" y="-573.958">G</text>
      <text class="nucleotide" x="710.219" y="-570.348">A</text>
      <text class="nucleotide" x="724.782" y="-575.441">U</text>
      <text class="nucleotide" x="734.260" y="-587.613">G</text>
      <text class="nucleotide" x="735.631" y="-602.979">G</text>
      <text class="nucleotide" x="728.457" y="-616.637">U</text>
      <text class="nucleotide" x="715.026" y="-624.228">A</text>
      <text class="nucleotide" x="699.625" y="-623.329">C</text>
      <text class="nucleotide" x="687.168" y="-614.229">A</text>
      <text class="nucleotide" x="681.630" y="-599.829">A</text>
      <text class="nucleotide" x="666.921" y="-596.888">U</text>
      <text class="nucleotide" x="652.212" y="-593.947">U</text>
      <text class="nucleotide" x="638.215" y="-599.038">C</text>
      <text class="nucleotide" x="626.200" y="-588.745">U</text>
      <text class="nucleotide" x="611.491" y="-585.804">G</text>
      <text class="nucleotide" x="597.493" y="-590.896">G</text>
      <text class="nucleotide" x="585.478" y="-580.602">U</text>
      <text class="nucleotide" x="570.769" y="-577.661">G</text>
      <text class="nucleotide" x="556.061" y="-574.720">G</text>
      <text class="nucleotide" x="548.261" y="-582.880">A</text>
      <text class="nucleotide" x="537.392" y="-586.341">C</text>
      <text class="nucleotide" x="526.075" y="-584.150">A</text>
      <text class="nucleotide" x="517.100" y="-576.729">A</text>
      <text class="nucleotide" x="512.733" y="-565.805">C</text>
      <text class="nucleotide" x="498.057" y="-562.705">A</text>
      <text class="nucleotide" x="484.005" y="-567.645">U</text>
      <text class="nucleotide" x="472.102" y="-557.222">G</text>
      <text class="nucleotide" x="457.426" y="-554.122">C</text>
      <text class="nucleotide" x="443.375" y="-559.062">U</text>
      <text class="nucleotide" x="431.471" y="-548.639">G</text>
      <text class="nucleotide" x="416.795" y="-545.539">A</text>
      <text class="nucleotide" x="402.103" y="-542.518">U</text>
      <text class="nucleotide" x="387.394" y="-539.577">C</text>
      <text class="nucleotide" x="372.685" y="-536.636">A</text>
      <text class="nucleotide" x="357.976" y="-533.695">A</text>
      <text class="nucleotide" x="343.267" y="-530.753">A</text>
      <text class="nucleotide" x="328.559" y="-527.812">G</text>
      <text class="nucleotide" x="313.850" y="-524.871">G</text>
      <text class="nucleotide" x="299.141" y="-521.930">G</text>
      <text class="nucleotide" x="284.432" y="-518.988">A</text>
      <text class="nucleotide" x="272.221" y="-527.439">C</text>
      <text class="nucleotide" x="257.262" y="-524.665">U</text>
      <text class="nucleotide" x="248.481" y="-511.799">G</text>
      <text class="nucleotide" x="233.772" y="-508.858">C</text>
      <text class="nucleotide" x="219.063" y="-505.917">U</text>
      <text class="nucleotide" x="208.893" y="-512.344">G</text>
      <text class="nucleotide" x="196.669" y="-510.087">G</text>
      <text class="nucleotide" x="188.985" y="-499.812">A</text>
      <text class="nucleotide" x="174.292" y="-496.791">G</text>
      <text class="nucleotide" x="159.599" y="-493.771">G</text>
      <text class="nucleotide" x="144.907" y="-490.750">A</text>
      <text class="nucleotide" x="136.334" y="-503.059">C</text>
      <text class="nucleotide" x="144.263" y="-515.792">C</text>
      <text class="nucleotide" x="152.192" y="-528.525">A</text>
      <text class="nucleotide" x="160.190" y="-541.215">G</text>
      <text class="nucleotide" x="168.256" y="-553.862">A</text>
      <text class="nucleotide" x="176.322" y="-566.509">C</text>
      <text class="nucleotide" x="184.423" y="-579.134">C</text>
      <text class="nucleotide" x="192.557" y="-591.736">C</text>
      <text class="nucleotide" x="200.691" y="-604.339">C</text>
      <text class="nucleotide" x="208.826" y="-616.942">A</text>
      <text class="nucleotide" x="217.130" y="-629.434">C</text>
      <text class="nucleotide" x="225.602" y="-641.812">C</text>
      <text class="nucleotide" x="234.074" y="-654.190">A</text>
      <text class="nucleotide" x="242.546" y="-666.569">U</text>
      <text class="nucleotide" x="251.018" y="-678.947">A</text>
      <text class="nucleotide" x="263.332" y="-677.648">G</text>
      <text class="nucleotide" x="274.975" y="-681.646">A</text>
      <text class="nucleotide" x="283.791" y="-690.135">A</text>
      <text class="nucleotide" x="288.173" y="-701.485">C</text>
      <text class="nucleotide" x="287.360" y="-713.553">U</text>
      <text class="nucleotide" x="281.562" y="-724.086">U</text>
      <text class="nucleotide" x="289.900" y="-736.555">U</text>
      <text class="nucleotide" x="298.238" y="-749.024">C</text>
      <text class="nucleotide" x="306.576" y="-761.493">U</text>
      <text class="nucleotide" x="321.517" y="-768.252">U</text>
      <text class="nucleotide" x="322.865" y="-784.596">U</text>
      <text class="nucleotide" x="309.233" y="-793.711">A</text>
      <text class="nucleotide" x="294.644" y="-786.222">A</text>
      <text class="nucleotide" x="294.106" y="-769.831">A</text>
      <text class="nucleotide" x="285.769" y="-757.362">G</text>
      <text class="nucleotide" x="277.431" y="-744.893">G</text>
      <text class="nucleotide" x="269.093" y="-732.424">A</text>
      <text class="nucleotide" x="251.353" y="-732.507">U</text>
      <text class="nucleotide" x="237.035" y="-721.766">A</text>
      <text class="nucleotide" x="232.063" y="-704.407">A</text>
      <text class="nucleotide" x="238.640" y="-687.419">U</text>
      <text class="nucleotide" x="230.168" y="-675.041">G</text>
      <text class="nucleotide" x="221.696" y="-662.663">U</text>
      <text class="nucleotide" x="213.224" y="-650.284">G</text>
      <text class="nucleotide" x="204.751" y="-637.906">G</text>
      <text class="nucleotide" x="200.030" y="-652.143">A</text>
      <text class="nucleotide" x="185.974" y="-657.381">U</text>
      <text class="nucleotide" x="173.087" y="-649.705">U</text>
      <text class="nucleotide" x="170.998" y="-634.851">A</text>
      <text class="nucleotide" x="181.268" y="-623.919">C</text>
      <text class="nucleotide" x="196.223" y="-625.076">U</text>
      <text class="nucleotide" x="188.088" y="-612.474">G</text>
      <text class="nucleotide" x="179.954" y="-599.871">G</text>
      <text class="nucleotide" x="171.820" y="-587.268">G</text>
      <text class="nucleotide" x="165.618" y="-583.392">U</text>
      <text class="nucleotide" x="163.676" y="-574.575">G</text>
      <text class="nucleotide" x="155.609" y="-561.928">U</text>
      <text class="nucleotide" x="147.543" y="-549.282">U</text>
      <text class="nucleotide" x="143.252" y="-547.408">G</text>
      <text class="nucleotide" x="140.046" y="-542.873">A</text>
      <text class="nucleotide" x="139.459" y="-536.454">U</text>
      <text class="nucleotide" x="131.530" y="-523.721">G</text>
      <text class="nucleotide" x="123.601" y="-510.988">G</text>
      <text class="nucleotide" x="108.469" y="-518.757">A</text>
      <text class="nucleotide" x="90.813" y="-521.017">U</text>
      <text class="nucleotide" x="91.705" y="-535.991">C</text>
      <text class="nucleotide" x="92.596" y="-550.964">C</text>
      <text class="nucleotide" x="93.488" y="-565.938">U</text>
      <text class="nucleotide" x="94.380" y="-580.911">G</text>
      <text class="nucleotide" x="105.371" y="-588.588">U</text>
      <text class="nucleotide" x="109.900" y="-601.001">U</text>
      <text class="nucleotide" x="106.534" y="-613.577">A</text>
      <text class="nucleotide" x="96.708" y="-621.819">A</text>
      <text class="nucleotide" x="97.519" y="-636.798">G</text>
      <text class="nucleotide" x="98.330" y="-651.776">C</text>
      <text class="nucleotide" x="112.273" y="-658.088">A</text>
      <text class="nucleotide" x="121.677" y="-670.163">A</text>
      <text class="nucleotide" x="124.380" y="-685.228">A</text>
      <text class="nucleotide" x="119.762" y="-699.820">U</text>
      <text class="nucleotide" x="108.883" y="-710.587">G</text>
      <text class="nucleotide" x="94.244" y="-715.053">C</text>
      <text class="nucleotide" x="79.208" y="-712.193">U</text>
      <text class="nucleotide" x="67.230" y="-702.664">U</text>
      <text class="nucleotide" x="61.064" y="-688.655">U</text>
      <text class="nucleotide" x="62.126" y="-673.387">U</text>
    </g>
  </g>
</svg>
