<?xml version="1.0" encoding="UTF-8" standalone="yes" ?>
<svg xmlns="http://www.w3.org/2000/svg" height="452" width="452">
  <script type="text/ecmascript">
    <![CDATA[
      var shown = 1;
      function click() {
        var seq = document.getElementById("seq");
        if (shown==1) {
          seq.setAttribute("style", "visibility: hidden");
          shown = 0;
        } else {
          seq.setAttribute("style", "visibility: visible");
          shown = 1;
        }
      }
    ]]>
  </script>
  <style type="text/css">
    <![CDATA[
      .nucleotide {
        font-family: SansSerif;
      }
      .backbone {
        stroke: grey;
        fill:   none;
        stroke-width: 1.5;
      }
      .basepairs {
        stroke: red;
        fill:   none;
        stroke-width: 2.5;
      }
    ]]>
  </style>

  <rect style="stroke: white; fill: white" height="452" x="0" y="0" width="452" onclick="click(evt)" />
  <g transform="scale(0.485477,0.485477) translate(237.561981,198.852966)">
    <polyline class="backbone" id="outline" points="
      411.219,115.427
      416.926,126.918
      412.998,141.395
      408.265,146.970
      409.089,155.961
      398.833,162.252
      395.466,174.218
      401.297,185.647
      397.526,200.165
      393.754,214.683
      389.905,229.181
      420.306,265.692
      412.819,265.246
      397.846,264.355
      390.359,263.909
      398.064,249.837
      391.734,235.096
      376.225,230.993
      363.434,240.676
      363.173,256.717
      375.642,266.810
      375.075,281.800
      353.286,288.311
      342.064,306.472
      345.521,326.129
      324.971,348.789
      311.370,355.113
      297.603,361.068
      283.741,366.799
      269.833,372.418
      258.683,367.897
      247.053,372.288
      241.315,383.764
      227.392,389.344
      220.091,388.922
      213.408,394.993
      199.516,400.649
      194.931,399.697
      189.693,401.544
      185.504,406.442
      171.421,401.278
      172.832,384.939
      159.235,375.771
      144.617,383.204
      144.016,399.592
      158.050,408.077
      151.946,421.779
      144.747,420.493
      137.392,425.728
      73.633,401.611
      60.629,394.134
      52.191,381.733
      43.786,369.309
      39.918,352.802
      22.986,351.948
      17.478,367.983
      31.362,377.714
      39.767,390.138
      40.901,397.362
      48.251,402.606
      44.708,409.216
      37.621,422.437
      34.078,429.047
      33.504,415.012
      22.198,401.397
      1.432,395.535
      -13.476,393.875
      -6.102,383.677
      -3.381,369.962
      -6.461,354.498
      -7.964,338.526
      -21.467,329.863
      -36.612,335.155
      -41.781,350.342
      -33.009,363.775
      -17.025,365.148
      -23.129,378.850
      -29.232,392.552
      -43.410,387.655
      -48.594,380.263
      -55.809,379.070
      -68.118,370.498
      -80.381,361.859
      -85.525,354.439
      -92.733,353.207
      -99.636,338.971
      -114.502,338.047
      -124.045,324.034
      -140.152,329.324
      -139.528,346.266
      -123.074,350.356
      -117.052,363.979
      -101.306,365.516
      -89.020,374.122
      -76.757,382.760
      -75.082,387.133
      -70.700,390.544
      -64.315,391.425
      -51.982,399.964
      -56.067,414.398
      -56.646,404.961
      -62.845,395.443
      -74.500,388.844
      -76.351,368.817
      -99.460,353.884
      -103.677,339.068
      -115.669,329.685
      -130.709,329.169
      -143.022,337.508
      -150.931,323.551
      -166.797,321.175
      -178.449,332.203
      -176.948,348.176
      -163.445,356.840
      -148.300,351.549
      -144.530,365.934
      -132.875,375.453
      -117.671,376.294
      -104.738,367.925
      -109.134,382.266
      -123.711,378.731
      -137.653,369.084
      -150.782,379.811
      -144.110,395.397
      -127.286,393.299
      -121.598,397.895
      -112.630,396.853
      -114.651,411.716
      -129.639,411.108
      -135.259,407.952
      -140.812,408.021
      -144.789,410.494
      -143.175,403.320
      -144.777,395.033
      -149.989,386.912
      -158.734,380.337
      -174.051,373.069
      -185.275,385.775
      -176.173,400.078
      -159.909,395.291
      -160.436,410.282
      -177.620,399.617
      -193.753,410.381
      -209.576,404.292
      -219.807,417.811
      -209.649,431.385
      -193.794,425.381
      -187.363,433.158
      -177.521,436.229
      -167.388,433.371
      -160.314,425.282
      -145.316,425.484
      -130.328,426.092
      -126.565,428.879
      -121.035,429.398
      -115.178,426.707
      -86.437,422.403
      -76.883,403.653
      -75.304,418.570
      -95.153,414.687
      -106.424,430.471
      -115.452,430.549
      -120.526,435.816
      -134.567,441.094
      -135.020,426.815
      -144.642,412.912
      -162.710,404.016
      -179.566,402.191
      -185.985,417.883
      -172.684,428.395
      -158.900,418.524
      -156.471,425.620
      -151.612,439.811
      -149.183,446.907
      -162.998,452.750
      -194.408,417.507
      -208.420,422.861
      -225.374,422.866
      -230.062,439.159
      -215.704,448.174
      -203.066,436.873
      -189.054,431.519
      -186.114,438.418
      -177.293,459.117
      -194.198,460.405
      -197.640,477.006
      -182.641,484.909
      -170.895,472.684
      -157.193,466.581
      -149.886,466.885
      -143.303,460.706
      -129.364,455.163
      -124.813,456.263
      -119.518,454.587
      -115.172,449.828
      -101.146,444.512
      -92.376,449.505
      -82.084,448.888
      -73.622,442.625
      -69.875,432.553
      -55.215,429.373
      -30.083,407.528
      -15.136,408.783
      -0.228,410.443
      2.201,417.538
      -11.990,422.397
      -7.131,436.588
      7.060,431.730
      9.489,438.826
      4.627,440.060
      1.032,442.725
      -0.969,446.124
      -1.362,449.531
      -11.954,460.152
      -18.071,462.186
      -21.756,466.340
      -22.603,470.946
      -37.993,478.058
      -35.419,494.815
      -18.604,496.981
      -11.868,481.422
      -1.334,470.744
      9.259,460.123
      19.937,449.589
      33.875,444.046
      64.604,437.359
      72.539,416.571
      76.504,422.937
      69.441,436.170
      84.433,435.670
      88.397,442.037
      73.482,445.892
      63.811,457.653
      62.929,472.675
      70.966,485.187
      42.379,463.266
      -3.382,474.177
      -10.858,487.181
      -17.790,492.966
      -18.375,500.255
      -32.805,508.047
      -33.002,524.445
      -18.763,532.580
      -4.736,524.084
      -5.351,507.697
      2.125,494.693
      8.131,490.520
      9.642,481.618
      16.502,484.652
      10.435,498.370
      12.041,513.284
      24.154,504.437
      30.220,490.718
      37.079,493.751
      28.526,481.429
      13.563,480.378
      3.371,491.384
      5.566,506.223
      18.508,513.806
      32.525,508.468
      28.285,522.857
      14.941,531.763
      13.729,547.760
      25.578,558.576
      41.398,555.914
      49.055,541.816
      42.673,527.097
      46.913,512.709
      51.348,498.379
      65.856,502.189
      56.782,516.511
      68.032,529.194
      83.334,521.895
      80.556,505.170
      84.874,490.805
      99.347,487.387
      109.147,475.966
      110.357,460.788
      102.305,447.655
      116.938,450.953
      116.046,465.927
      112.814,471.504
      112.809,477.057
      115.227,481.067
      108.417,496.593
      121.452,507.435
      135.478,497.911
      130.209,481.797
      131.020,466.819
      131.911,451.845
      141.359,440.194
      155.835,436.266
      159.780,461.231
      179.487,471.162
      177.727,477.363
      179.089,482.747
      182.420,486.038
      176.188,503.416
      188.427,516.054
      191.289,530.778
      193.751,545.575
      187.124,560.575
      197.018,573.653
      213.256,571.355
      219.133,556.045
      208.603,543.473
      215.969,542.062
      225.779,553.409
      230.702,539.240
      238.068,537.829
      232.930,553.403
      244.048,565.457
      259.985,561.592
      264.346,545.784
      252.645,534.294
      206.021,527.956
      207.828,520.870
      203.144,513.152
      209.599,502.999
      207.375,490.769
      197.121,483.057
      194.219,468.340
      208.844,445.709
      191.309,420.273
      205.171,414.542
      219.064,408.886
      232.972,403.268
      246.896,397.687
      265.112,400.686
      275.338,386.371
      280.301,387.101
      284.644,386.024
      287.799,383.655
      289.471,380.661
      303.334,374.931
      297.950,388.931
      303.997,402.658
      317.962,408.135
      331.729,402.180
      337.299,388.253
      331.437,374.446
      317.547,368.782
      321.625,369.318
      325.315,368.651
      328.300,367.036
      330.370,364.805
      331.443,362.321
      346.342,364.060
      348.465,376.714
      358.297,384.320
      370.283,383.265
      382.010,392.618
      384.708,398.471
      389.245,401.674
      393.915,402.007
      405.743,411.232
      408.504,417.056
      413.075,420.210
      417.749,420.492
      404.984,465.915
      416.428,475.612
      427.660,485.554
      429.168,490.338
      432.033,493.777
      435.541,495.582
      438.964,495.780
      443.605,511.509
      459.608,515.091
      470.511,502.841
      465.098,487.361
      448.937,484.576
      437.813,474.512
      447.448,463.016
      453.265,478.349
      469.494,480.710
      479.439,467.670
      472.870,452.644
      456.544,451.089
      436.390,452.638
      426.156,464.194
      423.133,457.535
      414.650,454.445
      423.256,442.158
      431.861,429.873
      437.664,436.789
      444.956,437.354
      455.744,450.433
      471.298,443.686
      469.121,426.873
      452.362,424.310
      439.338,416.869
      426.846,408.565
      414.968,399.404
      403.140,390.179
      391.362,380.890
      379.635,371.538
      374.053,354.854
      355.757,352.384
      355.433,337.387
      369.771,343.150
      385.773,340.218
      398.340,328.646
      403.011,311.368
      417.678,308.228
      432.780,312.947
      443.633,302.746
      458.429,300.283
      473.067,306.289
      484.761,297.064
      499.332,309.295
      517.883,306.923
      528.535,291.945
      543.448,290.326
      552.206,292.520
      558.441,288.698
      573.440,288.536
      588.380,289.872
      593.858,293.269
      599.409,293.439
      603.489,291.142
      614.660,304.667
      631.823,305.853
      644.248,294.451
      647.550,296.903
      651.098,298.116
      654.491,298.159
      657.386,297.217
      659.532,295.569
      674.965,302.588
      685.982,289.701
      676.648,275.547
      660.464,280.598
      645.504,279.504
      638.690,268.638
      626.696,263.576
      613.779,266.356
      604.664,276.188
      589.717,274.932
      574.776,273.595
      573.642,258.638
      588.397,255.936
      593.016,257.891
      597.491,257.940
      601.140,256.440
      603.512,253.964
      618.369,251.902
      633.352,258.569
      646.456,248.711
      644.202,232.467
      628.908,226.549
      616.308,237.044
      601.450,239.106
      586.576,241.047
      583.357,226.397
      597.710,222.040
      612.176,218.073
      625.696,226.258
      641.023,222.405
      649.065,208.800
      645.050,193.514
      631.361,185.616
      616.118,189.793
      608.366,203.565
      605.942,202.363
      602.919,201.999
      599.599,202.697
      596.352,204.573
      593.587,207.618
      600.522,194.317
      596.069,179.993
      582.816,172.969
      568.462,177.326
      561.349,190.532
      565.610,204.915
      578.768,212.116
      570.067,244.071
      556.781,273.790
      541.869,275.409
      534.959,273.015
      526.876,277.037
      519.810,268.234
      509.281,263.846
      497.818,265.051
      488.235,271.669
      482.940,282.175
      469.368,276.039
      456.609,285.394
      451.028,271.471
      456.090,280.156
      466.704,285.954
      481.099,286.097
      497.507,281.830
      497.948,264.881
      481.784,259.766
      472.394,273.882
      463.330,261.930
      479.607,259.934
      485.767,244.736
      475.473,231.970
      459.315,234.769
      453.914,250.253
      442.061,259.446
      436.428,275.275
      440.533,288.070
      426.481,283.130
      414.578,293.552
      407.459,291.879
      399.831,296.709
      389.530,285.806
      411.190,290.522
      434.574,270.320
      442.016,257.296
      457.041,249.443
      453.655,232.831
      436.755,231.486
      430.784,247.353
      424.183,243.792
      431.305,230.591
      418.104,223.469
      410.982,236.670
      404.381,233.109
      408.683,228.309
      409.822,222.873
      408.273,218.454
      412.044,203.936
      415.815,189.418
      429.040,176.536
      423.586,159.810
      427.475,145.323
      431.403,130.846
      444.766,118.108
      439.494,101.324
      444.749,93.983
      443.482,86.780
      475.426,78.197
      481.221,71.274
      480.503,63.996
      485.155,59.535
      486.702,54.201
      485.491,49.678
      490.350,35.486
      495.666,21.460
      509.018,11.939
      507.179,-4.357
      492.041,-10.663
      479.176,-0.493
      481.819,15.692
      474.750,13.186
      460.612,8.174
      453.543,5.669
      457.861,-8.696
      470.225,-19.470
      466.811,-35.510
      451.132,-40.316
      439.316,-28.943
      443.520,-13.092
      439.885,-10.140
      438.006,-4.914
      439.155,1.428
      476.158,30.628
      471.300,44.819
      466.365,58.984
      461.315,73.109
      446.700,69.732
      448.400,54.828
      450.301,39.949
      460.762,27.320
      454.803,12.042
      438.553,9.832
      428.730,22.963
      435.438,37.927
      432.967,40.306
      431.478,43.958
      431.539,48.434
      433.506,53.048
      430.453,56.598
      429.532,62.075
      431.788,68.112
      429.006,82.852
      425.039,97.318
    " />
    <g id="pairs">
      <line class="basepairs" id="2,530" x1="416.92645" y1="126.91849" x2="431.40302" y2="130.84647" />
      <line class="basepairs" id="3,529" x1="412.99847" y1="141.39508" x2="427.47504" y2="145.32303" />
      <line class="basepairs" id="5,528" x1="409.08862" y1="155.96054" x2="423.58624" y2="159.81018" />
      <line class="basepairs" id="8,526" x1="401.29681" y1="185.64688" x2="415.81503" y2="189.41809" />
      <line class="basepairs" id="9,525" x1="397.52563" y1="200.16510" x2="412.04385" y2="203.93628" />
      <line class="basepairs" id="10,524" x1="393.75446" y1="214.68329" x2="408.27264" y2="218.45447" />
      <line class="basepairs" id="11,521" x1="389.90482" y1="229.18091" x2="404.38141" y2="233.10886" />
      <line class="basepairs" id="12,511" x1="420.30594" y1="265.69217" x2="434.57428" y2="270.31970" />
      <line class="basepairs" id="15,21" x1="390.35898" y1="263.90881" x2="375.64227" y2="266.81030" />
      <line class="basepairs" id="22,509" x1="375.07465" y1="281.79956" x2="389.52979" y2="285.80576" />
      <line class="basepairs" id="25,399" x1="345.52115" y1="326.12860" x2="355.43292" y2="337.38727" />
      <line class="basepairs" id="26,347" x1="324.97125" y1="348.78851" x2="331.44296" y2="362.32056" />
      <line class="basepairs" id="27,342" x1="311.36996" y1="355.11346" x2="317.54749" y2="368.78235" />
      <line class="basepairs" id="28,335" x1="297.60269" y1="361.06848" x2="303.33359" y2="374.93054" />
      <line class="basepairs" id="29,334" x1="283.74063" y1="366.79935" x2="289.47150" y2="380.66141" />
      <line class="basepairs" id="30,330" x1="269.83252" y1="372.41760" x2="275.33780" y2="386.37082" />
      <line class="basepairs" id="33,328" x1="241.31491" y1="383.76385" x2="246.89555" y2="397.68707" />
      <line class="basepairs" id="34,327" x1="227.39168" y1="389.34448" x2="232.97232" y2="403.26770" />
      <line class="basepairs" id="36,326" x1="213.40837" y1="394.99313" x2="219.06422" y2="408.88599" />
      <line class="basepairs" id="37,325" x1="199.51552" y1="400.64899" x2="205.17137" y2="414.54181" />
      <line class="basepairs" id="40,324" x1="185.50354" y1="406.44183" x2="191.30930" y2="420.27271" />
      <line class="basepairs" id="41,46" x1="171.42052" y1="401.27765" x2="158.04991" y2="408.07669" />
      <line class="basepairs" id="47,292" x1="151.94638" y1="421.77878" x2="155.83521" y2="436.26590" />
      <line class="basepairs" id="49,291" x1="137.39154" y1="425.72797" x2="141.35863" y2="440.19388" />
      <line class="basepairs" id="50,227" x1="73.63319" y1="401.61060" x2="72.53920" y2="416.57068" />
      <line class="basepairs" id="51,60" x1="60.62931" y1="394.13403" x2="48.25098" y2="402.60617" />
      <line class="basepairs" id="52,58" x1="52.19068" y1="381.73285" x2="39.76672" y2="390.13791" />
      <line class="basepairs" id="53,57" x1="43.78561" y1="369.30890" x2="31.36165" y2="377.71396" />
      <line class="basepairs" id="63,225" x1="34.07779" y1="429.04706" x2="33.87503" y2="444.04568" />
      <line class="basepairs" id="66,204" x1="1.43160" y1="395.53476" x2="-0.22772" y2="410.44269" />
      <line class="basepairs" id="67,203" x1="-13.47634" y1="393.87543" x2="-15.13566" y2="408.78339" />
      <line class="basepairs" id="70,76" x1="-6.46129" y1="354.49817" x2="-17.02479" y2="365.14767" />
      <line class="basepairs" id="78,202" x1="-29.23183" y1="392.55185" x2="-30.08301" y2="407.52768" />
      <line class="basepairs" id="79,99" x1="-43.41005" y1="387.65512" x2="-51.98230" y2="399.96432" />
      <line class="basepairs" id="81,98" x1="-55.80907" y1="379.07001" x2="-64.31464" y2="391.42538" />
      <line class="basepairs" id="82,95" x1="-68.11829" y1="370.49777" x2="-76.75696" y2="382.76044" />
      <line class="basepairs" id="83,94" x1="-80.38096" y1="361.85907" x2="-89.01964" y2="374.12177" />
      <line class="basepairs" id="85,93" x1="-92.73338" y1="353.20706" x2="-101.30563" y2="365.51630" />
      <line class="basepairs" id="87,91" x1="-114.50217" y1="338.04709" x2="-123.07442" y2="350.35629" />
      <line class="basepairs" id="100,201" x1="-56.06659" y1="414.39758" x2="-55.21540" y2="429.37341" />
      <line class="basepairs" id="103,158" x1="-74.50043" y1="388.84384" x2="-76.88300" y2="403.65341" />
      <line class="basepairs" id="105,119" x1="-99.46011" y1="353.88409" x2="-104.73832" y2="367.92477" />
      <line class="basepairs" id="109,115" x1="-143.02156" y1="337.50833" x2="-148.29977" y2="351.54901" />
      <line class="basepairs" id="120,127" x1="-109.13380" y1="382.26630" x2="-112.62957" y2="396.85327" />
      <line class="basepairs" id="121,125" x1="-123.71127" y1="378.73114" x2="-127.28586" y2="393.29895" />
      <line class="basepairs" id="128,156" x1="-114.65111" y1="411.71643" x2="-115.17820" y2="426.70715" />
      <line class="basepairs" id="129,153" x1="-129.63878" y1="411.10828" x2="-130.32796" y2="426.09244" />
      <line class="basepairs" id="132,152" x1="-144.78853" y1="410.49356" x2="-145.31561" y2="425.48431" />
      <line class="basepairs" id="136,140" x1="-158.73395" y1="380.33737" x2="-159.90881" y2="395.29129" />
      <line class="basepairs" id="141,151" x1="-160.43591" y1="410.28204" x2="-160.31425" y2="425.28152" />
      <line class="basepairs" id="143,147" x1="-193.75322" y1="410.38123" x2="-193.79376" y2="425.38116" />
      <line class="basepairs" id="159,200" x1="-75.30431" y1="418.57010" x2="-69.87457" y2="432.55286" />
      <line class="basepairs" id="161,196" x1="-106.42384" y1="430.47086" x2="-101.14562" y2="444.51154" />
      <line class="basepairs" id="163,195" x1="-120.52603" y1="435.81573" x2="-115.17197" y2="449.82767" />
      <line class="basepairs" id="164,192" x1="-134.56670" y1="441.09396" x2="-129.36449" y2="455.16296" />
      <line class="basepairs" id="167,171" x1="-162.71039" y1="404.01587" x2="-158.89996" y2="418.52383" />
      <line class="basepairs" id="174,191" x1="-149.18321" y1="446.90668" x2="-143.30275" y2="460.70593" />
      <line class="basepairs" id="175,189" x1="-162.99834" y1="452.74979" x2="-157.19258" y2="466.58069" />
      <line class="basepairs" id="176,182" x1="-194.40807" y1="417.50684" x2="-189.05402" y2="431.51874" />
      <line class="basepairs" id="177,181" x1="-208.42000" y1="422.86087" x2="-203.06593" y2="436.87280" />
      <line class="basepairs" id="184,188" x1="-177.29311" y1="459.11731" x2="-170.89467" y2="472.68420" />
      <line class="basepairs" id="209,224" x1="9.48904" y1="438.82553" x2="19.93675" y2="449.58865" />
      <line class="basepairs" id="213,223" x1="-1.36223" y1="449.53107" x2="9.25871" y2="460.12332" />
      <line class="basepairs" id="214,222" x1="-11.95448" y1="460.15201" x2="-1.33355" y2="470.74426" />
      <line class="basepairs" id="217,221" x1="-22.60308" y1="470.94553" x2="-11.86822" y2="481.42230" />
      <line class="basepairs" id="231,279" x1="88.39701" y1="442.03693" x2="102.30511" y2="447.65518" />
      <line class="basepairs" id="235,275" x1="70.96625" y1="485.18704" x2="84.87434" y2="490.80530" />
      <line class="basepairs" id="237,248" x1="-3.38175" y1="474.17712" x2="9.64230" y2="481.61850" />
      <line class="basepairs" id="238,246" x1="-10.85832" y1="487.18100" x2="2.12529" y2="494.69269" />
      <line class="basepairs" id="240,245" x1="-18.37532" y1="500.25519" x2="-5.35128" y2="507.69659" />
      <line class="basepairs" id="254,269" x1="37.07936" y1="493.75140" x2="51.34771" y2="498.37897" />
      <line class="basepairs" id="260,268" x1="32.52524" y1="508.46841" x2="46.91347" y2="512.70856" />
      <line class="basepairs" id="261,267" x1="28.28510" y1="522.85663" x2="42.67334" y2="527.09680" />
      <line class="basepairs" id="270,274" x1="65.85567" y1="502.18939" x2="80.55647" y2="505.17041" />
      <line class="basepairs" id="280,290" x1="116.93800" y1="450.95343" x2="131.91147" y2="451.84509" />
      <line class="basepairs" id="281,289" x1="116.04633" y1="465.92691" x2="131.01981" y2="466.81857" />
      <line class="basepairs" id="284,288" x1="115.22688" y1="481.06696" x2="130.20912" y2="481.79666" />
      <line class="basepairs" id="294,322" x1="179.48692" y1="471.16235" x2="194.21910" y2="468.34048" />
      <line class="basepairs" id="297,321" x1="182.41980" y1="486.03821" x2="197.12059" y2="483.05719" />
      <line class="basepairs" id="299,318" x1="188.42696" y1="516.05377" x2="203.14366" y2="513.15228" />
      <line class="basepairs" id="300,316" x1="191.28865" y1="530.77826" x2="206.02083" y2="527.95636" />
      <line class="basepairs" id="301,306" x1="193.75125" y1="545.57471" x2="208.60327" y2="543.47284" />
      <line class="basepairs" id="310,315" x1="238.06761" y1="537.82910" x2="252.64508" y2="534.29395" />
      <line class="basepairs" id="348,398" x1="346.34171" y1="364.06049" x2="355.75732" y2="352.38373" />
      <line class="basepairs" id="351,396" x1="370.28265" y1="383.26523" x2="379.63501" y2="371.53778" />
      <line class="basepairs" id="352,395" x1="382.01013" y1="392.61758" x2="391.36246" y2="380.89011" />
      <line class="basepairs" id="355,394" x1="393.91537" y1="402.00684" x2="403.14035" y2="390.17889" />
      <line class="basepairs" id="356,393" x1="405.74329" y1="411.23181" x2="414.96826" y2="399.40387" />
      <line class="basepairs" id="359,392" x1="417.74936" y1="420.49176" x2="426.84589" y2="408.56476" />
      <line class="basepairs" id="360,382" x1="404.98410" y1="465.91501" x2="414.65005" y2="454.44464" />
      <line class="basepairs" id="361,380" x1="416.42831" y1="475.61194" x2="426.15613" y2="464.19400" />
      <line class="basepairs" id="362,372" x1="427.66010" y1="485.55411" x2="437.81305" y2="474.51248" />
      <line class="basepairs" id="366,371" x1="438.96417" y1="495.78040" x2="448.93668" y2="484.57553" />
      <line class="basepairs" id="373,378" x1="447.44794" y1="463.01602" x2="456.54446" y2="451.08902" />
      <line class="basepairs" id="384,391" x1="431.86105" y1="429.87268" x2="439.33762" y2="416.86877" />
      <line class="basepairs" id="386,390" x1="444.95551" y1="437.35431" x2="452.36166" y2="424.31018" />
      <line class="basepairs" id="403,508" x1="403.01053" y1="311.36829" x2="399.83105" y2="296.70917" />
      <line class="basepairs" id="404,506" x1="417.67822" y1="308.22849" x2="414.57806" y2="293.55234" />
      <line class="basepairs" id="406,504" x1="443.63290" y1="302.74585" x2="440.53275" y2="288.06970" />
      <line class="basepairs" id="407,487" x1="458.42938" y1="300.28326" x2="456.60895" y2="285.39413" />
      <line class="basepairs" id="409,485" x1="484.76074" y1="297.06381" x2="482.94031" y2="282.17468" />
      <line class="basepairs" id="412,480" x1="528.53534" y1="291.94482" x2="526.87604" y2="277.03687" />
      <line class="basepairs" id="413,478" x1="543.44775" y1="290.32581" x2="541.86908" y2="275.40912" />
      <line class="basepairs" id="415,477" x1="558.44073" y1="288.69806" x2="556.78143" y2="273.79010" />
      <line class="basepairs" id="416,439" x1="573.43988" y1="288.53583" x2="574.77637" y2="273.59549" />
      <line class="basepairs" id="417,438" x1="588.38019" y1="289.87234" x2="589.71674" y2="274.93201" />
      <line class="basepairs" id="420,437" x1="603.48920" y1="291.14163" x2="604.66406" y2="276.18771" />
      <line class="basepairs" id="423,433" x1="644.24829" y1="294.45105" x2="645.50397" y2="279.50372" />
      <line class="basepairs" id="428,432" x1="659.53186" y1="295.56873" x2="660.46405" y2="280.59772" />
      <line class="basepairs" id="440,476" x1="573.64197" y1="258.63846" x2="570.06732" y2="244.07059" />
      <line class="basepairs" id="441,453" x1="588.39655" y1="255.93616" x2="586.57611" y2="241.04703" />
      <line class="basepairs" id="445,452" x1="603.51166" y1="253.96353" x2="601.44995" y2="239.10590" />
      <line class="basepairs" id="446,451" x1="618.36932" y1="251.90182" x2="616.30762" y2="237.04419" />
      <line class="basepairs" id="454,475" x1="583.35699" y1="226.39651" x2="578.76807" y2="212.11572" />
      <line class="basepairs" id="455,468" x1="597.71039" y1="222.03983" x2="593.58704" y2="207.61768" />
      <line class="basepairs" id="456,463" x1="612.17627" y1="218.07272" x2="608.36584" y2="203.56479" />
      <line class="basepairs" id="488,502" x1="451.02832" y1="271.47089" x2="442.06128" y2="259.44623" />
      <line class="basepairs" id="491,495" x1="481.09885" y1="286.09732" x2="472.39398" y2="273.88153" />
      <line class="basepairs" id="496,501" x1="463.32974" y1="261.92999" x2="453.91412" y2="250.25327" />
      <line class="basepairs" id="512,516" x1="442.01566" y1="257.29565" x2="430.78387" y2="247.35349" />
      <line class="basepairs" id="532,580" x1="439.49393" y1="101.32434" x2="425.03882" y2="97.31815" />
      <line class="basepairs" id="534,579" x1="443.48248" y1="86.78021" x2="429.00592" y2="82.85226" />
      <line class="basepairs" id="535,563" x1="475.42590" y1="78.19678" x2="461.31516" y2="73.10886" />
      <line class="basepairs" id="537,562" x1="480.50296" y1="63.99597" x2="466.36493" y2="58.98441" />
      <line class="basepairs" id="540,561" x1="485.49139" y1="49.67786" x2="471.29996" y2="44.81946" />
      <line class="basepairs" id="541,560" x1="490.34976" y1="35.48642" x2="476.15836" y2="30.62805" />
      <line class="basepairs" id="542,547" x1="495.66592" y1="21.46008" x2="481.81940" y2="15.69177" />
      <line class="basepairs" id="550,559" x1="453.54330" y1="5.66864" x2="439.15506" y2="1.42847" />
      <line class="basepairs" id="551,556" x1="457.86118" y1="-8.69647" x2="443.51965" y2="-13.09198" />
      <line class="basepairs" id="564,578" x1="446.70032" y1="69.73151" x2="431.78793" y2="68.11249" />
      <line class="basepairs" id="565,575" x1="448.39993" y1="54.82809" x2="433.50595" y2="53.04791" />
      <line class="basepairs" id="566,571" x1="450.30084" y1="39.94904" x2="435.43768" y2="37.92749" />
    </g>
    <g transform="translate(-4.6, 4)" id="seq">
      <text class="nucleotide" x="411.219" y="115.427">G</text>
      <text class="nucleotide" x="416.926" y="126.918">C</text>
      <text class="nucleotide" x="412.998" y="141.395">U</text>
      <text class="nucleotide" x="408.265" y="146.970">A</text>
      <text class="nucleotide" x="409.089" y="155.961">U</text>
      <text class="nucleotide" x="398.833" y="162.252">C</text>
      <text class="nucleotide" x="395.466" y="174.218">A</text>
      <text class="nucleotide" x="401.297" y="185.647">G</text>
      <text class="nucleotide" x="397.526" y="200.165">G</text>
      <text class="nucleotide" x="393.754" y="214.683">A</text>
      <text class="nucleotide" x="389.905" y="229.181">G</text>
      <text class="nucleotide" x="420.306" y="265.692">G</text>
      <text class="nucleotide" x="412.819" y="265.246">A</text>
      <text class="nucleotide" x="397.846" y="264.355">G</text>
      <text class="nucleotide" x="390.359" y="263.909">C</text>
      <text class="nucleotide" x="398.064" y="249.837">A</text>
      <text class="nucleotide" x="391.734" y="235.096">A</text>
      <text class="nucleotide" x="376.225" y="230.993">A</text>
      <text class="nucleotide" x="363.434" y="240.676">A</text>
      <text class="nucleotide" x="363.173" y="256.717">G</text>
      <text class="nucleotide" x="375.642" y="266.810">G</text>
      <text class="nucleotide" x="375.075" y="281.800">G</text>
      <text class="nucleotide" x="353.286" y="288.311">A</text>
      <text class="nucleotide" x="342.064" y="306.472">A</text>
      <text class="nucleotide" x="345.521" y="326.129">G</text>
      <text class="nucleotide" x="324.971" y="348.789">G</text>
      <text class="nucleotide" x="311.370" y="355.113">A</text>
      <text class="nucleotide" x="297.603" y="361.068">U</text>
      <text class="nucleotide" x="283.741" y="366.799">C</text>
      <text class="nucleotide" x="269.833" y="372.418">U</text>
      <text class="nucleotide" x="258.683" y="367.897">G</text>
      <text class="nucleotide" x="247.053" y="372.288">C</text>
      <text class="nucleotide" x="241.315" y="383.764">U</text>
      <text class="nucleotide" x="227.392" y="389.344">G</text>
      <text class="nucleotide" x="220.091" y="388.922">C</text>
      <text class="nucleotide" x="213.408" y="394.993">U</text>
      <text class="nucleotide" x="199.516" y="400.649">G</text>
      <text class="nucleotide" x="194.931" y="399.697">G</text>
      <text class="nucleotide" x="189.693" y="401.544">G</text>
      <text class="nucleotide" x="185.504" y="406.442">G</text>
      <text class="nucleotide" x="171.421" y="401.278">G</text>
      <text class="nucleotide" x="172.832" y="384.939">C</text>
      <text class="nucleotide" x="159.235" y="375.771">U</text>
      <text class="nucleotide" x="144.617" y="383.204">C</text>
      <text class="nucleotide" x="144.016" y="399.592">G</text>
      <text class="nucleotide" x="158.050" y="408.077">C</text>
      <text class="nucleotide" x="151.946" y="421.779">U</text>
      <text class="nucleotide" x="144.747" y="420.493">G</text>
      <text class="nucleotide" x="137.392" y="425.728">G</text>
      <text class="nucleotide" x="73.633" y="401.611">G</text>
      <text class="nucleotide" x="60.629" y="394.134">U</text>
      <text class="nucleotide" x="52.191" y="381.733">G</text>
      <text class="nucleotide" x="43.786" y="369.309">A</text>
      <text class="nucleotide" x="39.918" y="352.802">C</text>
      <text class="nucleotide" x="22.986" y="351.948">C</text>
      <text class="nucleotide" x="17.478" y="367.983">C</text>
      <text class="nucleotide" x="31.362" y="377.714">U</text>
      <text class="nucleotide" x="39.767" y="390.138">U</text>
      <text class="nucleotide" x="40.901" y="397.362">U</text>
      <text class="nucleotide" x="48.251" y="402.606">G</text>
      <text class="nucleotide" x="44.708" y="409.216">C</text>
      <text class="nucleotide" x="37.621" y="422.437">C</text>
      <text class="nucleotide" x="34.078" y="429.047">A</text>
      <text class="nucleotide" x="33.504" y="415.012">G</text>
      <text class="nucleotide" x="22.198" y="401.397">A</text>
      <text class="nucleotide" x="1.432" y="395.535">C</text>
      <text class="nucleotide" x="-13.476" y="393.875">G</text>
      <text class="nucleotide" x="-6.102" y="383.677">A</text>
      <text class="nucleotide" x="-3.381" y="369.962">A</text>
      <text class="nucleotide" x="-6.461" y="354.498">A</text>
      <text class="nucleotide" x="-7.964" y="338.526">A</text>
      <text class="nucleotide" x="-21.467" y="329.863">G</text>
      <text class="nucleotide" x="-36.612" y="335.155">A</text>
      <text class="nucleotide" x="-41.781" y="350.342">G</text>
      <text class="nucleotide" x="-33.009" y="363.775">C</text>
      <text class="nucleotide" x="-17.025" y="365.148">U</text>
      <text class="nucleotide" x="-23.129" y="378.850">G</text>
      <text class="nucleotide" x="-29.232" y="392.552">G</text>
      <text class="nucleotide" x="-43.410" y="387.655">U</text>
      <text class="nucleotide" x="-48.594" y="380.263">C</text>
      <text class="nucleotide" x="-55.809" y="379.070">G</text>
      <text class="nucleotide" x="-68.118" y="370.498">A</text>
      <text class="nucleotide" x="-80.381" y="361.859">G</text>
      <text class="nucleotide" x="-85.525" y="354.439">A</text>
      <text class="nucleotide" x="-92.733" y="353.207">G</text>
      <text class="nucleotide" x="-99.636" y="338.971">A</text>
      <text class="nucleotide" x="-114.502" y="338.047">G</text>
      <text class="nucleotide" x="-124.045" y="324.034">A</text>
      <text class="nucleotide" x="-140.152" y="329.324">A</text>
      <text class="nucleotide" x="-139.528" y="346.266">G</text>
      <text class="nucleotide" x="-123.074" y="350.356">C</text>
      <text class="nucleotide" x="-117.052" y="363.979">G</text>
      <text class="nucleotide" x="-101.306" y="365.516">C</text>
      <text class="nucleotide" x="-89.020" y="374.122">U</text>
      <text class="nucleotide" x="-76.757" y="382.760">U</text>
      <text class="nucleotide" x="-75.082" y="387.133">G</text>
      <text class="nucleotide" x="-70.700" y="390.544">G</text>
      <text class="nucleotide" x="-64.315" y="391.425">C</text>
      <text class="nucleotide" x="-51.982" y="399.964">A</text>
      <text class="nucleotide" x="-56.067" y="414.398">G</text>
      <text class="nucleotide" x="-56.646" y="404.961">G</text>
      <text class="nucleotide" x="-62.845" y="395.443">A</text>
      <text class="nucleotide" x="-74.500" y="388.844">G</text>
      <text class="nucleotide" x="-76.351" y="368.817">C</text>
      <text class="nucleotide" x="-99.460" y="353.884">U</text>
      <text class="nucleotide" x="-103.677" y="339.068">C</text>
      <text class="nucleotide" x="-115.669" y="329.685">U</text>
      <text class="nucleotide" x="-130.709" y="329.169">C</text>
      <text class="nucleotide" x="-143.022" y="337.508">U</text>
      <text class="nucleotide" x="-150.931" y="323.551">G</text>
      <text class="nucleotide" x="-166.797" y="321.175">C</text>
      <text class="nucleotide" x="-178.449" y="332.203">G</text>
      <text class="nucleotide" x="-176.948" y="348.176">G</text>
      <text class="nucleotide" x="-163.445" y="356.840">G</text>
      <text class="nucleotide" x="-148.300" y="351.549">A</text>
      <text class="nucleotide" x="-144.530" y="365.934">C</text>
      <text class="nucleotide" x="-132.875" y="375.453">C</text>
      <text class="nucleotide" x="-117.671" y="376.294">U</text>
      <text class="nucleotide" x="-104.738" y="367.925">A</text>
      <text class="nucleotide" x="-109.134" y="382.266">A</text>
      <text class="nucleotide" x="-123.711" y="378.731">G</text>
      <text class="nucleotide" x="-137.653" y="369.084">C</text>
      <text class="nucleotide" x="-150.782" y="379.811">U</text>
      <text class="nucleotide" x="-144.110" y="395.397">C</text>
      <text class="nucleotide" x="-127.286" y="393.299">C</text>
      <text class="nucleotide" x="-121.598" y="397.895">G</text>
      <text class="nucleotide" x="-112.630" y="396.853">U</text>
      <text class="nucleotide" x="-114.651" y="411.716">G</text>
      <text class="nucleotide" x="-129.639" y="411.108">G</text>
      <text class="nucleotide" x="-135.259" y="407.952">C</text>
      <text class="nucleotide" x="-140.812" y="408.021">U</text>
      <text class="nucleotide" x="-144.789" y="410.494">G</text>
      <text class="nucleotide" x="-143.175" y="403.320">C</text>
      <text class="nucleotide" x="-144.777" y="395.033">U</text>
      <text class="nucleotide" x="-149.989" y="386.912">C</text>
      <text class="nucleotide" x="-158.734" y="380.337">G</text>
      <text class="nucleotide" x="-174.051" y="373.069">G</text>
      <text class="nucleotide" x="-185.275" y="385.775">G</text>
      <text class="nucleotide" x="-176.173" y="400.078">A</text>
      <text class="nucleotide" x="-159.909" y="395.291">U</text>
      <text class="nucleotide" x="-160.436" y="410.282">C</text>
      <text class="nucleotide" x="-177.620" y="399.617">C</text>
      <text class="nucleotide" x="-193.753" y="410.381">C</text>
      <text class="nucleotide" x="-209.576" y="404.292">U</text>
      <text class="nucleotide" x="-219.807" y="417.811">A</text>
      <text class="nucleotide" x="-209.649" y="431.385">C</text>
      <text class="nucleotide" x="-193.794" y="425.381">G</text>
      <text class="nucleotide" x="-187.363" y="433.158">U</text>
      <text class="nucleotide" x="-177.521" y="436.229">C</text>
      <text class="nucleotide" x="-167.388" y="433.371">C</text>
      <text class="nucleotide" x="-160.314" y="425.282">G</text>
      <text class="nucleotide" x="-145.316" y="425.484">C</text>
      <text class="nucleotide" x="-130.328" y="426.092">U</text>
      <text class="nucleotide" x="-126.565" y="428.879">G</text>
      <text class="nucleotide" x="-121.035" y="429.398">C</text>
      <text class="nucleotide" x="-115.178" y="426.707">U</text>
      <text class="nucleotide" x="-86.437" y="422.403">G</text>
      <text class="nucleotide" x="-76.883" y="403.653">C</text>
      <text class="nucleotide" x="-75.304" y="418.570">U</text>
      <text class="nucleotide" x="-95.153" y="414.687">G</text>
      <text class="nucleotide" x="-106.424" y="430.471">A</text>
      <text class="nucleotide" x="-115.452" y="430.549">A</text>
      <text class="nucleotide" x="-120.526" y="435.816">G</text>
      <text class="nucleotide" x="-134.567" y="441.094">G</text>
      <text class="nucleotide" x="-135.020" y="426.815">A</text>
      <text class="nucleotide" x="-144.642" y="412.912">G</text>
      <text class="nucleotide" x="-162.710" y="404.016">C</text>
      <text class="nucleotide" x="-179.566" y="402.191">A</text>
      <text class="nucleotide" x="-185.985" y="417.883">G</text>
      <text class="nucleotide" x="-172.684" y="428.395">A</text>
      <text class="nucleotide" x="-158.900" y="418.524">G</text>
      <text class="nucleotide" x="-156.471" y="425.620">G</text>
      <text class="nucleotide" x="-151.612" y="439.811">G</text>
      <text class="nucleotide" x="-149.183" y="446.907">G</text>
      <text class="nucleotide" x="-162.998" y="452.750">A</text>
      <text class="nucleotide" x="-194.408" y="417.507">G</text>
      <text class="nucleotide" x="-208.420" y="422.861">G</text>
      <text class="nucleotide" x="-225.374" y="422.866">A</text>
      <text class="nucleotide" x="-230.062" y="439.159">C</text>
      <text class="nucleotide" x="-215.704" y="448.174">G</text>
      <text class="nucleotide" x="-203.066" y="436.873">C</text>
      <text class="nucleotide" x="-189.054" y="431.519">C</text>
      <text class="nucleotide" x="-186.114" y="438.418">A</text>
      <text class="nucleotide" x="-177.293" y="459.117">G</text>
      <text class="nucleotide" x="-194.198" y="460.405">C</text>
      <text class="nucleotide" x="-197.640" y="477.006">G</text>
      <text class="nucleotide" x="-182.641" y="484.909">G</text>
      <text class="nucleotide" x="-170.895" y="472.684">U</text>
      <text class="nucleotide" x="-157.193" y="466.581">U</text>
      <text class="nucleotide" x="-149.886" y="466.885">G</text>
      <text class="nucleotide" x="-143.303" y="460.706">C</text>
      <text class="nucleotide" x="-129.364" y="455.163">U</text>
      <text class="nucleotide" x="-124.813" y="456.263">U</text>
      <text class="nucleotide" x="-119.518" y="454.587">A</text>
      <text class="nucleotide" x="-115.172" y="449.828">C</text>
      <text class="nucleotide" x="-101.146" y="444.512">U</text>
      <text class="nucleotide" x="-92.376" y="449.505">G</text>
      <text class="nucleotide" x="-82.084" y="448.888">G</text>
      <text class="nucleotide" x="-73.622" y="442.625">A</text>
      <text class="nucleotide" x="-69.875" y="432.553">G</text>
      <text class="nucleotide" x="-55.215" y="429.373">C</text>
      <text class="nucleotide" x="-30.083" y="407.528">C</text>
      <text class="nucleotide" x="-15.136" y="408.783">U</text>
      <text class="nucleotide" x="-0.228" y="410.443">G</text>
      <text class="nucleotide" x="2.201" y="417.538">G</text>
      <text class="nucleotide" x="-11.990" y="422.397">A</text>
      <text class="nucleotide" x="-7.131" y="436.588">G</text>
      <text class="nucleotide" x="7.060" y="431.730">G</text>
      <text class="nucleotide" x="9.489" y="438.826">A</text>
      <text class="nucleotide" x="4.627" y="440.060">A</text>
      <text class="nucleotide" x="1.032" y="442.725">A</text>
      <text class="nucleotide" x="-0.969" y="446.124">A</text>
      <text class="nucleotide" x="-1.362" y="449.531">U</text>
      <text class="nucleotide" x="-11.954" y="460.152">G</text>
      <text class="nucleotide" x="-18.071" y="462.186">G</text>
      <text class="nucleotide" x="-21.756" y="466.340">A</text>
      <text class="nucleotide" x="-22.603" y="470.946">A</text>
      <text class="nucleotide" x="-37.993" y="478.058">A</text>
      <text class="nucleotide" x="-35.419" y="494.815">C</text>
      <text class="nucleotide" x="-18.604" y="496.981">A</text>
      <text class="nucleotide" x="-11.868" y="481.422">U</text>
      <text class="nucleotide" x="-1.334" y="470.744">C</text>
      <text class="nucleotide" x="9.259" y="460.123">A</text>
      <text class="nucleotide" x="19.937" y="449.589">U</text>
      <text class="nucleotide" x="33.875" y="444.046">U</text>
      <text class="nucleotide" x="64.604" y="437.359">C</text>
      <text class="nucleotide" x="72.539" y="416.571">C</text>
      <text class="nucleotide" x="76.504" y="422.937">C</text>
      <text class="nucleotide" x="69.441" y="436.170">U</text>
      <text class="nucleotide" x="84.433" y="435.670">A</text>
      <text class="nucleotide" x="88.397" y="442.037">G</text>
      <text class="nucleotide" x="73.482" y="445.892">A</text>
      <text class="nucleotide" x="63.811" y="457.653">A</text>
      <text class="nucleotide" x="62.929" y="472.675">A</text>
      <text class="nucleotide" x="70.966" y="485.187">C</text>
      <text class="nucleotide" x="42.379" y="463.266">A</text>
      <text class="nucleotide" x="-3.382" y="474.177">G</text>
      <text class="nucleotide" x="-10.858" y="487.181">U</text>
      <text class="nucleotide" x="-17.790" y="492.966">U</text>
      <text class="nucleotide" x="-18.375" y="500.255">G</text>
      <text class="nucleotide" x="-32.805" y="508.047">A</text>
      <text class="nucleotide" x="-33.002" y="524.445">A</text>
      <text class="nucleotide" x="-18.763" y="532.580">G</text>
      <text class="nucleotide" x="-4.736" y="524.084">U</text>
      <text class="nucleotide" x="-5.351" y="507.697">U</text>
      <text class="nucleotide" x="2.125" y="494.693">G</text>
      <text class="nucleotide" x="8.131" y="490.520">A</text>
      <text class="nucleotide" x="9.642" y="481.618">C</text>
      <text class="nucleotide" x="16.502" y="484.652">A</text>
      <text class="nucleotide" x="10.435" y="498.370">G</text>
      <text class="nucleotide" x="12.041" y="513.284">A</text>
      <text class="nucleotide" x="24.154" y="504.437">C</text>
      <text class="nucleotide" x="30.220" y="490.718">C</text>
      <text class="nucleotide" x="37.079" y="493.751">U</text>
      <text class="nucleotide" x="28.526" y="481.429">A</text>
      <text class="nucleotide" x="13.563" y="480.378">G</text>
      <text class="nucleotide" x="3.371" y="491.384">A</text>
      <text class="nucleotide" x="5.566" y="506.223">G</text>
      <text class="nucleotide" x="18.508" y="513.806">G</text>
      <text class="nucleotide" x="32.525" y="508.468">U</text>
      <text class="nucleotide" x="28.285" y="522.857">U</text>
      <text class="nucleotide" x="14.941" y="531.763">G</text>
      <text class="nucleotide" x="13.729" y="547.760">A</text>
      <text class="nucleotide" x="25.578" y="558.576">C</text>
      <text class="nucleotide" x="41.398" y="555.914">A</text>
      <text class="nucleotide" x="49.055" y="541.816">A</text>
      <text class="nucleotide" x="42.673" y="527.097">A</text>
      <text class="nucleotide" x="46.913" y="512.709">A</text>
      <text class="nucleotide" x="51.348" y="498.379">G</text>
      <text class="nucleotide" x="65.856" y="502.189">G</text>
      <text class="nucleotide" x="56.782" y="516.511">A</text>
      <text class="nucleotide" x="68.032" y="529.194">C</text>
      <text class="nucleotide" x="83.334" y="521.895">A</text>
      <text class="nucleotide" x="80.556" y="505.170">C</text>
      <text class="nucleotide" x="84.874" y="490.805">G</text>
      <text class="nucleotide" x="99.347" y="487.387">A</text>
      <text class="nucleotide" x="109.147" y="475.966">C</text>
      <text class="nucleotide" x="110.357" y="460.788">A</text>
      <text class="nucleotide" x="102.305" y="447.655">C</text>
      <text class="nucleotide" x="116.938" y="450.953">U</text>
      <text class="nucleotide" x="116.046" y="465.927">A</text>
      <text class="nucleotide" x="112.814" y="471.504">G</text>
      <text class="nucleotide" x="112.809" y="477.057">G</text>
      <text class="nucleotide" x="115.227" y="481.067">G</text>
      <text class="nucleotide" x="108.417" y="496.593">A</text>
      <text class="nucleotide" x="121.452" y="507.435">A</text>
      <text class="nucleotide" x="135.478" y="497.911">U</text>
      <text class="nucleotide" x="130.209" y="481.797">U</text>
      <text class="nucleotide" x="131.020" y="466.819">U</text>
      <text class="nucleotide" x="131.911" y="451.845">G</text>
      <text class="nucleotide" x="141.359" y="440.194">C</text>
      <text class="nucleotide" x="155.835" y="436.266">A</text>
      <text class="nucleotide" x="159.780" y="461.231">U</text>
      <text class="nucleotide" x="179.487" y="471.162">U</text>
      <text class="nucleotide" x="177.727" y="477.363">G</text>
      <text class="nucleotide" x="179.089" y="482.747">U</text>
      <text class="nucleotide" x="182.420" y="486.038">C</text>
      <text class="nucleotide" x="176.188" y="503.416">A</text>
      <text class="nucleotide" x="188.427" y="516.054">U</text>
      <text class="nucleotide" x="191.289" y="530.778">G</text>
      <text class="nucleotide" x="193.751" y="545.575">U</text>
      <text class="nucleotide" x="187.124" y="560.575">U</text>
      <text class="nucleotide" x="197.018" y="573.653">U</text>
      <text class="nucleotide" x="213.256" y="571.355">C</text>
      <text class="nucleotide" x="219.133" y="556.045">G</text>
      <text class="nucleotide" x="208.603" y="543.473">A</text>
      <text class="nucleotide" x="215.969" y="542.062">A</text>
      <text class="nucleotide" x="225.779" y="553.409">A</text>
      <text class="nucleotide" x="230.702" y="539.240">U</text>
      <text class="nucleotide" x="238.068" y="537.829">A</text>
      <text class="nucleotide" x="232.930" y="553.403">C</text>
      <text class="nucleotide" x="244.048" y="565.457">C</text>
      <text class="nucleotide" x="259.985" y="561.592">A</text>
      <text class="nucleotide" x="264.346" y="545.784">U</text>
      <text class="nucleotide" x="252.645" y="534.294">U</text>
      <text class="nucleotide" x="206.021" y="527.956">C</text>
      <text class="nucleotide" x="207.828" y="520.870">C</text>
      <text class="nucleotide" x="203.144" y="513.152">A</text>
      <text class="nucleotide" x="209.599" y="502.999">A</text>
      <text class="nucleotide" x="207.375" y="490.769">A</text>
      <text class="nucleotide" x="197.121" y="483.057">G</text>
      <text class="nucleotide" x="194.219" y="468.340">A</text>
      <text class="nucleotide" x="208.844" y="445.709">C</text>
      <text class="nucleotide" x="191.309" y="420.273">C</text>
      <text class="nucleotide" x="205.171" y="414.542">U</text>
      <text class="nucleotide" x="219.064" y="408.886">G</text>
      <text class="nucleotide" x="232.972" y="403.268">C</text>
      <text class="nucleotide" x="246.896" y="397.687">A</text>
      <text class="nucleotide" x="265.112" y="400.686">A</text>
      <text class="nucleotide" x="275.338" y="386.371">A</text>
      <text class="nucleotide" x="280.301" y="387.101">U</text>
      <text class="nucleotide" x="284.644" y="386.024">A</text>
      <text class="nucleotide" x="287.799" y="383.655">A</text>
      <text class="nucleotide" x="289.471" y="380.661">G</text>
      <text class="nucleotide" x="303.334" y="374.931">A</text>
      <text class="nucleotide" x="297.950" y="388.931">U</text>
      <text class="nucleotide" x="303.997" y="402.658">C</text>
      <text class="nucleotide" x="317.962" y="408.135">A</text>
      <text class="nucleotide" x="331.729" y="402.180">G</text>
      <text class="nucleotide" x="337.299" y="388.253">C</text>
      <text class="nucleotide" x="331.437" y="374.446">U</text>
      <text class="nucleotide" x="317.547" y="368.782">U</text>
      <text class="nucleotide" x="321.625" y="369.318">U</text>
      <text class="nucleotide" x="325.315" y="368.651">G</text>
      <text class="nucleotide" x="328.300" y="367.036">A</text>
      <text class="nucleotide" x="330.370" y="364.805">G</text>
      <text class="nucleotide" x="331.443" y="362.321">U</text>
      <text class="nucleotide" x="346.342" y="364.060">G</text>
      <text class="nucleotide" x="348.465" y="376.714">A</text>
      <text class="nucleotide" x="358.297" y="384.320">A</text>
      <text class="nucleotide" x="370.283" y="383.265">C</text>
      <text class="nucleotide" x="382.010" y="392.618">U</text>
      <text class="nucleotide" x="384.708" y="398.471">U</text>
      <text class="nucleotide" x="389.245" y="401.674">U</text>
      <text class="nucleotide" x="393.915" y="402.007">G</text>
      <text class="nucleotide" x="405.743" y="411.232">A</text>
      <text class="nucleotide" x="408.504" y="417.056">C</text>
      <text class="nucleotide" x="413.075" y="420.210">A</text>
      <text class="nucleotide" x="417.749" y="420.492">G</text>
      <text class="nucleotide" x="404.984" y="465.915">A</text>
      <text class="nucleotide" x="416.428" y="475.612">A</text>
      <text class="nucleotide" x="427.660" y="485.554">G</text>
      <text class="nucleotide" x="429.168" y="490.338">A</text>
      <text class="nucleotide" x="432.033" y="493.777">U</text>
      <text class="nucleotide" x="435.541" y="495.582">G</text>
      <text class="nucleotide" x="438.964" y="495.780">U</text>
      <text class="nucleotide" x="443.605" y="511.509">U</text>
      <text class="nucleotide" x="459.608" y="515.091">U</text>
      <text class="nucleotide" x="470.511" y="502.841">C</text>
      <text class="nucleotide" x="465.098" y="487.361">G</text>
      <text class="nucleotide" x="448.937" y="484.576">A</text>
      <text class="nucleotide" x="437.813" y="474.512">C</text>
      <text class="nucleotide" x="447.448" y="463.016">A</text>
      <text class="nucleotide" x="453.265" y="478.349">G</text>
      <text class="nucleotide" x="469.494" y="480.710">U</text>
      <text class="nucleotide" x="479.439" y="467.670">U</text>
      <text class="nucleotide" x="472.870" y="452.644">U</text>
      <text class="nucleotide" x="456.544" y="451.089">U</text>
      <text class="nucleotide" x="436.390" y="452.638">A</text>
      <text class="nucleotide" x="426.156" y="464.194">U</text>
      <text class="nucleotide" x="423.133" y="457.535">C</text>
      <text class="nucleotide" x="414.650" y="454.445">U</text>
      <text class="nucleotide" x="423.256" y="442.158">C</text>
      <text class="nucleotide" x="431.861" y="429.873">U</text>
      <text class="nucleotide" x="437.664" y="436.789">G</text>
      <text class="nucleotide" x="444.956" y="437.354">G</text>
      <text class="nucleotide" x="455.744" y="450.433">A</text>
      <text class="nucleotide" x="471.298" y="443.686">C</text>
      <text class="nucleotide" x="469.121" y="426.873">A</text>
      <text class="nucleotide" x="452.362" y="424.310">U</text>
      <text class="nucleotide" x="439.338" y="416.869">G</text>
      <text class="nucleotide" x="426.846" y="408.565">U</text>
      <text class="nucleotide" x="414.968" y="399.404">U</text>
      <text class="nucleotide" x="403.140" y="390.179">U</text>
      <text class="nucleotide" x="391.362" y="380.890">A</text>
      <text class="nucleotide" x="379.635" y="371.538">G</text>
      <text class="nucleotide" x="374.053" y="354.854">C</text>
      <text class="nucleotide" x="355.757" y="352.384">U</text>
      <text class="nucleotide" x="355.433" y="337.387">U</text>
      <text class="nucleotide" x="369.771" y="343.150">C</text>
      <text class="nucleotide" x="385.773" y="340.218">A</text>
      <text class="nucleotide" x="398.340" y="328.646">G</text>
      <text class="nucleotide" x="403.011" y="311.368">G</text>
      <text class="nucleotide" x="417.678" y="308.228">G</text>
      <text class="nucleotide" x="432.780" y="312.947">A</text>
      <text class="nucleotide" x="443.633" y="302.746">U</text>
      <text class="nucleotide" x="458.429" y="300.283">C</text>
      <text class="nucleotide" x="473.067" y="306.289">A</text>
      <text class="nucleotide" x="484.761" y="297.064">U</text>
      <text class="nucleotide" x="499.332" y="309.295">C</text>
      <text class="nucleotide" x="517.883" y="306.923">C</text>
      <text class="nucleotide" x="528.535" y="291.945">U</text>
      <text class="nucleotide" x="543.448" y="290.326">G</text>
      <text class="nucleotide" x="552.206" y="292.520">G</text>
      <text class="nucleotide" x="558.441" y="288.698">G</text>
      <text class="nucleotide" x="573.440" y="288.536">C</text>
      <text class="nucleotide" x="588.380" y="289.872">U</text>
      <text class="nucleotide" x="593.858" y="293.269">C</text>
      <text class="nucleotide" x="599.409" y="293.439">U</text>
      <text class="nucleotide" x="603.489" y="291.142">C</text>
      <text class="nucleotide" x="614.660" y="304.667">U</text>
      <text class="nucleotide" x="631.823" y="305.853">C</text>
      <text class="nucleotide" x="644.248" y="294.451">U</text>
      <text class="nucleotide" x="647.550" y="296.903">U</text>
      <text class="nucleotide" x="651.098" y="298.116">U</text>
      <text class="nucleotide" x="654.491" y="298.159">G</text>
      <text class="nucleotide" x="657.386" y="297.217">A</text>
      <text class="nucleotide" x="659.532" y="295.569">A</text>
      <text class="nucleotide" x="674.965" y="302.588">A</text>
      <text class="nucleotide" x="685.982" y="289.701">U</text>
      <text class="nucleotide" x="676.648" y="275.547">C</text>
      <text class="nucleotide" x="660.464" y="280.598">U</text>
      <text class="nucleotide" x="645.504" y="279.504">G</text>
      <text class="nucleotide" x="638.690" y="268.638">C</text>
      <text class="nucleotide" x="626.696" y="263.576">U</text>
      <text class="nucleotide" x="613.779" y="266.356">U</text>
      <text class="nucleotide" x="604.664" y="276.188">G</text>
      <text class="nucleotide" x="589.717" y="274.932">G</text>
      <text class="nucleotide" x="574.776" y="273.595">G</text>
      <text class="nucleotide" x="573.642" y="258.638">C</text>
      <text class="nucleotide" x="588.397" y="255.936">C</text>
      <text class="nucleotide" x="593.016" y="257.891">A</text>
      <text class="nucleotide" x="597.491" y="257.940">G</text>
      <text class="nucleotide" x="601.140" y="256.440">U</text>
      <text class="nucleotide" x="603.512" y="253.964">A</text>
      <text class="nucleotide" x="618.369" y="251.902">U</text>
      <text class="nucleotide" x="633.352" y="258.569">G</text>
      <text class="nucleotide" x="646.456" y="248.711">A</text>
      <text class="nucleotide" x="644.202" y="232.467">U</text>
      <text class="nucleotide" x="628.908" y="226.549">G</text>
      <text class="nucleotide" x="616.308" y="237.044">A</text>
      <text class="nucleotide" x="601.450" y="239.106">U</text>
      <text class="nucleotide" x="586.576" y="241.047">G</text>
      <text class="nucleotide" x="583.357" y="226.397">G</text>
      <text class="nucleotide" x="597.710" y="222.040">U</text>
      <text class="nucleotide" x="612.176" y="218.073">A</text>
      <text class="nucleotide" x="625.696" y="226.258">C</text>
      <text class="nucleotide" x="641.023" y="222.405">A</text>
      <text class="nucleotide" x="649.065" y="208.800">A</text>
      <text class="nucleotide" x="645.050" y="193.514">U</text>
      <text class="nucleotide" x="631.361" y="185.616">U</text>
      <text class="nucleotide" x="616.118" y="189.793">C</text>
      <text class="nucleotide" x="608.366" y="203.565">U</text>
      <text class="nucleotide" x="605.942" y="202.363">G</text>
      <text class="nucleotide" x="602.919" y="201.999">G</text>
      <text class="nucleotide" x="599.599" y="202.697">U</text>
      <text class="nucleotide" x="596.352" y="204.573">G</text>
      <text class="nucleotide" x="593.587" y="207.618">G</text>
      <text class="nucleotide" x="600.522" y="194.317">A</text>
      <text class="nucleotide" x="596.069" y="179.993">C</text>
      <text class="nucleotide" x="582.816" y="172.969">A</text>
      <text class="nucleotide" x="568.462" y="177.326">A</text>
      <text class="nucleotide" x="561.349" y="190.532">C</text>
      <text class="nucleotide" x="565.610" y="204.915">A</text>
      <text class="nucleotide" x="578.768" y="212.116">U</text>
      <text class="nucleotide" x="570.067" y="244.071">G</text>
      <text class="nucleotide" x="556.781" y="273.790">C</text>
      <text class="nucleotide" x="541.869" y="275.409">U</text>
      <text class="nucleotide" x="534.959" y="273.015">G</text>
      <text class="nucleotide" x="526.876" y="277.037">A</text>
      <text class="nucleotide" x="519.810" y="268.234">U</text>
      <text class="nucleotide" x="509.281" y="263.846">C</text>
      <text class="nucleotide" x="497.818" y="265.051">A</text>
      <text class="nucleotide" x="488.235" y="271.669">A</text>
      <text class="nucleotide" x="482.940" y="282.175">A</text>
      <text class="nucleotide" x="469.368" y="276.039">G</text>
      <text class="nucleotide" x="456.609" y="285.394">G</text>
      <text class="nucleotide" x="451.028" y="271.471">G</text>
      <text class="nucleotide" x="456.090" y="280.156">A</text>
      <text class="nucleotide" x="466.704" y="285.954">C</text>
      <text class="nucleotide" x="481.099" y="286.097">U</text>
      <text class="nucleotide" x="497.507" y="281.830">G</text>
      <text class="nucleotide" x="497.948" y="264.881">C</text>
      <text class="nucleotide" x="481.784" y="259.766">U</text>
      <text class="nucleotide" x="472.394" y="273.882">G</text>
      <text class="nucleotide" x="463.330" y="261.930">G</text>
      <text class="nucleotide" x="479.607" y="259.934">A</text>
      <text class="nucleotide" x="485.767" y="244.736">G</text>
      <text class="nucleotide" x="475.473" y="231.970">G</text>
      <text class="nucleotide" x="459.315" y="234.769">A</text>
      <text class="nucleotide" x="453.914" y="250.253">C</text>
      <text class="nucleotide" x="442.061" y="259.446">C</text>
      <text class="nucleotide" x="436.428" y="275.275">A</text>
      <text class="nucleotide" x="440.533" y="288.070">G</text>
      <text class="nucleotide" x="426.481" y="283.130">A</text>
      <text class="nucleotide" x="414.578" y="293.552">C</text>
      <text class="nucleotide" x="407.459" y="291.879">C</text>
      <text class="nucleotide" x="399.831" y="296.709">C</text>
      <text class="nucleotide" x="389.530" y="285.806">C</text>
      <text class="nucleotide" x="411.190" y="290.522">A</text>
      <text class="nucleotide" x="434.574" y="270.320">C</text>
      <text class="nucleotide" x="442.016" y="257.296">C</text>
      <text class="nucleotide" x="457.041" y="249.443">A</text>
      <text class="nucleotide" x="453.655" y="232.831">U</text>
      <text class="nucleotide" x="436.755" y="231.486">A</text>
      <text class="nucleotide" x="430.784" y="247.353">G</text>
      <text class="nucleotide" x="424.183" y="243.792">A</text>
      <text class="nucleotide" x="431.305" y="230.591">A</text>
      <text class="nucleotide" x="418.104" y="223.469">C</text>
      <text class="nucleotide" x="410.982" y="236.670">U</text>
      <text class="nucleotide" x="404.381" y="233.109">U</text>
      <text class="nucleotide" x="408.683" y="228.309">U</text>
      <text class="nucleotide" x="409.822" y="222.873">C</text>
      <text class="nucleotide" x="408.273" y="218.454">U</text>
      <text class="nucleotide" x="412.044" y="203.936">U</text>
      <text class="nucleotide" x="415.815" y="189.418">U</text>
      <text class="nucleotide" x="429.040" y="176.536">A</text>
      <text class="nucleotide" x="423.586" y="159.810">A</text>
      <text class="nucleotide" x="427.475" y="145.323">A</text>
      <text class="nucleotide" x="431.403" y="130.846">G</text>
      <text class="nucleotide" x="444.766" y="118.108">G</text>
      <text class="nucleotide" x="439.494" y="101.324">A</text>
      <text class="nucleotide" x="444.749" y="93.983">U</text>
      <text class="nucleotide" x="443.482" y="86.780">A</text>
      <text class="nucleotide" x="475.426" y="78.197">A</text>
      <text class="nucleotide" x="481.221" y="71.274">U</text>
      <text class="nucleotide" x="480.503" y="63.996">G</text>
      <text class="nucleotide" x="485.155" y="59.535">U</text>
      <text class="nucleotide" x="486.702" y="54.201">G</text>
      <text class="nucleotide" x="485.491" y="49.678">G</text>
      <text class="nucleotide" x="490.350" y="35.486">A</text>
      <text class="nucleotide" x="495.666" y="21.460">U</text>
      <text class="nucleotide" x="509.018" y="11.939">U</text>
      <text class="nucleotide" x="507.179" y="-4.357">A</text>
      <text class="nucleotide" x="492.041" y="-10.663">C</text>
      <text class="nucleotide" x="479.176" y="-0.493">U</text>
      <text class="nucleotide" x="481.819" y="15.692">G</text>
      <text class="nucleotide" x="474.750" y="13.186">G</text>
      <text class="nucleotide" x="460.612" y="8.174">G</text>
      <text class="nucleotide" x="453.543" y="5.669">U</text>
      <text class="nucleotide" x="457.861" y="-8.696">G</text>
      <text class="nucleotide" x="470.225" y="-19.470">U</text>
      <text class="nucleotide" x="466.811" y="-35.510">U</text>
      <text class="nucleotide" x="451.132" y="-40.316">G</text>
      <text class="nucleotide" x="439.316" y="-28.943">A</text>
      <text class="nucleotide" x="443.520" y="-13.092">U</text>
      <text class="nucleotide" x="439.885" y="-10.140">G</text>
      <text class="nucleotide" x="438.006" y="-4.914">G</text>
      <text class="nucleotide" x="439.155" y="1.428">A</text>
      <text class="nucleotide" x="476.158" y="30.628">U</text>
      <text class="nucleotide" x="471.300" y="44.819">C</text>
      <text class="nucleotide" x="466.365" y="58.984">C</text>
      <text class="nucleotide" x="461.315" y="73.109">U</text>
      <text class="nucleotide" x="446.700" y="69.732">G</text>
      <text class="nucleotide" x="448.400" y="54.828">U</text>
      <text class="nucleotide" x="450.301" y="39.949">U</text>
      <text class="nucleotide" x="460.762" y="27.320">A</text>
      <text class="nucleotide" x="454.803" y="12.042">A</text>
      <text class="nucleotide" x="438.553" y="9.832">G</text>
      <text class="nucleotide" x="428.730" y="22.963">C</text>
      <text class="nucleotide" x="435.438" y="37.927">A</text>
      <text class="nucleotide" x="432.967" y="40.306">A</text>
      <text class="nucleotide" x="431.478" y="43.958">A</text>
      <text class="nucleotide" x="431.539" y="48.434">U</text>
      <text class="nucleotide" x="433.506" y="53.048">G</text>
      <text class="nucleotide" x="430.453" y="56.598">C</text>
      <text class="nucleotide" x="429.532" y="62.075">U</text>
      <text class="nucleotide" x="431.788" y="68.112">U</text>
      <text class="nucleotide" x="429.006" y="82.852">U</text>
      <text class="nucleotide" x="425.039" y="97.318">U</text>
    </g>
  </g>
</svg>
