<?xml version="1.0" encoding="UTF-8" standalone="yes" ?>
<svg xmlns="http://www.w3.org/2000/svg" height="452" width="452">
  <script type="text/ecmascript">
    <![CDATA[
      var shown = 1;
      function click() {
        var seq = document.getElementById("seq");
        if (shown==1) {
          seq.setAttribute("style", "visibility: hidden");
          shown = 0;
        } else {
          seq.setAttribute("style", "visibility: visible");
          shown = 1;
        }
      }
    ]]>
  </script>
  <style type="text/css">
    <![CDATA[
      .nucleotide {
        font-family: SansSerif;
      }
      .backbone {
        stroke: grey;
        fill:   none;
        stroke-width: 1.5;
      }
      .basepairs {
        stroke: red;
        fill:   none;
        stroke-width: 2.5;
      }
    ]]>
  </style>

  <rect style="stroke: white; fill: white" height="452" x="0" y="0" width="452" onclick="click(evt)" />
  <g transform="scale(0.572432,0.572432) translate(298.579163,362.935425)">
    <polyline class="backbone" id="outline" points="
      86.186,-121.113
      115.041,-129.196
      128.815,-169.416
      120.302,-192.666
      113.829,-168.767
      98.876,-167.592
      100.998,-176.368
      97.126,-182.572
      105.874,-196.020
      100.677,-211.198
      85.522,-216.462
      72.035,-207.775
      70.562,-191.799
      82.232,-180.791
      83.972,-165.893
      76.591,-164.562
      54.448,-160.568
      65.563,-171.168
      69.873,-185.910
      66.220,-200.828
      55.585,-211.909
      40.830,-216.173
      25.923,-212.473
      14.875,-201.803
      10.658,-187.035
      14.405,-172.140
      25.109,-161.125
      39.890,-156.954
      25.610,-152.365
      20.142,-166.333
      42.419,-191.378
      42.551,-208.332
      26.296,-213.152
      17.165,-198.867
      28.364,-186.138
      14.410,-180.633
      0.564,-174.864
      6.145,-160.941
      5.106,-156.375
      6.853,-151.104
      11.671,-146.822
      23.376,-124.765
      40.868,-112.638
      58.570,-110.906
      71.647,-117.421
      62.084,-132.424
      51.301,-146.773
      39.338,-160.397
      31.409,-173.130
      31.403,-189.529
      17.065,-197.488
      3.144,-188.820
      3.962,-172.441
      18.676,-165.201
      26.605,-152.468
      21.309,-147.158
      10.688,-157.750
      0.067,-168.342
      -10.554,-178.934
      -21.175,-189.527
      -31.796,-200.119
      -42.417,-210.711
      -53.038,-221.303
      -63.659,-231.896
      -74.280,-242.488
      -84.901,-253.080
      -95.521,-263.672
      -106.142,-274.265
      -116.763,-284.857
      -127.384,-295.449
      -138.005,-306.041
      -148.626,-316.633
      -159.218,-306.012
      -148.597,-295.420
      -137.977,-284.828
      -127.356,-274.236
      -116.735,-263.644
      -106.114,-253.051
      -95.493,-242.459
      -84.872,-231.867
      -74.251,-221.275
      -63.630,-210.682
      -53.009,-200.090
      -42.388,-189.498
      -31.767,-178.906
      -21.146,-168.313
      -10.525,-157.721
      0.096,-147.129
      10.717,-136.537
      5.420,-131.226
      -7.313,-139.155
      -20.024,-147.118
      -35.181,-159.199
      -45.470,-142.774
      -27.988,-134.407
      -15.276,-126.443
      -11.317,-120.295
      -2.474,-118.472
      -5.855,-111.777
      -19.244,-118.540
      -32.633,-125.303
      -39.396,-111.913
      -26.007,-105.151
      -12.618,-98.388
      -16.000,-91.694
      -22.715,-97.729
      -30.013,-97.267
      -36.077,-111.862
      -50.716,-117.817
      -65.246,-111.600
      -71.046,-96.899
      -64.676,-82.435
      -49.914,-76.790
      -35.519,-83.313
      -21.580,-77.771
      -23.387,-70.491
      -37.946,-74.105
      -52.504,-77.719
      -67.062,-81.333
      -81.620,-84.947
      -96.035,-80.798
      -85.234,-70.389
      -70.676,-66.775
      -56.118,-63.161
      -41.559,-59.547
      -27.001,-55.933
      -28.808,-48.654
      -43.716,-50.314
      -56.146,-81.534
      -71.025,-83.435
      -85.904,-85.336
      -100.783,-87.237
      -119.608,-91.851
      -122.064,-72.625
      -102.684,-72.358
      -87.805,-70.457
      -72.926,-68.556
      -58.047,-66.655
      -59.464,-51.722
      -60.396,-36.751
      -45.456,-35.415
      -41.898,-32.371
      -36.419,-31.465
      -30.387,-33.738
      -30.245,-26.239
      -45.242,-25.955
      -60.240,-25.671
      -75.237,-25.387
      -74.953,-10.390
      -59.956,-10.674
      -44.959,-10.958
      -29.961,-11.242
      -29.819,-3.743
      -44.666,-1.601
      -59.518,0.501
      -74.375,2.563
      -83.200,0.654
      -89.308,4.676
      -87.165,19.522
      -72.313,17.420
      -57.456,15.359
      -50.472,17.528
      -42.524,13.245
      -27.677,11.103
      -24.812,18.034
      -38.674,23.765
      -52.536,29.496
      -66.398,35.227
      -80.260,40.958
      -94.122,46.689
      -107.984,52.420
      -121.846,58.151
      -135.708,63.881
      -149.570,69.612
      -163.433,75.343
      -177.295,81.074
      -191.157,86.805
      -205.019,92.536
      -218.881,98.267
      -232.743,103.998
      -246.605,109.729
      -260.467,115.460
      -254.736,129.322
      -240.874,123.591
      -227.012,117.860
      -213.150,112.129
      -199.288,106.398
      -185.426,100.667
      -171.564,94.936
      -157.702,89.205
      -143.840,83.474
      -129.977,77.744
      -116.115,72.013
      -102.253,66.282
      -88.391,60.551
      -74.529,54.820
      -60.667,49.089
      -46.805,43.358
      -32.943,37.627
      -19.081,31.896
      -16.215,38.827
      -28.240,47.795
      -44.581,49.173
      -51.312,64.127
      -41.509,77.273
      -25.256,75.088
      -19.273,59.819
      -7.248,50.852
      11.770,60.184
      31.091,65.935
      50.093,68.234
      68.200,67.312
      84.903,63.492
      99.764,57.171
      112.436,48.810
      53.569,149.899
      46.655,136.587
      33.039,130.293
      18.420,133.651
      8.915,145.255
      8.502,160.250
      17.354,172.359
      31.766,176.517
      45.709,170.981
      36.261,182.632
      20.763,187.991
      17.920,204.142
      30.658,214.470
      45.873,208.351
      47.913,192.079
      57.360,180.428
      64.531,182.626
      60.135,196.967
      55.740,211.309
      51.344,225.650
      65.686,230.046
      70.081,215.704
      74.477,201.363
      78.872,187.021
      86.043,189.219
      71.961,201.924
      74.394,224.608
      70.780,239.166
      67.048,253.695
      61.884,267.778
      55.412,281.310
      48.794,294.771
      62.201,301.498
      65.309,300.048
      67.901,297.074
      69.293,292.821
      68.926,287.818
      74.599,283.203
      75.433,274.213
      89.651,278.994
      85.410,293.383
      99.408,298.774
      113.819,302.937
      109.891,317.413
      124.056,322.348
      138.500,326.394
      123.557,323.138
      106.507,333.393
      120.872,337.711
      135.430,341.325
      120.520,344.281
      107.878,352.723
      99.433,365.362
      96.473,380.272
      99.449,395.179
      107.908,407.809
      120.558,416.237
      135.472,419.178
      150.375,416.182
      162.994,407.707
      171.406,395.045
      174.326,380.128
      171.311,365.229
      162.820,352.621
      150.147,344.226
      153.168,329.533
      165.958,321.697
      170.258,307.327
      163.875,293.753
      150.064,287.900
      135.871,292.753
      128.535,305.838
      104.335,282.055
      81.545,257.544
      96.419,259.485
      111.419,259.485
      99.624,245.294
      85.338,242.780
      88.952,228.222
      103.920,227.249
      70.113,258.396
      72.975,273.121
      31.766,296.121
      33.707,310.995
      31.727,319.803
      35.699,325.944
      31.843,342.453
      46.640,350.729
      58.688,338.802
      50.563,323.922
      48.581,309.053
      46.640,294.180
      54.017,292.828
      68.772,290.126
      76.149,288.775
      73.915,305.581
      89.446,312.380
      100.279,299.338
      90.746,285.319
      87.765,270.618
      98.258,281.336
      112.872,284.717
      127.007,279.697
      136.215,267.856
      137.598,252.920
      130.721,239.590
      117.748,232.060
      102.762,232.700
      90.478,241.309
      84.764,255.177
      91.663,252.237
      97.544,266.036
      103.424,279.835
      109.305,293.635
      115.185,307.434
      128.984,301.553
      123.104,287.754
      117.223,273.955
      111.343,260.156
      105.463,246.356
      112.362,243.416
      106.662,255.901
      107.839,269.467
      115.482,280.606
      127.522,286.491
      140.791,285.690
      149.196,298.114
      157.601,310.538
      158.228,326.925
      172.857,334.336
      186.440,325.147
      185.003,308.811
      170.025,302.133
      161.620,289.709
      153.215,277.285
      159.297,261.986
      154.981,245.926
      141.789,235.529
      124.831,235.078
      117.888,221.782
      117.210,198.492
      100.987,187.923
      90.895,156.754
      68.561,150.385
      82.499,144.842
      93.149,155.406
      96.933,171.362
      112.719,175.803
      124.268,164.161
      119.699,148.411
      103.712,144.756
      93.063,134.193
      97.691,128.291
      109.494,137.548
      121.297,146.805
      130.554,135.002
      118.751,125.745
      106.948,116.488
      111.577,110.587
      124.374,118.412
      127.777,123.886
      132.676,126.502
      137.352,126.252
      149.976,134.352
      173.666,141.555
      158.482,121.997
      166.480,109.307
      170.553,121.473
      181.453,127.451
      193.126,124.537
      206.170,131.943
      216.959,145.022
      232.512,138.275
      230.335,121.462
      213.576,118.899
      200.532,111.493
      192.413,95.886
      173.956,96.303
      145.038,113.371
      132.199,105.615
      119.402,97.790
      122.601,91.006
      136.168,97.405
      151.117,96.163
      142.567,83.838
      129.000,77.439
      132.199,70.656
      146.377,75.553
      159.375,86.438
      173.433,76.962
      168.219,60.830
      151.274,61.374
      137.096,56.478
      127.033,45.354
      136.440,41.610
      145.342,36.786
      153.615,30.948
      161.145,24.179
      167.826,16.571
      173.567,8.230
      178.287,-0.727
      181.921,-10.178
      184.419,-19.990
      185.746,-30.028
      185.884,-40.152
      184.831,-50.222
      182.601,-60.099
      179.225,-69.645
      174.750,-78.728
      169.239,-87.221
      183.417,-92.118
      193.914,-80.609
      209.114,-79.959
      220.021,-90.038
      239.123,-86.757
      240.223,-106.108
      220.872,-105.013
      211.177,-116.262
      196.002,-117.339
      184.268,-107.094
      184.430,-122.093
      199.421,-122.620
      215.463,-117.134
      225.175,-131.030
      214.511,-144.210
      198.894,-137.611
      183.903,-137.084
      182.567,-152.024
      197.413,-154.166
      212.259,-156.308
      227.106,-158.450
      240.763,-150.032
      255.810,-155.597
      260.704,-170.875
      251.691,-184.147
      235.684,-185.231
      224.964,-173.296
      210.117,-171.154
      195.271,-169.012
      180.425,-166.870
      173.054,-179.934
      265.768,-178.081
      312.891,-173.397
      323.905,-183.579
      336.929,-191.021
      351.282,-195.377
      360.297,-194.870
      365.701,-199.797
      361.267,-214.126
      346.926,-209.731
      332.572,-205.374
      328.799,-211.856
      341.762,-219.403
      354.725,-226.949
      367.689,-234.496
      380.652,-242.043
      393.615,-249.590
      406.578,-257.136
      419.542,-264.683
      432.505,-272.230
      445.468,-279.777
      452.922,-292.794
      437.921,-292.740
      424.958,-285.193
      411.995,-277.646
      399.032,-270.100
      386.068,-262.553
      373.105,-255.006
      360.142,-247.459
      347.179,-239.913
      334.215,-232.366
      321.252,-224.819
      317.479,-231.301
      328.382,-241.602
      339.931,-251.174
      352.051,-260.011
      368.060,-258.957
      378.758,-270.913
      375.938,-286.707
      361.765,-294.222
      347.110,-287.695
      343.215,-272.132
      331.094,-263.295
      321.243,-274.608
      331.662,-285.399
      342.081,-296.190
      355.100,-287.802
      374.184,-289.564
      391.338,-304.812
      402.044,-315.318
      417.621,-322.012
      415.501,-338.833
      398.751,-341.452
      391.597,-326.081
      386.989,-325.247
      382.825,-321.573
      380.774,-315.462
      369.899,-325.793
      358.721,-335.795
      347.436,-345.677
      336.044,-355.435
      322.748,-337.497
      322.387,-318.831
      331.289,-306.609
      320.871,-295.817
      310.452,-285.026
      318.110,-252.533
      311.158,-250.265
      307.148,-242.176
      301.076,-246.578
      309.879,-258.723
      318.683,-270.868
      327.486,-283.012
      315.341,-291.816
      306.538,-279.671
      297.735,-267.526
      288.931,-255.382
      282.858,-259.783
      289.294,-273.333
      295.765,-286.865
      302.310,-300.362
      308.891,-313.841
      315.473,-327.320
      319.086,-351.815
      301.993,-333.901
      295.412,-320.422
      288.831,-306.943
      283.133,-302.359
      282.251,-293.373
      276.578,-288.758
      275.744,-279.768
      269.309,-266.219
      271.038,-228.606
      288.803,-202.971
      313.752,-194.621
      306.776,-192.429
      302.678,-184.383
      296.117,-188.016
      303.381,-201.139
      310.646,-214.262
      317.911,-227.386
      325.175,-240.509
      312.051,-247.774
      304.787,-234.650
      297.522,-221.527
      290.258,-208.404
      282.993,-195.280
      276.431,-198.912
      261.699,-201.734
      254.864,-188.382
      241.403,-195.000
      226.587,-197.342
      211.729,-199.404
      213.509,-214.298
      208.863,-238.618
      198.615,-216.078
      196.835,-201.184
      181.895,-202.521
      191.371,-215.905
      184.273,-230.688
      167.903,-231.663
      159.101,-217.827
      166.921,-203.412
      161.454,-189.444
      159.327,-98.480
    " />
    <g id="pairs">
      <line class="basepairs" id="1,45" x1="86.18559" y1="-121.11319" x2="71.64721" y2="-117.42056" />
      <line class="basepairs" id="3,5" x1="128.81540" y1="-169.41589" x2="113.82944" y2="-168.76723" />
      <line class="basepairs" id="6,15" x1="98.87552" y1="-167.59236" x2="83.97211" y2="-165.89275" />
      <line class="basepairs" id="8,14" x1="97.12621" y1="-182.57167" x2="82.23222" y2="-180.79149" />
      <line class="basepairs" id="17,28" x1="54.44846" y1="-160.56796" x2="39.89032" y2="-156.95401" />
      <line class="basepairs" id="29,41" x1="25.60951" y1="-152.36505" x2="11.67124" y2="-146.82208" />
      <line class="basepairs" id="30,38" x1="20.14198" y1="-166.33310" x2="6.14458" y2="-160.94118" />
      <line class="basepairs" id="31,35" x1="42.41856" y1="-191.37825" x2="28.36367" y2="-186.13802" />
      <line class="basepairs" id="36,37" x1="14.41047" y1="-180.63275" x2="0.56394" y2="-174.86441" />
      <line class="basepairs" id="48,55" x1="39.33802" y1="-160.39693" x2="26.60489" y2="-152.46802" />
      <line class="basepairs" id="49,54" x1="31.40911" y1="-173.13005" x2="18.67599" y2="-165.20114" />
      <line class="basepairs" id="90,98" x1="5.42039" y1="-131.22615" x2="-2.47407" y2="-118.47163" />
      <line class="basepairs" id="91,96" x1="-7.31274" y1="-139.15506" x2="-15.27604" y2="-126.44342" />
      <line class="basepairs" id="92,95" x1="-20.02438" y1="-147.11836" x2="-27.98768" y2="-134.40672" />
      <line class="basepairs" id="105,115" x1="-15.99975" y1="-91.69374" x2="-21.58039" y2="-77.77051" />
      <line class="basepairs" id="107,114" x1="-30.01339" y1="-97.26669" x2="-35.51866" y2="-83.31349" />
      <line class="basepairs" id="127,144" x1="-28.80831" y1="-48.65424" x2="-30.38700" y2="-33.73754" />
      <line class="basepairs" id="128,141" x1="-43.71625" y1="-50.31355" x2="-45.45615" y2="-35.41480" />
      <line class="basepairs" id="129,138" x1="-56.14616" y1="-81.53429" x2="-58.04707" y2="-66.65521" />
      <line class="basepairs" id="130,137" x1="-71.02522" y1="-83.43520" x2="-72.92613" y2="-68.55614" />
      <line class="basepairs" id="131,136" x1="-85.90428" y1="-85.33612" x2="-87.80520" y2="-70.45706" />
      <line class="basepairs" id="132,135" x1="-100.78334" y1="-87.23703" x2="-102.68427" y2="-72.35797" />
      <line class="basepairs" id="139,140" x1="-59.46435" y1="-51.72233" x2="-60.39650" y2="-36.75131" />
      <line class="basepairs" id="153,164" x1="-29.81927" y1="-3.74292" x2="-27.67725" y2="11.10336" />
      <line class="basepairs" id="154,163" x1="-44.66554" y1="-1.60090" x2="-42.52352" y2="13.24538" />
      <line class="basepairs" id="155,161" x1="-59.51755" y1="0.50098" x2="-57.45584" y2="15.35862" />
      <line class="basepairs" id="156,160" x1="-74.37518" y1="2.56269" x2="-72.31347" y2="17.42033" />
      <line class="basepairs" id="158,159" x1="-89.30750" y1="4.67593" x2="-87.16548" y2="19.52220" />
      <line class="basepairs" id="201,208" x1="-16.21548" y1="38.82749" x2="-7.24847" y2="50.85216" />
      <line class="basepairs" id="202,207" x1="-28.24015" y1="47.79451" x2="-19.27314" y2="59.81918" />
      <line class="basepairs" id="215,409" x1="112.43616" y1="48.81042" x2="127.03252" y2="45.35411" />
      <line class="basepairs" id="216,359" x1="53.56890" y1="149.89854" x2="68.56100" y2="150.38510" />
      <line class="basepairs" id="224,231" x1="45.70854" y1="170.98088" x2="57.35978" y2="180.42804" />
      <line class="basepairs" id="225,230" x1="36.26139" y1="182.63211" x2="47.91262" y2="192.07927" />
      <line class="basepairs" id="240,357" x1="86.04285" y1="189.21901" x2="100.98675" y2="187.92290" />
      <line class="basepairs" id="242,294" x1="74.39359" y1="224.60812" x2="88.95173" y2="228.22209" />
      <line class="basepairs" id="243,293" x1="70.77963" y1="239.16626" x2="85.33777" y2="242.78023" />
      <line class="basepairs" id="244,289" x1="67.04771" y1="253.69461" x2="81.54531" y2="257.54425" />
      <line class="basepairs" id="245,254" x1="61.88355" y1="267.77762" x2="75.43307" y2="274.21271" />
      <line class="basepairs" id="246,252" x1="55.41186" y1="281.30969" x2="68.92639" y2="287.81796" />
      <line class="basepairs" id="247,248" x1="48.79420" y1="294.77100" x2="62.20139" y2="301.49762" />
      <line class="basepairs" id="255,288" x1="89.65055" y1="278.99426" x2="104.33501" y2="282.05475" />
      <line class="basepairs" id="256,257" x1="85.41042" y1="293.38251" x2="99.40781" y2="298.77441" />
      <line class="basepairs" id="258,287" x1="113.81876" y1="302.93671" x2="128.53546" y2="305.83820" />
      <line class="basepairs" id="259,260" x1="109.89080" y1="317.41327" x2="124.05573" y2="322.34833" />
      <line class="basepairs" id="261,281" x1="138.49997" y1="326.39359" x2="153.16766" y2="329.53342" />
      <line class="basepairs" id="263,264" x1="106.50697" y1="333.39276" x2="120.87207" y2="337.71063" />
      <line class="basepairs" id="265,280" x1="135.43021" y1="341.32458" x2="150.14691" y2="344.22607" />
      <line class="basepairs" id="290,291" x1="96.41918" y1="259.48538" x2="111.41918" y2="259.48538" />
      <line class="basepairs" id="295,355" x1="103.92016" y1="227.24947" x2="117.88820" y2="221.78194" />
      <line class="basepairs" id="296,325" x1="70.11311" y1="258.39603" x2="84.76362" y2="255.17693" />
      <line class="basepairs" id="297,315" x1="72.97480" y1="273.12051" x2="87.76456" y2="270.61792" />
      <line class="basepairs" id="298,307" x1="31.76619" y1="296.12076" x2="46.64006" y2="294.17963" />
      <line class="basepairs" id="299,306" x1="33.70733" y1="310.99463" x2="48.58120" y2="309.05347" />
      <line class="basepairs" id="301,305" x1="35.69939" y1="325.94360" x2="50.56254" y2="323.92206" />
      <line class="basepairs" id="310,314" x1="76.14922" y1="288.77502" x2="90.74558" y2="285.31873" />
      <line class="basepairs" id="336,354" x1="112.36218" y1="243.41602" x2="124.83141" y2="235.07825" />
      <line class="basepairs" id="341,350" x1="140.79131" y1="285.68970" x2="153.21527" y2="277.28461" />
      <line class="basepairs" id="342,349" x1="149.19637" y1="298.11365" x2="161.62033" y2="289.70856" />
      <line class="basepairs" id="343,348" x1="157.60144" y1="310.53760" x2="170.02541" y2="302.13254" />
      <line class="basepairs" id="360,367" x1="82.49928" y1="144.84213" x2="93.06277" y2="134.19260" />
      <line class="basepairs" id="361,366" x1="93.14880" y1="155.40564" x2="103.71230" y2="144.75610" />
      <line class="basepairs" id="374,396" x1="111.57661" y1="110.58672" x2="119.40199" y2="97.78970" />
      <line class="basepairs" id="375,395" x1="124.37363" y1="118.41209" x2="132.19901" y2="105.61508" />
      <line class="basepairs" id="378,394" x1="137.35162" y1="126.25203" x2="145.03815" y2="113.37114" />
      <line class="basepairs" id="379,381" x1="149.97639" y1="134.35234" x2="158.48195" y2="121.99696" />
      <line class="basepairs" id="382,393" x1="166.47960" y1="109.30689" x2="173.95618" y2="96.30302" />
      <line class="basepairs" id="385,391" x1="193.12596" y1="124.53722" x2="200.53212" y2="111.49310" />
      <line class="basepairs" id="386,390" x1="206.17007" y1="131.94336" x2="213.57623" y2="118.89925" />
      <line class="basepairs" id="402,408" x1="132.19885" y1="70.65596" x2="137.09558" y2="56.47773" />
      <line class="basepairs" id="403,407" x1="146.37708" y1="75.55269" x2="151.27380" y2="61.37446" />
      <line class="basepairs" id="425,580" x1="169.23874" y1="-87.22122" x2="159.32697" y2="-98.47986" />
      <line class="basepairs" id="426,435" x1="183.41696" y1="-92.11795" x2="184.26814" y2="-107.09378" />
      <line class="basepairs" id="429,432" x1="220.02083" y1="-90.03751" x2="220.87199" y2="-105.01334" />
      <line class="basepairs" id="436,442" x1="184.43034" y1="-122.09290" x2="183.90326" y2="-137.08363" />
      <line class="basepairs" id="437,441" x1="199.42108" y1="-122.62000" x2="198.89400" y2="-137.61073" />
      <line class="basepairs" id="443,455" x1="182.56674" y1="-152.02397" x2="180.42473" y2="-166.87025" />
      <line class="basepairs" id="444,454" x1="197.41301" y1="-154.16600" x2="195.27100" y2="-169.01227" />
      <line class="basepairs" id="445,453" x1="212.25928" y1="-156.30801" x2="210.11726" y2="-171.15430" />
      <line class="basepairs" id="446,452" x1="227.10556" y1="-158.45004" x2="224.96353" y2="-173.29631" />
      <line class="basepairs" id="456,579" x1="173.05386" y1="-179.93434" x2="161.45389" y2="-189.44437" />
      <line class="basepairs" id="457,565" x1="265.76752" y1="-178.08090" x2="254.86412" y2="-188.38217" />
      <line class="basepairs" id="458,552" x1="312.89081" y1="-173.39659" x2="302.67831" y2="-184.38316" />
      <line class="basepairs" id="459,550" x1="323.90497" y1="-183.57935" x2="313.75201" y2="-194.62097" />
      <line class="basepairs" id="460,466" x1="336.92902" y1="-191.02074" x2="332.57233" y2="-205.37411" />
      <line class="basepairs" id="461,465" x1="351.28238" y1="-195.37744" x2="346.92569" y2="-209.73080" />
      <line class="basepairs" id="463,464" x1="365.70148" y1="-199.79669" x2="361.26721" y2="-214.12628" />
      <line class="basepairs" id="488,524" x1="317.47876" y1="-231.30063" x2="307.14804" y2="-242.17612" />
      <line class="basepairs" id="489,522" x1="328.38214" y1="-241.60190" x2="318.11038" y2="-252.53308" />
      <line class="basepairs" id="490,498" x1="339.93054" y1="-251.17450" x2="331.09409" y2="-263.29544" />
      <line class="basepairs" id="491,497" x1="352.05148" y1="-260.01096" x2="343.21503" y2="-272.13190" />
      <line class="basepairs" id="499,521" x1="321.24335" y1="-274.60751" x2="310.45200" y2="-285.02609" />
      <line class="basepairs" id="500,520" x1="331.66193" y1="-285.39886" x2="320.87057" y2="-295.81744" />
      <line class="basepairs" id="501,519" x1="342.08051" y1="-296.19022" x2="331.28915" y2="-306.60880" />
      <line class="basepairs" id="504,512" x1="391.33792" y1="-304.81247" x2="380.77441" y2="-315.46201" />
      <line class="basepairs" id="505,509" x1="402.04440" y1="-315.31824" x2="391.59671" y2="-326.08139" />
      <line class="basepairs" id="513,514" x1="369.89893" y1="-325.79272" x2="358.72104" y2="-335.79547" />
      <line class="basepairs" id="515,516" x1="347.43567" y1="-345.67676" x2="336.04407" y2="-355.43542" />
      <line class="basepairs" id="533,547" x1="282.85849" y1="-259.78342" x2="269.30896" y2="-266.21851" />
      <line class="basepairs" id="534,546" x1="289.29358" y1="-273.33295" x2="275.74405" y2="-279.76804" />
      <line class="basepairs" id="535,544" x1="295.76526" y1="-286.86502" x2="282.25073" y2="-293.37329" />
      <line class="basepairs" id="536,542" x1="302.31003" y1="-300.36191" x2="288.83090" y2="-306.94315" />
      <line class="basepairs" id="537,541" x1="308.89127" y1="-313.84106" x2="295.41211" y2="-320.42230" />
      <line class="basepairs" id="538,540" x1="315.47250" y1="-327.32019" x2="301.99335" y2="-333.90143" />
      <line class="basepairs" id="563,564" x1="276.43143" y1="-198.91248" x2="261.69925" y2="-201.73434" />
      <line class="basepairs" id="566,567" x1="241.40282" y1="-194.99982" x2="226.58685" y2="-197.34235" />
      <line class="basepairs" id="568,572" x1="211.72922" y1="-199.40405" x2="196.83524" y2="-201.18423" />
      <line class="basepairs" id="569,571" x1="213.50940" y1="-214.29803" x2="198.61540" y2="-216.07822" />
      <line class="basepairs" id="573,578" x1="181.89490" y1="-202.52072" x2="166.92142" y2="-203.41238" />
    </g>
    <g transform="translate(-4.6, 4)" id="seq">
      <text class="nucleotide" x="86.186" y="-121.113">G</text>
      <text class="nucleotide" x="115.041" y="-129.196">C</text>
      <text class="nucleotide" x="128.815" y="-169.416">U</text>
      <text class="nucleotide" x="120.302" y="-192.666">A</text>
      <text class="nucleotide" x="113.829" y="-168.767">U</text>
      <text class="nucleotide" x="98.876" y="-167.592">C</text>
      <text class="nucleotide" x="100.998" y="-176.368">A</text>
      <text class="nucleotide" x="97.126" y="-182.572">G</text>
      <text class="nucleotide" x="105.874" y="-196.020">G</text>
      <text class="nucleotide" x="100.677" y="-211.198">A</text>
      <text class="nucleotide" x="85.522" y="-216.462">G</text>
      <text class="nucleotide" x="72.035" y="-207.775">G</text>
      <text class="nucleotide" x="70.562" y="-191.799">A</text>
      <text class="nucleotide" x="82.232" y="-180.791">G</text>
      <text class="nucleotide" x="83.972" y="-165.893">C</text>
      <text class="nucleotide" x="76.591" y="-164.562">A</text>
      <text class="nucleotide" x="54.448" y="-160.568">A</text>
      <text class="nucleotide" x="65.563" y="-171.168">A</text>
      <text class="nucleotide" x="69.873" y="-185.910">A</text>
      <text class="nucleotide" x="66.220" y="-200.828">G</text>
      <text class="nucleotide" x="55.585" y="-211.909">G</text>
      <text class="nucleotide" x="40.830" y="-216.173">G</text>
      <text class="nucleotide" x="25.923" y="-212.473">A</text>
      <text class="nucleotide" x="14.875" y="-201.803">A</text>
      <text class="nucleotide" x="10.658" y="-187.035">G</text>
      <text class="nucleotide" x="14.405" y="-172.140">G</text>
      <text class="nucleotide" x="25.109" y="-161.125">A</text>
      <text class="nucleotide" x="39.890" y="-156.954">U</text>
      <text class="nucleotide" x="25.610" y="-152.365">C</text>
      <text class="nucleotide" x="20.142" y="-166.333">U</text>
      <text class="nucleotide" x="42.419" y="-191.378">G</text>
      <text class="nucleotide" x="42.551" y="-208.332">C</text>
      <text class="nucleotide" x="26.296" y="-213.152">U</text>
      <text class="nucleotide" x="17.165" y="-198.867">G</text>
      <text class="nucleotide" x="28.364" y="-186.138">C</text>
      <text class="nucleotide" x="14.410" y="-180.633">U</text>
      <text class="nucleotide" x="0.564" y="-174.864">G</text>
      <text class="nucleotide" x="6.145" y="-160.941">G</text>
      <text class="nucleotide" x="5.106" y="-156.375">G</text>
      <text class="nucleotide" x="6.853" y="-151.104">G</text>
      <text class="nucleotide" x="11.671" y="-146.822">G</text>
      <text class="nucleotide" x="23.376" y="-124.765">C</text>
      <text class="nucleotide" x="40.868" y="-112.638">U</text>
      <text class="nucleotide" x="58.570" y="-110.906">C</text>
      <text class="nucleotide" x="71.647" y="-117.421">G</text>
      <text class="nucleotide" x="62.084" y="-132.424">C</text>
      <text class="nucleotide" x="51.301" y="-146.773">U</text>
      <text class="nucleotide" x="39.338" y="-160.397">G</text>
      <text class="nucleotide" x="31.409" y="-173.130">G</text>
      <text class="nucleotide" x="31.403" y="-189.529">G</text>
      <text class="nucleotide" x="17.065" y="-197.488">U</text>
      <text class="nucleotide" x="3.144" y="-188.820">G</text>
      <text class="nucleotide" x="3.962" y="-172.441">A</text>
      <text class="nucleotide" x="18.676" y="-165.201">C</text>
      <text class="nucleotide" x="26.605" y="-152.468">C</text>
      <text class="nucleotide" x="21.309" y="-147.158">C</text>
      <text class="nucleotide" x="10.688" y="-157.750">U</text>
      <text class="nucleotide" x="0.067" y="-168.342">U</text>
      <text class="nucleotide" x="-10.554" y="-178.934">U</text>
      <text class="nucleotide" x="-21.175" y="-189.527">G</text>
      <text class="nucleotide" x="-31.796" y="-200.119">C</text>
      <text class="nucleotide" x="-42.417" y="-210.711">C</text>
      <text class="nucleotide" x="-53.038" y="-221.303">A</text>
      <text class="nucleotide" x="-63.659" y="-231.896">G</text>
      <text class="nucleotide" x="-74.280" y="-242.488">A</text>
      <text class="nucleotide" x="-84.901" y="-253.080">C</text>
      <text class="nucleotide" x="-95.521" y="-263.672">G</text>
      <text class="nucleotide" x="-106.142" y="-274.265">A</text>
      <text class="nucleotide" x="-116.763" y="-284.857">A</text>
      <text class="nucleotide" x="-127.384" y="-295.449">A</text>
      <text class="nucleotide" x="-138.005" y="-306.041">A</text>
      <text class="nucleotide" x="-148.626" y="-316.633">G</text>
      <text class="nucleotide" x="-159.218" y="-306.012">A</text>
      <text class="nucleotide" x="-148.597" y="-295.420">G</text>
      <text class="nucleotide" x="-137.977" y="-284.828">C</text>
      <text class="nucleotide" x="-127.356" y="-274.236">U</text>
      <text class="nucleotide" x="-116.735" y="-263.644">G</text>
      <text class="nucleotide" x="-106.114" y="-253.051">G</text>
      <text class="nucleotide" x="-95.493" y="-242.459">U</text>
      <text class="nucleotide" x="-84.872" y="-231.867">C</text>
      <text class="nucleotide" x="-74.251" y="-221.275">G</text>
      <text class="nucleotide" x="-63.630" y="-210.682">A</text>
      <text class="nucleotide" x="-53.009" y="-200.090">G</text>
      <text class="nucleotide" x="-42.388" y="-189.498">A</text>
      <text class="nucleotide" x="-31.767" y="-178.906">G</text>
      <text class="nucleotide" x="-21.146" y="-168.313">A</text>
      <text class="nucleotide" x="-10.525" y="-157.721">G</text>
      <text class="nucleotide" x="0.096" y="-147.129">A</text>
      <text class="nucleotide" x="10.717" y="-136.537">A</text>
      <text class="nucleotide" x="5.420" y="-131.226">G</text>
      <text class="nucleotide" x="-7.313" y="-139.155">C</text>
      <text class="nucleotide" x="-20.024" y="-147.118">G</text>
      <text class="nucleotide" x="-35.181" y="-159.199">C</text>
      <text class="nucleotide" x="-45.470" y="-142.774">U</text>
      <text class="nucleotide" x="-27.988" y="-134.407">U</text>
      <text class="nucleotide" x="-15.276" y="-126.443">G</text>
      <text class="nucleotide" x="-11.317" y="-120.295">G</text>
      <text class="nucleotide" x="-2.474" y="-118.472">C</text>
      <text class="nucleotide" x="-5.855" y="-111.777">A</text>
      <text class="nucleotide" x="-19.244" y="-118.540">G</text>
      <text class="nucleotide" x="-32.633" y="-125.303">G</text>
      <text class="nucleotide" x="-39.396" y="-111.913">A</text>
      <text class="nucleotide" x="-26.007" y="-105.151">G</text>
      <text class="nucleotide" x="-12.618" y="-98.388">C</text>
      <text class="nucleotide" x="-16.000" y="-91.694">U</text>
      <text class="nucleotide" x="-22.715" y="-97.729">C</text>
      <text class="nucleotide" x="-30.013" y="-97.267">U</text>
      <text class="nucleotide" x="-36.077" y="-111.862">C</text>
      <text class="nucleotide" x="-50.716" y="-117.817">U</text>
      <text class="nucleotide" x="-65.246" y="-111.600">G</text>
      <text class="nucleotide" x="-71.046" y="-96.899">C</text>
      <text class="nucleotide" x="-64.676" y="-82.435">G</text>
      <text class="nucleotide" x="-49.914" y="-76.790">G</text>
      <text class="nucleotide" x="-35.519" y="-83.313">G</text>
      <text class="nucleotide" x="-21.580" y="-77.771">A</text>
      <text class="nucleotide" x="-23.387" y="-70.491">C</text>
      <text class="nucleotide" x="-37.946" y="-74.105">C</text>
      <text class="nucleotide" x="-52.504" y="-77.719">U</text>
      <text class="nucleotide" x="-67.062" y="-81.333">A</text>
      <text class="nucleotide" x="-81.620" y="-84.947">A</text>
      <text class="nucleotide" x="-96.035" y="-80.798">G</text>
      <text class="nucleotide" x="-85.234" y="-70.389">C</text>
      <text class="nucleotide" x="-70.676" y="-66.775">U</text>
      <text class="nucleotide" x="-56.118" y="-63.161">C</text>
      <text class="nucleotide" x="-41.559" y="-59.547">C</text>
      <text class="nucleotide" x="-27.001" y="-55.933">G</text>
      <text class="nucleotide" x="-28.808" y="-48.654">U</text>
      <text class="nucleotide" x="-43.716" y="-50.314">G</text>
      <text class="nucleotide" x="-56.146" y="-81.534">G</text>
      <text class="nucleotide" x="-71.025" y="-83.435">C</text>
      <text class="nucleotide" x="-85.904" y="-85.336">U</text>
      <text class="nucleotide" x="-100.783" y="-87.237">G</text>
      <text class="nucleotide" x="-119.608" y="-91.851">C</text>
      <text class="nucleotide" x="-122.064" y="-72.625">U</text>
      <text class="nucleotide" x="-102.684" y="-72.358">C</text>
      <text class="nucleotide" x="-87.805" y="-70.457">G</text>
      <text class="nucleotide" x="-72.926" y="-68.556">G</text>
      <text class="nucleotide" x="-58.047" y="-66.655">G</text>
      <text class="nucleotide" x="-59.464" y="-51.722">A</text>
      <text class="nucleotide" x="-60.396" y="-36.751">U</text>
      <text class="nucleotide" x="-45.456" y="-35.415">C</text>
      <text class="nucleotide" x="-41.898" y="-32.371">C</text>
      <text class="nucleotide" x="-36.419" y="-31.465">C</text>
      <text class="nucleotide" x="-30.387" y="-33.738">U</text>
      <text class="nucleotide" x="-30.245" y="-26.239">A</text>
      <text class="nucleotide" x="-45.242" y="-25.955">C</text>
      <text class="nucleotide" x="-60.240" y="-25.671">G</text>
      <text class="nucleotide" x="-75.237" y="-25.387">U</text>
      <text class="nucleotide" x="-74.953" y="-10.390">C</text>
      <text class="nucleotide" x="-59.956" y="-10.674">C</text>
      <text class="nucleotide" x="-44.959" y="-10.958">G</text>
      <text class="nucleotide" x="-29.961" y="-11.242">C</text>
      <text class="nucleotide" x="-29.819" y="-3.743">U</text>
      <text class="nucleotide" x="-44.666" y="-1.601">G</text>
      <text class="nucleotide" x="-59.518" y="0.501">C</text>
      <text class="nucleotide" x="-74.375" y="2.563">U</text>
      <text class="nucleotide" x="-83.200" y="0.654">G</text>
      <text class="nucleotide" x="-89.308" y="4.676">C</text>
      <text class="nucleotide" x="-87.165" y="19.522">U</text>
      <text class="nucleotide" x="-72.313" y="17.420">G</text>
      <text class="nucleotide" x="-57.456" y="15.359">A</text>
      <text class="nucleotide" x="-50.472" y="17.528">A</text>
      <text class="nucleotide" x="-42.524" y="13.245">G</text>
      <text class="nucleotide" x="-27.677" y="11.103">G</text>
      <text class="nucleotide" x="-24.812" y="18.034">A</text>
      <text class="nucleotide" x="-38.674" y="23.765">G</text>
      <text class="nucleotide" x="-52.536" y="29.496">C</text>
      <text class="nucleotide" x="-66.398" y="35.227">A</text>
      <text class="nucleotide" x="-80.260" y="40.958">G</text>
      <text class="nucleotide" x="-94.122" y="46.689">A</text>
      <text class="nucleotide" x="-107.984" y="52.420">G</text>
      <text class="nucleotide" x="-121.846" y="58.151">G</text>
      <text class="nucleotide" x="-135.708" y="63.881">G</text>
      <text class="nucleotide" x="-149.570" y="69.612">G</text>
      <text class="nucleotide" x="-163.433" y="75.343">A</text>
      <text class="nucleotide" x="-177.295" y="81.074">G</text>
      <text class="nucleotide" x="-191.157" y="86.805">G</text>
      <text class="nucleotide" x="-205.019" y="92.536">A</text>
      <text class="nucleotide" x="-218.881" y="98.267">C</text>
      <text class="nucleotide" x="-232.743" y="103.998">G</text>
      <text class="nucleotide" x="-246.605" y="109.729">C</text>
      <text class="nucleotide" x="-260.467" y="115.460">C</text>
      <text class="nucleotide" x="-254.736" y="129.322">A</text>
      <text class="nucleotide" x="-240.874" y="123.591">G</text>
      <text class="nucleotide" x="-227.012" y="117.860">C</text>
      <text class="nucleotide" x="-213.150" y="112.129">G</text>
      <text class="nucleotide" x="-199.288" y="106.398">G</text>
      <text class="nucleotide" x="-185.426" y="100.667">U</text>
      <text class="nucleotide" x="-171.564" y="94.936">U</text>
      <text class="nucleotide" x="-157.702" y="89.205">G</text>
      <text class="nucleotide" x="-143.840" y="83.474">C</text>
      <text class="nucleotide" x="-129.977" y="77.744">U</text>
      <text class="nucleotide" x="-116.115" y="72.013">U</text>
      <text class="nucleotide" x="-102.253" y="66.282">A</text>
      <text class="nucleotide" x="-88.391" y="60.551">C</text>
      <text class="nucleotide" x="-74.529" y="54.820">U</text>
      <text class="nucleotide" x="-60.667" y="49.089">G</text>
      <text class="nucleotide" x="-46.805" y="43.358">G</text>
      <text class="nucleotide" x="-32.943" y="37.627">A</text>
      <text class="nucleotide" x="-19.081" y="31.896">G</text>
      <text class="nucleotide" x="-16.215" y="38.827">C</text>
      <text class="nucleotide" x="-28.240" y="47.795">C</text>
      <text class="nucleotide" x="-44.581" y="49.173">U</text>
      <text class="nucleotide" x="-51.312" y="64.127">G</text>
      <text class="nucleotide" x="-41.509" y="77.273">G</text>
      <text class="nucleotide" x="-25.256" y="75.088">A</text>
      <text class="nucleotide" x="-19.273" y="59.819">G</text>
      <text class="nucleotide" x="-7.248" y="50.852">G</text>
      <text class="nucleotide" x="11.770" y="60.184">A</text>
      <text class="nucleotide" x="31.091" y="65.935">A</text>
      <text class="nucleotide" x="50.093" y="68.234">A</text>
      <text class="nucleotide" x="68.200" y="67.312">A</text>
      <text class="nucleotide" x="84.903" y="63.492">U</text>
      <text class="nucleotide" x="99.764" y="57.171">G</text>
      <text class="nucleotide" x="112.436" y="48.810">G</text>
      <text class="nucleotide" x="53.569" y="149.899">A</text>
      <text class="nucleotide" x="46.655" y="136.587">A</text>
      <text class="nucleotide" x="33.039" y="130.293">A</text>
      <text class="nucleotide" x="18.420" y="133.651">C</text>
      <text class="nucleotide" x="8.915" y="145.255">A</text>
      <text class="nucleotide" x="8.502" y="160.250">U</text>
      <text class="nucleotide" x="17.354" y="172.359">C</text>
      <text class="nucleotide" x="31.766" y="176.517">A</text>
      <text class="nucleotide" x="45.709" y="170.981">U</text>
      <text class="nucleotide" x="36.261" y="182.632">U</text>
      <text class="nucleotide" x="20.763" y="187.991">C</text>
      <text class="nucleotide" x="17.920" y="204.142">C</text>
      <text class="nucleotide" x="30.658" y="214.470">C</text>
      <text class="nucleotide" x="45.873" y="208.351">U</text>
      <text class="nucleotide" x="47.913" y="192.079">A</text>
      <text class="nucleotide" x="57.360" y="180.428">G</text>
      <text class="nucleotide" x="64.531" y="182.626">A</text>
      <text class="nucleotide" x="60.135" y="196.967">A</text>
      <text class="nucleotide" x="55.740" y="211.309">A</text>
      <text class="nucleotide" x="51.344" y="225.650">C</text>
      <text class="nucleotide" x="65.686" y="230.046">A</text>
      <text class="nucleotide" x="70.081" y="215.704">G</text>
      <text class="nucleotide" x="74.477" y="201.363">U</text>
      <text class="nucleotide" x="78.872" y="187.021">U</text>
      <text class="nucleotide" x="86.043" y="189.219">G</text>
      <text class="nucleotide" x="71.961" y="201.924">A</text>
      <text class="nucleotide" x="74.394" y="224.608">A</text>
      <text class="nucleotide" x="70.780" y="239.166">G</text>
      <text class="nucleotide" x="67.048" y="253.695">U</text>
      <text class="nucleotide" x="61.884" y="267.778">U</text>
      <text class="nucleotide" x="55.412" y="281.310">G</text>
      <text class="nucleotide" x="48.794" y="294.771">A</text>
      <text class="nucleotide" x="62.201" y="301.498">C</text>
      <text class="nucleotide" x="65.309" y="300.048">A</text>
      <text class="nucleotide" x="67.901" y="297.074">G</text>
      <text class="nucleotide" x="69.293" y="292.821">A</text>
      <text class="nucleotide" x="68.926" y="287.818">C</text>
      <text class="nucleotide" x="74.599" y="283.203">C</text>
      <text class="nucleotide" x="75.433" y="274.213">U</text>
      <text class="nucleotide" x="89.651" y="278.994">A</text>
      <text class="nucleotide" x="85.410" y="293.383">G</text>
      <text class="nucleotide" x="99.408" y="298.774">A</text>
      <text class="nucleotide" x="113.819" y="302.937">G</text>
      <text class="nucleotide" x="109.891" y="317.413">G</text>
      <text class="nucleotide" x="124.056" y="322.348">U</text>
      <text class="nucleotide" x="138.500" y="326.394">U</text>
      <text class="nucleotide" x="123.557" y="323.138">G</text>
      <text class="nucleotide" x="106.507" y="333.393">A</text>
      <text class="nucleotide" x="120.872" y="337.711">C</text>
      <text class="nucleotide" x="135.430" y="341.325">A</text>
      <text class="nucleotide" x="120.520" y="344.281">A</text>
      <text class="nucleotide" x="107.878" y="352.723">A</text>
      <text class="nucleotide" x="99.433" y="365.362">A</text>
      <text class="nucleotide" x="96.473" y="380.272">G</text>
      <text class="nucleotide" x="99.449" y="395.179">G</text>
      <text class="nucleotide" x="107.908" y="407.809">A</text>
      <text class="nucleotide" x="120.558" y="416.237">C</text>
      <text class="nucleotide" x="135.472" y="419.178">A</text>
      <text class="nucleotide" x="150.375" y="416.182">C</text>
      <text class="nucleotide" x="162.994" y="407.707">G</text>
      <text class="nucleotide" x="171.406" y="395.045">A</text>
      <text class="nucleotide" x="174.326" y="380.128">C</text>
      <text class="nucleotide" x="171.311" y="365.229">A</text>
      <text class="nucleotide" x="162.820" y="352.621">C</text>
      <text class="nucleotide" x="150.147" y="344.226">U</text>
      <text class="nucleotide" x="153.168" y="329.533">A</text>
      <text class="nucleotide" x="165.958" y="321.697">G</text>
      <text class="nucleotide" x="170.258" y="307.327">G</text>
      <text class="nucleotide" x="163.875" y="293.753">G</text>
      <text class="nucleotide" x="150.064" y="287.900">A</text>
      <text class="nucleotide" x="135.871" y="292.753">A</text>
      <text class="nucleotide" x="128.535" y="305.838">U</text>
      <text class="nucleotide" x="104.335" y="282.055">U</text>
      <text class="nucleotide" x="81.545" y="257.544">U</text>
      <text class="nucleotide" x="96.419" y="259.485">G</text>
      <text class="nucleotide" x="111.419" y="259.485">C</text>
      <text class="nucleotide" x="99.624" y="245.294">A</text>
      <text class="nucleotide" x="85.338" y="242.780">U</text>
      <text class="nucleotide" x="88.952" y="228.222">U</text>
      <text class="nucleotide" x="103.920" y="227.249">G</text>
      <text class="nucleotide" x="70.113" y="258.396">U</text>
      <text class="nucleotide" x="72.975" y="273.121">C</text>
      <text class="nucleotide" x="31.766" y="296.121">A</text>
      <text class="nucleotide" x="33.707" y="310.995">U</text>
      <text class="nucleotide" x="31.727" y="319.803">G</text>
      <text class="nucleotide" x="35.699" y="325.944">U</text>
      <text class="nucleotide" x="31.843" y="342.453">U</text>
      <text class="nucleotide" x="46.640" y="350.729">U</text>
      <text class="nucleotide" x="58.688" y="338.802">C</text>
      <text class="nucleotide" x="50.563" y="323.922">G</text>
      <text class="nucleotide" x="48.581" y="309.053">A</text>
      <text class="nucleotide" x="46.640" y="294.180">A</text>
      <text class="nucleotide" x="54.017" y="292.828">A</text>
      <text class="nucleotide" x="68.772" y="290.126">U</text>
      <text class="nucleotide" x="76.149" y="288.775">A</text>
      <text class="nucleotide" x="73.915" y="305.581">C</text>
      <text class="nucleotide" x="89.446" y="312.380">C</text>
      <text class="nucleotide" x="100.279" y="299.338">A</text>
      <text class="nucleotide" x="90.746" y="285.319">U</text>
      <text class="nucleotide" x="87.765" y="270.618">U</text>
      <text class="nucleotide" x="98.258" y="281.336">C</text>
      <text class="nucleotide" x="112.872" y="284.717">C</text>
      <text class="nucleotide" x="127.007" y="279.697">A</text>
      <text class="nucleotide" x="136.215" y="267.856">A</text>
      <text class="nucleotide" x="137.598" y="252.920">A</text>
      <text class="nucleotide" x="130.721" y="239.590">G</text>
      <text class="nucleotide" x="117.748" y="232.060">A</text>
      <text class="nucleotide" x="102.762" y="232.700">C</text>
      <text class="nucleotide" x="90.478" y="241.309">C</text>
      <text class="nucleotide" x="84.764" y="255.177">U</text>
      <text class="nucleotide" x="91.663" y="252.237">G</text>
      <text class="nucleotide" x="97.544" y="266.036">C</text>
      <text class="nucleotide" x="103.424" y="279.835">A</text>
      <text class="nucleotide" x="109.305" y="293.635">A</text>
      <text class="nucleotide" x="115.185" y="307.434">A</text>
      <text class="nucleotide" x="128.984" y="301.553">U</text>
      <text class="nucleotide" x="123.104" y="287.754">A</text>
      <text class="nucleotide" x="117.223" y="273.955">A</text>
      <text class="nucleotide" x="111.343" y="260.156">G</text>
      <text class="nucleotide" x="105.463" y="246.356">A</text>
      <text class="nucleotide" x="112.362" y="243.416">U</text>
      <text class="nucleotide" x="106.662" y="255.901">C</text>
      <text class="nucleotide" x="107.839" y="269.467">A</text>
      <text class="nucleotide" x="115.482" y="280.606">G</text>
      <text class="nucleotide" x="127.522" y="286.491">C</text>
      <text class="nucleotide" x="140.791" y="285.690">U</text>
      <text class="nucleotide" x="149.196" y="298.114">U</text>
      <text class="nucleotide" x="157.601" y="310.538">U</text>
      <text class="nucleotide" x="158.228" y="326.925">G</text>
      <text class="nucleotide" x="172.857" y="334.336">A</text>
      <text class="nucleotide" x="186.440" y="325.147">G</text>
      <text class="nucleotide" x="185.003" y="308.811">U</text>
      <text class="nucleotide" x="170.025" y="302.133">G</text>
      <text class="nucleotide" x="161.620" y="289.709">A</text>
      <text class="nucleotide" x="153.215" y="277.285">A</text>
      <text class="nucleotide" x="159.297" y="261.986">C</text>
      <text class="nucleotide" x="154.981" y="245.926">U</text>
      <text class="nucleotide" x="141.789" y="235.529">U</text>
      <text class="nucleotide" x="124.831" y="235.078">U</text>
      <text class="nucleotide" x="117.888" y="221.782">G</text>
      <text class="nucleotide" x="117.210" y="198.492">A</text>
      <text class="nucleotide" x="100.987" y="187.923">C</text>
      <text class="nucleotide" x="90.895" y="156.754">A</text>
      <text class="nucleotide" x="68.561" y="150.385">G</text>
      <text class="nucleotide" x="82.499" y="144.842">A</text>
      <text class="nucleotide" x="93.149" y="155.406">A</text>
      <text class="nucleotide" x="96.933" y="171.362">G</text>
      <text class="nucleotide" x="112.719" y="175.803">A</text>
      <text class="nucleotide" x="124.268" y="164.161">U</text>
      <text class="nucleotide" x="119.699" y="148.411">G</text>
      <text class="nucleotide" x="103.712" y="144.756">U</text>
      <text class="nucleotide" x="93.063" y="134.193">U</text>
      <text class="nucleotide" x="97.691" y="128.291">U</text>
      <text class="nucleotide" x="109.494" y="137.548">C</text>
      <text class="nucleotide" x="121.297" y="146.805">G</text>
      <text class="nucleotide" x="130.554" y="135.002">A</text>
      <text class="nucleotide" x="118.751" y="125.745">C</text>
      <text class="nucleotide" x="106.948" y="116.488">A</text>
      <text class="nucleotide" x="111.577" y="110.587">G</text>
      <text class="nucleotide" x="124.374" y="118.412">U</text>
      <text class="nucleotide" x="127.777" y="123.886">U</text>
      <text class="nucleotide" x="132.676" y="126.502">U</text>
      <text class="nucleotide" x="137.352" y="126.252">U</text>
      <text class="nucleotide" x="149.976" y="134.352">A</text>
      <text class="nucleotide" x="173.666" y="141.555">U</text>
      <text class="nucleotide" x="158.482" y="121.997">C</text>
      <text class="nucleotide" x="166.480" y="109.307">U</text>
      <text class="nucleotide" x="170.553" y="121.473">C</text>
      <text class="nucleotide" x="181.453" y="127.451">U</text>
      <text class="nucleotide" x="193.126" y="124.537">G</text>
      <text class="nucleotide" x="206.170" y="131.943">G</text>
      <text class="nucleotide" x="216.959" y="145.022">A</text>
      <text class="nucleotide" x="232.512" y="138.275">C</text>
      <text class="nucleotide" x="230.335" y="121.462">A</text>
      <text class="nucleotide" x="213.576" y="118.899">U</text>
      <text class="nucleotide" x="200.532" y="111.493">G</text>
      <text class="nucleotide" x="192.413" y="95.886">U</text>
      <text class="nucleotide" x="173.956" y="96.303">U</text>
      <text class="nucleotide" x="145.038" y="113.371">U</text>
      <text class="nucleotide" x="132.199" y="105.615">A</text>
      <text class="nucleotide" x="119.402" y="97.790">G</text>
      <text class="nucleotide" x="122.601" y="91.006">C</text>
      <text class="nucleotide" x="136.168" y="97.405">U</text>
      <text class="nucleotide" x="151.117" y="96.163">U</text>
      <text class="nucleotide" x="142.567" y="83.838">C</text>
      <text class="nucleotide" x="129.000" y="77.439">A</text>
      <text class="nucleotide" x="132.199" y="70.656">G</text>
      <text class="nucleotide" x="146.377" y="75.553">G</text>
      <text class="nucleotide" x="159.375" y="86.438">G</text>
      <text class="nucleotide" x="173.433" y="76.962">A</text>
      <text class="nucleotide" x="168.219" y="60.830">U</text>
      <text class="nucleotide" x="151.274" y="61.374">C</text>
      <text class="nucleotide" x="137.096" y="56.478">A</text>
      <text class="nucleotide" x="127.033" y="45.354">U</text>
      <text class="nucleotide" x="136.440" y="41.610">C</text>
      <text class="nucleotide" x="145.342" y="36.786">C</text>
      <text class="nucleotide" x="153.615" y="30.948">U</text>
      <text class="nucleotide" x="161.145" y="24.179">G</text>
      <text class="nucleotide" x="167.826" y="16.571">G</text>
      <text class="nucleotide" x="173.567" y="8.230">G</text>
      <text class="nucleotide" x="178.287" y="-0.727">C</text>
      <text class="nucleotide" x="181.921" y="-10.178">U</text>
      <text class="nucleotide" x="184.419" y="-19.990">C</text>
      <text class="nucleotide" x="185.746" y="-30.028">U</text>
      <text class="nucleotide" x="185.884" y="-40.152">C</text>
      <text class="nucleotide" x="184.831" y="-50.222">U</text>
      <text class="nucleotide" x="182.601" y="-60.099">C</text>
      <text class="nucleotide" x="179.225" y="-69.645">U</text>
      <text class="nucleotide" x="174.750" y="-78.728">U</text>
      <text class="nucleotide" x="169.239" y="-87.221">U</text>
      <text class="nucleotide" x="183.417" y="-92.118">G</text>
      <text class="nucleotide" x="193.914" y="-80.609">A</text>
      <text class="nucleotide" x="209.114" y="-79.959">A</text>
      <text class="nucleotide" x="220.021" y="-90.038">A</text>
      <text class="nucleotide" x="239.123" y="-86.757">U</text>
      <text class="nucleotide" x="240.223" y="-106.108">C</text>
      <text class="nucleotide" x="220.872" y="-105.013">U</text>
      <text class="nucleotide" x="211.177" y="-116.262">G</text>
      <text class="nucleotide" x="196.002" y="-117.339">C</text>
      <text class="nucleotide" x="184.268" y="-107.094">U</text>
      <text class="nucleotide" x="184.430" y="-122.093">U</text>
      <text class="nucleotide" x="199.421" y="-122.620">G</text>
      <text class="nucleotide" x="215.463" y="-117.134">G</text>
      <text class="nucleotide" x="225.175" y="-131.030">G</text>
      <text class="nucleotide" x="214.511" y="-144.210">C</text>
      <text class="nucleotide" x="198.894" y="-137.611">C</text>
      <text class="nucleotide" x="183.903" y="-137.084">A</text>
      <text class="nucleotide" x="182.567" y="-152.024">G</text>
      <text class="nucleotide" x="197.413" y="-154.166">U</text>
      <text class="nucleotide" x="212.259" y="-156.308">A</text>
      <text class="nucleotide" x="227.106" y="-158.450">U</text>
      <text class="nucleotide" x="240.763" y="-150.032">G</text>
      <text class="nucleotide" x="255.810" y="-155.597">A</text>
      <text class="nucleotide" x="260.704" y="-170.875">U</text>
      <text class="nucleotide" x="251.691" y="-184.147">G</text>
      <text class="nucleotide" x="235.684" y="-185.231">A</text>
      <text class="nucleotide" x="224.964" y="-173.296">U</text>
      <text class="nucleotide" x="210.117" y="-171.154">G</text>
      <text class="nucleotide" x="195.271" y="-169.012">G</text>
      <text class="nucleotide" x="180.425" y="-166.870">U</text>
      <text class="nucleotide" x="173.054" y="-179.934">A</text>
      <text class="nucleotide" x="265.768" y="-178.081">C</text>
      <text class="nucleotide" x="312.891" y="-173.397">A</text>
      <text class="nucleotide" x="323.905" y="-183.579">A</text>
      <text class="nucleotide" x="336.929" y="-191.021">U</text>
      <text class="nucleotide" x="351.282" y="-195.377">U</text>
      <text class="nucleotide" x="360.297" y="-194.870">C</text>
      <text class="nucleotide" x="365.701" y="-199.797">U</text>
      <text class="nucleotide" x="361.267" y="-214.126">G</text>
      <text class="nucleotide" x="346.926" y="-209.731">G</text>
      <text class="nucleotide" x="332.572" y="-205.374">U</text>
      <text class="nucleotide" x="328.799" y="-211.856">G</text>
      <text class="nucleotide" x="341.762" y="-219.403">G</text>
      <text class="nucleotide" x="354.725" y="-226.949">A</text>
      <text class="nucleotide" x="367.689" y="-234.496">C</text>
      <text class="nucleotide" x="380.652" y="-242.043">A</text>
      <text class="nucleotide" x="393.615" y="-249.590">A</text>
      <text class="nucleotide" x="406.578" y="-257.136">C</text>
      <text class="nucleotide" x="419.542" y="-264.683">A</text>
      <text class="nucleotide" x="432.505" y="-272.230">U</text>
      <text class="nucleotide" x="445.468" y="-279.777">G</text>
      <text class="nucleotide" x="452.922" y="-292.794">C</text>
      <text class="nucleotide" x="437.921" y="-292.740">U</text>
      <text class="nucleotide" x="424.958" y="-285.193">G</text>
      <text class="nucleotide" x="411.995" y="-277.646">A</text>
      <text class="nucleotide" x="399.032" y="-270.100">U</text>
      <text class="nucleotide" x="386.068" y="-262.553">C</text>
      <text class="nucleotide" x="373.105" y="-255.006">A</text>
      <text class="nucleotide" x="360.142" y="-247.459">A</text>
      <text class="nucleotide" x="347.179" y="-239.913">A</text>
      <text class="nucleotide" x="334.215" y="-232.366">G</text>
      <text class="nucleotide" x="321.252" y="-224.819">G</text>
      <text class="nucleotide" x="317.479" y="-231.301">G</text>
      <text class="nucleotide" x="328.382" y="-241.602">A</text>
      <text class="nucleotide" x="339.931" y="-251.174">C</text>
      <text class="nucleotide" x="352.051" y="-260.011">U</text>
      <text class="nucleotide" x="368.060" y="-258.957">G</text>
      <text class="nucleotide" x="378.758" y="-270.913">C</text>
      <text class="nucleotide" x="375.938" y="-286.707">U</text>
      <text class="nucleotide" x="361.765" y="-294.222">G</text>
      <text class="nucleotide" x="347.110" y="-287.695">G</text>
      <text class="nucleotide" x="343.215" y="-272.132">A</text>
      <text class="nucleotide" x="331.094" y="-263.295">G</text>
      <text class="nucleotide" x="321.243" y="-274.608">G</text>
      <text class="nucleotide" x="331.662" y="-285.399">A</text>
      <text class="nucleotide" x="342.081" y="-296.190">C</text>
      <text class="nucleotide" x="355.100" y="-287.802">C</text>
      <text class="nucleotide" x="374.184" y="-289.564">A</text>
      <text class="nucleotide" x="391.338" y="-304.812">G</text>
      <text class="nucleotide" x="402.044" y="-315.318">A</text>
      <text class="nucleotide" x="417.621" y="-322.012">C</text>
      <text class="nucleotide" x="415.501" y="-338.833">C</text>
      <text class="nucleotide" x="398.751" y="-341.452">C</text>
      <text class="nucleotide" x="391.597" y="-326.081">C</text>
      <text class="nucleotide" x="386.989" y="-325.247">A</text>
      <text class="nucleotide" x="382.825" y="-321.573">C</text>
      <text class="nucleotide" x="380.774" y="-315.462">C</text>
      <text class="nucleotide" x="369.899" y="-325.793">A</text>
      <text class="nucleotide" x="358.721" y="-335.795">U</text>
      <text class="nucleotide" x="347.436" y="-345.677">A</text>
      <text class="nucleotide" x="336.044" y="-355.435">G</text>
      <text class="nucleotide" x="322.748" y="-337.497">A</text>
      <text class="nucleotide" x="322.387" y="-318.831">A</text>
      <text class="nucleotide" x="331.289" y="-306.609">C</text>
      <text class="nucleotide" x="320.871" y="-295.817">U</text>
      <text class="nucleotide" x="310.452" y="-285.026">U</text>
      <text class="nucleotide" x="318.110" y="-252.533">U</text>
      <text class="nucleotide" x="311.158" y="-250.265">C</text>
      <text class="nucleotide" x="307.148" y="-242.176">U</text>
      <text class="nucleotide" x="301.076" y="-246.578">U</text>
      <text class="nucleotide" x="309.879" y="-258.723">U</text>
      <text class="nucleotide" x="318.683" y="-270.868">A</text>
      <text class="nucleotide" x="327.486" y="-283.012">A</text>
      <text class="nucleotide" x="315.341" y="-291.816">A</text>
      <text class="nucleotide" x="306.538" y="-279.671">G</text>
      <text class="nucleotide" x="297.735" y="-267.526">G</text>
      <text class="nucleotide" x="288.931" y="-255.382">A</text>
      <text class="nucleotide" x="282.858" y="-259.783">U</text>
      <text class="nucleotide" x="289.294" y="-273.333">A</text>
      <text class="nucleotide" x="295.765" y="-286.865">A</text>
      <text class="nucleotide" x="302.310" y="-300.362">U</text>
      <text class="nucleotide" x="308.891" y="-313.841">G</text>
      <text class="nucleotide" x="315.473" y="-327.320">U</text>
      <text class="nucleotide" x="319.086" y="-351.815">G</text>
      <text class="nucleotide" x="301.993" y="-333.901">G</text>
      <text class="nucleotide" x="295.412" y="-320.422">A</text>
      <text class="nucleotide" x="288.831" y="-306.943">U</text>
      <text class="nucleotide" x="283.133" y="-302.359">U</text>
      <text class="nucleotide" x="282.251" y="-293.373">A</text>
      <text class="nucleotide" x="276.578" y="-288.758">C</text>
      <text class="nucleotide" x="275.744" y="-279.768">U</text>
      <text class="nucleotide" x="269.309" y="-266.219">G</text>
      <text class="nucleotide" x="271.038" y="-228.606">G</text>
      <text class="nucleotide" x="288.803" y="-202.971">G</text>
      <text class="nucleotide" x="313.752" y="-194.621">U</text>
      <text class="nucleotide" x="306.776" y="-192.429">G</text>
      <text class="nucleotide" x="302.678" y="-184.383">U</text>
      <text class="nucleotide" x="296.117" y="-188.016">U</text>
      <text class="nucleotide" x="303.381" y="-201.139">G</text>
      <text class="nucleotide" x="310.646" y="-214.262">A</text>
      <text class="nucleotide" x="317.911" y="-227.386">U</text>
      <text class="nucleotide" x="325.175" y="-240.509">G</text>
      <text class="nucleotide" x="312.051" y="-247.774">G</text>
      <text class="nucleotide" x="304.787" y="-234.650">A</text>
      <text class="nucleotide" x="297.522" y="-221.527">U</text>
      <text class="nucleotide" x="290.258" y="-208.404">C</text>
      <text class="nucleotide" x="282.993" y="-195.280">C</text>
      <text class="nucleotide" x="276.431" y="-198.912">U</text>
      <text class="nucleotide" x="261.699" y="-201.734">G</text>
      <text class="nucleotide" x="254.864" y="-188.382">U</text>
      <text class="nucleotide" x="241.403" y="-195.000">U</text>
      <text class="nucleotide" x="226.587" y="-197.342">A</text>
      <text class="nucleotide" x="211.729" y="-199.404">A</text>
      <text class="nucleotide" x="213.509" y="-214.298">G</text>
      <text class="nucleotide" x="208.863" y="-238.618">C</text>
      <text class="nucleotide" x="198.615" y="-216.078">A</text>
      <text class="nucleotide" x="196.835" y="-201.184">A</text>
      <text class="nucleotide" x="181.895" y="-202.521">A</text>
      <text class="nucleotide" x="191.371" y="-215.905">U</text>
      <text class="nucleotide" x="184.273" y="-230.688">G</text>
      <text class="nucleotide" x="167.903" y="-231.663">C</text>
      <text class="nucleotide" x="159.101" y="-217.827">U</text>
      <text class="nucleotide" x="166.921" y="-203.412">U</text>
      <text class="nucleotide" x="161.454" y="-189.444">U</text>
      <text class="nucleotide" x="159.327" y="-98.480">U</text>
    </g>
  </g>
</svg>
