<?xml version="1.0" encoding="UTF-8" standalone="yes" ?>
<svg xmlns="http://www.w3.org/2000/svg" height="452" width="452">
  <script type="text/ecmascript">
    <![CDATA[
      var shown = 1;
      function click() {
        var seq = document.getElementById("seq");
        if (shown==1) {
          seq.setAttribute("style", "visibility: hidden");
          shown = 0;
        } else {
          seq.setAttribute("style", "visibility: visible");
          shown = 1;
        }
      }
    ]]>
  </script>
  <style type="text/css">
    <![CDATA[
      .nucleotide {
        font-family: SansSerif;
      }
      .backbone {
        stroke: grey;
        fill:   none;
        stroke-width: 1.5;
      }
      .basepairs {
        stroke: red;
        fill:   none;
        stroke-width: 2.5;
      }
    ]]>
  </style>

  <rect style="stroke: white; fill: white" height="452" x="0" y="0" width="452" onclick="click(evt)" />
  <g transform="scale(0.230116,0.230116) translate(935.559631,1147.000488)">
    <polyline class="backbone" id="outline" points="
      103.099,-1077.034
      102.288,-1062.056
      101.437,-1047.080
      100.545,-1032.107
      92.065,-1019.862
      98.969,-1005.626
      98.077,-990.653
      97.185,-975.679
      96.294,-960.706
      95.402,-945.732
      77.984,-938.061
      66.941,-922.457
      65.487,-903.312
      74.120,-886.070
      90.461,-875.676
      89.245,-860.726
      81.880,-829.560
      100.150,-811.410
      97.090,-796.726
      94.029,-782.041
      84.129,-775.205
      81.413,-763.074
      87.853,-751.977
      84.872,-737.276
      81.891,-722.576
      72.028,-715.686
      69.378,-703.541
      75.878,-692.479
      72.977,-677.762
      70.075,-663.045
      60.249,-656.102
      57.665,-643.943
      64.225,-632.916
      61.403,-618.184
      51.409,-607.140
      56.412,-592.130
      53.590,-577.398
      50.768,-562.666
      47.947,-547.934
      45.125,-533.201
      30.665,-528.863
      19.866,-518.313
      6.978,-533.900
      -11.745,-528.840
      -25.949,-533.660
      -40.154,-538.480
      -54.358,-543.300
      -68.563,-548.120
      -82.767,-552.940
      -96.958,-557.798
      -111.137,-562.695
      -112.281,-578.597
      -125.387,-592.113
      -146.981,-594.589
      -159.904,-602.206
      -172.826,-609.823
      -174.075,-627.996
      -185.939,-641.609
      -203.461,-645.263
      -219.491,-637.664
      -232.331,-645.420
      -245.170,-653.176
      -258.009,-660.932
      -257.150,-668.835
      -258.583,-676.620
      -262.169,-683.639
      -267.590,-689.315
      -274.380,-693.186
      -281.960,-694.944
      -289.694,-694.462
      -296.935,-691.798
      -303.084,-687.193
      -316.168,-694.529
      -329.252,-701.864
      -342.336,-709.200
      -355.420,-716.535
      -368.464,-723.941
      -381.468,-731.418
      -394.471,-738.895
      -407.475,-746.371
      -409.070,-763.259
      -420.335,-775.719
      -436.649,-778.940
      -451.502,-771.840
      -464.466,-779.386
      -477.429,-786.933
      -490.392,-794.480
      -496.158,-801.427
      -503.446,-802.032
      -516.450,-809.509
      -529.454,-816.985
      -538.379,-833.146
      -555.952,-832.310
      -568.915,-839.857
      -576.590,-854.350
      -592.985,-854.679
      -601.236,-840.507
      -592.854,-826.412
      -576.462,-826.894
      -563.499,-819.347
      -560.144,-807.793
      -549.494,-801.381
      -536.930,-803.981
      -523.926,-796.505
      -510.922,-789.028
      -497.939,-781.517
      -484.976,-773.970
      -472.012,-766.423
      -459.049,-758.876
      -458.952,-745.583
      -452.268,-733.968
      -440.638,-727.094
      -427.023,-726.836
      -414.952,-733.367
      -401.948,-725.891
      -388.944,-718.414
      -375.940,-710.938
      -373.871,-706.737
      -369.194,-703.743
      -362.755,-703.451
      -349.671,-696.116
      -336.587,-688.780
      -323.503,-681.445
      -310.419,-674.109
      -306.357,-652.512
      -287.215,-641.146
      -265.765,-648.093
      -252.926,-640.337
      -240.087,-632.581
      -227.248,-624.824
      -228.030,-612.827
      -223.649,-601.553
      -214.867,-593.133
      -203.283,-589.184
      -191.043,-590.502
      -180.443,-596.901
      -167.520,-589.284
      -154.598,-581.667
      -156.009,-574.301
      -170.741,-577.123
      -173.563,-562.390
      -158.831,-559.569
      -160.242,-552.203
      -175.064,-549.900
      -183.019,-558.568
      -194.042,-562.326
      -205.400,-560.365
      -214.337,-553.275
      -218.739,-542.881
      -233.535,-540.418
      -248.418,-545.785
      -259.703,-536.063
      -274.499,-533.601
      -289.296,-531.138
      -304.092,-528.675
      -318.889,-526.213
      -333.772,-531.580
      -345.056,-521.858
      -360.213,-528.118
      -373.047,-517.908
      -370.354,-501.732
      -354.906,-496.229
      -342.593,-507.061
      -328.769,-501.518
      -316.426,-511.416
      -301.629,-513.879
      -286.833,-516.342
      -272.037,-518.804
      -257.240,-521.267
      -243.415,-515.724
      -231.073,-525.622
      -216.276,-528.084
      -201.948,-516.572
      -183.452,-519.342
      -172.762,-535.078
      -157.939,-537.381
      -131.408,-533.744
      -116.033,-548.517
      -101.855,-543.620
      -96.613,-538.521
      -87.587,-538.735
      -73.383,-533.915
      -59.178,-529.095
      -44.974,-524.275
      -30.769,-519.455
      -16.565,-514.635
      -12.948,-505.214
      -4.599,-499.166
      5.916,-498.645
      15.200,-504.058
      16.072,-493.307
      20.521,-483.426
      28.062,-475.575
      37.845,-470.688
      48.750,-469.359
      59.516,-471.778
      68.451,-459.729
      77.385,-447.680
      71.454,-433.921
      73.225,-419.042
      82.221,-407.060
      96.013,-401.206
      97.874,-386.322
      99.734,-371.437
      93.769,-356.784
      103.025,-345.115
      104.886,-330.231
      98.149,-326.011
      92.923,-320.065
      89.632,-312.903
      88.532,-305.131
      89.698,-297.403
      93.011,-290.362
      98.179,-284.588
      104.755,-280.553
      112.178,-278.576
      114.521,-263.760
      116.863,-248.944
      119.206,-234.128
      121.548,-219.312
      123.891,-204.496
      117.072,-196.190
      115.916,-185.726
      120.561,-176.521
      129.289,-171.455
      131.791,-156.665
      134.294,-141.875
      125.410,-129.080
      128.158,-114.117
      140.411,-105.726
      142.914,-90.936
      145.416,-76.147
      147.799,-61.337
      150.061,-46.509
      152.323,-31.680
      146.756,-16.871
      156.324,-5.456
      158.587,9.372
      153.019,24.182
      162.588,35.596
      164.850,50.425
      167.112,65.253
      165.497,69.035
      165.144,72.769
      165.894,76.078
      167.485,78.674
      169.587,80.376
      172.170,95.152
      174.753,109.928
      168.070,118.344
      167.084,128.826
      171.877,137.953
      180.686,142.878
      183.428,157.625
      176.038,163.546
      171.291,171.674
      169.782,180.906
      171.672,190.009
      176.668,197.781
      184.072,203.212
      192.876,205.612
      195.937,220.296
      191.178,235.385
      201.349,246.266
      204.410,260.950
      207.470,275.635
      210.531,290.319
      200.569,299.760
      196.579,312.780
      199.493,325.971
      208.453,335.936
      221.057,340.164
      224.196,354.831
      227.336,369.499
      221.016,380.665
      223.863,392.766
      233.837,399.495
      237.056,414.145
      230.797,425.345
      233.709,437.430
      243.719,444.105
      247.017,458.738
      241.163,476.247
      253.672,488.617
      256.891,503.267
      259.952,517.952
      262.853,532.668
      265.755,547.385
      268.656,562.102
      271.558,576.818
      274.459,591.535
      277.361,606.252
      270.860,617.314
      273.511,629.459
      283.374,636.349
      286.355,651.050
      289.336,665.750
      282.883,674.344
      282.181,684.848
      287.220,693.843
      296.158,698.528
      299.298,713.195
      292.978,724.361
      295.825,736.462
      305.799,743.191
      309.018,757.842
      312.237,772.492
      303.510,785.669
      306.738,801.140
      320.006,809.726
      335.443,806.335
      343.889,792.977
      340.334,777.577
      326.887,769.273
      323.668,754.622
      320.449,739.972
      326.621,723.497
      313.966,710.056
      310.826,695.388
      318.023,677.378
      304.037,662.769
      301.056,648.069
      298.075,633.368
      304.513,616.996
      292.077,603.350
      289.176,588.634
      286.274,573.917
      283.373,559.200
      280.471,544.484
      277.570,529.767
      274.668,515.050
      276.019,512.705
      276.570,509.712
      276.080,506.354
      274.409,502.997
      271.542,500.048
      268.323,485.398
      274.557,475.107
      272.069,462.928
      261.650,455.440
      258.352,440.807
      264.434,424.299
      251.707,410.926
      248.488,396.276
      254.659,379.801
      242.004,366.359
      238.864,351.692
      235.724,337.024
      247.093,325.117
      249.107,308.609
      240.769,294.028
      225.215,287.259
      222.155,272.574
      219.094,257.890
      216.034,243.205
      221.011,229.167
      210.621,217.236
      207.561,202.552
      220.077,186.289
      216.242,165.823
      198.175,154.883
      195.433,140.136
      203.115,122.327
      189.529,107.346
      186.946,92.570
      184.363,77.794
      181.941,62.991
      179.679,48.162
      177.416,33.334
      183.145,19.585
      173.415,7.110
      171.153,-7.719
      176.882,-21.467
      167.152,-33.943
      164.889,-48.771
      162.627,-63.599
      164.325,-66.579
      164.721,-70.504
      163.397,-74.779
      160.206,-78.649
      157.703,-93.439
      155.201,-108.229
      164.010,-120.184
      161.683,-135.218
      149.084,-144.378
      146.581,-159.167
      144.079,-173.957
      152.048,-191.639
      138.707,-206.839
      136.364,-221.655
      134.022,-236.471
      131.679,-251.287
      129.337,-266.103
      126.994,-280.919
      141.436,-297.482
      138.508,-319.550
      119.770,-332.091
      117.909,-346.976
      124.008,-360.564
      114.619,-373.298
      112.758,-388.182
      110.897,-403.066
      116.496,-406.111
      121.289,-410.311
      125.043,-415.460
      127.575,-421.309
      128.761,-427.570
      143.757,-422.527
      154.828,-432.490
      169.568,-435.272
      184.308,-438.054
      192.813,-431.486
      203.307,-430.641
      212.369,-435.558
      217.174,-444.433
      231.883,-447.374
      244.936,-438.874
      259.811,-442.066
      267.834,-454.563
      282.543,-457.504
      297.592,-452.623
      308.555,-462.706
      323.264,-465.647
      337.973,-468.588
      352.682,-471.530
      367.391,-474.471
      382.099,-477.412
      388.314,-475.703
      393.687,-477.108
      396.951,-480.466
      411.627,-483.566
      426.728,-478.848
      437.582,-489.048
      452.258,-492.148
      467.359,-487.430
      478.213,-497.631
      492.889,-500.731
      510.424,-487.620
      531.581,-491.989
      542.196,-510.468
      556.951,-513.170
      571.705,-515.872
      586.460,-518.575
      601.428,-513.450
      612.553,-523.354
      627.308,-526.056
      633.494,-524.246
      638.889,-525.564
      642.207,-528.868
      656.931,-531.730
      669.892,-522.685
      685.437,-525.536
      694.344,-538.591
      691.329,-554.105
      678.180,-562.874
      662.699,-559.695
      654.070,-546.454
      639.345,-543.593
      624.605,-540.811
      609.851,-538.108
      595.938,-543.426
      583.757,-533.329
      569.003,-530.627
      554.248,-527.925
      539.494,-525.222
      534.634,-531.997
      527.835,-536.898
      519.789,-539.393
      511.325,-539.196
      503.322,-536.301
      496.624,-530.983
      491.943,-523.774
      489.789,-515.407
      475.112,-512.307
      461.061,-517.247
      449.158,-506.825
      434.482,-503.724
      420.430,-508.664
      408.527,-498.242
      393.851,-495.142
      379.158,-492.121
      364.449,-489.180
      349.741,-486.238
      335.032,-483.297
      320.323,-480.356
      305.614,-477.415
      291.617,-482.506
      279.602,-472.213
      264.893,-469.272
      252.681,-477.722
      237.722,-474.949
      228.942,-462.083
      214.233,-459.141
      196.322,-466.582
      181.526,-452.794
      166.786,-450.012
      152.046,-447.230
      138.105,-452.473
      125.979,-442.310
      110.514,-456.635
      89.434,-456.615
      80.500,-468.664
      71.565,-480.712
      78.788,-498.874
      74.269,-517.707
      59.857,-530.380
      62.679,-545.112
      65.501,-559.844
      68.322,-574.576
      71.144,-589.308
      81.340,-601.406
      76.135,-615.362
      78.957,-630.094
      91.318,-643.807
      84.792,-660.144
      87.693,-674.860
      90.595,-689.577
      103.030,-703.222
      96.592,-719.595
      99.573,-734.295
      102.554,-748.996
      115.063,-762.574
      108.714,-778.981
      111.774,-793.665
      114.835,-808.350
      120.563,-807.973
      126.576,-809.069
      132.488,-811.738
      137.882,-815.979
      142.344,-821.680
      145.484,-828.620
      146.970,-836.478
      146.550,-844.844
      153.204,-858.287
      159.858,-871.731
      166.512,-885.174
      180.453,-893.810
      179.674,-910.190
      164.977,-917.465
      151.480,-908.150
      153.068,-891.828
      146.414,-878.385
      139.760,-864.941
      133.106,-851.498
      125.879,-853.501
      129.885,-867.956
      126.127,-882.478
      115.430,-871.962
      111.424,-857.507
      104.196,-859.510
      105.411,-874.461
      115.994,-877.581
      125.130,-883.719
      131.987,-892.296
      135.944,-902.510
      136.651,-913.415
      134.059,-924.003
      128.422,-933.303
      120.273,-940.465
      110.375,-944.841
      111.267,-959.814
      112.159,-974.788
      113.050,-989.761
      113.942,-1004.735
      122.486,-1018.050
      115.519,-1031.215
      116.411,-1046.189
      120.012,-1054.468
      117.266,-1061.245
      118.077,-1076.224
      132.020,-1082.535
      141.424,-1094.611
      144.128,-1109.676
      139.509,-1124.268
      128.630,-1135.034
      113.991,-1139.501
      98.955,-1136.641
      86.978,-1127.112
      80.811,-1113.103
      81.873,-1097.834
    " />
    <g id="pairs">
      <line class="basepairs" id="1,570" x1="103.09895" y1="-1077.03418" x2="118.07703" y2="-1076.22351" />
      <line class="basepairs" id="2,569" x1="102.28827" y1="-1062.05615" x2="117.26634" y2="-1061.24536" />
      <line class="basepairs" id="3,567" x1="101.43709" y1="-1047.08032" x2="116.41056" y2="-1046.18860" />
      <line class="basepairs" id="4,566" x1="100.54543" y1="-1032.10681" x2="115.51890" y2="-1031.21509" />
      <line class="basepairs" id="6,564" x1="98.96852" y1="-1005.62628" x2="113.94199" y2="-1004.73462" />
      <line class="basepairs" id="7,563" x1="98.07686" y1="-990.65277" x2="113.05033" y2="-989.76111" />
      <line class="basepairs" id="8,562" x1="97.18519" y1="-975.67932" x2="112.15866" y2="-974.78766" />
      <line class="basepairs" id="9,561" x1="96.29353" y1="-960.70587" x2="111.26700" y2="-959.81421" />
      <line class="basepairs" id="10,560" x1="95.40186" y1="-945.73236" x2="110.37534" y2="-944.84070" />
      <line class="basepairs" id="15,551" x1="90.46056" y1="-875.67621" x2="105.41125" y2="-874.46094" />
      <line class="basepairs" id="16,550" x1="89.24527" y1="-860.72552" x2="104.19595" y2="-859.51025" />
      <line class="basepairs" id="18,525" x1="100.15035" y1="-811.41028" x2="114.83482" y2="-808.34985" />
      <line class="basepairs" id="19,524" x1="97.08988" y1="-796.72583" x2="111.77435" y2="-793.66541" />
      <line class="basepairs" id="20,523" x1="94.02941" y1="-782.04138" x2="108.71387" y2="-778.98090" />
      <line class="basepairs" id="23,521" x1="87.85342" y1="-751.97729" x2="102.55421" y2="-748.99628" />
      <line class="basepairs" id="24,520" x1="84.87239" y1="-737.27649" x2="99.57319" y2="-734.29547" />
      <line class="basepairs" id="25,519" x1="81.89137" y1="-722.57568" x2="96.59216" y2="-719.59473" />
      <line class="basepairs" id="28,517" x1="75.87803" y1="-692.47864" x2="90.59473" y2="-689.57715" />
      <line class="basepairs" id="29,516" x1="72.97653" y1="-677.76196" x2="87.69324" y2="-674.86047" />
      <line class="basepairs" id="30,515" x1="70.07504" y1="-663.04529" x2="84.79175" y2="-660.14380" />
      <line class="basepairs" id="33,513" x1="64.22453" y1="-632.91614" x2="78.95671" y2="-630.09430" />
      <line class="basepairs" id="34,512" x1="61.40266" y1="-618.18396" x2="76.13483" y2="-615.36212" />
      <line class="basepairs" id="36,510" x1="56.41219" y1="-592.13019" x2="71.14436" y2="-589.30835" />
      <line class="basepairs" id="37,509" x1="53.59031" y1="-577.39801" x2="68.32249" y2="-574.57611" />
      <line class="basepairs" id="38,508" x1="50.76844" y1="-562.66583" x2="65.50062" y2="-559.84393" />
      <line class="basepairs" id="39,507" x1="47.94657" y1="-547.93365" x2="62.67875" y2="-545.11176" />
      <line class="basepairs" id="40,506" x1="45.12469" y1="-533.20148" x2="59.85687" y2="-530.37964" />
      <line class="basepairs" id="42,190" x1="19.86622" y1="-518.31335" x2="15.20012" y2="-504.05759" />
      <line class="basepairs" id="44,186" x1="-11.74459" y1="-528.83997" x2="-16.56459" y2="-514.63550" />
      <line class="basepairs" id="45,185" x1="-25.94909" y1="-533.65997" x2="-30.76908" y2="-519.45544" />
      <line class="basepairs" id="46,184" x1="-40.15358" y1="-538.47998" x2="-44.97358" y2="-524.27545" />
      <line class="basepairs" id="47,183" x1="-54.35808" y1="-543.29993" x2="-59.17807" y2="-529.09546" />
      <line class="basepairs" id="48,182" x1="-68.56258" y1="-548.11993" x2="-73.38257" y2="-533.91547" />
      <line class="basepairs" id="49,181" x1="-82.76707" y1="-552.93994" x2="-87.58706" y2="-538.73547" />
      <line class="basepairs" id="50,179" x1="-96.95848" y1="-557.79834" x2="-101.85521" y2="-543.62012" />
      <line class="basepairs" id="51,178" x1="-111.13670" y1="-562.69507" x2="-116.03343" y2="-548.51685" />
      <line class="basepairs" id="54,138" x1="-146.98132" y1="-594.58942" x2="-154.59808" y2="-581.66711" />
      <line class="basepairs" id="55,137" x1="-159.90358" y1="-602.20618" x2="-167.52034" y2="-589.28394" />
      <line class="basepairs" id="56,136" x1="-172.82585" y1="-609.82294" x2="-180.44261" y2="-596.90063" />
      <line class="basepairs" id="60,130" x1="-219.49149" y1="-637.66364" x2="-227.24756" y2="-624.82446" />
      <line class="basepairs" id="61,129" x1="-232.33063" y1="-645.41968" x2="-240.08669" y2="-632.58057" />
      <line class="basepairs" id="62,128" x1="-245.16977" y1="-653.17578" x2="-252.92583" y2="-640.33661" />
      <line class="basepairs" id="63,127" x1="-258.00891" y1="-660.93182" x2="-265.76498" y2="-648.09265" />
      <line class="basepairs" id="72,124" x1="-303.08365" y1="-687.19312" x2="-310.41916" y2="-674.10919" />
      <line class="basepairs" id="73,123" x1="-316.16763" y1="-694.52869" x2="-323.50314" y2="-681.44470" />
      <line class="basepairs" id="74,122" x1="-329.25159" y1="-701.86414" x2="-336.58710" y2="-688.78021" />
      <line class="basepairs" id="75,121" x1="-342.33557" y1="-709.19971" x2="-349.67108" y2="-696.11572" />
      <line class="basepairs" id="76,120" x1="-355.41953" y1="-716.53516" x2="-362.75504" y2="-703.45123" />
      <line class="basepairs" id="77,117" x1="-368.46365" y1="-723.94135" x2="-375.94022" y2="-710.93750" />
      <line class="basepairs" id="78,116" x1="-381.46753" y1="-731.41797" x2="-388.94409" y2="-718.41406" />
      <line class="basepairs" id="79,115" x1="-394.47141" y1="-738.89453" x2="-401.94797" y2="-725.89062" />
      <line class="basepairs" id="80,114" x1="-407.47528" y1="-746.37109" x2="-414.95184" y2="-733.36719" />
      <line class="basepairs" id="84,109" x1="-451.50229" y1="-771.83954" x2="-459.04904" y2="-758.87628" />
      <line class="basepairs" id="85,108" x1="-464.46555" y1="-779.38635" x2="-472.01233" y2="-766.42310" />
      <line class="basepairs" id="86,107" x1="-477.42880" y1="-786.93311" x2="-484.97559" y2="-773.96985" />
      <line class="basepairs" id="87,106" x1="-490.39206" y1="-794.47986" x2="-497.93884" y2="-781.51660" />
      <line class="basepairs" id="89,105" x1="-503.44589" y1="-802.03223" x2="-510.92245" y2="-789.02832" />
      <line class="basepairs" id="90,104" x1="-516.44977" y1="-809.50879" x2="-523.92633" y2="-796.50488" />
      <line class="basepairs" id="91,103" x1="-529.45361" y1="-816.98535" x2="-536.93024" y2="-803.98145" />
      <line class="basepairs" id="93,100" x1="-555.95203" y1="-832.31030" x2="-563.49878" y2="-819.34705" />
      <line class="basepairs" id="94,99" x1="-568.91528" y1="-839.85712" x2="-576.46204" y2="-826.89386" />
      <line class="basepairs" id="143,176" x1="-160.24182" y1="-552.20276" x2="-157.93938" y2="-537.38055" />
      <line class="basepairs" id="144,175" x1="-175.06407" y1="-549.90033" x2="-172.76161" y2="-535.07812" />
      <line class="basepairs" id="149,172" x1="-218.73871" y1="-542.88098" x2="-216.27611" y2="-528.08447" />
      <line class="basepairs" id="150,171" x1="-233.53519" y1="-540.41833" x2="-231.07257" y2="-525.62189" />
      <line class="basepairs" id="152,169" x1="-259.70270" y1="-536.06323" x2="-257.24008" y2="-521.26678" />
      <line class="basepairs" id="153,168" x1="-274.49915" y1="-533.60065" x2="-272.03656" y2="-518.80420" />
      <line class="basepairs" id="154,167" x1="-289.29562" y1="-531.13806" x2="-286.83304" y2="-516.34155" />
      <line class="basepairs" id="155,166" x1="-304.09210" y1="-528.67542" x2="-301.62949" y2="-513.87897" />
      <line class="basepairs" id="156,165" x1="-318.88858" y1="-526.21283" x2="-316.42596" y2="-511.41638" />
      <line class="basepairs" id="158,163" x1="-345.05609" y1="-521.85773" x2="-342.59348" y2="-507.06128" />
      <line class="basepairs" id="196,503" x1="59.51640" y1="-471.77795" x2="71.56526" y2="-480.71240" />
      <line class="basepairs" id="197,502" x1="68.45087" y1="-459.72906" x2="80.49973" y2="-468.66357" />
      <line class="basepairs" id="198,501" x1="77.38534" y1="-447.68021" x2="89.43421" y2="-456.61469" />
      <line class="basepairs" id="202,402" x1="96.01299" y1="-401.20578" x2="110.89714" y2="-403.06647" />
      <line class="basepairs" id="203,401" x1="97.87367" y1="-386.32162" x2="112.75782" y2="-388.18231" />
      <line class="basepairs" id="204,400" x1="99.73436" y1="-371.43747" x2="114.61851" y2="-373.29816" />
      <line class="basepairs" id="206,398" x1="103.02497" y1="-345.11493" x2="117.90912" y2="-346.97562" />
      <line class="basepairs" id="207,397" x1="104.88566" y1="-330.23077" x2="119.76981" y2="-332.09146" />
      <line class="basepairs" id="216,394" x1="112.17815" y1="-278.57605" x2="126.99411" y2="-280.91858" />
      <line class="basepairs" id="217,393" x1="114.52066" y1="-263.76010" x2="129.33662" y2="-266.10260" />
      <line class="basepairs" id="218,392" x1="116.86317" y1="-248.94414" x2="131.67914" y2="-251.28665" />
      <line class="basepairs" id="219,391" x1="119.20569" y1="-234.12817" x2="134.02165" y2="-236.47069" />
      <line class="basepairs" id="220,390" x1="121.54819" y1="-219.31223" x2="136.36415" y2="-221.65472" />
      <line class="basepairs" id="221,389" x1="123.89071" y1="-204.49626" x2="138.70667" y2="-206.83878" />
      <line class="basepairs" id="225,387" x1="129.28889" y1="-171.45465" x2="144.07864" y2="-173.95724" />
      <line class="basepairs" id="226,386" x1="131.79149" y1="-156.66489" x2="146.58125" y2="-159.16750" />
      <line class="basepairs" id="227,385" x1="134.29408" y1="-141.87514" x2="149.08385" y2="-144.37773" />
      <line class="basepairs" id="230,382" x1="140.41092" y1="-105.72606" x2="155.20068" y2="-108.22865" />
      <line class="basepairs" id="231,381" x1="142.91351" y1="-90.93629" x2="157.70328" y2="-93.43890" />
      <line class="basepairs" id="232,380" x1="145.41612" y1="-76.14655" x2="160.20587" y2="-78.64914" />
      <line class="basepairs" id="233,376" x1="147.79868" y1="-61.33698" x2="162.62709" y2="-63.59933" />
      <line class="basepairs" id="234,375" x1="150.06104" y1="-46.50858" x2="164.88945" y2="-48.77094" />
      <line class="basepairs" id="235,374" x1="152.32341" y1="-31.68015" x2="167.15181" y2="-33.94250" />
      <line class="basepairs" id="237,372" x1="156.32439" y1="-5.45618" x2="171.15280" y2="-7.71854" />
      <line class="basepairs" id="238,371" x1="158.58675" y1="9.37225" x2="173.41516" y2="7.10986" />
      <line class="basepairs" id="240,369" x1="162.58774" y1="35.59622" x2="177.41614" y2="33.33386" />
      <line class="basepairs" id="241,368" x1="164.85010" y1="50.42465" x2="179.67851" y2="48.16226" />
      <line class="basepairs" id="242,367" x1="167.11247" y1="65.25305" x2="181.94087" y2="62.99069" />
      <line class="basepairs" id="247,366" x1="169.58745" y1="80.37628" x2="184.36346" y2="77.79376" />
      <line class="basepairs" id="248,365" x1="172.16998" y1="95.15231" x2="186.94600" y2="92.56976" />
      <line class="basepairs" id="249,364" x1="174.75252" y1="109.92831" x2="189.52853" y2="107.34579" />
      <line class="basepairs" id="253,362" x1="180.68594" y1="142.87802" x2="195.43317" y2="140.13583" />
      <line class="basepairs" id="254,361" x1="183.42812" y1="157.62524" x2="198.17534" y2="154.88306" />
      <line class="basepairs" id="261,358" x1="192.87630" y1="205.61194" x2="207.56076" y2="202.55151" />
      <line class="basepairs" id="262,357" x1="195.93677" y1="220.29645" x2="210.62123" y2="217.23596" />
      <line class="basepairs" id="264,355" x1="201.34920" y1="246.26587" x2="216.03366" y2="243.20538" />
      <line class="basepairs" id="265,354" x1="204.40967" y1="260.95032" x2="219.09413" y2="257.88983" />
      <line class="basepairs" id="266,353" x1="207.47014" y1="275.63477" x2="222.15460" y2="272.57428" />
      <line class="basepairs" id="267,352" x1="210.53061" y1="290.31921" x2="225.21507" y2="287.25879" />
      <line class="basepairs" id="272,348" x1="221.05663" y1="340.16382" x2="235.72433" y2="337.02399" />
      <line class="basepairs" id="273,347" x1="224.19646" y1="354.83148" x2="238.86417" y2="351.69165" />
      <line class="basepairs" id="274,346" x1="227.33629" y1="369.49921" x2="242.00400" y2="366.35938" />
      <line class="basepairs" id="277,344" x1="233.83704" y1="399.49475" x2="248.48755" y2="396.27563" />
      <line class="basepairs" id="278,343" x1="237.05614" y1="414.14526" x2="251.70665" y2="410.92615" />
      <line class="basepairs" id="281,341" x1="243.71898" y1="444.10516" x2="258.35187" y2="440.80695" />
      <line class="basepairs" id="282,340" x1="247.01724" y1="458.73810" x2="261.65015" y2="455.43982" />
      <line class="basepairs" id="284,337" x1="253.67216" y1="488.61670" x2="268.32266" y2="485.39758" />
      <line class="basepairs" id="285,336" x1="256.89127" y1="503.26721" x2="271.54175" y2="500.04810" />
      <line class="basepairs" id="286,331" x1="259.95172" y1="517.95166" x2="274.66843" y2="515.05017" />
      <line class="basepairs" id="287,330" x1="262.85321" y1="532.66840" x2="277.56992" y2="529.76691" />
      <line class="basepairs" id="288,329" x1="265.75470" y1="547.38507" x2="280.47141" y2="544.48358" />
      <line class="basepairs" id="289,328" x1="268.65619" y1="562.10175" x2="283.37289" y2="559.20026" />
      <line class="basepairs" id="290,327" x1="271.55768" y1="576.81848" x2="286.27438" y2="573.91699" />
      <line class="basepairs" id="291,326" x1="274.45917" y1="591.53516" x2="289.17587" y2="588.63367" />
      <line class="basepairs" id="292,325" x1="277.36069" y1="606.25189" x2="292.07736" y2="603.35040" />
      <line class="basepairs" id="295,323" x1="283.37402" y1="636.34894" x2="298.07480" y2="633.36792" />
      <line class="basepairs" id="296,322" x1="286.35504" y1="651.04974" x2="301.05585" y2="648.06866" />
      <line class="basepairs" id="297,321" x1="289.33606" y1="665.75049" x2="304.03687" y2="662.76947" />
      <line class="basepairs" id="301,319" x1="296.15805" y1="698.52783" x2="310.82574" y2="695.38794" />
      <line class="basepairs" id="302,318" x1="299.29788" y1="713.19543" x2="313.96558" y2="710.05566" />
      <line class="basepairs" id="305,316" x1="305.79865" y1="743.19104" x2="320.44913" y2="739.97192" />
      <line class="basepairs" id="306,315" x1="309.01773" y1="757.84155" x2="323.66824" y2="754.62244" />
      <line class="basepairs" id="307,314" x1="312.23682" y1="772.49207" x2="326.88733" y2="769.27295" />
      <line class="basepairs" id="407,499" x1="128.76094" y1="-427.57019" x2="125.97890" y2="-442.30994" />
      <line class="basepairs" id="409,497" x1="154.82814" y1="-432.49020" x2="152.04611" y2="-447.22995" />
      <line class="basepairs" id="410,496" x1="169.56789" y1="-435.27225" x2="166.78586" y2="-450.01199" />
      <line class="basepairs" id="411,495" x1="184.30765" y1="-438.05426" x2="181.52560" y2="-452.79401" />
      <line class="basepairs" id="415,493" x1="217.17412" y1="-444.43256" x2="214.23285" y2="-459.14136" />
      <line class="basepairs" id="416,492" x1="231.88293" y1="-447.37384" x2="228.94167" y2="-462.08264" />
      <line class="basepairs" id="419,489" x1="267.83414" y1="-454.56287" x2="264.89285" y2="-469.27167" />
      <line class="basepairs" id="420,488" x1="282.54294" y1="-457.50415" x2="279.60165" y2="-472.21295" />
      <line class="basepairs" id="422,486" x1="308.55539" y1="-462.70575" x2="305.61414" y2="-477.41455" />
      <line class="basepairs" id="423,485" x1="323.26419" y1="-465.64703" x2="320.32294" y2="-480.35583" />
      <line class="basepairs" id="424,484" x1="337.97302" y1="-468.58832" x2="335.03174" y2="-483.29712" />
      <line class="basepairs" id="425,483" x1="352.68182" y1="-471.52957" x2="349.74054" y2="-486.23837" />
      <line class="basepairs" id="426,482" x1="367.39062" y1="-474.47083" x2="364.44934" y2="-489.17963" />
      <line class="basepairs" id="427,481" x1="382.09943" y1="-477.41211" x2="379.15814" y2="-492.12091" />
      <line class="basepairs" id="430,480" x1="396.95099" y1="-480.46552" x2="393.85083" y2="-495.14166" />
      <line class="basepairs" id="431,479" x1="411.62714" y1="-483.56567" x2="408.52698" y2="-498.24182" />
      <line class="basepairs" id="433,477" x1="437.58182" y1="-489.04834" x2="434.48166" y2="-503.72446" />
      <line class="basepairs" id="434,476" x1="452.25797" y1="-492.14850" x2="449.15781" y2="-506.82462" />
      <line class="basepairs" id="436,474" x1="478.21268" y1="-497.63110" x2="475.11249" y2="-512.30725" />
      <line class="basepairs" id="437,473" x1="492.88879" y1="-500.73126" x2="489.78864" y2="-515.40741" />
      <line class="basepairs" id="440,465" x1="542.19604" y1="-510.46783" x2="539.49371" y2="-525.22241" />
      <line class="basepairs" id="441,464" x1="556.95062" y1="-513.17017" x2="554.24829" y2="-527.92474" />
      <line class="basepairs" id="442,463" x1="571.70520" y1="-515.87244" x2="569.00287" y2="-530.62701" />
      <line class="basepairs" id="443,462" x1="586.45978" y1="-518.57471" x2="583.75745" y2="-533.32928" />
      <line class="basepairs" id="445,460" x1="612.55316" y1="-523.35370" x2="609.85089" y2="-538.10828" />
      <line class="basepairs" id="446,459" x1="627.30774" y1="-526.05603" x2="624.60547" y2="-540.81061" />
      <line class="basepairs" id="449,458" x1="642.20691" y1="-528.86816" x2="639.34521" y2="-543.59265" />
      <line class="basepairs" id="450,457" x1="656.93140" y1="-531.72986" x2="654.06970" y2="-546.45435" />
      <line class="basepairs" id="533,544" x1="146.54956" y1="-844.84387" x2="133.10619" y2="-851.49786" />
      <line class="basepairs" id="534,543" x1="153.20358" y1="-858.28723" x2="139.76022" y2="-864.94122" />
      <line class="basepairs" id="535,542" x1="159.85760" y1="-871.73059" x2="146.41425" y2="-878.38458" />
      <line class="basepairs" id="536,541" x1="166.51163" y1="-885.17395" x2="153.06827" y2="-891.82794" />
    </g>
    <g transform="translate(-4.6, 4)" id="seq">
      <text class="nucleotide" x="103.099" y="-1077.034">G</text>
      <text class="nucleotide" x="102.288" y="-1062.056">C</text>
      <text class="nucleotide" x="101.437" y="-1047.080">U</text>
      <text class="nucleotide" x="100.545" y="-1032.107">A</text>
      <text class="nucleotide" x="92.065" y="-1019.862">U</text>
      <text class="nucleotide" x="98.969" y="-1005.626">C</text>
      <text class="nucleotide" x="98.077" y="-990.653">A</text>
      <text class="nucleotide" x="97.185" y="-975.679">G</text>
      <text class="nucleotide" x="96.294" y="-960.706">G</text>
      <text class="nucleotide" x="95.402" y="-945.732">A</text>
      <text class="nucleotide" x="77.984" y="-938.061">G</text>
      <text class="nucleotide" x="66.941" y="-922.457">G</text>
      <text class="nucleotide" x="65.487" y="-903.312">A</text>
      <text class="nucleotide" x="74.120" y="-886.070">G</text>
      <text class="nucleotide" x="90.461" y="-875.676">C</text>
      <text class="nucleotide" x="89.245" y="-860.726">A</text>
      <text class="nucleotide" x="81.880" y="-829.560">A</text>
      <text class="nucleotide" x="100.150" y="-811.410">A</text>
      <text class="nucleotide" x="97.090" y="-796.726">A</text>
      <text class="nucleotide" x="94.029" y="-782.041">G</text>
      <text class="nucleotide" x="84.129" y="-775.205">G</text>
      <text class="nucleotide" x="81.413" y="-763.074">G</text>
      <text class="nucleotide" x="87.853" y="-751.977">A</text>
      <text class="nucleotide" x="84.872" y="-737.276">A</text>
      <text class="nucleotide" x="81.891" y="-722.576">G</text>
      <text class="nucleotide" x="72.028" y="-715.686">G</text>
      <text class="nucleotide" x="69.378" y="-703.541">A</text>
      <text class="nucleotide" x="75.878" y="-692.479">U</text>
      <text class="nucleotide" x="72.977" y="-677.762">C</text>
      <text class="nucleotide" x="70.075" y="-663.045">U</text>
      <text class="nucleotide" x="60.249" y="-656.102">G</text>
      <text class="nucleotide" x="57.665" y="-643.943">C</text>
      <text class="nucleotide" x="64.225" y="-632.916">U</text>
      <text class="nucleotide" x="61.403" y="-618.184">G</text>
      <text class="nucleotide" x="51.409" y="-607.140">C</text>
      <text class="nucleotide" x="56.412" y="-592.130">U</text>
      <text class="nucleotide" x="53.590" y="-577.398">G</text>
      <text class="nucleotide" x="50.768" y="-562.666">G</text>
      <text class="nucleotide" x="47.947" y="-547.934">G</text>
      <text class="nucleotide" x="45.125" y="-533.201">G</text>
      <text class="nucleotide" x="30.665" y="-528.863">G</text>
      <text class="nucleotide" x="19.866" y="-518.313">C</text>
      <text class="nucleotide" x="6.978" y="-533.900">U</text>
      <text class="nucleotide" x="-11.745" y="-528.840">C</text>
      <text class="nucleotide" x="-25.949" y="-533.660">G</text>
      <text class="nucleotide" x="-40.154" y="-538.480">C</text>
      <text class="nucleotide" x="-54.358" y="-543.300">U</text>
      <text class="nucleotide" x="-68.563" y="-548.120">G</text>
      <text class="nucleotide" x="-82.767" y="-552.940">G</text>
      <text class="nucleotide" x="-96.958" y="-557.798">G</text>
      <text class="nucleotide" x="-111.137" y="-562.695">U</text>
      <text class="nucleotide" x="-112.281" y="-578.597">G</text>
      <text class="nucleotide" x="-125.387" y="-592.113">A</text>
      <text class="nucleotide" x="-146.981" y="-594.589">C</text>
      <text class="nucleotide" x="-159.904" y="-602.206">C</text>
      <text class="nucleotide" x="-172.826" y="-609.823">C</text>
      <text class="nucleotide" x="-174.075" y="-627.996">U</text>
      <text class="nucleotide" x="-185.939" y="-641.609">U</text>
      <text class="nucleotide" x="-203.461" y="-645.263">U</text>
      <text class="nucleotide" x="-219.491" y="-637.664">G</text>
      <text class="nucleotide" x="-232.331" y="-645.420">C</text>
      <text class="nucleotide" x="-245.170" y="-653.176">C</text>
      <text class="nucleotide" x="-258.009" y="-660.932">A</text>
      <text class="nucleotide" x="-257.150" y="-668.835">G</text>
      <text class="nucleotide" x="-258.583" y="-676.620">A</text>
      <text class="nucleotide" x="-262.169" y="-683.639">C</text>
      <text class="nucleotide" x="-267.590" y="-689.315">G</text>
      <text class="nucleotide" x="-274.380" y="-693.186">A</text>
      <text class="nucleotide" x="-281.960" y="-694.944">A</text>
      <text class="nucleotide" x="-289.694" y="-694.462">A</text>
      <text class="nucleotide" x="-296.935" y="-691.798">A</text>
      <text class="nucleotide" x="-303.084" y="-687.193">G</text>
      <text class="nucleotide" x="-316.168" y="-694.529">A</text>
      <text class="nucleotide" x="-329.252" y="-701.864">G</text>
      <text class="nucleotide" x="-342.336" y="-709.200">C</text>
      <text class="nucleotide" x="-355.420" y="-716.535">U</text>
      <text class="nucleotide" x="-368.464" y="-723.941">G</text>
      <text class="nucleotide" x="-381.468" y="-731.418">G</text>
      <text class="nucleotide" x="-394.471" y="-738.895">U</text>
      <text class="nucleotide" x="-407.475" y="-746.371">C</text>
      <text class="nucleotide" x="-409.070" y="-763.259">G</text>
      <text class="nucleotide" x="-420.335" y="-775.719">A</text>
      <text class="nucleotide" x="-436.649" y="-778.940">G</text>
      <text class="nucleotide" x="-451.502" y="-771.840">A</text>
      <text class="nucleotide" x="-464.466" y="-779.386">G</text>
      <text class="nucleotide" x="-477.429" y="-786.933">A</text>
      <text class="nucleotide" x="-490.392" y="-794.480">G</text>
      <text class="nucleotide" x="-496.158" y="-801.427">A</text>
      <text class="nucleotide" x="-503.446" y="-802.032">A</text>
      <text class="nucleotide" x="-516.450" y="-809.509">G</text>
      <text class="nucleotide" x="-529.454" y="-816.985">C</text>
      <text class="nucleotide" x="-538.379" y="-833.146">G</text>
      <text class="nucleotide" x="-555.952" y="-832.310">C</text>
      <text class="nucleotide" x="-568.915" y="-839.857">U</text>
      <text class="nucleotide" x="-576.590" y="-854.350">U</text>
      <text class="nucleotide" x="-592.985" y="-854.679">G</text>
      <text class="nucleotide" x="-601.236" y="-840.507">G</text>
      <text class="nucleotide" x="-592.854" y="-826.412">C</text>
      <text class="nucleotide" x="-576.462" y="-826.894">A</text>
      <text class="nucleotide" x="-563.499" y="-819.347">G</text>
      <text class="nucleotide" x="-560.144" y="-807.793">G</text>
      <text class="nucleotide" x="-549.494" y="-801.381">A</text>
      <text class="nucleotide" x="-536.930" y="-803.981">G</text>
      <text class="nucleotide" x="-523.926" y="-796.505">C</text>
      <text class="nucleotide" x="-510.922" y="-789.028">U</text>
      <text class="nucleotide" x="-497.939" y="-781.517">C</text>
      <text class="nucleotide" x="-484.976" y="-773.970">U</text>
      <text class="nucleotide" x="-472.012" y="-766.423">C</text>
      <text class="nucleotide" x="-459.049" y="-758.876">U</text>
      <text class="nucleotide" x="-458.952" y="-745.583">G</text>
      <text class="nucleotide" x="-452.268" y="-733.968">C</text>
      <text class="nucleotide" x="-440.638" y="-727.094">G</text>
      <text class="nucleotide" x="-427.023" y="-726.836">G</text>
      <text class="nucleotide" x="-414.952" y="-733.367">G</text>
      <text class="nucleotide" x="-401.948" y="-725.891">A</text>
      <text class="nucleotide" x="-388.944" y="-718.414">C</text>
      <text class="nucleotide" x="-375.940" y="-710.938">C</text>
      <text class="nucleotide" x="-373.871" y="-706.737">U</text>
      <text class="nucleotide" x="-369.194" y="-703.743">A</text>
      <text class="nucleotide" x="-362.755" y="-703.451">A</text>
      <text class="nucleotide" x="-349.671" y="-696.116">G</text>
      <text class="nucleotide" x="-336.587" y="-688.780">C</text>
      <text class="nucleotide" x="-323.503" y="-681.445">U</text>
      <text class="nucleotide" x="-310.419" y="-674.109">C</text>
      <text class="nucleotide" x="-306.357" y="-652.512">C</text>
      <text class="nucleotide" x="-287.215" y="-641.146">G</text>
      <text class="nucleotide" x="-265.765" y="-648.093">U</text>
      <text class="nucleotide" x="-252.926" y="-640.337">G</text>
      <text class="nucleotide" x="-240.087" y="-632.581">G</text>
      <text class="nucleotide" x="-227.248" y="-624.824">C</text>
      <text class="nucleotide" x="-228.030" y="-612.827">U</text>
      <text class="nucleotide" x="-223.649" y="-601.553">G</text>
      <text class="nucleotide" x="-214.867" y="-593.133">C</text>
      <text class="nucleotide" x="-203.283" y="-589.184">U</text>
      <text class="nucleotide" x="-191.043" y="-590.502">C</text>
      <text class="nucleotide" x="-180.443" y="-596.901">G</text>
      <text class="nucleotide" x="-167.520" y="-589.284">G</text>
      <text class="nucleotide" x="-154.598" y="-581.667">G</text>
      <text class="nucleotide" x="-156.009" y="-574.301">A</text>
      <text class="nucleotide" x="-170.741" y="-577.123">U</text>
      <text class="nucleotide" x="-173.563" y="-562.390">C</text>
      <text class="nucleotide" x="-158.831" y="-559.569">C</text>
      <text class="nucleotide" x="-160.242" y="-552.203">C</text>
      <text class="nucleotide" x="-175.064" y="-549.900">U</text>
      <text class="nucleotide" x="-183.019" y="-558.568">A</text>
      <text class="nucleotide" x="-194.042" y="-562.326">C</text>
      <text class="nucleotide" x="-205.400" y="-560.365">G</text>
      <text class="nucleotide" x="-214.337" y="-553.275">U</text>
      <text class="nucleotide" x="-218.739" y="-542.881">C</text>
      <text class="nucleotide" x="-233.535" y="-540.418">C</text>
      <text class="nucleotide" x="-248.418" y="-545.785">G</text>
      <text class="nucleotide" x="-259.703" y="-536.063">C</text>
      <text class="nucleotide" x="-274.499" y="-533.601">U</text>
      <text class="nucleotide" x="-289.296" y="-531.138">G</text>
      <text class="nucleotide" x="-304.092" y="-528.675">C</text>
      <text class="nucleotide" x="-318.889" y="-526.213">U</text>
      <text class="nucleotide" x="-333.772" y="-531.580">G</text>
      <text class="nucleotide" x="-345.056" y="-521.858">C</text>
      <text class="nucleotide" x="-360.213" y="-528.118">U</text>
      <text class="nucleotide" x="-373.047" y="-517.908">G</text>
      <text class="nucleotide" x="-370.354" y="-501.732">A</text>
      <text class="nucleotide" x="-354.906" y="-496.229">A</text>
      <text class="nucleotide" x="-342.593" y="-507.061">G</text>
      <text class="nucleotide" x="-328.769" y="-501.518">G</text>
      <text class="nucleotide" x="-316.426" y="-511.416">A</text>
      <text class="nucleotide" x="-301.629" y="-513.879">G</text>
      <text class="nucleotide" x="-286.833" y="-516.342">C</text>
      <text class="nucleotide" x="-272.037" y="-518.804">A</text>
      <text class="nucleotide" x="-257.240" y="-521.267">G</text>
      <text class="nucleotide" x="-243.415" y="-515.724">A</text>
      <text class="nucleotide" x="-231.073" y="-525.622">G</text>
      <text class="nucleotide" x="-216.276" y="-528.084">G</text>
      <text class="nucleotide" x="-201.948" y="-516.572">G</text>
      <text class="nucleotide" x="-183.452" y="-519.342">G</text>
      <text class="nucleotide" x="-172.762" y="-535.078">A</text>
      <text class="nucleotide" x="-157.939" y="-537.381">G</text>
      <text class="nucleotide" x="-131.408" y="-533.744">G</text>
      <text class="nucleotide" x="-116.033" y="-548.517">A</text>
      <text class="nucleotide" x="-101.855" y="-543.620">C</text>
      <text class="nucleotide" x="-96.613" y="-538.521">G</text>
      <text class="nucleotide" x="-87.587" y="-538.735">C</text>
      <text class="nucleotide" x="-73.383" y="-533.915">C</text>
      <text class="nucleotide" x="-59.178" y="-529.095">A</text>
      <text class="nucleotide" x="-44.974" y="-524.275">G</text>
      <text class="nucleotide" x="-30.769" y="-519.455">C</text>
      <text class="nucleotide" x="-16.565" y="-514.635">G</text>
      <text class="nucleotide" x="-12.948" y="-505.214">G</text>
      <text class="nucleotide" x="-4.599" y="-499.166">U</text>
      <text class="nucleotide" x="5.916" y="-498.645">U</text>
      <text class="nucleotide" x="15.200" y="-504.058">G</text>
      <text class="nucleotide" x="16.072" y="-493.307">C</text>
      <text class="nucleotide" x="20.521" y="-483.426">U</text>
      <text class="nucleotide" x="28.062" y="-475.575">U</text>
      <text class="nucleotide" x="37.845" y="-470.688">A</text>
      <text class="nucleotide" x="48.750" y="-469.359">C</text>
      <text class="nucleotide" x="59.516" y="-471.778">U</text>
      <text class="nucleotide" x="68.451" y="-459.729">G</text>
      <text class="nucleotide" x="77.385" y="-447.680">G</text>
      <text class="nucleotide" x="71.454" y="-433.921">A</text>
      <text class="nucleotide" x="73.225" y="-419.042">G</text>
      <text class="nucleotide" x="82.221" y="-407.060">C</text>
      <text class="nucleotide" x="96.013" y="-401.206">C</text>
      <text class="nucleotide" x="97.874" y="-386.322">U</text>
      <text class="nucleotide" x="99.734" y="-371.437">G</text>
      <text class="nucleotide" x="93.769" y="-356.784">G</text>
      <text class="nucleotide" x="103.025" y="-345.115">A</text>
      <text class="nucleotide" x="104.886" y="-330.231">G</text>
      <text class="nucleotide" x="98.149" y="-326.011">G</text>
      <text class="nucleotide" x="92.923" y="-320.065">A</text>
      <text class="nucleotide" x="89.632" y="-312.903">A</text>
      <text class="nucleotide" x="88.532" y="-305.131">A</text>
      <text class="nucleotide" x="89.698" y="-297.403">A</text>
      <text class="nucleotide" x="93.011" y="-290.362">U</text>
      <text class="nucleotide" x="98.179" y="-284.588">G</text>
      <text class="nucleotide" x="104.755" y="-280.553">G</text>
      <text class="nucleotide" x="112.178" y="-278.576">A</text>
      <text class="nucleotide" x="114.521" y="-263.760">A</text>
      <text class="nucleotide" x="116.863" y="-248.944">A</text>
      <text class="nucleotide" x="119.206" y="-234.128">C</text>
      <text class="nucleotide" x="121.548" y="-219.312">A</text>
      <text class="nucleotide" x="123.891" y="-204.496">U</text>
      <text class="nucleotide" x="117.072" y="-196.190">C</text>
      <text class="nucleotide" x="115.916" y="-185.726">A</text>
      <text class="nucleotide" x="120.561" y="-176.521">U</text>
      <text class="nucleotide" x="129.289" y="-171.455">U</text>
      <text class="nucleotide" x="131.791" y="-156.665">C</text>
      <text class="nucleotide" x="134.294" y="-141.875">C</text>
      <text class="nucleotide" x="125.410" y="-129.080">C</text>
      <text class="nucleotide" x="128.158" y="-114.117">U</text>
      <text class="nucleotide" x="140.411" y="-105.726">A</text>
      <text class="nucleotide" x="142.914" y="-90.936">G</text>
      <text class="nucleotide" x="145.416" y="-76.147">A</text>
      <text class="nucleotide" x="147.799" y="-61.337">A</text>
      <text class="nucleotide" x="150.061" y="-46.509">A</text>
      <text class="nucleotide" x="152.323" y="-31.680">C</text>
      <text class="nucleotide" x="146.756" y="-16.871">A</text>
      <text class="nucleotide" x="156.324" y="-5.456">G</text>
      <text class="nucleotide" x="158.587" y="9.372">U</text>
      <text class="nucleotide" x="153.019" y="24.182">U</text>
      <text class="nucleotide" x="162.588" y="35.596">G</text>
      <text class="nucleotide" x="164.850" y="50.425">A</text>
      <text class="nucleotide" x="167.112" y="65.253">A</text>
      <text class="nucleotide" x="165.497" y="69.035">G</text>
      <text class="nucleotide" x="165.144" y="72.769">U</text>
      <text class="nucleotide" x="165.894" y="76.078">U</text>
      <text class="nucleotide" x="167.485" y="78.674">G</text>
      <text class="nucleotide" x="169.587" y="80.376">A</text>
      <text class="nucleotide" x="172.170" y="95.152">C</text>
      <text class="nucleotide" x="174.753" y="109.928">A</text>
      <text class="nucleotide" x="168.070" y="118.344">G</text>
      <text class="nucleotide" x="167.084" y="128.826">A</text>
      <text class="nucleotide" x="171.877" y="137.953">C</text>
      <text class="nucleotide" x="180.686" y="142.878">C</text>
      <text class="nucleotide" x="183.428" y="157.625">U</text>
      <text class="nucleotide" x="176.038" y="163.546">A</text>
      <text class="nucleotide" x="171.291" y="171.674">G</text>
      <text class="nucleotide" x="169.782" y="180.906">A</text>
      <text class="nucleotide" x="171.672" y="190.009">G</text>
      <text class="nucleotide" x="176.668" y="197.781">G</text>
      <text class="nucleotide" x="184.072" y="203.212">U</text>
      <text class="nucleotide" x="192.876" y="205.612">U</text>
      <text class="nucleotide" x="195.937" y="220.296">G</text>
      <text class="nucleotide" x="191.178" y="235.385">A</text>
      <text class="nucleotide" x="201.349" y="246.266">C</text>
      <text class="nucleotide" x="204.410" y="260.950">A</text>
      <text class="nucleotide" x="207.470" y="275.635">A</text>
      <text class="nucleotide" x="210.531" y="290.319">A</text>
      <text class="nucleotide" x="200.569" y="299.760">A</text>
      <text class="nucleotide" x="196.579" y="312.780">G</text>
      <text class="nucleotide" x="199.493" y="325.971">G</text>
      <text class="nucleotide" x="208.453" y="335.936">A</text>
      <text class="nucleotide" x="221.057" y="340.164">C</text>
      <text class="nucleotide" x="224.196" y="354.831">A</text>
      <text class="nucleotide" x="227.336" y="369.499">C</text>
      <text class="nucleotide" x="221.016" y="380.665">G</text>
      <text class="nucleotide" x="223.863" y="392.766">A</text>
      <text class="nucleotide" x="233.837" y="399.495">C</text>
      <text class="nucleotide" x="237.056" y="414.145">A</text>
      <text class="nucleotide" x="230.797" y="425.345">C</text>
      <text class="nucleotide" x="233.709" y="437.430">U</text>
      <text class="nucleotide" x="243.719" y="444.105">A</text>
      <text class="nucleotide" x="247.017" y="458.738">G</text>
      <text class="nucleotide" x="241.163" y="476.247">G</text>
      <text class="nucleotide" x="253.672" y="488.617">G</text>
      <text class="nucleotide" x="256.891" y="503.267">A</text>
      <text class="nucleotide" x="259.952" y="517.952">A</text>
      <text class="nucleotide" x="262.853" y="532.668">U</text>
      <text class="nucleotide" x="265.755" y="547.385">U</text>
      <text class="nucleotide" x="268.656" y="562.102">U</text>
      <text class="nucleotide" x="271.558" y="576.818">G</text>
      <text class="nucleotide" x="274.459" y="591.535">C</text>
      <text class="nucleotide" x="277.361" y="606.252">A</text>
      <text class="nucleotide" x="270.860" y="617.314">U</text>
      <text class="nucleotide" x="273.511" y="629.459">U</text>
      <text class="nucleotide" x="283.374" y="636.349">G</text>
      <text class="nucleotide" x="286.355" y="651.050">U</text>
      <text class="nucleotide" x="289.336" y="665.750">C</text>
      <text class="nucleotide" x="282.883" y="674.344">A</text>
      <text class="nucleotide" x="282.181" y="684.848">U</text>
      <text class="nucleotide" x="287.220" y="693.843">G</text>
      <text class="nucleotide" x="296.158" y="698.528">U</text>
      <text class="nucleotide" x="299.298" y="713.195">U</text>
      <text class="nucleotide" x="292.978" y="724.361">U</text>
      <text class="nucleotide" x="295.825" y="736.462">C</text>
      <text class="nucleotide" x="305.799" y="743.191">G</text>
      <text class="nucleotide" x="309.018" y="757.842">A</text>
      <text class="nucleotide" x="312.237" y="772.492">A</text>
      <text class="nucleotide" x="303.510" y="785.669">A</text>
      <text class="nucleotide" x="306.738" y="801.140">U</text>
      <text class="nucleotide" x="320.006" y="809.726">A</text>
      <text class="nucleotide" x="335.443" y="806.335">C</text>
      <text class="nucleotide" x="343.889" y="792.977">C</text>
      <text class="nucleotide" x="340.334" y="777.577">A</text>
      <text class="nucleotide" x="326.887" y="769.273">U</text>
      <text class="nucleotide" x="323.668" y="754.622">U</text>
      <text class="nucleotide" x="320.449" y="739.972">C</text>
      <text class="nucleotide" x="326.621" y="723.497">C</text>
      <text class="nucleotide" x="313.966" y="710.056">A</text>
      <text class="nucleotide" x="310.826" y="695.388">A</text>
      <text class="nucleotide" x="318.023" y="677.378">A</text>
      <text class="nucleotide" x="304.037" y="662.769">G</text>
      <text class="nucleotide" x="301.056" y="648.069">A</text>
      <text class="nucleotide" x="298.075" y="633.368">C</text>
      <text class="nucleotide" x="304.513" y="616.996">C</text>
      <text class="nucleotide" x="292.077" y="603.350">U</text>
      <text class="nucleotide" x="289.176" y="588.634">G</text>
      <text class="nucleotide" x="286.274" y="573.917">C</text>
      <text class="nucleotide" x="283.373" y="559.200">A</text>
      <text class="nucleotide" x="280.471" y="544.484">A</text>
      <text class="nucleotide" x="277.570" y="529.767">A</text>
      <text class="nucleotide" x="274.668" y="515.050">U</text>
      <text class="nucleotide" x="276.019" y="512.705">A</text>
      <text class="nucleotide" x="276.570" y="509.712">A</text>
      <text class="nucleotide" x="276.080" y="506.354">G</text>
      <text class="nucleotide" x="274.409" y="502.997">A</text>
      <text class="nucleotide" x="271.542" y="500.048">U</text>
      <text class="nucleotide" x="268.323" y="485.398">C</text>
      <text class="nucleotide" x="274.557" y="475.107">A</text>
      <text class="nucleotide" x="272.069" y="462.928">G</text>
      <text class="nucleotide" x="261.650" y="455.440">C</text>
      <text class="nucleotide" x="258.352" y="440.807">U</text>
      <text class="nucleotide" x="264.434" y="424.299">U</text>
      <text class="nucleotide" x="251.707" y="410.926">U</text>
      <text class="nucleotide" x="248.488" y="396.276">G</text>
      <text class="nucleotide" x="254.659" y="379.801">A</text>
      <text class="nucleotide" x="242.004" y="366.359">G</text>
      <text class="nucleotide" x="238.864" y="351.692">U</text>
      <text class="nucleotide" x="235.724" y="337.024">G</text>
      <text class="nucleotide" x="247.093" y="325.117">A</text>
      <text class="nucleotide" x="249.107" y="308.609">A</text>
      <text class="nucleotide" x="240.769" y="294.028">C</text>
      <text class="nucleotide" x="225.215" y="287.259">U</text>
      <text class="nucleotide" x="222.155" y="272.574">U</text>
      <text class="nucleotide" x="219.094" y="257.890">U</text>
      <text class="nucleotide" x="216.034" y="243.205">G</text>
      <text class="nucleotide" x="221.011" y="229.167">A</text>
      <text class="nucleotide" x="210.621" y="217.236">C</text>
      <text class="nucleotide" x="207.561" y="202.552">A</text>
      <text class="nucleotide" x="220.077" y="186.289">G</text>
      <text class="nucleotide" x="216.242" y="165.823">A</text>
      <text class="nucleotide" x="198.175" y="154.883">A</text>
      <text class="nucleotide" x="195.433" y="140.136">G</text>
      <text class="nucleotide" x="203.115" y="122.327">A</text>
      <text class="nucleotide" x="189.529" y="107.346">U</text>
      <text class="nucleotide" x="186.946" y="92.570">G</text>
      <text class="nucleotide" x="184.363" y="77.794">U</text>
      <text class="nucleotide" x="181.941" y="62.991">U</text>
      <text class="nucleotide" x="179.679" y="48.162">U</text>
      <text class="nucleotide" x="177.416" y="33.334">C</text>
      <text class="nucleotide" x="183.145" y="19.585">G</text>
      <text class="nucleotide" x="173.415" y="7.110">A</text>
      <text class="nucleotide" x="171.153" y="-7.719">C</text>
      <text class="nucleotide" x="176.882" y="-21.467">A</text>
      <text class="nucleotide" x="167.152" y="-33.943">G</text>
      <text class="nucleotide" x="164.889" y="-48.771">U</text>
      <text class="nucleotide" x="162.627" y="-63.599">U</text>
      <text class="nucleotide" x="164.325" y="-66.579">U</text>
      <text class="nucleotide" x="164.721" y="-70.504">U</text>
      <text class="nucleotide" x="163.397" y="-74.779">A</text>
      <text class="nucleotide" x="160.206" y="-78.649">U</text>
      <text class="nucleotide" x="157.703" y="-93.439">C</text>
      <text class="nucleotide" x="155.201" y="-108.229">U</text>
      <text class="nucleotide" x="164.010" y="-120.184">C</text>
      <text class="nucleotide" x="161.683" y="-135.218">U</text>
      <text class="nucleotide" x="149.084" y="-144.378">G</text>
      <text class="nucleotide" x="146.581" y="-159.167">G</text>
      <text class="nucleotide" x="144.079" y="-173.957">A</text>
      <text class="nucleotide" x="152.048" y="-191.639">C</text>
      <text class="nucleotide" x="138.707" y="-206.839">A</text>
      <text class="nucleotide" x="136.364" y="-221.655">U</text>
      <text class="nucleotide" x="134.022" y="-236.471">G</text>
      <text class="nucleotide" x="131.679" y="-251.287">U</text>
      <text class="nucleotide" x="129.337" y="-266.103">U</text>
      <text class="nucleotide" x="126.994" y="-280.919">U</text>
      <text class="nucleotide" x="141.436" y="-297.482">A</text>
      <text class="nucleotide" x="138.508" y="-319.550">G</text>
      <text class="nucleotide" x="119.770" y="-332.091">C</text>
      <text class="nucleotide" x="117.909" y="-346.976">U</text>
      <text class="nucleotide" x="124.008" y="-360.564">U</text>
      <text class="nucleotide" x="114.619" y="-373.298">C</text>
      <text class="nucleotide" x="112.758" y="-388.182">A</text>
      <text class="nucleotide" x="110.897" y="-403.066">G</text>
      <text class="nucleotide" x="116.496" y="-406.111">G</text>
      <text class="nucleotide" x="121.289" y="-410.311">G</text>
      <text class="nucleotide" x="125.043" y="-415.460">A</text>
      <text class="nucleotide" x="127.575" y="-421.309">U</text>
      <text class="nucleotide" x="128.761" y="-427.570">C</text>
      <text class="nucleotide" x="143.757" y="-422.527">A</text>
      <text class="nucleotide" x="154.828" y="-432.490">U</text>
      <text class="nucleotide" x="169.568" y="-435.272">C</text>
      <text class="nucleotide" x="184.308" y="-438.054">C</text>
      <text class="nucleotide" x="192.813" y="-431.486">U</text>
      <text class="nucleotide" x="203.307" y="-430.641">G</text>
      <text class="nucleotide" x="212.369" y="-435.558">G</text>
      <text class="nucleotide" x="217.174" y="-444.433">G</text>
      <text class="nucleotide" x="231.883" y="-447.374">C</text>
      <text class="nucleotide" x="244.936" y="-438.874">U</text>
      <text class="nucleotide" x="259.811" y="-442.066">C</text>
      <text class="nucleotide" x="267.834" y="-454.563">U</text>
      <text class="nucleotide" x="282.543" y="-457.504">C</text>
      <text class="nucleotide" x="297.592" y="-452.623">U</text>
      <text class="nucleotide" x="308.555" y="-462.706">C</text>
      <text class="nucleotide" x="323.264" y="-465.647">U</text>
      <text class="nucleotide" x="337.973" y="-468.588">U</text>
      <text class="nucleotide" x="352.682" y="-471.530">U</text>
      <text class="nucleotide" x="367.391" y="-474.471">G</text>
      <text class="nucleotide" x="382.099" y="-477.412">A</text>
      <text class="nucleotide" x="388.314" y="-475.703">A</text>
      <text class="nucleotide" x="393.687" y="-477.108">A</text>
      <text class="nucleotide" x="396.951" y="-480.466">U</text>
      <text class="nucleotide" x="411.627" y="-483.566">C</text>
      <text class="nucleotide" x="426.728" y="-478.848">U</text>
      <text class="nucleotide" x="437.582" y="-489.048">G</text>
      <text class="nucleotide" x="452.258" y="-492.148">C</text>
      <text class="nucleotide" x="467.359" y="-487.430">U</text>
      <text class="nucleotide" x="478.213" y="-497.631">U</text>
      <text class="nucleotide" x="492.889" y="-500.731">G</text>
      <text class="nucleotide" x="510.424" y="-487.620">G</text>
      <text class="nucleotide" x="531.581" y="-491.989">G</text>
      <text class="nucleotide" x="542.196" y="-510.468">C</text>
      <text class="nucleotide" x="556.951" y="-513.170">C</text>
      <text class="nucleotide" x="571.705" y="-515.872">A</text>
      <text class="nucleotide" x="586.460" y="-518.575">G</text>
      <text class="nucleotide" x="601.428" y="-513.450">U</text>
      <text class="nucleotide" x="612.553" y="-523.354">A</text>
      <text class="nucleotide" x="627.308" y="-526.056">U</text>
      <text class="nucleotide" x="633.494" y="-524.246">G</text>
      <text class="nucleotide" x="638.889" y="-525.564">A</text>
      <text class="nucleotide" x="642.207" y="-528.868">U</text>
      <text class="nucleotide" x="656.931" y="-531.730">G</text>
      <text class="nucleotide" x="669.892" y="-522.685">A</text>
      <text class="nucleotide" x="685.437" y="-525.536">U</text>
      <text class="nucleotide" x="694.344" y="-538.591">G</text>
      <text class="nucleotide" x="691.329" y="-554.105">G</text>
      <text class="nucleotide" x="678.180" y="-562.874">U</text>
      <text class="nucleotide" x="662.699" y="-559.695">A</text>
      <text class="nucleotide" x="654.070" y="-546.454">C</text>
      <text class="nucleotide" x="639.345" y="-543.593">A</text>
      <text class="nucleotide" x="624.605" y="-540.811">A</text>
      <text class="nucleotide" x="609.851" y="-538.108">U</text>
      <text class="nucleotide" x="595.938" y="-543.426">U</text>
      <text class="nucleotide" x="583.757" y="-533.329">C</text>
      <text class="nucleotide" x="569.003" y="-530.627">U</text>
      <text class="nucleotide" x="554.248" y="-527.925">G</text>
      <text class="nucleotide" x="539.494" y="-525.222">G</text>
      <text class="nucleotide" x="534.634" y="-531.997">U</text>
      <text class="nucleotide" x="527.835" y="-536.898">G</text>
      <text class="nucleotide" x="519.789" y="-539.393">G</text>
      <text class="nucleotide" x="511.325" y="-539.196">A</text>
      <text class="nucleotide" x="503.322" y="-536.301">C</text>
      <text class="nucleotide" x="496.624" y="-530.983">A</text>
      <text class="nucleotide" x="491.943" y="-523.774">A</text>
      <text class="nucleotide" x="489.789" y="-515.407">C</text>
      <text class="nucleotide" x="475.112" y="-512.307">A</text>
      <text class="nucleotide" x="461.061" y="-517.247">U</text>
      <text class="nucleotide" x="449.158" y="-506.825">G</text>
      <text class="nucleotide" x="434.482" y="-503.724">C</text>
      <text class="nucleotide" x="420.430" y="-508.664">U</text>
      <text class="nucleotide" x="408.527" y="-498.242">G</text>
      <text class="nucleotide" x="393.851" y="-495.142">A</text>
      <text class="nucleotide" x="379.158" y="-492.121">U</text>
      <text class="nucleotide" x="364.449" y="-489.180">C</text>
      <text class="nucleotide" x="349.741" y="-486.238">A</text>
      <text class="nucleotide" x="335.032" y="-483.297">A</text>
      <text class="nucleotide" x="320.323" y="-480.356">A</text>
      <text class="nucleotide" x="305.614" y="-477.415">G</text>
      <text class="nucleotide" x="291.617" y="-482.506">G</text>
      <text class="nucleotide" x="279.602" y="-472.213">G</text>
      <text class="nucleotide" x="264.893" y="-469.272">A</text>
      <text class="nucleotide" x="252.681" y="-477.722">C</text>
      <text class="nucleotide" x="237.722" y="-474.949">U</text>
      <text class="nucleotide" x="228.942" y="-462.083">G</text>
      <text class="nucleotide" x="214.233" y="-459.141">C</text>
      <text class="nucleotide" x="196.322" y="-466.582">U</text>
      <text class="nucleotide" x="181.526" y="-452.794">G</text>
      <text class="nucleotide" x="166.786" y="-450.012">G</text>
      <text class="nucleotide" x="152.046" y="-447.230">A</text>
      <text class="nucleotide" x="138.105" y="-452.473">G</text>
      <text class="nucleotide" x="125.979" y="-442.310">G</text>
      <text class="nucleotide" x="110.514" y="-456.635">A</text>
      <text class="nucleotide" x="89.434" y="-456.615">C</text>
      <text class="nucleotide" x="80.500" y="-468.664">C</text>
      <text class="nucleotide" x="71.565" y="-480.712">A</text>
      <text class="nucleotide" x="78.788" y="-498.874">G</text>
      <text class="nucleotide" x="74.269" y="-517.707">A</text>
      <text class="nucleotide" x="59.857" y="-530.380">C</text>
      <text class="nucleotide" x="62.679" y="-545.112">C</text>
      <text class="nucleotide" x="65.501" y="-559.844">C</text>
      <text class="nucleotide" x="68.322" y="-574.576">C</text>
      <text class="nucleotide" x="71.144" y="-589.308">A</text>
      <text class="nucleotide" x="81.340" y="-601.406">C</text>
      <text class="nucleotide" x="76.135" y="-615.362">C</text>
      <text class="nucleotide" x="78.957" y="-630.094">A</text>
      <text class="nucleotide" x="91.318" y="-643.807">U</text>
      <text class="nucleotide" x="84.792" y="-660.144">A</text>
      <text class="nucleotide" x="87.693" y="-674.860">G</text>
      <text class="nucleotide" x="90.595" y="-689.577">A</text>
      <text class="nucleotide" x="103.030" y="-703.222">A</text>
      <text class="nucleotide" x="96.592" y="-719.595">C</text>
      <text class="nucleotide" x="99.573" y="-734.295">U</text>
      <text class="nucleotide" x="102.554" y="-748.996">U</text>
      <text class="nucleotide" x="115.063" y="-762.574">U</text>
      <text class="nucleotide" x="108.714" y="-778.981">C</text>
      <text class="nucleotide" x="111.774" y="-793.665">U</text>
      <text class="nucleotide" x="114.835" y="-808.350">U</text>
      <text class="nucleotide" x="120.563" y="-807.973">U</text>
      <text class="nucleotide" x="126.576" y="-809.069">A</text>
      <text class="nucleotide" x="132.488" y="-811.738">A</text>
      <text class="nucleotide" x="137.882" y="-815.979">A</text>
      <text class="nucleotide" x="142.344" y="-821.680">G</text>
      <text class="nucleotide" x="145.484" y="-828.620">G</text>
      <text class="nucleotide" x="146.970" y="-836.478">A</text>
      <text class="nucleotide" x="146.550" y="-844.844">U</text>
      <text class="nucleotide" x="153.204" y="-858.287">A</text>
      <text class="nucleotide" x="159.858" y="-871.731">A</text>
      <text class="nucleotide" x="166.512" y="-885.174">U</text>
      <text class="nucleotide" x="180.453" y="-893.810">G</text>
      <text class="nucleotide" x="179.674" y="-910.190">U</text>
      <text class="nucleotide" x="164.977" y="-917.465">G</text>
      <text class="nucleotide" x="151.480" y="-908.150">G</text>
      <text class="nucleotide" x="153.068" y="-891.828">A</text>
      <text class="nucleotide" x="146.414" y="-878.385">U</text>
      <text class="nucleotide" x="139.760" y="-864.941">U</text>
      <text class="nucleotide" x="133.106" y="-851.498">A</text>
      <text class="nucleotide" x="125.879" y="-853.501">C</text>
      <text class="nucleotide" x="129.885" y="-867.956">U</text>
      <text class="nucleotide" x="126.127" y="-882.478">G</text>
      <text class="nucleotide" x="115.430" y="-871.962">G</text>
      <text class="nucleotide" x="111.424" y="-857.507">G</text>
      <text class="nucleotide" x="104.196" y="-859.510">U</text>
      <text class="nucleotide" x="105.411" y="-874.461">G</text>
      <text class="nucleotide" x="115.994" y="-877.581">U</text>
      <text class="nucleotide" x="125.130" y="-883.719">U</text>
      <text class="nucleotide" x="131.987" y="-892.296">G</text>
      <text class="nucleotide" x="135.944" y="-902.510">A</text>
      <text class="nucleotide" x="136.651" y="-913.415">U</text>
      <text class="nucleotide" x="134.059" y="-924.003">G</text>
      <text class="nucleotide" x="128.422" y="-933.303">G</text>
      <text class="nucleotide" x="120.273" y="-940.465">A</text>
      <text class="nucleotide" x="110.375" y="-944.841">U</text>
      <text class="nucleotide" x="111.267" y="-959.814">C</text>
      <text class="nucleotide" x="112.159" y="-974.788">C</text>
      <text class="nucleotide" x="113.050" y="-989.761">U</text>
      <text class="nucleotide" x="113.942" y="-1004.735">G</text>
      <text class="nucleotide" x="122.486" y="-1018.050">U</text>
      <text class="nucleotide" x="115.519" y="-1031.215">U</text>
      <text class="nucleotide" x="116.411" y="-1046.189">A</text>
      <text class="nucleotide" x="120.012" y="-1054.468">A</text>
      <text class="nucleotide" x="117.266" y="-1061.245">G</text>
      <text class="nucleotide" x="118.077" y="-1076.224">C</text>
      <text class="nucleotide" x="132.020" y="-1082.535">A</text>
      <text class="nucleotide" x="141.424" y="-1094.611">A</text>
      <text class="nucleotide" x="144.128" y="-1109.676">A</text>
      <text class="nucleotide" x="139.509" y="-1124.268">U</text>
      <text class="nucleotide" x="128.630" y="-1135.034">G</text>
      <text class="nucleotide" x="113.991" y="-1139.501">C</text>
      <text class="nucleotide" x="98.955" y="-1136.641">U</text>
      <text class="nucleotide" x="86.978" y="-1127.112">U</text>
      <text class="nucleotide" x="80.811" y="-1113.103">U</text>
      <text class="nucleotide" x="81.873" y="-1097.834">U</text>
    </g>
  </g>
</svg>
